<?xml version="1.0" encoding="utf-8" standalone="no"?>
<!DOCTYPE svg PUBLIC "-//W3C//DTD SVG 1.1//EN"
  "http://www.w3.org/Graphics/SVG/1.1/DTD/svg11.dtd">
<svg xmlns:xlink="http://www.w3.org/1999/xlink" width="1000.81pt" height="845.353625pt" viewBox="0 0 1000.81 845.353625" xmlns="http://www.w3.org/2000/svg" version="1.1">
 <metadata>
  <rdf:RDF xmlns:dc="http://purl.org/dc/elements/1.1/" xmlns:cc="http://creativecommons.org/ns#" xmlns:rdf="http://www.w3.org/1999/02/22-rdf-syntax-ns#">
   <cc:Work>
    <dc:type rdf:resource="http://purl.org/dc/dcmitype/StillImage"/>
    <dc:date>2026-02-22T14:51:59.251255</dc:date>
    <dc:format>image/svg+xml</dc:format>
    <dc:creator>
     <cc:Agent>
      <dc:title>Matplotlib v3.10.8, https://matplotlib.org/</dc:title>
     </cc:Agent>
    </dc:creator>
   </cc:Work>
  </rdf:RDF>
 </metadata>
 <defs>
  <style type="text/css">*{stroke-linejoin: round; stroke-linecap: butt}</style>
 </defs>
 <g id="figure_1">
  <g id="patch_1">
   <path d="M 0 845.353625 
L 1000.81 845.353625 
L 1000.81 0 
L 0 0 
z
" style="fill: #181616"/>
  </g>
  <g id="axes_1">
   <g id="patch_2">
    <path d="M 44 421.654 
L 993.61 421.654 
L 993.61 76.92 
L 44 76.92 
z
" style="fill: #181616"/>
   </g>
   <g id="patch_3">
    <path d="M 490.764491 421.654 
L 911.205826 421.654 
L 911.205826 76.92 
L 490.764491 76.92 
z
" clip-path="url(#p4fac203124)" style="fill: #008000; opacity: 0.05; stroke: #008000; stroke-linejoin: miter"/>
   </g>
   <g id="patch_4">
    <path d="M 126.404174 421.654 
L 490.764491 421.654 
L 490.764491 76.92 
L 126.404174 76.92 
z
" clip-path="url(#p4fac203124)" style="fill: #ff0000; opacity: 0.05; stroke: #ff0000; stroke-linejoin: miter"/>
   </g>
   <g id="patch_5">
    <path d="M 490.764491 405.984273 
L 136.620228 405.984273 
L 136.620228 365.106723 
L 490.764491 365.106723 
z
" clip-path="url(#p4fac203124)" style="fill: #c4746e; stroke: #c4746e; stroke-linejoin: miter"/>
   </g>
   <g id="patch_6">
    <path d="M 490.764491 337.855024 
L 143.008592 337.855024 
L 143.008592 296.977474 
L 490.764491 296.977474 
z
" clip-path="url(#p4fac203124)" style="fill: #c4746e; stroke: #c4746e; stroke-linejoin: miter"/>
   </g>
   <g id="patch_7">
    <path d="M 490.764491 269.725775 
L 153.900081 269.725775 
L 153.900081 228.848225 
L 490.764491 228.848225 
z
" clip-path="url(#p4fac203124)" style="fill: #c4746e; stroke: #c4746e; stroke-linejoin: miter"/>
   </g>
   <g id="patch_8">
    <path d="M 490.764491 201.596526 
L 815.688333 201.596526 
L 815.688333 160.718976 
L 490.764491 160.718976 
z
" clip-path="url(#p4fac203124)" style="fill: #8a9a7b; stroke: #8a9a7b; stroke-linejoin: miter"/>
   </g>
   <g id="patch_9">
    <path d="M 490.764491 133.467277 
L 908.20113 133.467277 
L 908.20113 92.589727 
L 490.764491 92.589727 
z
" clip-path="url(#p4fac203124)" style="fill: #8a9a7b; stroke: #8a9a7b; stroke-linejoin: miter"/>
   </g>
   <g id="matplotlib.axis_1">
    <g id="xtick_1">
     <g id="line2d_1">
      <path d="M 141.856894 421.654 
L 141.856894 76.92 
" clip-path="url(#p4fac203124)" style="fill: none; stroke-dasharray: 2.96,1.28; stroke-dashoffset: 0; stroke: #625e5a; stroke-opacity: 0.3; stroke-width: 0.8"/>
     </g>
     <g id="line2d_2">
      <defs>
       <path id="m572c9a4ee1" d="M 0 0 
L 0 3.5 
" style="stroke: #c5c9c5; stroke-width: 0.8"/>
      </defs>
      <g>
       <use xlink:href="#m572c9a4ee1" x="141.856894" y="421.654" style="fill: #c5c9c5; stroke: #c5c9c5; stroke-width: 0.8"/>
      </g>
     </g>
    </g>
    <g id="xtick_2">
     <g id="line2d_3">
      <path d="M 254.005765 421.654 
L 254.005765 76.92 
" clip-path="url(#p4fac203124)" style="fill: none; stroke-dasharray: 2.96,1.28; stroke-dashoffset: 0; stroke: #625e5a; stroke-opacity: 0.3; stroke-width: 0.8"/>
     </g>
     <g id="line2d_4">
      <g>
       <use xlink:href="#m572c9a4ee1" x="254.005765" y="421.654" style="fill: #c5c9c5; stroke: #c5c9c5; stroke-width: 0.8"/>
      </g>
     </g>
    </g>
    <g id="xtick_3">
     <g id="line2d_5">
      <path d="M 366.154635 421.654 
L 366.154635 76.92 
" clip-path="url(#p4fac203124)" style="fill: none; stroke-dasharray: 2.96,1.28; stroke-dashoffset: 0; stroke: #625e5a; stroke-opacity: 0.3; stroke-width: 0.8"/>
     </g>
     <g id="line2d_6">
      <g>
       <use xlink:href="#m572c9a4ee1" x="366.154635" y="421.654" style="fill: #c5c9c5; stroke: #c5c9c5; stroke-width: 0.8"/>
      </g>
     </g>
    </g>
    <g id="xtick_4">
     <g id="line2d_7">
      <path d="M 490.764491 421.654 
L 490.764491 76.92 
" clip-path="url(#p4fac203124)" style="fill: none; stroke-dasharray: 2.96,1.28; stroke-dashoffset: 0; stroke: #625e5a; stroke-opacity: 0.3; stroke-width: 0.8"/>
     </g>
     <g id="line2d_8">
      <g>
       <use xlink:href="#m572c9a4ee1" x="490.764491" y="421.654" style="fill: #c5c9c5; stroke: #c5c9c5; stroke-width: 0.8"/>
      </g>
     </g>
    </g>
    <g id="xtick_5">
     <g id="line2d_9">
      <path d="M 615.374348 421.654 
L 615.374348 76.92 
" clip-path="url(#p4fac203124)" style="fill: none; stroke-dasharray: 2.96,1.28; stroke-dashoffset: 0; stroke: #625e5a; stroke-opacity: 0.3; stroke-width: 0.8"/>
     </g>
     <g id="line2d_10">
      <g>
       <use xlink:href="#m572c9a4ee1" x="615.374348" y="421.654" style="fill: #c5c9c5; stroke: #c5c9c5; stroke-width: 0.8"/>
      </g>
     </g>
    </g>
    <g id="xtick_6">
     <g id="line2d_11">
      <path d="M 727.523218 421.654 
L 727.523218 76.92 
" clip-path="url(#p4fac203124)" style="fill: none; stroke-dasharray: 2.96,1.28; stroke-dashoffset: 0; stroke: #625e5a; stroke-opacity: 0.3; stroke-width: 0.8"/>
     </g>
     <g id="line2d_12">
      <g>
       <use xlink:href="#m572c9a4ee1" x="727.523218" y="421.654" style="fill: #c5c9c5; stroke: #c5c9c5; stroke-width: 0.8"/>
      </g>
     </g>
    </g>
    <g id="xtick_7">
     <g id="line2d_13">
      <path d="M 839.672089 421.654 
L 839.672089 76.92 
" clip-path="url(#p4fac203124)" style="fill: none; stroke-dasharray: 2.96,1.28; stroke-dashoffset: 0; stroke: #625e5a; stroke-opacity: 0.3; stroke-width: 0.8"/>
     </g>
     <g id="line2d_14">
      <g>
       <use xlink:href="#m572c9a4ee1" x="839.672089" y="421.654" style="fill: #c5c9c5; stroke: #c5c9c5; stroke-width: 0.8"/>
      </g>
     </g>
    </g>
    <g id="xtick_8">
     <g id="line2d_15">
      <path d="M 951.820959 421.654 
L 951.820959 76.92 
" clip-path="url(#p4fac203124)" style="fill: none; stroke-dasharray: 2.96,1.28; stroke-dashoffset: 0; stroke: #625e5a; stroke-opacity: 0.3; stroke-width: 0.8"/>
     </g>
     <g id="line2d_16">
      <g>
       <use xlink:href="#m572c9a4ee1" x="951.820959" y="421.654" style="fill: #c5c9c5; stroke: #c5c9c5; stroke-width: 0.8"/>
      </g>
     </g>
    </g>
   </g>
   <g id="matplotlib.axis_2">
    <g id="ytick_1">
     <g id="line2d_17">
      <defs>
       <path id="m61337ec1b7" d="M 0 0 
L -3.5 0 
" style="stroke: #c5c9c5; stroke-width: 0.8"/>
      </defs>
      <g>
       <use xlink:href="#m61337ec1b7" x="44" y="385.545498" style="fill: #c5c9c5; stroke: #c5c9c5; stroke-width: 0.8"/>
      </g>
     </g>
     <g id="text_1">
      <!-- LLY -->
      <g style="fill: #c5c9c5" transform="translate(21.073437 389.344717) scale(0.1 -0.1)">
       <defs>
        <path id="DejaVuSans-4c" d="M 628 4666 
L 1259 4666 
L 1259 531 
L 3531 531 
L 3531 0 
L 628 0 
L 628 4666 
z
" transform="scale(0.015625)"/>
        <path id="DejaVuSans-59" d="M -13 4666 
L 666 4666 
L 1959 2747 
L 3244 4666 
L 3922 4666 
L 2272 2222 
L 2272 0 
L 1638 0 
L 1638 2222 
L -13 4666 
z
" transform="scale(0.015625)"/>
       </defs>
       <use xlink:href="#DejaVuSans-4c"/>
       <use xlink:href="#DejaVuSans-4c" transform="translate(55.712891 0)"/>
       <use xlink:href="#DejaVuSans-59" transform="translate(98.175781 0)"/>
      </g>
     </g>
    </g>
    <g id="ytick_2">
     <g id="line2d_18">
      <g>
       <use xlink:href="#m61337ec1b7" x="44" y="317.416249" style="fill: #c5c9c5; stroke: #c5c9c5; stroke-width: 0.8"/>
      </g>
     </g>
     <g id="text_2">
      <!-- AMZN -->
      <g style="fill: #c5c9c5" transform="translate(7.2 321.215468) scale(0.1 -0.1)">
       <defs>
        <path id="DejaVuSans-41" d="M 2188 4044 
L 1331 1722 
L 3047 1722 
L 2188 4044 
z
M 1831 4666 
L 2547 4666 
L 4325 0 
L 3669 0 
L 3244 1197 
L 1141 1197 
L 716 0 
L 50 0 
L 1831 4666 
z
" transform="scale(0.015625)"/>
        <path id="DejaVuSans-4d" d="M 628 4666 
L 1569 4666 
L 2759 1491 
L 3956 4666 
L 4897 4666 
L 4897 0 
L 4281 0 
L 4281 4097 
L 3078 897 
L 2444 897 
L 1241 4097 
L 1241 0 
L 628 0 
L 628 4666 
z
" transform="scale(0.015625)"/>
        <path id="DejaVuSans-5a" d="M 359 4666 
L 4025 4666 
L 4025 4184 
L 1075 531 
L 4097 531 
L 4097 0 
L 288 0 
L 288 481 
L 3238 4134 
L 359 4134 
L 359 4666 
z
" transform="scale(0.015625)"/>
        <path id="DejaVuSans-4e" d="M 628 4666 
L 1478 4666 
L 3547 763 
L 3547 4666 
L 4159 4666 
L 4159 0 
L 3309 0 
L 1241 3903 
L 1241 0 
L 628 0 
L 628 4666 
z
" transform="scale(0.015625)"/>
       </defs>
       <use xlink:href="#DejaVuSans-41"/>
       <use xlink:href="#DejaVuSans-4d" transform="translate(68.408203 0)"/>
       <use xlink:href="#DejaVuSans-5a" transform="translate(154.6875 0)"/>
       <use xlink:href="#DejaVuSans-4e" transform="translate(223.193359 0)"/>
      </g>
     </g>
    </g>
    <g id="ytick_3">
     <g id="line2d_19">
      <g>
       <use xlink:href="#m61337ec1b7" x="44" y="249.287" style="fill: #c5c9c5; stroke: #c5c9c5; stroke-width: 0.8"/>
      </g>
     </g>
     <g id="text_3">
      <!-- CBOE -->
      <g style="fill: #c5c9c5" transform="translate(9.140625 253.086219) scale(0.1 -0.1)">
       <defs>
        <path id="DejaVuSans-43" d="M 4122 4306 
L 4122 3641 
Q 3803 3938 3442 4084 
Q 3081 4231 2675 4231 
Q 1875 4231 1450 3742 
Q 1025 3253 1025 2328 
Q 1025 1406 1450 917 
Q 1875 428 2675 428 
Q 3081 428 3442 575 
Q 3803 722 4122 1019 
L 4122 359 
Q 3791 134 3420 21 
Q 3050 -91 2638 -91 
Q 1578 -91 968 557 
Q 359 1206 359 2328 
Q 359 3453 968 4101 
Q 1578 4750 2638 4750 
Q 3056 4750 3426 4639 
Q 3797 4528 4122 4306 
z
" transform="scale(0.015625)"/>
        <path id="DejaVuSans-42" d="M 1259 2228 
L 1259 519 
L 2272 519 
Q 2781 519 3026 730 
Q 3272 941 3272 1375 
Q 3272 1813 3026 2020 
Q 2781 2228 2272 2228 
L 1259 2228 
z
M 1259 4147 
L 1259 2741 
L 2194 2741 
Q 2656 2741 2882 2914 
Q 3109 3088 3109 3444 
Q 3109 3797 2882 3972 
Q 2656 4147 2194 4147 
L 1259 4147 
z
M 628 4666 
L 2241 4666 
Q 2963 4666 3353 4366 
Q 3744 4066 3744 3513 
Q 3744 3084 3544 2831 
Q 3344 2578 2956 2516 
Q 3422 2416 3680 2098 
Q 3938 1781 3938 1306 
Q 3938 681 3513 340 
Q 3088 0 2303 0 
L 628 0 
L 628 4666 
z
" transform="scale(0.015625)"/>
        <path id="DejaVuSans-4f" d="M 2522 4238 
Q 1834 4238 1429 3725 
Q 1025 3213 1025 2328 
Q 1025 1447 1429 934 
Q 1834 422 2522 422 
Q 3209 422 3611 934 
Q 4013 1447 4013 2328 
Q 4013 3213 3611 3725 
Q 3209 4238 2522 4238 
z
M 2522 4750 
Q 3503 4750 4090 4092 
Q 4678 3434 4678 2328 
Q 4678 1225 4090 567 
Q 3503 -91 2522 -91 
Q 1538 -91 948 565 
Q 359 1222 359 2328 
Q 359 3434 948 4092 
Q 1538 4750 2522 4750 
z
" transform="scale(0.015625)"/>
        <path id="DejaVuSans-45" d="M 628 4666 
L 3578 4666 
L 3578 4134 
L 1259 4134 
L 1259 2753 
L 3481 2753 
L 3481 2222 
L 1259 2222 
L 1259 531 
L 3634 531 
L 3634 0 
L 628 0 
L 628 4666 
z
" transform="scale(0.015625)"/>
       </defs>
       <use xlink:href="#DejaVuSans-43"/>
       <use xlink:href="#DejaVuSans-42" transform="translate(69.824219 0)"/>
       <use xlink:href="#DejaVuSans-4f" transform="translate(136.677734 0)"/>
       <use xlink:href="#DejaVuSans-45" transform="translate(215.388672 0)"/>
      </g>
     </g>
    </g>
    <g id="ytick_4">
     <g id="line2d_20">
      <g>
       <use xlink:href="#m61337ec1b7" x="44" y="181.157751" style="fill: #c5c9c5; stroke: #c5c9c5; stroke-width: 0.8"/>
      </g>
     </g>
     <g id="text_4">
      <!-- SFM -->
      <g style="fill: #c5c9c5" transform="translate(16.271875 184.95697) scale(0.1 -0.1)">
       <defs>
        <path id="DejaVuSans-53" d="M 3425 4513 
L 3425 3897 
Q 3066 4069 2747 4153 
Q 2428 4238 2131 4238 
Q 1616 4238 1336 4038 
Q 1056 3838 1056 3469 
Q 1056 3159 1242 3001 
Q 1428 2844 1947 2747 
L 2328 2669 
Q 3034 2534 3370 2195 
Q 3706 1856 3706 1288 
Q 3706 609 3251 259 
Q 2797 -91 1919 -91 
Q 1588 -91 1214 -16 
Q 841 59 441 206 
L 441 856 
Q 825 641 1194 531 
Q 1563 422 1919 422 
Q 2459 422 2753 634 
Q 3047 847 3047 1241 
Q 3047 1584 2836 1778 
Q 2625 1972 2144 2069 
L 1759 2144 
Q 1053 2284 737 2584 
Q 422 2884 422 3419 
Q 422 4038 858 4394 
Q 1294 4750 2059 4750 
Q 2388 4750 2728 4690 
Q 3069 4631 3425 4513 
z
" transform="scale(0.015625)"/>
        <path id="DejaVuSans-46" d="M 628 4666 
L 3309 4666 
L 3309 4134 
L 1259 4134 
L 1259 2759 
L 3109 2759 
L 3109 2228 
L 1259 2228 
L 1259 0 
L 628 0 
L 628 4666 
z
" transform="scale(0.015625)"/>
       </defs>
       <use xlink:href="#DejaVuSans-53"/>
       <use xlink:href="#DejaVuSans-46" transform="translate(63.476562 0)"/>
       <use xlink:href="#DejaVuSans-4d" transform="translate(120.996094 0)"/>
      </g>
     </g>
    </g>
    <g id="ytick_5">
     <g id="line2d_21">
      <g>
       <use xlink:href="#m61337ec1b7" x="44" y="113.028502" style="fill: #c5c9c5; stroke: #c5c9c5; stroke-width: 0.8"/>
      </g>
     </g>
     <g id="text_5">
      <!-- TAC -->
      <g style="fill: #c5c9c5" transform="translate(18.01875 116.827721) scale(0.1 -0.1)">
       <defs>
        <path id="DejaVuSans-54" d="M -19 4666 
L 3928 4666 
L 3928 4134 
L 2272 4134 
L 2272 0 
L 1638 0 
L 1638 4134 
L -19 4134 
L -19 4666 
z
" transform="scale(0.015625)"/>
       </defs>
       <use xlink:href="#DejaVuSans-54"/>
       <use xlink:href="#DejaVuSans-41" transform="translate(53.333984 0)"/>
       <use xlink:href="#DejaVuSans-43" transform="translate(119.992188 0)"/>
      </g>
     </g>
    </g>
   </g>
   <g id="line2d_22">
    <path d="M 490.764491 421.654 
L 490.764491 76.92 
" clip-path="url(#p4fac203124)" style="fill: none; stroke: #c5c9c5; stroke-width: 2; stroke-linecap: square"/>
   </g>
   <g id="patch_10">
    <path d="M 44 421.654 
L 44 76.92 
" style="fill: none; stroke: #625e5a; stroke-width: 0.8; stroke-linejoin: miter; stroke-linecap: square"/>
   </g>
   <g id="patch_11">
    <path d="M 993.61 421.654 
L 993.61 76.92 
" style="fill: none; stroke: #625e5a; stroke-width: 0.8; stroke-linejoin: miter; stroke-linecap: square"/>
   </g>
   <g id="patch_12">
    <path d="M 44 421.654 
L 993.61 421.654 
" style="fill: none; stroke: #625e5a; stroke-width: 0.8; stroke-linejoin: miter; stroke-linecap: square"/>
   </g>
   <g id="patch_13">
    <path d="M 44 76.92 
L 993.61 76.92 
" style="fill: none; stroke: #625e5a; stroke-width: 0.8; stroke-linejoin: miter; stroke-linecap: square"/>
   </g>
   <g id="text_6">
    <!-- -111.4% -->
    <g style="fill: #ffffff" transform="translate(149.770402 388.028936) scale(0.09 -0.09)">
     <defs>
      <path id="DejaVuSans-Bold-2d" d="M 347 2297 
L 2309 2297 
L 2309 1388 
L 347 1388 
L 347 2297 
z
" transform="scale(0.015625)"/>
      <path id="DejaVuSans-Bold-31" d="M 750 831 
L 1813 831 
L 1813 3847 
L 722 3622 
L 722 4441 
L 1806 4666 
L 2950 4666 
L 2950 831 
L 4013 831 
L 4013 0 
L 750 0 
L 750 831 
z
" transform="scale(0.015625)"/>
      <path id="DejaVuSans-Bold-2e" d="M 653 1209 
L 1778 1209 
L 1778 0 
L 653 0 
L 653 1209 
z
" transform="scale(0.015625)"/>
      <path id="DejaVuSans-Bold-34" d="M 2356 3675 
L 1038 1722 
L 2356 1722 
L 2356 3675 
z
M 2156 4666 
L 3494 4666 
L 3494 1722 
L 4159 1722 
L 4159 850 
L 3494 850 
L 3494 0 
L 2356 0 
L 2356 850 
L 288 850 
L 288 1881 
L 2156 4666 
z
" transform="scale(0.015625)"/>
      <path id="DejaVuSans-Bold-25" d="M 4959 1925 
Q 4738 1925 4616 1733 
Q 4494 1541 4494 1184 
Q 4494 825 4614 633 
Q 4734 441 4959 441 
Q 5184 441 5303 633 
Q 5422 825 5422 1184 
Q 5422 1541 5301 1733 
Q 5181 1925 4959 1925 
z
M 4959 2450 
Q 5541 2450 5875 2112 
Q 6209 1775 6209 1184 
Q 6209 594 5875 251 
Q 5541 -91 4959 -91 
Q 4378 -91 4042 251 
Q 3706 594 3706 1184 
Q 3706 1772 4042 2111 
Q 4378 2450 4959 2450 
z
M 2094 -91 
L 1403 -91 
L 4319 4750 
L 5013 4750 
L 2094 -91 
z
M 1453 4750 
Q 2034 4750 2367 4411 
Q 2700 4072 2700 3481 
Q 2700 2891 2367 2550 
Q 2034 2209 1453 2209 
Q 872 2209 539 2550 
Q 206 2891 206 3481 
Q 206 4072 539 4411 
Q 872 4750 1453 4750 
z
M 1453 4225 
Q 1228 4225 1106 4031 
Q 984 3838 984 3481 
Q 984 3122 1106 2926 
Q 1228 2731 1453 2731 
Q 1678 2731 1798 2926 
Q 1919 3122 1919 3481 
Q 1919 3838 1797 4031 
Q 1675 4225 1453 4225 
z
" transform="scale(0.015625)"/>
     </defs>
     <use xlink:href="#DejaVuSans-Bold-2d"/>
     <use xlink:href="#DejaVuSans-Bold-31" transform="translate(41.503906 0)"/>
     <use xlink:href="#DejaVuSans-Bold-31" transform="translate(111.083984 0)"/>
     <use xlink:href="#DejaVuSans-Bold-31" transform="translate(180.664062 0)"/>
     <use xlink:href="#DejaVuSans-Bold-2e" transform="translate(250.244141 0)"/>
     <use xlink:href="#DejaVuSans-Bold-34" transform="translate(288.232422 0)"/>
     <use xlink:href="#DejaVuSans-Bold-25" transform="translate(357.8125 0)"/>
    </g>
   </g>
   <g id="text_7">
    <!-- -97.7% -->
    <g style="fill: #ffffff" transform="translate(159.289781 319.899687) scale(0.09 -0.09)">
     <defs>
      <path id="DejaVuSans-Bold-39" d="M 641 103 
L 641 966 
Q 928 831 1190 764 
Q 1453 697 1709 697 
Q 2247 697 2547 995 
Q 2847 1294 2900 1881 
Q 2688 1725 2447 1647 
Q 2206 1569 1925 1569 
Q 1209 1569 770 1986 
Q 331 2403 331 3084 
Q 331 3838 820 4291 
Q 1309 4744 2131 4744 
Q 3044 4744 3544 4128 
Q 4044 3513 4044 2388 
Q 4044 1231 3459 570 
Q 2875 -91 1856 -91 
Q 1528 -91 1228 -42 
Q 928 6 641 103 
z
M 2125 2350 
Q 2441 2350 2600 2554 
Q 2759 2759 2759 3169 
Q 2759 3575 2600 3781 
Q 2441 3988 2125 3988 
Q 1809 3988 1650 3781 
Q 1491 3575 1491 3169 
Q 1491 2759 1650 2554 
Q 1809 2350 2125 2350 
z
" transform="scale(0.015625)"/>
      <path id="DejaVuSans-Bold-37" d="M 428 4666 
L 3944 4666 
L 3944 3988 
L 2125 0 
L 953 0 
L 2675 3781 
L 428 3781 
L 428 4666 
z
" transform="scale(0.015625)"/>
     </defs>
     <use xlink:href="#DejaVuSans-Bold-2d"/>
     <use xlink:href="#DejaVuSans-Bold-39" transform="translate(41.503906 0)"/>
     <use xlink:href="#DejaVuSans-Bold-37" transform="translate(111.083984 0)"/>
     <use xlink:href="#DejaVuSans-Bold-2e" transform="translate(180.664062 0)"/>
     <use xlink:href="#DejaVuSans-Bold-37" transform="translate(218.652344 0)"/>
     <use xlink:href="#DejaVuSans-Bold-25" transform="translate(288.232422 0)"/>
    </g>
   </g>
   <g id="text_8">
    <!-- -78.1% -->
    <g style="fill: #ffffff" transform="translate(170.181271 251.770438) scale(0.09 -0.09)">
     <defs>
      <path id="DejaVuSans-Bold-38" d="M 2228 2088 
Q 1891 2088 1709 1903 
Q 1528 1719 1528 1375 
Q 1528 1031 1709 848 
Q 1891 666 2228 666 
Q 2563 666 2741 848 
Q 2919 1031 2919 1375 
Q 2919 1722 2741 1905 
Q 2563 2088 2228 2088 
z
M 1350 2484 
Q 925 2613 709 2878 
Q 494 3144 494 3541 
Q 494 4131 934 4440 
Q 1375 4750 2228 4750 
Q 3075 4750 3515 4442 
Q 3956 4134 3956 3541 
Q 3956 3144 3739 2878 
Q 3522 2613 3097 2484 
Q 3572 2353 3814 2058 
Q 4056 1763 4056 1313 
Q 4056 619 3595 264 
Q 3134 -91 2228 -91 
Q 1319 -91 855 264 
Q 391 619 391 1313 
Q 391 1763 633 2058 
Q 875 2353 1350 2484 
z
M 1631 3419 
Q 1631 3141 1786 2991 
Q 1941 2841 2228 2841 
Q 2509 2841 2662 2991 
Q 2816 3141 2816 3419 
Q 2816 3697 2662 3845 
Q 2509 3994 2228 3994 
Q 1941 3994 1786 3844 
Q 1631 3694 1631 3419 
z
" transform="scale(0.015625)"/>
     </defs>
     <use xlink:href="#DejaVuSans-Bold-2d"/>
     <use xlink:href="#DejaVuSans-Bold-37" transform="translate(41.503906 0)"/>
     <use xlink:href="#DejaVuSans-Bold-38" transform="translate(111.083984 0)"/>
     <use xlink:href="#DejaVuSans-Bold-2e" transform="translate(180.664062 0)"/>
     <use xlink:href="#DejaVuSans-Bold-31" transform="translate(218.652344 0)"/>
     <use xlink:href="#DejaVuSans-Bold-25" transform="translate(288.232422 0)"/>
    </g>
   </g>
   <g id="text_9">
    <!-- +61.1% -->
    <g style="fill: #ffffff" transform="translate(762.545815 183.641188) scale(0.09 -0.09)">
     <defs>
      <path id="DejaVuSans-Bold-2b" d="M 3053 4013 
L 3053 2375 
L 4684 2375 
L 4684 1638 
L 3053 1638 
L 3053 0 
L 2309 0 
L 2309 1638 
L 678 1638 
L 678 2375 
L 2309 2375 
L 2309 4013 
L 3053 4013 
z
" transform="scale(0.015625)"/>
      <path id="DejaVuSans-Bold-36" d="M 2316 2303 
Q 2000 2303 1842 2098 
Q 1684 1894 1684 1484 
Q 1684 1075 1842 870 
Q 2000 666 2316 666 
Q 2634 666 2792 870 
Q 2950 1075 2950 1484 
Q 2950 1894 2792 2098 
Q 2634 2303 2316 2303 
z
M 3803 4544 
L 3803 3681 
Q 3506 3822 3243 3889 
Q 2981 3956 2731 3956 
Q 2194 3956 1894 3657 
Q 1594 3359 1544 2772 
Q 1750 2925 1990 3001 
Q 2231 3078 2516 3078 
Q 3231 3078 3670 2659 
Q 4109 2241 4109 1563 
Q 4109 813 3618 361 
Q 3128 -91 2303 -91 
Q 1394 -91 895 523 
Q 397 1138 397 2266 
Q 397 3422 980 4083 
Q 1563 4744 2578 4744 
Q 2900 4744 3203 4694 
Q 3506 4644 3803 4544 
z
" transform="scale(0.015625)"/>
     </defs>
     <use xlink:href="#DejaVuSans-Bold-2b"/>
     <use xlink:href="#DejaVuSans-Bold-36" transform="translate(83.789062 0)"/>
     <use xlink:href="#DejaVuSans-Bold-31" transform="translate(153.369141 0)"/>
     <use xlink:href="#DejaVuSans-Bold-2e" transform="translate(222.949219 0)"/>
     <use xlink:href="#DejaVuSans-Bold-31" transform="translate(260.9375 0)"/>
     <use xlink:href="#DejaVuSans-Bold-25" transform="translate(330.517578 0)"/>
    </g>
   </g>
   <g id="text_10">
    <!-- +408.4% -->
    <g style="fill: #ffffff" transform="translate(851.927596 115.511939) scale(0.09 -0.09)">
     <defs>
      <path id="DejaVuSans-Bold-30" d="M 2944 2338 
Q 2944 3213 2780 3570 
Q 2616 3928 2228 3928 
Q 1841 3928 1675 3570 
Q 1509 3213 1509 2338 
Q 1509 1453 1675 1090 
Q 1841 728 2228 728 
Q 2613 728 2778 1090 
Q 2944 1453 2944 2338 
z
M 4147 2328 
Q 4147 1169 3647 539 
Q 3147 -91 2228 -91 
Q 1306 -91 806 539 
Q 306 1169 306 2328 
Q 306 3491 806 4120 
Q 1306 4750 2228 4750 
Q 3147 4750 3647 4120 
Q 4147 3491 4147 2328 
z
" transform="scale(0.015625)"/>
     </defs>
     <use xlink:href="#DejaVuSans-Bold-2b"/>
     <use xlink:href="#DejaVuSans-Bold-34" transform="translate(83.789062 0)"/>
     <use xlink:href="#DejaVuSans-Bold-30" transform="translate(153.369141 0)"/>
     <use xlink:href="#DejaVuSans-Bold-38" transform="translate(222.949219 0)"/>
     <use xlink:href="#DejaVuSans-Bold-2e" transform="translate(292.529297 0)"/>
     <use xlink:href="#DejaVuSans-Bold-34" transform="translate(330.517578 0)"/>
     <use xlink:href="#DejaVuSans-Bold-25" transform="translate(400.097656 0)"/>
    </g>
   </g>
   <g id="text_11">
    <!-- FCFF Valuation Comparison -->
    <g style="fill: #c5c9c5" transform="translate(418.015391 61.92) scale(0.13 -0.13)">
     <defs>
      <path id="DejaVuSans-Bold-46" d="M 588 4666 
L 3834 4666 
L 3834 3756 
L 1791 3756 
L 1791 2888 
L 3713 2888 
L 3713 1978 
L 1791 1978 
L 1791 0 
L 588 0 
L 588 4666 
z
" transform="scale(0.015625)"/>
      <path id="DejaVuSans-Bold-43" d="M 4288 256 
Q 3956 84 3597 -3 
Q 3238 -91 2847 -91 
Q 1681 -91 1000 561 
Q 319 1213 319 2328 
Q 319 3447 1000 4098 
Q 1681 4750 2847 4750 
Q 3238 4750 3597 4662 
Q 3956 4575 4288 4403 
L 4288 3438 
Q 3953 3666 3628 3772 
Q 3303 3878 2944 3878 
Q 2300 3878 1931 3465 
Q 1563 3053 1563 2328 
Q 1563 1606 1931 1193 
Q 2300 781 2944 781 
Q 3303 781 3628 887 
Q 3953 994 4288 1222 
L 4288 256 
z
" transform="scale(0.015625)"/>
      <path id="DejaVuSans-Bold-20" transform="scale(0.015625)"/>
      <path id="DejaVuSans-Bold-56" d="M 31 4666 
L 1241 4666 
L 2478 1222 
L 3713 4666 
L 4922 4666 
L 3194 0 
L 1759 0 
L 31 4666 
z
" transform="scale(0.015625)"/>
      <path id="DejaVuSans-Bold-61" d="M 2106 1575 
Q 1756 1575 1579 1456 
Q 1403 1338 1403 1106 
Q 1403 894 1545 773 
Q 1688 653 1941 653 
Q 2256 653 2472 879 
Q 2688 1106 2688 1447 
L 2688 1575 
L 2106 1575 
z
M 3816 1997 
L 3816 0 
L 2688 0 
L 2688 519 
Q 2463 200 2181 54 
Q 1900 -91 1497 -91 
Q 953 -91 614 226 
Q 275 544 275 1050 
Q 275 1666 698 1953 
Q 1122 2241 2028 2241 
L 2688 2241 
L 2688 2328 
Q 2688 2594 2478 2717 
Q 2269 2841 1825 2841 
Q 1466 2841 1156 2769 
Q 847 2697 581 2553 
L 581 3406 
Q 941 3494 1303 3539 
Q 1666 3584 2028 3584 
Q 2975 3584 3395 3211 
Q 3816 2838 3816 1997 
z
" transform="scale(0.015625)"/>
      <path id="DejaVuSans-Bold-6c" d="M 538 4863 
L 1656 4863 
L 1656 0 
L 538 0 
L 538 4863 
z
" transform="scale(0.015625)"/>
      <path id="DejaVuSans-Bold-75" d="M 500 1363 
L 500 3500 
L 1625 3500 
L 1625 3150 
Q 1625 2866 1622 2436 
Q 1619 2006 1619 1863 
Q 1619 1441 1641 1255 
Q 1663 1069 1716 984 
Q 1784 875 1895 815 
Q 2006 756 2150 756 
Q 2500 756 2700 1025 
Q 2900 1294 2900 1772 
L 2900 3500 
L 4019 3500 
L 4019 0 
L 2900 0 
L 2900 506 
Q 2647 200 2364 54 
Q 2081 -91 1741 -91 
Q 1134 -91 817 281 
Q 500 653 500 1363 
z
" transform="scale(0.015625)"/>
      <path id="DejaVuSans-Bold-74" d="M 1759 4494 
L 1759 3500 
L 2913 3500 
L 2913 2700 
L 1759 2700 
L 1759 1216 
Q 1759 972 1856 886 
Q 1953 800 2241 800 
L 2816 800 
L 2816 0 
L 1856 0 
Q 1194 0 917 276 
Q 641 553 641 1216 
L 641 2700 
L 84 2700 
L 84 3500 
L 641 3500 
L 641 4494 
L 1759 4494 
z
" transform="scale(0.015625)"/>
      <path id="DejaVuSans-Bold-69" d="M 538 3500 
L 1656 3500 
L 1656 0 
L 538 0 
L 538 3500 
z
M 538 4863 
L 1656 4863 
L 1656 3950 
L 538 3950 
L 538 4863 
z
" transform="scale(0.015625)"/>
      <path id="DejaVuSans-Bold-6f" d="M 2203 2784 
Q 1831 2784 1636 2517 
Q 1441 2250 1441 1747 
Q 1441 1244 1636 976 
Q 1831 709 2203 709 
Q 2569 709 2762 976 
Q 2956 1244 2956 1747 
Q 2956 2250 2762 2517 
Q 2569 2784 2203 2784 
z
M 2203 3584 
Q 3106 3584 3614 3096 
Q 4122 2609 4122 1747 
Q 4122 884 3614 396 
Q 3106 -91 2203 -91 
Q 1297 -91 786 396 
Q 275 884 275 1747 
Q 275 2609 786 3096 
Q 1297 3584 2203 3584 
z
" transform="scale(0.015625)"/>
      <path id="DejaVuSans-Bold-6e" d="M 4056 2131 
L 4056 0 
L 2931 0 
L 2931 347 
L 2931 1631 
Q 2931 2084 2911 2256 
Q 2891 2428 2841 2509 
Q 2775 2619 2662 2680 
Q 2550 2741 2406 2741 
Q 2056 2741 1856 2470 
Q 1656 2200 1656 1722 
L 1656 0 
L 538 0 
L 538 3500 
L 1656 3500 
L 1656 2988 
Q 1909 3294 2193 3439 
Q 2478 3584 2822 3584 
Q 3428 3584 3742 3212 
Q 4056 2841 4056 2131 
z
" transform="scale(0.015625)"/>
      <path id="DejaVuSans-Bold-6d" d="M 3781 2919 
Q 3994 3244 4286 3414 
Q 4578 3584 4928 3584 
Q 5531 3584 5847 3212 
Q 6163 2841 6163 2131 
L 6163 0 
L 5038 0 
L 5038 1825 
Q 5041 1866 5042 1909 
Q 5044 1953 5044 2034 
Q 5044 2406 4934 2573 
Q 4825 2741 4581 2741 
Q 4263 2741 4089 2478 
Q 3916 2216 3909 1719 
L 3909 0 
L 2784 0 
L 2784 1825 
Q 2784 2406 2684 2573 
Q 2584 2741 2328 2741 
Q 2006 2741 1831 2477 
Q 1656 2213 1656 1722 
L 1656 0 
L 531 0 
L 531 3500 
L 1656 3500 
L 1656 2988 
Q 1863 3284 2130 3434 
Q 2397 3584 2719 3584 
Q 3081 3584 3359 3409 
Q 3638 3234 3781 2919 
z
" transform="scale(0.015625)"/>
      <path id="DejaVuSans-Bold-70" d="M 1656 506 
L 1656 -1331 
L 538 -1331 
L 538 3500 
L 1656 3500 
L 1656 2988 
Q 1888 3294 2169 3439 
Q 2450 3584 2816 3584 
Q 3463 3584 3878 3070 
Q 4294 2556 4294 1747 
Q 4294 938 3878 423 
Q 3463 -91 2816 -91 
Q 2450 -91 2169 54 
Q 1888 200 1656 506 
z
M 2400 2772 
Q 2041 2772 1848 2508 
Q 1656 2244 1656 1747 
Q 1656 1250 1848 986 
Q 2041 722 2400 722 
Q 2759 722 2948 984 
Q 3138 1247 3138 1747 
Q 3138 2247 2948 2509 
Q 2759 2772 2400 2772 
z
" transform="scale(0.015625)"/>
      <path id="DejaVuSans-Bold-72" d="M 3138 2547 
Q 2991 2616 2845 2648 
Q 2700 2681 2553 2681 
Q 2122 2681 1889 2404 
Q 1656 2128 1656 1613 
L 1656 0 
L 538 0 
L 538 3500 
L 1656 3500 
L 1656 2925 
Q 1872 3269 2151 3426 
Q 2431 3584 2822 3584 
Q 2878 3584 2943 3579 
Q 3009 3575 3134 3559 
L 3138 2547 
z
" transform="scale(0.015625)"/>
      <path id="DejaVuSans-Bold-73" d="M 3272 3391 
L 3272 2541 
Q 2913 2691 2578 2766 
Q 2244 2841 1947 2841 
Q 1628 2841 1473 2761 
Q 1319 2681 1319 2516 
Q 1319 2381 1436 2309 
Q 1553 2238 1856 2203 
L 2053 2175 
Q 2913 2066 3209 1816 
Q 3506 1566 3506 1031 
Q 3506 472 3093 190 
Q 2681 -91 1863 -91 
Q 1516 -91 1145 -36 
Q 775 19 384 128 
L 384 978 
Q 719 816 1070 734 
Q 1422 653 1784 653 
Q 2113 653 2278 743 
Q 2444 834 2444 1013 
Q 2444 1163 2330 1236 
Q 2216 1309 1875 1350 
L 1678 1375 
Q 931 1469 631 1722 
Q 331 1975 331 2491 
Q 331 3047 712 3315 
Q 1094 3584 1881 3584 
Q 2191 3584 2531 3537 
Q 2872 3491 3272 3391 
z
" transform="scale(0.015625)"/>
     </defs>
     <use xlink:href="#DejaVuSans-Bold-46"/>
     <use xlink:href="#DejaVuSans-Bold-43" transform="translate(68.310547 0)"/>
     <use xlink:href="#DejaVuSans-Bold-46" transform="translate(141.699219 0)"/>
     <use xlink:href="#DejaVuSans-Bold-46" transform="translate(210.009766 0)"/>
     <use xlink:href="#DejaVuSans-Bold-20" transform="translate(278.320312 0)"/>
     <use xlink:href="#DejaVuSans-Bold-56" transform="translate(313.134766 0)"/>
     <use xlink:href="#DejaVuSans-Bold-61" transform="translate(385.027344 0)"/>
     <use xlink:href="#DejaVuSans-Bold-6c" transform="translate(452.507812 0)"/>
     <use xlink:href="#DejaVuSans-Bold-75" transform="translate(486.785156 0)"/>
     <use xlink:href="#DejaVuSans-Bold-61" transform="translate(557.976562 0)"/>
     <use xlink:href="#DejaVuSans-Bold-74" transform="translate(625.457031 0)"/>
     <use xlink:href="#DejaVuSans-Bold-69" transform="translate(673.259766 0)"/>
     <use xlink:href="#DejaVuSans-Bold-6f" transform="translate(707.537109 0)"/>
     <use xlink:href="#DejaVuSans-Bold-6e" transform="translate(776.238281 0)"/>
     <use xlink:href="#DejaVuSans-Bold-20" transform="translate(847.429688 0)"/>
     <use xlink:href="#DejaVuSans-Bold-43" transform="translate(882.244141 0)"/>
     <use xlink:href="#DejaVuSans-Bold-6f" transform="translate(955.632812 0)"/>
     <use xlink:href="#DejaVuSans-Bold-6d" transform="translate(1024.333984 0)"/>
     <use xlink:href="#DejaVuSans-Bold-70" transform="translate(1128.533203 0)"/>
     <use xlink:href="#DejaVuSans-Bold-61" transform="translate(1200.115234 0)"/>
     <use xlink:href="#DejaVuSans-Bold-72" transform="translate(1267.595703 0)"/>
     <use xlink:href="#DejaVuSans-Bold-69" transform="translate(1316.912109 0)"/>
     <use xlink:href="#DejaVuSans-Bold-73" transform="translate(1351.189453 0)"/>
     <use xlink:href="#DejaVuSans-Bold-6f" transform="translate(1410.710938 0)"/>
     <use xlink:href="#DejaVuSans-Bold-6e" transform="translate(1479.412109 0)"/>
    </g>
   </g>
   <g id="legend_1">
    <g id="patch_14">
     <path d="M 900.970469 417.154 
L 987.31 417.154 
Q 989.11 417.154 989.11 415.354 
L 989.11 389.833375 
Q 989.11 388.033375 987.31 388.033375 
L 900.970469 388.033375 
Q 899.170469 388.033375 899.170469 389.833375 
L 899.170469 415.354 
Q 899.170469 417.154 900.970469 417.154 
z
" style="fill: #181616; opacity: 0.9; stroke: #625e5a; stroke-linejoin: miter"/>
    </g>
    <g id="patch_15">
     <path d="M 902.770469 398.471969 
L 920.770469 398.471969 
L 920.770469 392.171969 
L 902.770469 392.171969 
z
" style="fill: #8a9a7b; stroke: #c5c9c5; stroke-linejoin: miter"/>
    </g>
    <g id="text_12">
     <!-- Undervalued -->
     <g style="fill: #c5c9c5" transform="translate(927.970469 398.471969) scale(0.09 -0.09)">
      <defs>
       <path id="DejaVuSans-55" d="M 556 4666 
L 1191 4666 
L 1191 1831 
Q 1191 1081 1462 751 
Q 1734 422 2344 422 
Q 2950 422 3222 751 
Q 3494 1081 3494 1831 
L 3494 4666 
L 4128 4666 
L 4128 1753 
Q 4128 841 3676 375 
Q 3225 -91 2344 -91 
Q 1459 -91 1007 375 
Q 556 841 556 1753 
L 556 4666 
z
" transform="scale(0.015625)"/>
       <path id="DejaVuSans-6e" d="M 3513 2113 
L 3513 0 
L 2938 0 
L 2938 2094 
Q 2938 2591 2744 2837 
Q 2550 3084 2163 3084 
Q 1697 3084 1428 2787 
Q 1159 2491 1159 1978 
L 1159 0 
L 581 0 
L 581 3500 
L 1159 3500 
L 1159 2956 
Q 1366 3272 1645 3428 
Q 1925 3584 2291 3584 
Q 2894 3584 3203 3211 
Q 3513 2838 3513 2113 
z
" transform="scale(0.015625)"/>
       <path id="DejaVuSans-64" d="M 2906 2969 
L 2906 4863 
L 3481 4863 
L 3481 0 
L 2906 0 
L 2906 525 
Q 2725 213 2448 61 
Q 2172 -91 1784 -91 
Q 1150 -91 751 415 
Q 353 922 353 1747 
Q 353 2572 751 3078 
Q 1150 3584 1784 3584 
Q 2172 3584 2448 3432 
Q 2725 3281 2906 2969 
z
M 947 1747 
Q 947 1113 1208 752 
Q 1469 391 1925 391 
Q 2381 391 2643 752 
Q 2906 1113 2906 1747 
Q 2906 2381 2643 2742 
Q 2381 3103 1925 3103 
Q 1469 3103 1208 2742 
Q 947 2381 947 1747 
z
" transform="scale(0.015625)"/>
       <path id="DejaVuSans-65" d="M 3597 1894 
L 3597 1613 
L 953 1613 
Q 991 1019 1311 708 
Q 1631 397 2203 397 
Q 2534 397 2845 478 
Q 3156 559 3463 722 
L 3463 178 
Q 3153 47 2828 -22 
Q 2503 -91 2169 -91 
Q 1331 -91 842 396 
Q 353 884 353 1716 
Q 353 2575 817 3079 
Q 1281 3584 2069 3584 
Q 2775 3584 3186 3129 
Q 3597 2675 3597 1894 
z
M 3022 2063 
Q 3016 2534 2758 2815 
Q 2500 3097 2075 3097 
Q 1594 3097 1305 2825 
Q 1016 2553 972 2059 
L 3022 2063 
z
" transform="scale(0.015625)"/>
       <path id="DejaVuSans-72" d="M 2631 2963 
Q 2534 3019 2420 3045 
Q 2306 3072 2169 3072 
Q 1681 3072 1420 2755 
Q 1159 2438 1159 1844 
L 1159 0 
L 581 0 
L 581 3500 
L 1159 3500 
L 1159 2956 
Q 1341 3275 1631 3429 
Q 1922 3584 2338 3584 
Q 2397 3584 2469 3576 
Q 2541 3569 2628 3553 
L 2631 2963 
z
" transform="scale(0.015625)"/>
       <path id="DejaVuSans-76" d="M 191 3500 
L 800 3500 
L 1894 563 
L 2988 3500 
L 3597 3500 
L 2284 0 
L 1503 0 
L 191 3500 
z
" transform="scale(0.015625)"/>
       <path id="DejaVuSans-61" d="M 2194 1759 
Q 1497 1759 1228 1600 
Q 959 1441 959 1056 
Q 959 750 1161 570 
Q 1363 391 1709 391 
Q 2188 391 2477 730 
Q 2766 1069 2766 1631 
L 2766 1759 
L 2194 1759 
z
M 3341 1997 
L 3341 0 
L 2766 0 
L 2766 531 
Q 2569 213 2275 61 
Q 1981 -91 1556 -91 
Q 1019 -91 701 211 
Q 384 513 384 1019 
Q 384 1609 779 1909 
Q 1175 2209 1959 2209 
L 2766 2209 
L 2766 2266 
Q 2766 2663 2505 2880 
Q 2244 3097 1772 3097 
Q 1472 3097 1187 3025 
Q 903 2953 641 2809 
L 641 3341 
Q 956 3463 1253 3523 
Q 1550 3584 1831 3584 
Q 2591 3584 2966 3190 
Q 3341 2797 3341 1997 
z
" transform="scale(0.015625)"/>
       <path id="DejaVuSans-6c" d="M 603 4863 
L 1178 4863 
L 1178 0 
L 603 0 
L 603 4863 
z
" transform="scale(0.015625)"/>
       <path id="DejaVuSans-75" d="M 544 1381 
L 544 3500 
L 1119 3500 
L 1119 1403 
Q 1119 906 1312 657 
Q 1506 409 1894 409 
Q 2359 409 2629 706 
Q 2900 1003 2900 1516 
L 2900 3500 
L 3475 3500 
L 3475 0 
L 2900 0 
L 2900 538 
Q 2691 219 2414 64 
Q 2138 -91 1772 -91 
Q 1169 -91 856 284 
Q 544 659 544 1381 
z
M 1991 3584 
L 1991 3584 
z
" transform="scale(0.015625)"/>
      </defs>
      <use xlink:href="#DejaVuSans-55"/>
      <use xlink:href="#DejaVuSans-6e" transform="translate(73.193359 0)"/>
      <use xlink:href="#DejaVuSans-64" transform="translate(136.572266 0)"/>
      <use xlink:href="#DejaVuSans-65" transform="translate(200.048828 0)"/>
      <use xlink:href="#DejaVuSans-72" transform="translate(261.572266 0)"/>
      <use xlink:href="#DejaVuSans-76" transform="translate(302.685547 0)"/>
      <use xlink:href="#DejaVuSans-61" transform="translate(361.865234 0)"/>
      <use xlink:href="#DejaVuSans-6c" transform="translate(423.144531 0)"/>
      <use xlink:href="#DejaVuSans-75" transform="translate(450.927734 0)"/>
      <use xlink:href="#DejaVuSans-65" transform="translate(514.306641 0)"/>
      <use xlink:href="#DejaVuSans-64" transform="translate(575.830078 0)"/>
     </g>
    </g>
    <g id="patch_16">
     <path d="M 902.770469 411.682281 
L 920.770469 411.682281 
L 920.770469 405.382281 
L 902.770469 405.382281 
z
" style="fill: #c4746e; stroke: #c5c9c5; stroke-linejoin: miter"/>
    </g>
    <g id="text_13">
     <!-- Overvalued -->
     <g style="fill: #c5c9c5" transform="translate(927.970469 411.682281) scale(0.09 -0.09)">
      <use xlink:href="#DejaVuSans-4f"/>
      <use xlink:href="#DejaVuSans-76" transform="translate(78.710938 0)"/>
      <use xlink:href="#DejaVuSans-65" transform="translate(137.890625 0)"/>
      <use xlink:href="#DejaVuSans-72" transform="translate(199.414062 0)"/>
      <use xlink:href="#DejaVuSans-76" transform="translate(240.527344 0)"/>
      <use xlink:href="#DejaVuSans-61" transform="translate(299.707031 0)"/>
      <use xlink:href="#DejaVuSans-6c" transform="translate(360.986328 0)"/>
      <use xlink:href="#DejaVuSans-75" transform="translate(388.769531 0)"/>
      <use xlink:href="#DejaVuSans-65" transform="translate(452.148438 0)"/>
      <use xlink:href="#DejaVuSans-64" transform="translate(513.671875 0)"/>
     </g>
    </g>
   </g>
  </g>
  <g id="axes_2">
   <g id="patch_17">
    <path d="M 44 805.768 
L 993.61 805.768 
L 993.61 461.034 
L 44 461.034 
z
" style="fill: #181616"/>
   </g>
   <g id="patch_18">
    <path d="M 490.764491 805.768 
L 950.445909 805.768 
L 950.445909 461.034 
L 490.764491 461.034 
z
" clip-path="url(#p82d37d4493)" style="fill: #008000; opacity: 0.05; stroke: #008000; stroke-linejoin: miter"/>
   </g>
   <g id="patch_19">
    <path d="M 87.164091 805.768 
L 490.764491 805.768 
L 490.764491 461.034 
L 87.164091 461.034 
z
" clip-path="url(#p82d37d4493)" style="fill: #ff0000; opacity: 0.05; stroke: #ff0000; stroke-linejoin: miter"/>
   </g>
   <g id="patch_20">
    <path d="M 490.764491 790.098273 
L 133.611096 790.098273 
L 133.611096 749.220723 
L 490.764491 749.220723 
z
" clip-path="url(#p82d37d4493)" style="fill: #c4746e; stroke: #c4746e; stroke-linejoin: miter"/>
   </g>
   <g id="patch_21">
    <path d="M 490.764491 721.969024 
L 150.57637 721.969024 
L 150.57637 681.091474 
L 490.764491 681.091474 
z
" clip-path="url(#p82d37d4493)" style="fill: #c4746e; stroke: #c4746e; stroke-linejoin: miter"/>
   </g>
   <g id="patch_22">
    <path d="M 490.764491 653.839775 
L 153.517028 653.839775 
L 153.517028 612.962225 
L 490.764491 612.962225 
z
" clip-path="url(#p82d37d4493)" style="fill: #c4746e; stroke: #c4746e; stroke-linejoin: miter"/>
   </g>
   <g id="patch_23">
    <path d="M 490.764491 585.710526 
L 791.909799 585.710526 
L 791.909799 544.832976 
L 490.764491 544.832976 
z
" clip-path="url(#p82d37d4493)" style="fill: #8a9a7b; stroke: #8a9a7b; stroke-linejoin: miter"/>
   </g>
   <g id="patch_24">
    <path d="M 490.764491 517.581277 
L 867.226552 517.581277 
L 867.226552 476.703727 
L 490.764491 476.703727 
z
" clip-path="url(#p82d37d4493)" style="fill: #8a9a7b; stroke: #8a9a7b; stroke-linejoin: miter"/>
   </g>
   <g id="matplotlib.axis_3">
    <g id="xtick_9">
     <g id="line2d_23">
      <path d="M 141.856894 805.768 
L 141.856894 461.034 
" clip-path="url(#p82d37d4493)" style="fill: none; stroke-dasharray: 2.96,1.28; stroke-dashoffset: 0; stroke: #625e5a; stroke-opacity: 0.3; stroke-width: 0.8"/>
     </g>
     <g id="line2d_24">
      <g>
       <use xlink:href="#m572c9a4ee1" x="141.856894" y="805.768" style="fill: #c5c9c5; stroke: #c5c9c5; stroke-width: 0.8"/>
      </g>
     </g>
     <g id="text_14">
      <!-- $\mathdefault{-10^{2}}$ -->
      <g style="fill: #c5c9c5" transform="translate(128.856894 820.366437) scale(0.1 -0.1)">
       <defs>
        <path id="DejaVuSans-2212" d="M 678 2272 
L 4684 2272 
L 4684 1741 
L 678 1741 
L 678 2272 
z
" transform="scale(0.015625)"/>
        <path id="DejaVuSans-31" d="M 794 531 
L 1825 531 
L 1825 4091 
L 703 3866 
L 703 4441 
L 1819 4666 
L 2450 4666 
L 2450 531 
L 3481 531 
L 3481 0 
L 794 0 
L 794 531 
z
" transform="scale(0.015625)"/>
        <path id="DejaVuSans-30" d="M 2034 4250 
Q 1547 4250 1301 3770 
Q 1056 3291 1056 2328 
Q 1056 1369 1301 889 
Q 1547 409 2034 409 
Q 2525 409 2770 889 
Q 3016 1369 3016 2328 
Q 3016 3291 2770 3770 
Q 2525 4250 2034 4250 
z
M 2034 4750 
Q 2819 4750 3233 4129 
Q 3647 3509 3647 2328 
Q 3647 1150 3233 529 
Q 2819 -91 2034 -91 
Q 1250 -91 836 529 
Q 422 1150 422 2328 
Q 422 3509 836 4129 
Q 1250 4750 2034 4750 
z
" transform="scale(0.015625)"/>
        <path id="DejaVuSans-32" d="M 1228 531 
L 3431 531 
L 3431 0 
L 469 0 
L 469 531 
Q 828 903 1448 1529 
Q 2069 2156 2228 2338 
Q 2531 2678 2651 2914 
Q 2772 3150 2772 3378 
Q 2772 3750 2511 3984 
Q 2250 4219 1831 4219 
Q 1534 4219 1204 4116 
Q 875 4013 500 3803 
L 500 4441 
Q 881 4594 1212 4672 
Q 1544 4750 1819 4750 
Q 2544 4750 2975 4387 
Q 3406 4025 3406 3419 
Q 3406 3131 3298 2873 
Q 3191 2616 2906 2266 
Q 2828 2175 2409 1742 
Q 1991 1309 1228 531 
z
" transform="scale(0.015625)"/>
       </defs>
       <use xlink:href="#DejaVuSans-2212" transform="translate(0 0.765625)"/>
       <use xlink:href="#DejaVuSans-31" transform="translate(83.789062 0.765625)"/>
       <use xlink:href="#DejaVuSans-30" transform="translate(147.412109 0.765625)"/>
       <use xlink:href="#DejaVuSans-32" transform="translate(211.992188 39.046875) scale(0.7)"/>
      </g>
     </g>
    </g>
    <g id="xtick_10">
     <g id="line2d_25">
      <path d="M 254.005765 805.768 
L 254.005765 461.034 
" clip-path="url(#p82d37d4493)" style="fill: none; stroke-dasharray: 2.96,1.28; stroke-dashoffset: 0; stroke: #625e5a; stroke-opacity: 0.3; stroke-width: 0.8"/>
     </g>
     <g id="line2d_26">
      <g>
       <use xlink:href="#m572c9a4ee1" x="254.005765" y="805.768" style="fill: #c5c9c5; stroke: #c5c9c5; stroke-width: 0.8"/>
      </g>
     </g>
     <g id="text_15">
      <!-- $\mathdefault{-10^{1}}$ -->
      <g style="fill: #c5c9c5" transform="translate(241.005765 820.366437) scale(0.1 -0.1)">
       <use xlink:href="#DejaVuSans-2212" transform="translate(0 0.684375)"/>
       <use xlink:href="#DejaVuSans-31" transform="translate(83.789062 0.684375)"/>
       <use xlink:href="#DejaVuSans-30" transform="translate(147.412109 0.684375)"/>
       <use xlink:href="#DejaVuSans-31" transform="translate(211.992188 38.965625) scale(0.7)"/>
      </g>
     </g>
    </g>
    <g id="xtick_11">
     <g id="line2d_27">
      <path d="M 366.154635 805.768 
L 366.154635 461.034 
" clip-path="url(#p82d37d4493)" style="fill: none; stroke-dasharray: 2.96,1.28; stroke-dashoffset: 0; stroke: #625e5a; stroke-opacity: 0.3; stroke-width: 0.8"/>
     </g>
     <g id="line2d_28">
      <g>
       <use xlink:href="#m572c9a4ee1" x="366.154635" y="805.768" style="fill: #c5c9c5; stroke: #c5c9c5; stroke-width: 0.8"/>
      </g>
     </g>
     <g id="text_16">
      <!-- $\mathdefault{-10^{0}}$ -->
      <g style="fill: #c5c9c5" transform="translate(353.154635 820.366437) scale(0.1 -0.1)">
       <use xlink:href="#DejaVuSans-2212" transform="translate(0 0.765625)"/>
       <use xlink:href="#DejaVuSans-31" transform="translate(83.789062 0.765625)"/>
       <use xlink:href="#DejaVuSans-30" transform="translate(147.412109 0.765625)"/>
       <use xlink:href="#DejaVuSans-30" transform="translate(211.992188 39.046875) scale(0.7)"/>
      </g>
     </g>
    </g>
    <g id="xtick_12">
     <g id="line2d_29">
      <path d="M 490.764491 805.768 
L 490.764491 461.034 
" clip-path="url(#p82d37d4493)" style="fill: none; stroke-dasharray: 2.96,1.28; stroke-dashoffset: 0; stroke: #625e5a; stroke-opacity: 0.3; stroke-width: 0.8"/>
     </g>
     <g id="line2d_30">
      <g>
       <use xlink:href="#m572c9a4ee1" x="490.764491" y="805.768" style="fill: #c5c9c5; stroke: #c5c9c5; stroke-width: 0.8"/>
      </g>
     </g>
     <g id="text_17">
      <!-- $\mathdefault{0}$ -->
      <g style="fill: #c5c9c5" transform="translate(487.564491 820.366437) scale(0.1 -0.1)">
       <use xlink:href="#DejaVuSans-30" transform="translate(0 0.78125)"/>
      </g>
     </g>
    </g>
    <g id="xtick_13">
     <g id="line2d_31">
      <path d="M 615.374348 805.768 
L 615.374348 461.034 
" clip-path="url(#p82d37d4493)" style="fill: none; stroke-dasharray: 2.96,1.28; stroke-dashoffset: 0; stroke: #625e5a; stroke-opacity: 0.3; stroke-width: 0.8"/>
     </g>
     <g id="line2d_32">
      <g>
       <use xlink:href="#m572c9a4ee1" x="615.374348" y="805.768" style="fill: #c5c9c5; stroke: #c5c9c5; stroke-width: 0.8"/>
      </g>
     </g>
     <g id="text_18">
      <!-- $\mathdefault{10^{0}}$ -->
      <g style="fill: #c5c9c5" transform="translate(606.574348 820.366437) scale(0.1 -0.1)">
       <use xlink:href="#DejaVuSans-31" transform="translate(0 0.765625)"/>
       <use xlink:href="#DejaVuSans-30" transform="translate(63.623047 0.765625)"/>
       <use xlink:href="#DejaVuSans-30" transform="translate(128.203125 39.046875) scale(0.7)"/>
      </g>
     </g>
    </g>
    <g id="xtick_14">
     <g id="line2d_33">
      <path d="M 727.523218 805.768 
L 727.523218 461.034 
" clip-path="url(#p82d37d4493)" style="fill: none; stroke-dasharray: 2.96,1.28; stroke-dashoffset: 0; stroke: #625e5a; stroke-opacity: 0.3; stroke-width: 0.8"/>
     </g>
     <g id="line2d_34">
      <g>
       <use xlink:href="#m572c9a4ee1" x="727.523218" y="805.768" style="fill: #c5c9c5; stroke: #c5c9c5; stroke-width: 0.8"/>
      </g>
     </g>
     <g id="text_19">
      <!-- $\mathdefault{10^{1}}$ -->
      <g style="fill: #c5c9c5" transform="translate(718.723218 820.366437) scale(0.1 -0.1)">
       <use xlink:href="#DejaVuSans-31" transform="translate(0 0.684375)"/>
       <use xlink:href="#DejaVuSans-30" transform="translate(63.623047 0.684375)"/>
       <use xlink:href="#DejaVuSans-31" transform="translate(128.203125 38.965625) scale(0.7)"/>
      </g>
     </g>
    </g>
    <g id="xtick_15">
     <g id="line2d_35">
      <path d="M 839.672089 805.768 
L 839.672089 461.034 
" clip-path="url(#p82d37d4493)" style="fill: none; stroke-dasharray: 2.96,1.28; stroke-dashoffset: 0; stroke: #625e5a; stroke-opacity: 0.3; stroke-width: 0.8"/>
     </g>
     <g id="line2d_36">
      <g>
       <use xlink:href="#m572c9a4ee1" x="839.672089" y="805.768" style="fill: #c5c9c5; stroke: #c5c9c5; stroke-width: 0.8"/>
      </g>
     </g>
     <g id="text_20">
      <!-- $\mathdefault{10^{2}}$ -->
      <g style="fill: #c5c9c5" transform="translate(830.872089 820.366437) scale(0.1 -0.1)">
       <use xlink:href="#DejaVuSans-31" transform="translate(0 0.765625)"/>
       <use xlink:href="#DejaVuSans-30" transform="translate(63.623047 0.765625)"/>
       <use xlink:href="#DejaVuSans-32" transform="translate(128.203125 39.046875) scale(0.7)"/>
      </g>
     </g>
    </g>
    <g id="xtick_16">
     <g id="line2d_37">
      <path d="M 951.820959 805.768 
L 951.820959 461.034 
" clip-path="url(#p82d37d4493)" style="fill: none; stroke-dasharray: 2.96,1.28; stroke-dashoffset: 0; stroke: #625e5a; stroke-opacity: 0.3; stroke-width: 0.8"/>
     </g>
     <g id="line2d_38">
      <g>
       <use xlink:href="#m572c9a4ee1" x="951.820959" y="805.768" style="fill: #c5c9c5; stroke: #c5c9c5; stroke-width: 0.8"/>
      </g>
     </g>
     <g id="text_21">
      <!-- $\mathdefault{10^{3}}$ -->
      <g style="fill: #c5c9c5" transform="translate(943.020959 820.366437) scale(0.1 -0.1)">
       <defs>
        <path id="DejaVuSans-33" d="M 2597 2516 
Q 3050 2419 3304 2112 
Q 3559 1806 3559 1356 
Q 3559 666 3084 287 
Q 2609 -91 1734 -91 
Q 1441 -91 1130 -33 
Q 819 25 488 141 
L 488 750 
Q 750 597 1062 519 
Q 1375 441 1716 441 
Q 2309 441 2620 675 
Q 2931 909 2931 1356 
Q 2931 1769 2642 2001 
Q 2353 2234 1838 2234 
L 1294 2234 
L 1294 2753 
L 1863 2753 
Q 2328 2753 2575 2939 
Q 2822 3125 2822 3475 
Q 2822 3834 2567 4026 
Q 2313 4219 1838 4219 
Q 1578 4219 1281 4162 
Q 984 4106 628 3988 
L 628 4550 
Q 988 4650 1302 4700 
Q 1616 4750 1894 4750 
Q 2613 4750 3031 4423 
Q 3450 4097 3450 3541 
Q 3450 3153 3228 2886 
Q 3006 2619 2597 2516 
z
" transform="scale(0.015625)"/>
       </defs>
       <use xlink:href="#DejaVuSans-31" transform="translate(0 0.765625)"/>
       <use xlink:href="#DejaVuSans-30" transform="translate(63.623047 0.765625)"/>
       <use xlink:href="#DejaVuSans-33" transform="translate(128.203125 39.046875) scale(0.7)"/>
      </g>
     </g>
    </g>
    <g id="text_22">
     <!-- Surplus / Discount (%, log scale) -->
     <g style="fill: #c5c9c5" transform="translate(409.17375 835.56425) scale(0.12 -0.12)">
      <defs>
       <path id="DejaVuSans-Bold-53" d="M 3834 4519 
L 3834 3531 
Q 3450 3703 3084 3790 
Q 2719 3878 2394 3878 
Q 1963 3878 1756 3759 
Q 1550 3641 1550 3391 
Q 1550 3203 1689 3098 
Q 1828 2994 2194 2919 
L 2706 2816 
Q 3484 2659 3812 2340 
Q 4141 2022 4141 1434 
Q 4141 663 3683 286 
Q 3225 -91 2284 -91 
Q 1841 -91 1394 -6 
Q 947 78 500 244 
L 500 1259 
Q 947 1022 1364 901 
Q 1781 781 2169 781 
Q 2563 781 2772 912 
Q 2981 1044 2981 1288 
Q 2981 1506 2839 1625 
Q 2697 1744 2272 1838 
L 1806 1941 
Q 1106 2091 782 2419 
Q 459 2747 459 3303 
Q 459 4000 909 4375 
Q 1359 4750 2203 4750 
Q 2588 4750 2994 4692 
Q 3400 4634 3834 4519 
z
" transform="scale(0.015625)"/>
       <path id="DejaVuSans-Bold-2f" d="M 1644 4666 
L 2338 4666 
L 691 -594 
L 0 -594 
L 1644 4666 
z
" transform="scale(0.015625)"/>
       <path id="DejaVuSans-Bold-44" d="M 1791 3756 
L 1791 909 
L 2222 909 
Q 2959 909 3348 1275 
Q 3738 1641 3738 2338 
Q 3738 3031 3350 3393 
Q 2963 3756 2222 3756 
L 1791 3756 
z
M 588 4666 
L 1856 4666 
Q 2919 4666 3439 4514 
Q 3959 4363 4331 4000 
Q 4659 3684 4818 3271 
Q 4978 2859 4978 2338 
Q 4978 1809 4818 1395 
Q 4659 981 4331 666 
Q 3956 303 3431 151 
Q 2906 0 1856 0 
L 588 0 
L 588 4666 
z
" transform="scale(0.015625)"/>
       <path id="DejaVuSans-Bold-63" d="M 3366 3391 
L 3366 2478 
Q 3138 2634 2908 2709 
Q 2678 2784 2431 2784 
Q 1963 2784 1702 2511 
Q 1441 2238 1441 1747 
Q 1441 1256 1702 982 
Q 1963 709 2431 709 
Q 2694 709 2930 787 
Q 3166 866 3366 1019 
L 3366 103 
Q 3103 6 2833 -42 
Q 2563 -91 2291 -91 
Q 1344 -91 809 395 
Q 275 881 275 1747 
Q 275 2613 809 3098 
Q 1344 3584 2291 3584 
Q 2566 3584 2833 3536 
Q 3100 3488 3366 3391 
z
" transform="scale(0.015625)"/>
       <path id="DejaVuSans-Bold-28" d="M 2413 -844 
L 1484 -844 
Q 1006 -72 778 623 
Q 550 1319 550 2003 
Q 550 2688 779 3389 
Q 1009 4091 1484 4856 
L 2413 4856 
Q 2013 4116 1813 3408 
Q 1613 2700 1613 2009 
Q 1613 1319 1811 609 
Q 2009 -100 2413 -844 
z
" transform="scale(0.015625)"/>
       <path id="DejaVuSans-Bold-2c" d="M 653 1209 
L 1778 1209 
L 1778 256 
L 1006 -909 
L 341 -909 
L 653 256 
L 653 1209 
z
" transform="scale(0.015625)"/>
       <path id="DejaVuSans-Bold-67" d="M 2919 594 
Q 2688 288 2409 144 
Q 2131 0 1766 0 
Q 1125 0 706 504 
Q 288 1009 288 1791 
Q 288 2575 706 3076 
Q 1125 3578 1766 3578 
Q 2131 3578 2409 3434 
Q 2688 3291 2919 2981 
L 2919 3500 
L 4044 3500 
L 4044 353 
Q 4044 -491 3511 -936 
Q 2978 -1381 1966 -1381 
Q 1638 -1381 1331 -1331 
Q 1025 -1281 716 -1178 
L 716 -306 
Q 1009 -475 1290 -558 
Q 1572 -641 1856 -641 
Q 2406 -641 2662 -400 
Q 2919 -159 2919 353 
L 2919 594 
z
M 2181 2772 
Q 1834 2772 1640 2515 
Q 1447 2259 1447 1791 
Q 1447 1309 1634 1061 
Q 1822 813 2181 813 
Q 2531 813 2725 1069 
Q 2919 1325 2919 1791 
Q 2919 2259 2725 2515 
Q 2531 2772 2181 2772 
z
" transform="scale(0.015625)"/>
       <path id="DejaVuSans-Bold-65" d="M 4031 1759 
L 4031 1441 
L 1416 1441 
Q 1456 1047 1700 850 
Q 1944 653 2381 653 
Q 2734 653 3104 758 
Q 3475 863 3866 1075 
L 3866 213 
Q 3469 63 3072 -14 
Q 2675 -91 2278 -91 
Q 1328 -91 801 392 
Q 275 875 275 1747 
Q 275 2603 792 3093 
Q 1309 3584 2216 3584 
Q 3041 3584 3536 3087 
Q 4031 2591 4031 1759 
z
M 2881 2131 
Q 2881 2450 2695 2645 
Q 2509 2841 2209 2841 
Q 1884 2841 1681 2658 
Q 1478 2475 1428 2131 
L 2881 2131 
z
" transform="scale(0.015625)"/>
       <path id="DejaVuSans-Bold-29" d="M 513 -844 
Q 913 -100 1113 609 
Q 1313 1319 1313 2009 
Q 1313 2700 1113 3408 
Q 913 4116 513 4856 
L 1441 4856 
Q 1916 4091 2145 3389 
Q 2375 2688 2375 2003 
Q 2375 1319 2147 623 
Q 1919 -72 1441 -844 
L 513 -844 
z
" transform="scale(0.015625)"/>
      </defs>
      <use xlink:href="#DejaVuSans-Bold-53"/>
      <use xlink:href="#DejaVuSans-Bold-75" transform="translate(72.021484 0)"/>
      <use xlink:href="#DejaVuSans-Bold-72" transform="translate(143.212891 0)"/>
      <use xlink:href="#DejaVuSans-Bold-70" transform="translate(192.529297 0)"/>
      <use xlink:href="#DejaVuSans-Bold-6c" transform="translate(264.111328 0)"/>
      <use xlink:href="#DejaVuSans-Bold-75" transform="translate(298.388672 0)"/>
      <use xlink:href="#DejaVuSans-Bold-73" transform="translate(369.580078 0)"/>
      <use xlink:href="#DejaVuSans-Bold-20" transform="translate(429.101562 0)"/>
      <use xlink:href="#DejaVuSans-Bold-2f" transform="translate(463.916016 0)"/>
      <use xlink:href="#DejaVuSans-Bold-20" transform="translate(500.439453 0)"/>
      <use xlink:href="#DejaVuSans-Bold-44" transform="translate(535.253906 0)"/>
      <use xlink:href="#DejaVuSans-Bold-69" transform="translate(618.261719 0)"/>
      <use xlink:href="#DejaVuSans-Bold-73" transform="translate(652.539062 0)"/>
      <use xlink:href="#DejaVuSans-Bold-63" transform="translate(712.060547 0)"/>
      <use xlink:href="#DejaVuSans-Bold-6f" transform="translate(771.337891 0)"/>
      <use xlink:href="#DejaVuSans-Bold-75" transform="translate(840.039062 0)"/>
      <use xlink:href="#DejaVuSans-Bold-6e" transform="translate(911.230469 0)"/>
      <use xlink:href="#DejaVuSans-Bold-74" transform="translate(982.421875 0)"/>
      <use xlink:href="#DejaVuSans-Bold-20" transform="translate(1030.224609 0)"/>
      <use xlink:href="#DejaVuSans-Bold-28" transform="translate(1065.039062 0)"/>
      <use xlink:href="#DejaVuSans-Bold-25" transform="translate(1110.742188 0)"/>
      <use xlink:href="#DejaVuSans-Bold-2c" transform="translate(1210.9375 0)"/>
      <use xlink:href="#DejaVuSans-Bold-20" transform="translate(1248.925781 0)"/>
      <use xlink:href="#DejaVuSans-Bold-6c" transform="translate(1283.740234 0)"/>
      <use xlink:href="#DejaVuSans-Bold-6f" transform="translate(1318.017578 0)"/>
      <use xlink:href="#DejaVuSans-Bold-67" transform="translate(1386.71875 0)"/>
      <use xlink:href="#DejaVuSans-Bold-20" transform="translate(1458.300781 0)"/>
      <use xlink:href="#DejaVuSans-Bold-73" transform="translate(1493.115234 0)"/>
      <use xlink:href="#DejaVuSans-Bold-63" transform="translate(1552.636719 0)"/>
      <use xlink:href="#DejaVuSans-Bold-61" transform="translate(1611.914062 0)"/>
      <use xlink:href="#DejaVuSans-Bold-6c" transform="translate(1679.394531 0)"/>
      <use xlink:href="#DejaVuSans-Bold-65" transform="translate(1713.671875 0)"/>
      <use xlink:href="#DejaVuSans-Bold-29" transform="translate(1781.494141 0)"/>
     </g>
    </g>
   </g>
   <g id="matplotlib.axis_4">
    <g id="ytick_6">
     <g id="line2d_39">
      <g>
       <use xlink:href="#m61337ec1b7" x="44" y="769.659498" style="fill: #c5c9c5; stroke: #c5c9c5; stroke-width: 0.8"/>
      </g>
     </g>
     <g id="text_23">
      <!-- LLY -->
      <g style="fill: #c5c9c5" transform="translate(21.073437 773.458717) scale(0.1 -0.1)">
       <use xlink:href="#DejaVuSans-4c"/>
       <use xlink:href="#DejaVuSans-4c" transform="translate(55.712891 0)"/>
       <use xlink:href="#DejaVuSans-59" transform="translate(98.175781 0)"/>
      </g>
     </g>
    </g>
    <g id="ytick_7">
     <g id="line2d_40">
      <g>
       <use xlink:href="#m61337ec1b7" x="44" y="701.530249" style="fill: #c5c9c5; stroke: #c5c9c5; stroke-width: 0.8"/>
      </g>
     </g>
     <g id="text_24">
      <!-- AMZN -->
      <g style="fill: #c5c9c5" transform="translate(7.2 705.329468) scale(0.1 -0.1)">
       <use xlink:href="#DejaVuSans-41"/>
       <use xlink:href="#DejaVuSans-4d" transform="translate(68.408203 0)"/>
       <use xlink:href="#DejaVuSans-5a" transform="translate(154.6875 0)"/>
       <use xlink:href="#DejaVuSans-4e" transform="translate(223.193359 0)"/>
      </g>
     </g>
    </g>
    <g id="ytick_8">
     <g id="line2d_41">
      <g>
       <use xlink:href="#m61337ec1b7" x="44" y="633.401" style="fill: #c5c9c5; stroke: #c5c9c5; stroke-width: 0.8"/>
      </g>
     </g>
     <g id="text_25">
      <!-- CBOE -->
      <g style="fill: #c5c9c5" transform="translate(9.140625 637.200219) scale(0.1 -0.1)">
       <use xlink:href="#DejaVuSans-43"/>
       <use xlink:href="#DejaVuSans-42" transform="translate(69.824219 0)"/>
       <use xlink:href="#DejaVuSans-4f" transform="translate(136.677734 0)"/>
       <use xlink:href="#DejaVuSans-45" transform="translate(215.388672 0)"/>
      </g>
     </g>
    </g>
    <g id="ytick_9">
     <g id="line2d_42">
      <g>
       <use xlink:href="#m61337ec1b7" x="44" y="565.271751" style="fill: #c5c9c5; stroke: #c5c9c5; stroke-width: 0.8"/>
      </g>
     </g>
     <g id="text_26">
      <!-- SFM -->
      <g style="fill: #c5c9c5" transform="translate(16.271875 569.07097) scale(0.1 -0.1)">
       <use xlink:href="#DejaVuSans-53"/>
       <use xlink:href="#DejaVuSans-46" transform="translate(63.476562 0)"/>
       <use xlink:href="#DejaVuSans-4d" transform="translate(120.996094 0)"/>
      </g>
     </g>
    </g>
    <g id="ytick_10">
     <g id="line2d_43">
      <g>
       <use xlink:href="#m61337ec1b7" x="44" y="497.142502" style="fill: #c5c9c5; stroke: #c5c9c5; stroke-width: 0.8"/>
      </g>
     </g>
     <g id="text_27">
      <!-- TAC -->
      <g style="fill: #c5c9c5" transform="translate(18.01875 500.941721) scale(0.1 -0.1)">
       <use xlink:href="#DejaVuSans-54"/>
       <use xlink:href="#DejaVuSans-41" transform="translate(53.333984 0)"/>
       <use xlink:href="#DejaVuSans-43" transform="translate(119.992188 0)"/>
      </g>
     </g>
    </g>
   </g>
   <g id="line2d_44">
    <path d="M 490.764491 805.768 
L 490.764491 461.034 
" clip-path="url(#p82d37d4493)" style="fill: none; stroke: #c5c9c5; stroke-width: 2; stroke-linecap: square"/>
   </g>
   <g id="patch_25">
    <path d="M 44 805.768 
L 44 461.034 
" style="fill: none; stroke: #625e5a; stroke-width: 0.8; stroke-linejoin: miter; stroke-linecap: square"/>
   </g>
   <g id="patch_26">
    <path d="M 993.61 805.768 
L 993.61 461.034 
" style="fill: none; stroke: #625e5a; stroke-width: 0.8; stroke-linejoin: miter; stroke-linecap: square"/>
   </g>
   <g id="patch_27">
    <path d="M 44 805.768 
L 993.61 805.768 
" style="fill: none; stroke: #625e5a; stroke-width: 0.8; stroke-linejoin: miter; stroke-linecap: square"/>
   </g>
   <g id="patch_28">
    <path d="M 44 461.034 
L 993.61 461.034 
" style="fill: none; stroke: #625e5a; stroke-width: 0.8; stroke-linejoin: miter; stroke-linecap: square"/>
   </g>
   <g id="text_28">
    <!-- -118.4% -->
    <g style="fill: #ffffff" transform="translate(146.76127 772.142936) scale(0.09 -0.09)">
     <use xlink:href="#DejaVuSans-Bold-2d"/>
     <use xlink:href="#DejaVuSans-Bold-31" transform="translate(41.503906 0)"/>
     <use xlink:href="#DejaVuSans-Bold-31" transform="translate(111.083984 0)"/>
     <use xlink:href="#DejaVuSans-Bold-38" transform="translate(180.664062 0)"/>
     <use xlink:href="#DejaVuSans-Bold-2e" transform="translate(250.244141 0)"/>
     <use xlink:href="#DejaVuSans-Bold-34" transform="translate(288.232422 0)"/>
     <use xlink:href="#DejaVuSans-Bold-25" transform="translate(357.8125 0)"/>
    </g>
   </g>
   <g id="text_29">
    <!-- -83.6% -->
    <g style="fill: #ffffff" transform="translate(166.85756 704.013687) scale(0.09 -0.09)">
     <defs>
      <path id="DejaVuSans-Bold-33" d="M 2981 2516 
Q 3453 2394 3698 2092 
Q 3944 1791 3944 1325 
Q 3944 631 3412 270 
Q 2881 -91 1863 -91 
Q 1503 -91 1142 -33 
Q 781 25 428 141 
L 428 1069 
Q 766 900 1098 814 
Q 1431 728 1753 728 
Q 2231 728 2486 893 
Q 2741 1059 2741 1369 
Q 2741 1688 2480 1852 
Q 2219 2016 1709 2016 
L 1228 2016 
L 1228 2791 
L 1734 2791 
Q 2188 2791 2409 2933 
Q 2631 3075 2631 3366 
Q 2631 3634 2415 3781 
Q 2200 3928 1806 3928 
Q 1516 3928 1219 3862 
Q 922 3797 628 3669 
L 628 4550 
Q 984 4650 1334 4700 
Q 1684 4750 2022 4750 
Q 2931 4750 3382 4451 
Q 3834 4153 3834 3553 
Q 3834 3144 3618 2883 
Q 3403 2622 2981 2516 
z
" transform="scale(0.015625)"/>
     </defs>
     <use xlink:href="#DejaVuSans-Bold-2d"/>
     <use xlink:href="#DejaVuSans-Bold-38" transform="translate(41.503906 0)"/>
     <use xlink:href="#DejaVuSans-Bold-33" transform="translate(111.083984 0)"/>
     <use xlink:href="#DejaVuSans-Bold-2e" transform="translate(180.664062 0)"/>
     <use xlink:href="#DejaVuSans-Bold-36" transform="translate(218.652344 0)"/>
     <use xlink:href="#DejaVuSans-Bold-25" transform="translate(288.232422 0)"/>
    </g>
   </g>
   <g id="text_30">
    <!-- -78.7% -->
    <g style="fill: #ffffff" transform="translate(169.798218 635.884437) scale(0.09 -0.09)">
     <use xlink:href="#DejaVuSans-Bold-2d"/>
     <use xlink:href="#DejaVuSans-Bold-37" transform="translate(41.503906 0)"/>
     <use xlink:href="#DejaVuSans-Bold-38" transform="translate(111.083984 0)"/>
     <use xlink:href="#DejaVuSans-Bold-2e" transform="translate(180.664062 0)"/>
     <use xlink:href="#DejaVuSans-Bold-37" transform="translate(218.652344 0)"/>
     <use xlink:href="#DejaVuSans-Bold-25" transform="translate(288.232422 0)"/>
    </g>
   </g>
   <g id="text_31">
    <!-- +37.5% -->
    <g style="fill: #ffffff" transform="translate(738.767281 567.755188) scale(0.09 -0.09)">
     <defs>
      <path id="DejaVuSans-Bold-35" d="M 678 4666 
L 3669 4666 
L 3669 3781 
L 1638 3781 
L 1638 3059 
Q 1775 3097 1914 3117 
Q 2053 3138 2203 3138 
Q 3056 3138 3531 2711 
Q 4006 2284 4006 1522 
Q 4006 766 3489 337 
Q 2972 -91 2053 -91 
Q 1656 -91 1267 -14 
Q 878 63 494 219 
L 494 1166 
Q 875 947 1217 837 
Q 1559 728 1863 728 
Q 2300 728 2551 942 
Q 2803 1156 2803 1522 
Q 2803 1891 2551 2103 
Q 2300 2316 1863 2316 
Q 1603 2316 1309 2248 
Q 1016 2181 678 2041 
L 678 4666 
z
" transform="scale(0.015625)"/>
     </defs>
     <use xlink:href="#DejaVuSans-Bold-2b"/>
     <use xlink:href="#DejaVuSans-Bold-33" transform="translate(83.789062 0)"/>
     <use xlink:href="#DejaVuSans-Bold-37" transform="translate(153.369141 0)"/>
     <use xlink:href="#DejaVuSans-Bold-2e" transform="translate(222.949219 0)"/>
     <use xlink:href="#DejaVuSans-Bold-35" transform="translate(260.9375 0)"/>
     <use xlink:href="#DejaVuSans-Bold-25" transform="translate(330.517578 0)"/>
    </g>
   </g>
   <g id="text_32">
    <!-- +176.1% -->
    <g style="fill: #ffffff" transform="translate(810.953018 499.625939) scale(0.09 -0.09)">
     <use xlink:href="#DejaVuSans-Bold-2b"/>
     <use xlink:href="#DejaVuSans-Bold-31" transform="translate(83.789062 0)"/>
     <use xlink:href="#DejaVuSans-Bold-37" transform="translate(153.369141 0)"/>
     <use xlink:href="#DejaVuSans-Bold-36" transform="translate(222.949219 0)"/>
     <use xlink:href="#DejaVuSans-Bold-2e" transform="translate(292.529297 0)"/>
     <use xlink:href="#DejaVuSans-Bold-31" transform="translate(330.517578 0)"/>
     <use xlink:href="#DejaVuSans-Bold-25" transform="translate(400.097656 0)"/>
    </g>
   </g>
   <g id="text_33">
    <!-- FCFE Valuation Comparison -->
    <g style="fill: #c5c9c5" transform="translate(418.015391 446.034) scale(0.13 -0.13)">
     <defs>
      <path id="DejaVuSans-Bold-45" d="M 588 4666 
L 3834 4666 
L 3834 3756 
L 1791 3756 
L 1791 2888 
L 3713 2888 
L 3713 1978 
L 1791 1978 
L 1791 909 
L 3903 909 
L 3903 0 
L 588 0 
L 588 4666 
z
" transform="scale(0.015625)"/>
     </defs>
     <use xlink:href="#DejaVuSans-Bold-46"/>
     <use xlink:href="#DejaVuSans-Bold-43" transform="translate(68.310547 0)"/>
     <use xlink:href="#DejaVuSans-Bold-46" transform="translate(141.699219 0)"/>
     <use xlink:href="#DejaVuSans-Bold-45" transform="translate(210.009766 0)"/>
     <use xlink:href="#DejaVuSans-Bold-20" transform="translate(278.320312 0)"/>
     <use xlink:href="#DejaVuSans-Bold-56" transform="translate(313.134766 0)"/>
     <use xlink:href="#DejaVuSans-Bold-61" transform="translate(385.027344 0)"/>
     <use xlink:href="#DejaVuSans-Bold-6c" transform="translate(452.507812 0)"/>
     <use xlink:href="#DejaVuSans-Bold-75" transform="translate(486.785156 0)"/>
     <use xlink:href="#DejaVuSans-Bold-61" transform="translate(557.976562 0)"/>
     <use xlink:href="#DejaVuSans-Bold-74" transform="translate(625.457031 0)"/>
     <use xlink:href="#DejaVuSans-Bold-69" transform="translate(673.259766 0)"/>
     <use xlink:href="#DejaVuSans-Bold-6f" transform="translate(707.537109 0)"/>
     <use xlink:href="#DejaVuSans-Bold-6e" transform="translate(776.238281 0)"/>
     <use xlink:href="#DejaVuSans-Bold-20" transform="translate(847.429688 0)"/>
     <use xlink:href="#DejaVuSans-Bold-43" transform="translate(882.244141 0)"/>
     <use xlink:href="#DejaVuSans-Bold-6f" transform="translate(955.632812 0)"/>
     <use xlink:href="#DejaVuSans-Bold-6d" transform="translate(1024.333984 0)"/>
     <use xlink:href="#DejaVuSans-Bold-70" transform="translate(1128.533203 0)"/>
     <use xlink:href="#DejaVuSans-Bold-61" transform="translate(1200.115234 0)"/>
     <use xlink:href="#DejaVuSans-Bold-72" transform="translate(1267.595703 0)"/>
     <use xlink:href="#DejaVuSans-Bold-69" transform="translate(1316.912109 0)"/>
     <use xlink:href="#DejaVuSans-Bold-73" transform="translate(1351.189453 0)"/>
     <use xlink:href="#DejaVuSans-Bold-6f" transform="translate(1410.710938 0)"/>
     <use xlink:href="#DejaVuSans-Bold-6e" transform="translate(1479.412109 0)"/>
    </g>
   </g>
   <g id="legend_2">
    <g id="patch_29">
     <path d="M 900.970469 801.268 
L 987.31 801.268 
Q 989.11 801.268 989.11 799.468 
L 989.11 773.947375 
Q 989.11 772.147375 987.31 772.147375 
L 900.970469 772.147375 
Q 899.170469 772.147375 899.170469 773.947375 
L 899.170469 799.468 
Q 899.170469 801.268 900.970469 801.268 
z
" style="fill: #181616; opacity: 0.9; stroke: #625e5a; stroke-linejoin: miter"/>
    </g>
    <g id="patch_30">
     <path d="M 902.770469 782.585969 
L 920.770469 782.585969 
L 920.770469 776.285969 
L 902.770469 776.285969 
z
" style="fill: #8a9a7b; stroke: #c5c9c5; stroke-linejoin: miter"/>
    </g>
    <g id="text_34">
     <!-- Undervalued -->
     <g style="fill: #c5c9c5" transform="translate(927.970469 782.585969) scale(0.09 -0.09)">
      <use xlink:href="#DejaVuSans-55"/>
      <use xlink:href="#DejaVuSans-6e" transform="translate(73.193359 0)"/>
      <use xlink:href="#DejaVuSans-64" transform="translate(136.572266 0)"/>
      <use xlink:href="#DejaVuSans-65" transform="translate(200.048828 0)"/>
      <use xlink:href="#DejaVuSans-72" transform="translate(261.572266 0)"/>
      <use xlink:href="#DejaVuSans-76" transform="translate(302.685547 0)"/>
      <use xlink:href="#DejaVuSans-61" transform="translate(361.865234 0)"/>
      <use xlink:href="#DejaVuSans-6c" transform="translate(423.144531 0)"/>
      <use xlink:href="#DejaVuSans-75" transform="translate(450.927734 0)"/>
      <use xlink:href="#DejaVuSans-65" transform="translate(514.306641 0)"/>
      <use xlink:href="#DejaVuSans-64" transform="translate(575.830078 0)"/>
     </g>
    </g>
    <g id="patch_31">
     <path d="M 902.770469 795.796281 
L 920.770469 795.796281 
L 920.770469 789.496281 
L 902.770469 789.496281 
z
" style="fill: #c4746e; stroke: #c5c9c5; stroke-linejoin: miter"/>
    </g>
    <g id="text_35">
     <!-- Overvalued -->
     <g style="fill: #c5c9c5" transform="translate(927.970469 795.796281) scale(0.09 -0.09)">
      <use xlink:href="#DejaVuSans-4f"/>
      <use xlink:href="#DejaVuSans-76" transform="translate(78.710938 0)"/>
      <use xlink:href="#DejaVuSans-65" transform="translate(137.890625 0)"/>
      <use xlink:href="#DejaVuSans-72" transform="translate(199.414062 0)"/>
      <use xlink:href="#DejaVuSans-76" transform="translate(240.527344 0)"/>
      <use xlink:href="#DejaVuSans-61" transform="translate(299.707031 0)"/>
      <use xlink:href="#DejaVuSans-6c" transform="translate(360.986328 0)"/>
      <use xlink:href="#DejaVuSans-75" transform="translate(388.769531 0)"/>
      <use xlink:href="#DejaVuSans-65" transform="translate(452.148438 0)"/>
      <use xlink:href="#DejaVuSans-64" transform="translate(513.671875 0)"/>
     </g>
    </g>
   </g>
  </g>
  <g id="text_36">
   <!-- DCF Valuation Comparison - All Tickers -->
   <g style="fill: #c5c9c5" transform="translate(325.11375 19.3575) scale(0.16 -0.16)">
    <defs>
     <path id="DejaVuSans-Bold-41" d="M 3419 850 
L 1538 850 
L 1241 0 
L 31 0 
L 1759 4666 
L 3194 4666 
L 4922 0 
L 3713 0 
L 3419 850 
z
M 1838 1716 
L 3116 1716 
L 2478 3572 
L 1838 1716 
z
" transform="scale(0.015625)"/>
     <path id="DejaVuSans-Bold-54" d="M 31 4666 
L 4331 4666 
L 4331 3756 
L 2784 3756 
L 2784 0 
L 1581 0 
L 1581 3756 
L 31 3756 
L 31 4666 
z
" transform="scale(0.015625)"/>
     <path id="DejaVuSans-Bold-6b" d="M 538 4863 
L 1656 4863 
L 1656 2216 
L 2944 3500 
L 4244 3500 
L 2534 1894 
L 4378 0 
L 3022 0 
L 1656 1459 
L 1656 0 
L 538 0 
L 538 4863 
z
" transform="scale(0.015625)"/>
    </defs>
    <use xlink:href="#DejaVuSans-Bold-44"/>
    <use xlink:href="#DejaVuSans-Bold-43" transform="translate(83.007812 0)"/>
    <use xlink:href="#DejaVuSans-Bold-46" transform="translate(156.396484 0)"/>
    <use xlink:href="#DejaVuSans-Bold-20" transform="translate(224.707031 0)"/>
    <use xlink:href="#DejaVuSans-Bold-56" transform="translate(259.521484 0)"/>
    <use xlink:href="#DejaVuSans-Bold-61" transform="translate(331.414062 0)"/>
    <use xlink:href="#DejaVuSans-Bold-6c" transform="translate(398.894531 0)"/>
    <use xlink:href="#DejaVuSans-Bold-75" transform="translate(433.171875 0)"/>
    <use xlink:href="#DejaVuSans-Bold-61" transform="translate(504.363281 0)"/>
    <use xlink:href="#DejaVuSans-Bold-74" transform="translate(571.84375 0)"/>
    <use xlink:href="#DejaVuSans-Bold-69" transform="translate(619.646484 0)"/>
    <use xlink:href="#DejaVuSans-Bold-6f" transform="translate(653.923828 0)"/>
    <use xlink:href="#DejaVuSans-Bold-6e" transform="translate(722.625 0)"/>
    <use xlink:href="#DejaVuSans-Bold-20" transform="translate(793.816406 0)"/>
    <use xlink:href="#DejaVuSans-Bold-43" transform="translate(828.630859 0)"/>
    <use xlink:href="#DejaVuSans-Bold-6f" transform="translate(902.019531 0)"/>
    <use xlink:href="#DejaVuSans-Bold-6d" transform="translate(970.720703 0)"/>
    <use xlink:href="#DejaVuSans-Bold-70" transform="translate(1074.919922 0)"/>
    <use xlink:href="#DejaVuSans-Bold-61" transform="translate(1146.501953 0)"/>
    <use xlink:href="#DejaVuSans-Bold-72" transform="translate(1213.982422 0)"/>
    <use xlink:href="#DejaVuSans-Bold-69" transform="translate(1263.298828 0)"/>
    <use xlink:href="#DejaVuSans-Bold-73" transform="translate(1297.576172 0)"/>
    <use xlink:href="#DejaVuSans-Bold-6f" transform="translate(1357.097656 0)"/>
    <use xlink:href="#DejaVuSans-Bold-6e" transform="translate(1425.798828 0)"/>
    <use xlink:href="#DejaVuSans-Bold-20" transform="translate(1496.990234 0)"/>
    <use xlink:href="#DejaVuSans-Bold-2d" transform="translate(1531.804688 0)"/>
    <use xlink:href="#DejaVuSans-Bold-20" transform="translate(1573.308594 0)"/>
    <use xlink:href="#DejaVuSans-Bold-41" transform="translate(1608.123047 0)"/>
    <use xlink:href="#DejaVuSans-Bold-6c" transform="translate(1685.515625 0)"/>
    <use xlink:href="#DejaVuSans-Bold-6c" transform="translate(1719.792969 0)"/>
    <use xlink:href="#DejaVuSans-Bold-20" transform="translate(1754.070312 0)"/>
    <use xlink:href="#DejaVuSans-Bold-54" transform="translate(1788.884766 0)"/>
    <use xlink:href="#DejaVuSans-Bold-69" transform="translate(1857.097656 0)"/>
    <use xlink:href="#DejaVuSans-Bold-63" transform="translate(1891.375 0)"/>
    <use xlink:href="#DejaVuSans-Bold-6b" transform="translate(1950.652344 0)"/>
    <use xlink:href="#DejaVuSans-Bold-65" transform="translate(2014.53125 0)"/>
    <use xlink:href="#DejaVuSans-Bold-72" transform="translate(2082.353516 0)"/>
    <use xlink:href="#DejaVuSans-Bold-73" transform="translate(2131.669922 0)"/>
   </g>
  </g>
 </g>
 <defs>
  <clipPath id="p4fac203124">
   <rect x="44" y="76.92" width="949.61" height="344.734"/>
  </clipPath>
  <clipPath id="p82d37d4493">
   <rect x="44" y="461.034" width="949.61" height="344.734"/>
  </clipPath>
 </defs>
</svg>
