<?xml version="1.0" encoding="utf-8" standalone="no"?>
<!DOCTYPE svg PUBLIC "-//W3C//DTD SVG 1.1//EN"
  "http://www.w3.org/Graphics/SVG/1.1/DTD/svg11.dtd">
<svg xmlns:xlink="http://www.w3.org/1999/xlink" width="998.459659pt" height="566.889688pt" viewBox="0 0 998.459659 566.889688" xmlns="http://www.w3.org/2000/svg" version="1.1">
 <metadata>
  <rdf:RDF xmlns:dc="http://purl.org/dc/elements/1.1/" xmlns:cc="http://creativecommons.org/ns#" xmlns:rdf="http://www.w3.org/1999/02/22-rdf-syntax-ns#">
   <cc:Work>
    <dc:type rdf:resource="http://purl.org/dc/dcmitype/StillImage"/>
    <dc:date>2026-02-22T14:53:55.994039</dc:date>
    <dc:format>image/svg+xml</dc:format>
    <dc:creator>
     <cc:Agent>
      <dc:title>Matplotlib v3.10.8, https://matplotlib.org/</dc:title>
     </cc:Agent>
    </dc:creator>
   </cc:Work>
  </rdf:RDF>
 </metadata>
 <defs>
  <style type="text/css">*{stroke-linejoin: round; stroke-linecap: butt}</style>
 </defs>
 <g id="figure_1">
  <g id="patch_1">
   <path d="M 0 566.889688 
L 998.459659 566.889688 
L 998.459659 0 
L 0 0 
z
" style="fill: #181616"/>
  </g>
  <g id="axes_1">
   <g id="patch_2">
    <path d="M 42.53875 253.277813 
L 977.778408 253.277813 
L 977.778408 23.837812 
L 42.53875 23.837812 
z
" style="fill: #181616"/>
   </g>
   <g id="matplotlib.axis_1">
    <g id="xtick_1">
     <g id="line2d_1">
      <path d="M 143.550873 253.277813 
L 143.550873 23.837812 
" clip-path="url(#p35bc12d244)" style="fill: none; stroke: #625e5a; stroke-opacity: 0.2; stroke-width: 0.8; stroke-linecap: square"/>
     </g>
     <g id="line2d_2">
      <defs>
       <path id="mb6514337d4" d="M 0 0 
L 0 3.5 
" style="stroke: #c5c9c5; stroke-width: 0.8"/>
      </defs>
      <g>
       <use xlink:href="#mb6514337d4" x="143.550873" y="253.277813" style="fill: #c5c9c5; stroke: #c5c9c5; stroke-width: 0.8"/>
      </g>
     </g>
     <g id="text_1">
      <!-- 2025-08 -->
      <g style="fill: #c5c9c5" transform="translate(122.659467 267.87625) scale(0.1 -0.1)">
       <defs>
        <path id="DejaVuSans-32" d="M 1228 531 
L 3431 531 
L 3431 0 
L 469 0 
L 469 531 
Q 828 903 1448 1529 
Q 2069 2156 2228 2338 
Q 2531 2678 2651 2914 
Q 2772 3150 2772 3378 
Q 2772 3750 2511 3984 
Q 2250 4219 1831 4219 
Q 1534 4219 1204 4116 
Q 875 4013 500 3803 
L 500 4441 
Q 881 4594 1212 4672 
Q 1544 4750 1819 4750 
Q 2544 4750 2975 4387 
Q 3406 4025 3406 3419 
Q 3406 3131 3298 2873 
Q 3191 2616 2906 2266 
Q 2828 2175 2409 1742 
Q 1991 1309 1228 531 
z
" transform="scale(0.015625)"/>
        <path id="DejaVuSans-30" d="M 2034 4250 
Q 1547 4250 1301 3770 
Q 1056 3291 1056 2328 
Q 1056 1369 1301 889 
Q 1547 409 2034 409 
Q 2525 409 2770 889 
Q 3016 1369 3016 2328 
Q 3016 3291 2770 3770 
Q 2525 4250 2034 4250 
z
M 2034 4750 
Q 2819 4750 3233 4129 
Q 3647 3509 3647 2328 
Q 3647 1150 3233 529 
Q 2819 -91 2034 -91 
Q 1250 -91 836 529 
Q 422 1150 422 2328 
Q 422 3509 836 4129 
Q 1250 4750 2034 4750 
z
" transform="scale(0.015625)"/>
        <path id="DejaVuSans-35" d="M 691 4666 
L 3169 4666 
L 3169 4134 
L 1269 4134 
L 1269 2991 
Q 1406 3038 1543 3061 
Q 1681 3084 1819 3084 
Q 2600 3084 3056 2656 
Q 3513 2228 3513 1497 
Q 3513 744 3044 326 
Q 2575 -91 1722 -91 
Q 1428 -91 1123 -41 
Q 819 9 494 109 
L 494 744 
Q 775 591 1075 516 
Q 1375 441 1709 441 
Q 2250 441 2565 725 
Q 2881 1009 2881 1497 
Q 2881 1984 2565 2268 
Q 2250 2553 1709 2553 
Q 1456 2553 1204 2497 
Q 953 2441 691 2322 
L 691 4666 
z
" transform="scale(0.015625)"/>
        <path id="DejaVuSans-2d" d="M 313 2009 
L 1997 2009 
L 1997 1497 
L 313 1497 
L 313 2009 
z
" transform="scale(0.015625)"/>
        <path id="DejaVuSans-38" d="M 2034 2216 
Q 1584 2216 1326 1975 
Q 1069 1734 1069 1313 
Q 1069 891 1326 650 
Q 1584 409 2034 409 
Q 2484 409 2743 651 
Q 3003 894 3003 1313 
Q 3003 1734 2745 1975 
Q 2488 2216 2034 2216 
z
M 1403 2484 
Q 997 2584 770 2862 
Q 544 3141 544 3541 
Q 544 4100 942 4425 
Q 1341 4750 2034 4750 
Q 2731 4750 3128 4425 
Q 3525 4100 3525 3541 
Q 3525 3141 3298 2862 
Q 3072 2584 2669 2484 
Q 3125 2378 3379 2068 
Q 3634 1759 3634 1313 
Q 3634 634 3220 271 
Q 2806 -91 2034 -91 
Q 1263 -91 848 271 
Q 434 634 434 1313 
Q 434 1759 690 2068 
Q 947 2378 1403 2484 
z
M 1172 3481 
Q 1172 3119 1398 2916 
Q 1625 2713 2034 2713 
Q 2441 2713 2670 2916 
Q 2900 3119 2900 3481 
Q 2900 3844 2670 4047 
Q 2441 4250 2034 4250 
Q 1625 4250 1398 4047 
Q 1172 3844 1172 3481 
z
" transform="scale(0.015625)"/>
       </defs>
       <use xlink:href="#DejaVuSans-32"/>
       <use xlink:href="#DejaVuSans-30" transform="translate(63.623047 0)"/>
       <use xlink:href="#DejaVuSans-32" transform="translate(127.246094 0)"/>
       <use xlink:href="#DejaVuSans-35" transform="translate(190.869141 0)"/>
       <use xlink:href="#DejaVuSans-2d" transform="translate(254.492188 0)"/>
       <use xlink:href="#DejaVuSans-30" transform="translate(290.576172 0)"/>
       <use xlink:href="#DejaVuSans-38" transform="translate(354.199219 0)"/>
      </g>
     </g>
    </g>
    <g id="xtick_2">
     <g id="line2d_3">
      <path d="M 264.453414 253.277813 
L 264.453414 23.837812 
" clip-path="url(#p35bc12d244)" style="fill: none; stroke: #625e5a; stroke-opacity: 0.2; stroke-width: 0.8; stroke-linecap: square"/>
     </g>
     <g id="line2d_4">
      <g>
       <use xlink:href="#mb6514337d4" x="264.453414" y="253.277813" style="fill: #c5c9c5; stroke: #c5c9c5; stroke-width: 0.8"/>
      </g>
     </g>
     <g id="text_2">
      <!-- 2025-09 -->
      <g style="fill: #c5c9c5" transform="translate(243.562008 267.87625) scale(0.1 -0.1)">
       <defs>
        <path id="DejaVuSans-39" d="M 703 97 
L 703 672 
Q 941 559 1184 500 
Q 1428 441 1663 441 
Q 2288 441 2617 861 
Q 2947 1281 2994 2138 
Q 2813 1869 2534 1725 
Q 2256 1581 1919 1581 
Q 1219 1581 811 2004 
Q 403 2428 403 3163 
Q 403 3881 828 4315 
Q 1253 4750 1959 4750 
Q 2769 4750 3195 4129 
Q 3622 3509 3622 2328 
Q 3622 1225 3098 567 
Q 2575 -91 1691 -91 
Q 1453 -91 1209 -44 
Q 966 3 703 97 
z
M 1959 2075 
Q 2384 2075 2632 2365 
Q 2881 2656 2881 3163 
Q 2881 3666 2632 3958 
Q 2384 4250 1959 4250 
Q 1534 4250 1286 3958 
Q 1038 3666 1038 3163 
Q 1038 2656 1286 2365 
Q 1534 2075 1959 2075 
z
" transform="scale(0.015625)"/>
       </defs>
       <use xlink:href="#DejaVuSans-32"/>
       <use xlink:href="#DejaVuSans-30" transform="translate(63.623047 0)"/>
       <use xlink:href="#DejaVuSans-32" transform="translate(127.246094 0)"/>
       <use xlink:href="#DejaVuSans-35" transform="translate(190.869141 0)"/>
       <use xlink:href="#DejaVuSans-2d" transform="translate(254.492188 0)"/>
       <use xlink:href="#DejaVuSans-30" transform="translate(290.576172 0)"/>
       <use xlink:href="#DejaVuSans-39" transform="translate(354.199219 0)"/>
      </g>
     </g>
    </g>
    <g id="xtick_3">
     <g id="line2d_5">
      <path d="M 381.455874 253.277813 
L 381.455874 23.837812 
" clip-path="url(#p35bc12d244)" style="fill: none; stroke: #625e5a; stroke-opacity: 0.2; stroke-width: 0.8; stroke-linecap: square"/>
     </g>
     <g id="line2d_6">
      <g>
       <use xlink:href="#mb6514337d4" x="381.455874" y="253.277813" style="fill: #c5c9c5; stroke: #c5c9c5; stroke-width: 0.8"/>
      </g>
     </g>
     <g id="text_3">
      <!-- 2025-10 -->
      <g style="fill: #c5c9c5" transform="translate(360.564468 267.87625) scale(0.1 -0.1)">
       <defs>
        <path id="DejaVuSans-31" d="M 794 531 
L 1825 531 
L 1825 4091 
L 703 3866 
L 703 4441 
L 1819 4666 
L 2450 4666 
L 2450 531 
L 3481 531 
L 3481 0 
L 794 0 
L 794 531 
z
" transform="scale(0.015625)"/>
       </defs>
       <use xlink:href="#DejaVuSans-32"/>
       <use xlink:href="#DejaVuSans-30" transform="translate(63.623047 0)"/>
       <use xlink:href="#DejaVuSans-32" transform="translate(127.246094 0)"/>
       <use xlink:href="#DejaVuSans-35" transform="translate(190.869141 0)"/>
       <use xlink:href="#DejaVuSans-2d" transform="translate(254.492188 0)"/>
       <use xlink:href="#DejaVuSans-31" transform="translate(290.576172 0)"/>
       <use xlink:href="#DejaVuSans-30" transform="translate(354.199219 0)"/>
      </g>
     </g>
    </g>
    <g id="xtick_4">
     <g id="line2d_7">
      <path d="M 502.358415 253.277813 
L 502.358415 23.837812 
" clip-path="url(#p35bc12d244)" style="fill: none; stroke: #625e5a; stroke-opacity: 0.2; stroke-width: 0.8; stroke-linecap: square"/>
     </g>
     <g id="line2d_8">
      <g>
       <use xlink:href="#mb6514337d4" x="502.358415" y="253.277813" style="fill: #c5c9c5; stroke: #c5c9c5; stroke-width: 0.8"/>
      </g>
     </g>
     <g id="text_4">
      <!-- 2025-11 -->
      <g style="fill: #c5c9c5" transform="translate(481.467009 267.87625) scale(0.1 -0.1)">
       <use xlink:href="#DejaVuSans-32"/>
       <use xlink:href="#DejaVuSans-30" transform="translate(63.623047 0)"/>
       <use xlink:href="#DejaVuSans-32" transform="translate(127.246094 0)"/>
       <use xlink:href="#DejaVuSans-35" transform="translate(190.869141 0)"/>
       <use xlink:href="#DejaVuSans-2d" transform="translate(254.492188 0)"/>
       <use xlink:href="#DejaVuSans-31" transform="translate(290.576172 0)"/>
       <use xlink:href="#DejaVuSans-31" transform="translate(354.199219 0)"/>
      </g>
     </g>
    </g>
    <g id="xtick_5">
     <g id="line2d_9">
      <path d="M 619.360874 253.277813 
L 619.360874 23.837812 
" clip-path="url(#p35bc12d244)" style="fill: none; stroke: #625e5a; stroke-opacity: 0.2; stroke-width: 0.8; stroke-linecap: square"/>
     </g>
     <g id="line2d_10">
      <g>
       <use xlink:href="#mb6514337d4" x="619.360874" y="253.277813" style="fill: #c5c9c5; stroke: #c5c9c5; stroke-width: 0.8"/>
      </g>
     </g>
     <g id="text_5">
      <!-- 2025-12 -->
      <g style="fill: #c5c9c5" transform="translate(598.469468 267.87625) scale(0.1 -0.1)">
       <use xlink:href="#DejaVuSans-32"/>
       <use xlink:href="#DejaVuSans-30" transform="translate(63.623047 0)"/>
       <use xlink:href="#DejaVuSans-32" transform="translate(127.246094 0)"/>
       <use xlink:href="#DejaVuSans-35" transform="translate(190.869141 0)"/>
       <use xlink:href="#DejaVuSans-2d" transform="translate(254.492188 0)"/>
       <use xlink:href="#DejaVuSans-31" transform="translate(290.576172 0)"/>
       <use xlink:href="#DejaVuSans-32" transform="translate(354.199219 0)"/>
      </g>
     </g>
    </g>
    <g id="xtick_6">
     <g id="line2d_11">
      <path d="M 740.263416 253.277813 
L 740.263416 23.837812 
" clip-path="url(#p35bc12d244)" style="fill: none; stroke: #625e5a; stroke-opacity: 0.2; stroke-width: 0.8; stroke-linecap: square"/>
     </g>
     <g id="line2d_12">
      <g>
       <use xlink:href="#mb6514337d4" x="740.263416" y="253.277813" style="fill: #c5c9c5; stroke: #c5c9c5; stroke-width: 0.8"/>
      </g>
     </g>
     <g id="text_6">
      <!-- 2026-01 -->
      <g style="fill: #c5c9c5" transform="translate(719.372009 267.87625) scale(0.1 -0.1)">
       <defs>
        <path id="DejaVuSans-36" d="M 2113 2584 
Q 1688 2584 1439 2293 
Q 1191 2003 1191 1497 
Q 1191 994 1439 701 
Q 1688 409 2113 409 
Q 2538 409 2786 701 
Q 3034 994 3034 1497 
Q 3034 2003 2786 2293 
Q 2538 2584 2113 2584 
z
M 3366 4563 
L 3366 3988 
Q 3128 4100 2886 4159 
Q 2644 4219 2406 4219 
Q 1781 4219 1451 3797 
Q 1122 3375 1075 2522 
Q 1259 2794 1537 2939 
Q 1816 3084 2150 3084 
Q 2853 3084 3261 2657 
Q 3669 2231 3669 1497 
Q 3669 778 3244 343 
Q 2819 -91 2113 -91 
Q 1303 -91 875 529 
Q 447 1150 447 2328 
Q 447 3434 972 4092 
Q 1497 4750 2381 4750 
Q 2619 4750 2861 4703 
Q 3103 4656 3366 4563 
z
" transform="scale(0.015625)"/>
       </defs>
       <use xlink:href="#DejaVuSans-32"/>
       <use xlink:href="#DejaVuSans-30" transform="translate(63.623047 0)"/>
       <use xlink:href="#DejaVuSans-32" transform="translate(127.246094 0)"/>
       <use xlink:href="#DejaVuSans-36" transform="translate(190.869141 0)"/>
       <use xlink:href="#DejaVuSans-2d" transform="translate(254.492188 0)"/>
       <use xlink:href="#DejaVuSans-30" transform="translate(290.576172 0)"/>
       <use xlink:href="#DejaVuSans-31" transform="translate(354.199219 0)"/>
      </g>
     </g>
    </g>
    <g id="xtick_7">
     <g id="line2d_13">
      <path d="M 861.165957 253.277813 
L 861.165957 23.837812 
" clip-path="url(#p35bc12d244)" style="fill: none; stroke: #625e5a; stroke-opacity: 0.2; stroke-width: 0.8; stroke-linecap: square"/>
     </g>
     <g id="line2d_14">
      <g>
       <use xlink:href="#mb6514337d4" x="861.165957" y="253.277813" style="fill: #c5c9c5; stroke: #c5c9c5; stroke-width: 0.8"/>
      </g>
     </g>
     <g id="text_7">
      <!-- 2026-02 -->
      <g style="fill: #c5c9c5" transform="translate(840.274551 267.87625) scale(0.1 -0.1)">
       <use xlink:href="#DejaVuSans-32"/>
       <use xlink:href="#DejaVuSans-30" transform="translate(63.623047 0)"/>
       <use xlink:href="#DejaVuSans-32" transform="translate(127.246094 0)"/>
       <use xlink:href="#DejaVuSans-36" transform="translate(190.869141 0)"/>
       <use xlink:href="#DejaVuSans-2d" transform="translate(254.492188 0)"/>
       <use xlink:href="#DejaVuSans-30" transform="translate(290.576172 0)"/>
       <use xlink:href="#DejaVuSans-32" transform="translate(354.199219 0)"/>
      </g>
     </g>
    </g>
    <g id="xtick_8">
     <g id="line2d_15">
      <path d="M 970.368252 253.277813 
L 970.368252 23.837812 
" clip-path="url(#p35bc12d244)" style="fill: none; stroke: #625e5a; stroke-opacity: 0.2; stroke-width: 0.8; stroke-linecap: square"/>
     </g>
     <g id="line2d_16">
      <g>
       <use xlink:href="#mb6514337d4" x="970.368252" y="253.277813" style="fill: #c5c9c5; stroke: #c5c9c5; stroke-width: 0.8"/>
      </g>
     </g>
     <g id="text_8">
      <!-- 2026-03 -->
      <g style="fill: #c5c9c5" transform="translate(949.476846 267.87625) scale(0.1 -0.1)">
       <defs>
        <path id="DejaVuSans-33" d="M 2597 2516 
Q 3050 2419 3304 2112 
Q 3559 1806 3559 1356 
Q 3559 666 3084 287 
Q 2609 -91 1734 -91 
Q 1441 -91 1130 -33 
Q 819 25 488 141 
L 488 750 
Q 750 597 1062 519 
Q 1375 441 1716 441 
Q 2309 441 2620 675 
Q 2931 909 2931 1356 
Q 2931 1769 2642 2001 
Q 2353 2234 1838 2234 
L 1294 2234 
L 1294 2753 
L 1863 2753 
Q 2328 2753 2575 2939 
Q 2822 3125 2822 3475 
Q 2822 3834 2567 4026 
Q 2313 4219 1838 4219 
Q 1578 4219 1281 4162 
Q 984 4106 628 3988 
L 628 4550 
Q 988 4650 1302 4700 
Q 1616 4750 1894 4750 
Q 2613 4750 3031 4423 
Q 3450 4097 3450 3541 
Q 3450 3153 3228 2886 
Q 3006 2619 2597 2516 
z
" transform="scale(0.015625)"/>
       </defs>
       <use xlink:href="#DejaVuSans-32"/>
       <use xlink:href="#DejaVuSans-30" transform="translate(63.623047 0)"/>
       <use xlink:href="#DejaVuSans-32" transform="translate(127.246094 0)"/>
       <use xlink:href="#DejaVuSans-36" transform="translate(190.869141 0)"/>
       <use xlink:href="#DejaVuSans-2d" transform="translate(254.492188 0)"/>
       <use xlink:href="#DejaVuSans-30" transform="translate(290.576172 0)"/>
       <use xlink:href="#DejaVuSans-33" transform="translate(354.199219 0)"/>
      </g>
     </g>
    </g>
   </g>
   <g id="matplotlib.axis_2">
    <g id="ytick_1">
     <g id="line2d_17">
      <path d="M 42.53875 252.899309 
L 977.778408 252.899309 
" clip-path="url(#p35bc12d244)" style="fill: none; stroke: #625e5a; stroke-opacity: 0.2; stroke-width: 0.8; stroke-linecap: square"/>
     </g>
     <g id="line2d_18">
      <defs>
       <path id="madd02c8e96" d="M 0 0 
L -3.5 0 
" style="stroke: #c5c9c5; stroke-width: 0.8"/>
      </defs>
      <g>
       <use xlink:href="#madd02c8e96" x="42.53875" y="252.899309" style="fill: #c5c9c5; stroke: #c5c9c5; stroke-width: 0.8"/>
      </g>
     </g>
     <g id="text_9">
      <!-- 30 -->
      <g style="fill: #c5c9c5" transform="translate(22.81375 256.698527) scale(0.1 -0.1)">
       <use xlink:href="#DejaVuSans-33"/>
       <use xlink:href="#DejaVuSans-30" transform="translate(63.623047 0)"/>
      </g>
     </g>
    </g>
    <g id="ytick_2">
     <g id="line2d_19">
      <path d="M 42.53875 214.479544 
L 977.778408 214.479544 
" clip-path="url(#p35bc12d244)" style="fill: none; stroke: #625e5a; stroke-opacity: 0.2; stroke-width: 0.8; stroke-linecap: square"/>
     </g>
     <g id="line2d_20">
      <g>
       <use xlink:href="#madd02c8e96" x="42.53875" y="214.479544" style="fill: #c5c9c5; stroke: #c5c9c5; stroke-width: 0.8"/>
      </g>
     </g>
     <g id="text_10">
      <!-- 35 -->
      <g style="fill: #c5c9c5" transform="translate(22.81375 218.278762) scale(0.1 -0.1)">
       <use xlink:href="#DejaVuSans-33"/>
       <use xlink:href="#DejaVuSans-35" transform="translate(63.623047 0)"/>
      </g>
     </g>
    </g>
    <g id="ytick_3">
     <g id="line2d_21">
      <path d="M 42.53875 176.059779 
L 977.778408 176.059779 
" clip-path="url(#p35bc12d244)" style="fill: none; stroke: #625e5a; stroke-opacity: 0.2; stroke-width: 0.8; stroke-linecap: square"/>
     </g>
     <g id="line2d_22">
      <g>
       <use xlink:href="#madd02c8e96" x="42.53875" y="176.059779" style="fill: #c5c9c5; stroke: #c5c9c5; stroke-width: 0.8"/>
      </g>
     </g>
     <g id="text_11">
      <!-- 40 -->
      <g style="fill: #c5c9c5" transform="translate(22.81375 179.858997) scale(0.1 -0.1)">
       <defs>
        <path id="DejaVuSans-34" d="M 2419 4116 
L 825 1625 
L 2419 1625 
L 2419 4116 
z
M 2253 4666 
L 3047 4666 
L 3047 1625 
L 3713 1625 
L 3713 1100 
L 3047 1100 
L 3047 0 
L 2419 0 
L 2419 1100 
L 313 1100 
L 313 1709 
L 2253 4666 
z
" transform="scale(0.015625)"/>
       </defs>
       <use xlink:href="#DejaVuSans-34"/>
       <use xlink:href="#DejaVuSans-30" transform="translate(63.623047 0)"/>
      </g>
     </g>
    </g>
    <g id="ytick_4">
     <g id="line2d_23">
      <path d="M 42.53875 137.640014 
L 977.778408 137.640014 
" clip-path="url(#p35bc12d244)" style="fill: none; stroke: #625e5a; stroke-opacity: 0.2; stroke-width: 0.8; stroke-linecap: square"/>
     </g>
     <g id="line2d_24">
      <g>
       <use xlink:href="#madd02c8e96" x="42.53875" y="137.640014" style="fill: #c5c9c5; stroke: #c5c9c5; stroke-width: 0.8"/>
      </g>
     </g>
     <g id="text_12">
      <!-- 45 -->
      <g style="fill: #c5c9c5" transform="translate(22.81375 141.439232) scale(0.1 -0.1)">
       <use xlink:href="#DejaVuSans-34"/>
       <use xlink:href="#DejaVuSans-35" transform="translate(63.623047 0)"/>
      </g>
     </g>
    </g>
    <g id="ytick_5">
     <g id="line2d_25">
      <path d="M 42.53875 99.220249 
L 977.778408 99.220249 
" clip-path="url(#p35bc12d244)" style="fill: none; stroke: #625e5a; stroke-opacity: 0.2; stroke-width: 0.8; stroke-linecap: square"/>
     </g>
     <g id="line2d_26">
      <g>
       <use xlink:href="#madd02c8e96" x="42.53875" y="99.220249" style="fill: #c5c9c5; stroke: #c5c9c5; stroke-width: 0.8"/>
      </g>
     </g>
     <g id="text_13">
      <!-- 50 -->
      <g style="fill: #c5c9c5" transform="translate(22.81375 103.019467) scale(0.1 -0.1)">
       <use xlink:href="#DejaVuSans-35"/>
       <use xlink:href="#DejaVuSans-30" transform="translate(63.623047 0)"/>
      </g>
     </g>
    </g>
    <g id="ytick_6">
     <g id="line2d_27">
      <path d="M 42.53875 60.800484 
L 977.778408 60.800484 
" clip-path="url(#p35bc12d244)" style="fill: none; stroke: #625e5a; stroke-opacity: 0.2; stroke-width: 0.8; stroke-linecap: square"/>
     </g>
     <g id="line2d_28">
      <g>
       <use xlink:href="#madd02c8e96" x="42.53875" y="60.800484" style="fill: #c5c9c5; stroke: #c5c9c5; stroke-width: 0.8"/>
      </g>
     </g>
     <g id="text_14">
      <!-- 55 -->
      <g style="fill: #c5c9c5" transform="translate(22.81375 64.599702) scale(0.1 -0.1)">
       <use xlink:href="#DejaVuSans-35"/>
       <use xlink:href="#DejaVuSans-35" transform="translate(63.623047 0)"/>
      </g>
     </g>
    </g>
    <g id="text_15">
     <!-- Volatility (%) -->
     <g style="fill: #c5c9c5" transform="translate(16.318125 176.758125) rotate(-90) scale(0.12 -0.12)">
      <defs>
       <path id="DejaVuSans-56" d="M 1831 0 
L 50 4666 
L 709 4666 
L 2188 738 
L 3669 4666 
L 4325 4666 
L 2547 0 
L 1831 0 
z
" transform="scale(0.015625)"/>
       <path id="DejaVuSans-6f" d="M 1959 3097 
Q 1497 3097 1228 2736 
Q 959 2375 959 1747 
Q 959 1119 1226 758 
Q 1494 397 1959 397 
Q 2419 397 2687 759 
Q 2956 1122 2956 1747 
Q 2956 2369 2687 2733 
Q 2419 3097 1959 3097 
z
M 1959 3584 
Q 2709 3584 3137 3096 
Q 3566 2609 3566 1747 
Q 3566 888 3137 398 
Q 2709 -91 1959 -91 
Q 1206 -91 779 398 
Q 353 888 353 1747 
Q 353 2609 779 3096 
Q 1206 3584 1959 3584 
z
" transform="scale(0.015625)"/>
       <path id="DejaVuSans-6c" d="M 603 4863 
L 1178 4863 
L 1178 0 
L 603 0 
L 603 4863 
z
" transform="scale(0.015625)"/>
       <path id="DejaVuSans-61" d="M 2194 1759 
Q 1497 1759 1228 1600 
Q 959 1441 959 1056 
Q 959 750 1161 570 
Q 1363 391 1709 391 
Q 2188 391 2477 730 
Q 2766 1069 2766 1631 
L 2766 1759 
L 2194 1759 
z
M 3341 1997 
L 3341 0 
L 2766 0 
L 2766 531 
Q 2569 213 2275 61 
Q 1981 -91 1556 -91 
Q 1019 -91 701 211 
Q 384 513 384 1019 
Q 384 1609 779 1909 
Q 1175 2209 1959 2209 
L 2766 2209 
L 2766 2266 
Q 2766 2663 2505 2880 
Q 2244 3097 1772 3097 
Q 1472 3097 1187 3025 
Q 903 2953 641 2809 
L 641 3341 
Q 956 3463 1253 3523 
Q 1550 3584 1831 3584 
Q 2591 3584 2966 3190 
Q 3341 2797 3341 1997 
z
" transform="scale(0.015625)"/>
       <path id="DejaVuSans-74" d="M 1172 4494 
L 1172 3500 
L 2356 3500 
L 2356 3053 
L 1172 3053 
L 1172 1153 
Q 1172 725 1289 603 
Q 1406 481 1766 481 
L 2356 481 
L 2356 0 
L 1766 0 
Q 1100 0 847 248 
Q 594 497 594 1153 
L 594 3053 
L 172 3053 
L 172 3500 
L 594 3500 
L 594 4494 
L 1172 4494 
z
" transform="scale(0.015625)"/>
       <path id="DejaVuSans-69" d="M 603 3500 
L 1178 3500 
L 1178 0 
L 603 0 
L 603 3500 
z
M 603 4863 
L 1178 4863 
L 1178 4134 
L 603 4134 
L 603 4863 
z
" transform="scale(0.015625)"/>
       <path id="DejaVuSans-79" d="M 2059 -325 
Q 1816 -950 1584 -1140 
Q 1353 -1331 966 -1331 
L 506 -1331 
L 506 -850 
L 844 -850 
Q 1081 -850 1212 -737 
Q 1344 -625 1503 -206 
L 1606 56 
L 191 3500 
L 800 3500 
L 1894 763 
L 2988 3500 
L 3597 3500 
L 2059 -325 
z
" transform="scale(0.015625)"/>
       <path id="DejaVuSans-20" transform="scale(0.015625)"/>
       <path id="DejaVuSans-28" d="M 1984 4856 
Q 1566 4138 1362 3434 
Q 1159 2731 1159 2009 
Q 1159 1288 1364 580 
Q 1569 -128 1984 -844 
L 1484 -844 
Q 1016 -109 783 600 
Q 550 1309 550 2009 
Q 550 2706 781 3412 
Q 1013 4119 1484 4856 
L 1984 4856 
z
" transform="scale(0.015625)"/>
       <path id="DejaVuSans-25" d="M 4653 2053 
Q 4381 2053 4226 1822 
Q 4072 1591 4072 1178 
Q 4072 772 4226 539 
Q 4381 306 4653 306 
Q 4919 306 5073 539 
Q 5228 772 5228 1178 
Q 5228 1588 5073 1820 
Q 4919 2053 4653 2053 
z
M 4653 2450 
Q 5147 2450 5437 2106 
Q 5728 1763 5728 1178 
Q 5728 594 5436 251 
Q 5144 -91 4653 -91 
Q 4153 -91 3862 251 
Q 3572 594 3572 1178 
Q 3572 1766 3864 2108 
Q 4156 2450 4653 2450 
z
M 1428 4353 
Q 1159 4353 1004 4120 
Q 850 3888 850 3481 
Q 850 3069 1003 2837 
Q 1156 2606 1428 2606 
Q 1700 2606 1854 2837 
Q 2009 3069 2009 3481 
Q 2009 3884 1853 4118 
Q 1697 4353 1428 4353 
z
M 4250 4750 
L 4750 4750 
L 1831 -91 
L 1331 -91 
L 4250 4750 
z
M 1428 4750 
Q 1922 4750 2215 4408 
Q 2509 4066 2509 3481 
Q 2509 2891 2217 2550 
Q 1925 2209 1428 2209 
Q 931 2209 642 2551 
Q 353 2894 353 3481 
Q 353 4063 643 4406 
Q 934 4750 1428 4750 
z
" transform="scale(0.015625)"/>
       <path id="DejaVuSans-29" d="M 513 4856 
L 1013 4856 
Q 1481 4119 1714 3412 
Q 1947 2706 1947 2009 
Q 1947 1309 1714 600 
Q 1481 -109 1013 -844 
L 513 -844 
Q 928 -128 1133 580 
Q 1338 1288 1338 2009 
Q 1338 2731 1133 3434 
Q 928 4138 513 4856 
z
" transform="scale(0.015625)"/>
      </defs>
      <use xlink:href="#DejaVuSans-56"/>
      <use xlink:href="#DejaVuSans-6f" transform="translate(60.658203 0)"/>
      <use xlink:href="#DejaVuSans-6c" transform="translate(121.839844 0)"/>
      <use xlink:href="#DejaVuSans-61" transform="translate(149.623047 0)"/>
      <use xlink:href="#DejaVuSans-74" transform="translate(210.902344 0)"/>
      <use xlink:href="#DejaVuSans-69" transform="translate(250.111328 0)"/>
      <use xlink:href="#DejaVuSans-6c" transform="translate(277.894531 0)"/>
      <use xlink:href="#DejaVuSans-69" transform="translate(305.677734 0)"/>
      <use xlink:href="#DejaVuSans-74" transform="translate(333.460938 0)"/>
      <use xlink:href="#DejaVuSans-79" transform="translate(372.669922 0)"/>
      <use xlink:href="#DejaVuSans-20" transform="translate(431.849609 0)"/>
      <use xlink:href="#DejaVuSans-28" transform="translate(463.636719 0)"/>
      <use xlink:href="#DejaVuSans-25" transform="translate(502.650391 0)"/>
      <use xlink:href="#DejaVuSans-29" transform="translate(597.669922 0)"/>
     </g>
    </g>
   </g>
   <g id="line2d_29">
    <path d="M 85.049644 48.761721 
L 88.949726 50.6947 
L 100.649971 52.661273 
L 104.550053 54.727652 
L 108.450135 76.318673 
L 112.350217 40.672188 
L 116.250299 44.018992 
L 127.950545 39.158508 
L 131.850627 41.696271 
L 135.750709 38.752085 
L 139.650791 70.937286 
L 143.550873 89.174105 
L 155.251119 82.41306 
L 159.151201 145.654226 
L 163.051283 147.773486 
L 166.951365 147.944306 
L 170.851447 144.348152 
L 182.551693 137.58929 
L 186.451775 132.989643 
L 194.251939 128.591547 
L 198.152021 125.590784 
L 209.852267 126.888645 
L 213.752349 127.54909 
L 217.652431 123.256542 
L 221.552513 123.742148 
L 225.452595 176.980489 
L 237.152841 182.848231 
L 241.052923 190.364931 
L 244.953005 191.445806 
L 248.853087 193.564568 
L 252.753169 193.546672 
L 268.353496 194.440945 
L 272.253578 190.806403 
L 276.15366 190.036341 
L 280.053742 181.483673 
L 291.753988 177.299767 
L 295.65407 184.224297 
L 299.554152 189.32383 
L 303.454234 191.019497 
L 307.354316 188.116537 
L 319.054562 138.477605 
L 322.954644 140.833444 
L 326.854726 130.924822 
L 330.754808 132.814436 
L 334.65489 145.553704 
L 346.355136 141.719897 
L 350.255218 144.885624 
L 354.1553 150.403575 
L 358.055382 141.466577 
L 361.955464 135.750708 
L 373.65571 139.317265 
L 377.555792 140.348814 
L 381.455874 142.896798 
L 385.355956 139.535984 
L 389.256038 120.987154 
L 400.956284 121.903829 
L 408.756448 109.84621 
L 412.65653 105.161677 
L 416.556612 97.599065 
L 428.256858 99.035897 
L 432.156939 131.260213 
L 436.057021 128.880964 
L 439.957103 132.853027 
L 443.857185 129.839989 
L 455.557431 129.782666 
L 459.457513 135.878325 
L 463.357595 133.126747 
L 467.257677 97.731228 
L 471.157759 97.670761 
L 482.858005 96.463175 
L 486.758087 95.419628 
L 490.658169 95.963966 
L 494.558251 93.140789 
L 498.458333 102.061072 
L 510.158579 118.89981 
L 514.058661 116.926371 
L 521.858825 98.145926 
L 525.758907 93.473772 
L 537.459153 97.597875 
L 541.359235 104.662363 
L 545.259317 109.699221 
L 549.159399 101.826936 
L 553.059481 80.176884 
L 564.759727 66.068428 
L 568.659809 64.297878 
L 572.559891 58.639691 
L 576.459973 34.266903 
L 580.360055 52.268202 
L 592.060301 45.554751 
L 595.960383 48.720891 
L 599.860464 48.873412 
L 607.660628 51.585507 
L 619.360874 56.517971 
L 623.260956 57.050997 
L 627.161038 59.264909 
L 631.06112 69.510874 
L 634.961202 82.667625 
L 646.661448 93.928307 
L 650.56153 97.889544 
L 654.461612 105.10519 
L 658.361694 106.546356 
L 662.261776 103.393061 
L 673.962022 111.505743 
L 677.862104 137.668495 
L 681.762186 148.844376 
L 685.662268 147.6392 
L 689.56235 148.079784 
L 701.262596 178.669512 
L 705.162678 190.720209 
L 709.06276 200.984732 
L 716.862924 205.876659 
L 728.56317 206.524605 
L 732.463252 206.148295 
L 736.363334 209.889599 
L 744.163498 205.837164 
L 755.863744 201.148882 
L 759.763826 193.897813 
L 763.663908 194.882416 
L 767.563989 199.040845 
L 771.464071 198.854136 
L 783.164317 194.954504 
L 787.064399 197.720562 
L 790.964481 203.137343 
L 794.864563 211.580245 
L 798.764645 220.973175 
L 814.364973 225.519635 
L 818.265055 229.349635 
L 822.165137 229.675113 
L 826.065219 236.60267 
L 837.765465 235.820321 
L 841.665547 241.728732 
L 845.565629 242.848722 
L 849.465711 232.794954 
L 853.365793 218.391503 
L 865.066039 206.44363 
L 868.966121 210.031611 
L 872.866203 205.819393 
L 876.766285 200.248817 
L 880.666367 193.732264 
L 892.366613 192.897462 
L 896.266695 198.834091 
L 900.166777 197.572053 
L 904.066859 187.968665 
L 907.966941 185.949657 
L 923.567269 178.498991 
L 927.467351 180.864376 
L 931.367433 183.45309 
L 935.267515 189.372417 
L 935.267515 189.372417 
" clip-path="url(#p35bc12d244)" style="fill: none; stroke: #8ea4a2; stroke-width: 2; stroke-linecap: square"/>
   </g>
   <g id="patch_3">
    <path d="M 42.53875 253.277813 
L 42.53875 23.837812 
" style="fill: none; stroke: #625e5a; stroke-width: 0.8; stroke-linejoin: miter; stroke-linecap: square"/>
   </g>
   <g id="patch_4">
    <path d="M 977.778408 253.277813 
L 977.778408 23.837812 
" style="fill: none; stroke: #625e5a; stroke-width: 0.8; stroke-linejoin: miter; stroke-linecap: square"/>
   </g>
   <g id="patch_5">
    <path d="M 42.53875 253.277813 
L 977.778408 253.277813 
" style="fill: none; stroke: #625e5a; stroke-width: 0.8; stroke-linejoin: miter; stroke-linecap: square"/>
   </g>
   <g id="patch_6">
    <path d="M 42.53875 23.837812 
L 977.778408 23.837812 
" style="fill: none; stroke: #625e5a; stroke-width: 0.8; stroke-linejoin: miter; stroke-linecap: square"/>
   </g>
   <g id="text_16">
    <!-- TSLA - Realized Volatility -->
    <g style="fill: #c5c9c5" transform="translate(411.336079 17.837812) scale(0.14 -0.14)">
     <defs>
      <path id="DejaVuSans-Bold-54" d="M 31 4666 
L 4331 4666 
L 4331 3756 
L 2784 3756 
L 2784 0 
L 1581 0 
L 1581 3756 
L 31 3756 
L 31 4666 
z
" transform="scale(0.015625)"/>
      <path id="DejaVuSans-Bold-53" d="M 3834 4519 
L 3834 3531 
Q 3450 3703 3084 3790 
Q 2719 3878 2394 3878 
Q 1963 3878 1756 3759 
Q 1550 3641 1550 3391 
Q 1550 3203 1689 3098 
Q 1828 2994 2194 2919 
L 2706 2816 
Q 3484 2659 3812 2340 
Q 4141 2022 4141 1434 
Q 4141 663 3683 286 
Q 3225 -91 2284 -91 
Q 1841 -91 1394 -6 
Q 947 78 500 244 
L 500 1259 
Q 947 1022 1364 901 
Q 1781 781 2169 781 
Q 2563 781 2772 912 
Q 2981 1044 2981 1288 
Q 2981 1506 2839 1625 
Q 2697 1744 2272 1838 
L 1806 1941 
Q 1106 2091 782 2419 
Q 459 2747 459 3303 
Q 459 4000 909 4375 
Q 1359 4750 2203 4750 
Q 2588 4750 2994 4692 
Q 3400 4634 3834 4519 
z
" transform="scale(0.015625)"/>
      <path id="DejaVuSans-Bold-4c" d="M 588 4666 
L 1791 4666 
L 1791 909 
L 3903 909 
L 3903 0 
L 588 0 
L 588 4666 
z
" transform="scale(0.015625)"/>
      <path id="DejaVuSans-Bold-41" d="M 3419 850 
L 1538 850 
L 1241 0 
L 31 0 
L 1759 4666 
L 3194 4666 
L 4922 0 
L 3713 0 
L 3419 850 
z
M 1838 1716 
L 3116 1716 
L 2478 3572 
L 1838 1716 
z
" transform="scale(0.015625)"/>
      <path id="DejaVuSans-Bold-20" transform="scale(0.015625)"/>
      <path id="DejaVuSans-Bold-2d" d="M 347 2297 
L 2309 2297 
L 2309 1388 
L 347 1388 
L 347 2297 
z
" transform="scale(0.015625)"/>
      <path id="DejaVuSans-Bold-52" d="M 2297 2597 
Q 2675 2597 2839 2737 
Q 3003 2878 3003 3200 
Q 3003 3519 2839 3656 
Q 2675 3794 2297 3794 
L 1791 3794 
L 1791 2597 
L 2297 2597 
z
M 1791 1766 
L 1791 0 
L 588 0 
L 588 4666 
L 2425 4666 
Q 3347 4666 3776 4356 
Q 4206 4047 4206 3378 
Q 4206 2916 3982 2619 
Q 3759 2322 3309 2181 
Q 3556 2125 3751 1926 
Q 3947 1728 4147 1325 
L 4800 0 
L 3519 0 
L 2950 1159 
Q 2778 1509 2601 1637 
Q 2425 1766 2131 1766 
L 1791 1766 
z
" transform="scale(0.015625)"/>
      <path id="DejaVuSans-Bold-65" d="M 4031 1759 
L 4031 1441 
L 1416 1441 
Q 1456 1047 1700 850 
Q 1944 653 2381 653 
Q 2734 653 3104 758 
Q 3475 863 3866 1075 
L 3866 213 
Q 3469 63 3072 -14 
Q 2675 -91 2278 -91 
Q 1328 -91 801 392 
Q 275 875 275 1747 
Q 275 2603 792 3093 
Q 1309 3584 2216 3584 
Q 3041 3584 3536 3087 
Q 4031 2591 4031 1759 
z
M 2881 2131 
Q 2881 2450 2695 2645 
Q 2509 2841 2209 2841 
Q 1884 2841 1681 2658 
Q 1478 2475 1428 2131 
L 2881 2131 
z
" transform="scale(0.015625)"/>
      <path id="DejaVuSans-Bold-61" d="M 2106 1575 
Q 1756 1575 1579 1456 
Q 1403 1338 1403 1106 
Q 1403 894 1545 773 
Q 1688 653 1941 653 
Q 2256 653 2472 879 
Q 2688 1106 2688 1447 
L 2688 1575 
L 2106 1575 
z
M 3816 1997 
L 3816 0 
L 2688 0 
L 2688 519 
Q 2463 200 2181 54 
Q 1900 -91 1497 -91 
Q 953 -91 614 226 
Q 275 544 275 1050 
Q 275 1666 698 1953 
Q 1122 2241 2028 2241 
L 2688 2241 
L 2688 2328 
Q 2688 2594 2478 2717 
Q 2269 2841 1825 2841 
Q 1466 2841 1156 2769 
Q 847 2697 581 2553 
L 581 3406 
Q 941 3494 1303 3539 
Q 1666 3584 2028 3584 
Q 2975 3584 3395 3211 
Q 3816 2838 3816 1997 
z
" transform="scale(0.015625)"/>
      <path id="DejaVuSans-Bold-6c" d="M 538 4863 
L 1656 4863 
L 1656 0 
L 538 0 
L 538 4863 
z
" transform="scale(0.015625)"/>
      <path id="DejaVuSans-Bold-69" d="M 538 3500 
L 1656 3500 
L 1656 0 
L 538 0 
L 538 3500 
z
M 538 4863 
L 1656 4863 
L 1656 3950 
L 538 3950 
L 538 4863 
z
" transform="scale(0.015625)"/>
      <path id="DejaVuSans-Bold-7a" d="M 366 3500 
L 3419 3500 
L 3419 2719 
L 1575 800 
L 3419 800 
L 3419 0 
L 288 0 
L 288 781 
L 2131 2700 
L 366 2700 
L 366 3500 
z
" transform="scale(0.015625)"/>
      <path id="DejaVuSans-Bold-64" d="M 2919 2988 
L 2919 4863 
L 4044 4863 
L 4044 0 
L 2919 0 
L 2919 506 
Q 2688 197 2409 53 
Q 2131 -91 1766 -91 
Q 1119 -91 703 423 
Q 288 938 288 1747 
Q 288 2556 703 3070 
Q 1119 3584 1766 3584 
Q 2128 3584 2408 3439 
Q 2688 3294 2919 2988 
z
M 2181 722 
Q 2541 722 2730 984 
Q 2919 1247 2919 1747 
Q 2919 2247 2730 2509 
Q 2541 2772 2181 2772 
Q 1825 2772 1636 2509 
Q 1447 2247 1447 1747 
Q 1447 1247 1636 984 
Q 1825 722 2181 722 
z
" transform="scale(0.015625)"/>
      <path id="DejaVuSans-Bold-56" d="M 31 4666 
L 1241 4666 
L 2478 1222 
L 3713 4666 
L 4922 4666 
L 3194 0 
L 1759 0 
L 31 4666 
z
" transform="scale(0.015625)"/>
      <path id="DejaVuSans-Bold-6f" d="M 2203 2784 
Q 1831 2784 1636 2517 
Q 1441 2250 1441 1747 
Q 1441 1244 1636 976 
Q 1831 709 2203 709 
Q 2569 709 2762 976 
Q 2956 1244 2956 1747 
Q 2956 2250 2762 2517 
Q 2569 2784 2203 2784 
z
M 2203 3584 
Q 3106 3584 3614 3096 
Q 4122 2609 4122 1747 
Q 4122 884 3614 396 
Q 3106 -91 2203 -91 
Q 1297 -91 786 396 
Q 275 884 275 1747 
Q 275 2609 786 3096 
Q 1297 3584 2203 3584 
z
" transform="scale(0.015625)"/>
      <path id="DejaVuSans-Bold-74" d="M 1759 4494 
L 1759 3500 
L 2913 3500 
L 2913 2700 
L 1759 2700 
L 1759 1216 
Q 1759 972 1856 886 
Q 1953 800 2241 800 
L 2816 800 
L 2816 0 
L 1856 0 
Q 1194 0 917 276 
Q 641 553 641 1216 
L 641 2700 
L 84 2700 
L 84 3500 
L 641 3500 
L 641 4494 
L 1759 4494 
z
" transform="scale(0.015625)"/>
      <path id="DejaVuSans-Bold-79" d="M 78 3500 
L 1197 3500 
L 2138 1125 
L 2938 3500 
L 4056 3500 
L 2584 -331 
Q 2363 -916 2067 -1148 
Q 1772 -1381 1288 -1381 
L 641 -1381 
L 641 -647 
L 991 -647 
Q 1275 -647 1404 -556 
Q 1534 -466 1606 -231 
L 1638 -134 
L 78 3500 
z
" transform="scale(0.015625)"/>
     </defs>
     <use xlink:href="#DejaVuSans-Bold-54"/>
     <use xlink:href="#DejaVuSans-Bold-53" transform="translate(68.212891 0)"/>
     <use xlink:href="#DejaVuSans-Bold-4c" transform="translate(140.234375 0)"/>
     <use xlink:href="#DejaVuSans-Bold-41" transform="translate(203.955078 0)"/>
     <use xlink:href="#DejaVuSans-Bold-20" transform="translate(281.347656 0)"/>
     <use xlink:href="#DejaVuSans-Bold-2d" transform="translate(316.162109 0)"/>
     <use xlink:href="#DejaVuSans-Bold-20" transform="translate(357.666016 0)"/>
     <use xlink:href="#DejaVuSans-Bold-52" transform="translate(392.480469 0)"/>
     <use xlink:href="#DejaVuSans-Bold-65" transform="translate(469.482422 0)"/>
     <use xlink:href="#DejaVuSans-Bold-61" transform="translate(537.304688 0)"/>
     <use xlink:href="#DejaVuSans-Bold-6c" transform="translate(604.785156 0)"/>
     <use xlink:href="#DejaVuSans-Bold-69" transform="translate(639.0625 0)"/>
     <use xlink:href="#DejaVuSans-Bold-7a" transform="translate(673.339844 0)"/>
     <use xlink:href="#DejaVuSans-Bold-65" transform="translate(731.542969 0)"/>
     <use xlink:href="#DejaVuSans-Bold-64" transform="translate(799.365234 0)"/>
     <use xlink:href="#DejaVuSans-Bold-20" transform="translate(870.947266 0)"/>
     <use xlink:href="#DejaVuSans-Bold-56" transform="translate(905.761719 0)"/>
     <use xlink:href="#DejaVuSans-Bold-6f" transform="translate(977.654297 0)"/>
     <use xlink:href="#DejaVuSans-Bold-6c" transform="translate(1046.355469 0)"/>
     <use xlink:href="#DejaVuSans-Bold-61" transform="translate(1080.632812 0)"/>
     <use xlink:href="#DejaVuSans-Bold-74" transform="translate(1148.113281 0)"/>
     <use xlink:href="#DejaVuSans-Bold-69" transform="translate(1195.916016 0)"/>
     <use xlink:href="#DejaVuSans-Bold-6c" transform="translate(1230.193359 0)"/>
     <use xlink:href="#DejaVuSans-Bold-69" transform="translate(1264.470703 0)"/>
     <use xlink:href="#DejaVuSans-Bold-74" transform="translate(1298.748047 0)"/>
     <use xlink:href="#DejaVuSans-Bold-79" transform="translate(1346.550781 0)"/>
    </g>
   </g>
   <g id="legend_1">
    <g id="patch_7">
     <path d="M 49.53875 46.515937 
L 234.154375 46.515937 
Q 236.154375 46.515937 236.154375 44.515937 
L 236.154375 30.837812 
Q 236.154375 28.837812 234.154375 28.837812 
L 49.53875 28.837812 
Q 47.53875 28.837812 47.53875 30.837812 
L 47.53875 44.515937 
Q 47.53875 46.515937 49.53875 46.515937 
z
" style="fill: #181616; opacity: 0.8; stroke: #625e5a; stroke-linejoin: miter"/>
    </g>
    <g id="line2d_30">
     <path d="M 51.53875 36.93625 
L 61.53875 36.93625 
L 71.53875 36.93625 
" style="fill: none; stroke: #8ea4a2; stroke-width: 2; stroke-linecap: square"/>
    </g>
    <g id="text_17">
     <!-- Realized Vol (21d Yang-Zhang) -->
     <g style="fill: #c5c9c5" transform="translate(79.53875 40.43625) scale(0.1 -0.1)">
      <defs>
       <path id="DejaVuSans-52" d="M 2841 2188 
Q 3044 2119 3236 1894 
Q 3428 1669 3622 1275 
L 4263 0 
L 3584 0 
L 2988 1197 
Q 2756 1666 2539 1819 
Q 2322 1972 1947 1972 
L 1259 1972 
L 1259 0 
L 628 0 
L 628 4666 
L 2053 4666 
Q 2853 4666 3247 4331 
Q 3641 3997 3641 3322 
Q 3641 2881 3436 2590 
Q 3231 2300 2841 2188 
z
M 1259 4147 
L 1259 2491 
L 2053 2491 
Q 2509 2491 2742 2702 
Q 2975 2913 2975 3322 
Q 2975 3731 2742 3939 
Q 2509 4147 2053 4147 
L 1259 4147 
z
" transform="scale(0.015625)"/>
       <path id="DejaVuSans-65" d="M 3597 1894 
L 3597 1613 
L 953 1613 
Q 991 1019 1311 708 
Q 1631 397 2203 397 
Q 2534 397 2845 478 
Q 3156 559 3463 722 
L 3463 178 
Q 3153 47 2828 -22 
Q 2503 -91 2169 -91 
Q 1331 -91 842 396 
Q 353 884 353 1716 
Q 353 2575 817 3079 
Q 1281 3584 2069 3584 
Q 2775 3584 3186 3129 
Q 3597 2675 3597 1894 
z
M 3022 2063 
Q 3016 2534 2758 2815 
Q 2500 3097 2075 3097 
Q 1594 3097 1305 2825 
Q 1016 2553 972 2059 
L 3022 2063 
z
" transform="scale(0.015625)"/>
       <path id="DejaVuSans-7a" d="M 353 3500 
L 3084 3500 
L 3084 2975 
L 922 459 
L 3084 459 
L 3084 0 
L 275 0 
L 275 525 
L 2438 3041 
L 353 3041 
L 353 3500 
z
" transform="scale(0.015625)"/>
       <path id="DejaVuSans-64" d="M 2906 2969 
L 2906 4863 
L 3481 4863 
L 3481 0 
L 2906 0 
L 2906 525 
Q 2725 213 2448 61 
Q 2172 -91 1784 -91 
Q 1150 -91 751 415 
Q 353 922 353 1747 
Q 353 2572 751 3078 
Q 1150 3584 1784 3584 
Q 2172 3584 2448 3432 
Q 2725 3281 2906 2969 
z
M 947 1747 
Q 947 1113 1208 752 
Q 1469 391 1925 391 
Q 2381 391 2643 752 
Q 2906 1113 2906 1747 
Q 2906 2381 2643 2742 
Q 2381 3103 1925 3103 
Q 1469 3103 1208 2742 
Q 947 2381 947 1747 
z
" transform="scale(0.015625)"/>
       <path id="DejaVuSans-59" d="M -13 4666 
L 666 4666 
L 1959 2747 
L 3244 4666 
L 3922 4666 
L 2272 2222 
L 2272 0 
L 1638 0 
L 1638 2222 
L -13 4666 
z
" transform="scale(0.015625)"/>
       <path id="DejaVuSans-6e" d="M 3513 2113 
L 3513 0 
L 2938 0 
L 2938 2094 
Q 2938 2591 2744 2837 
Q 2550 3084 2163 3084 
Q 1697 3084 1428 2787 
Q 1159 2491 1159 1978 
L 1159 0 
L 581 0 
L 581 3500 
L 1159 3500 
L 1159 2956 
Q 1366 3272 1645 3428 
Q 1925 3584 2291 3584 
Q 2894 3584 3203 3211 
Q 3513 2838 3513 2113 
z
" transform="scale(0.015625)"/>
       <path id="DejaVuSans-67" d="M 2906 1791 
Q 2906 2416 2648 2759 
Q 2391 3103 1925 3103 
Q 1463 3103 1205 2759 
Q 947 2416 947 1791 
Q 947 1169 1205 825 
Q 1463 481 1925 481 
Q 2391 481 2648 825 
Q 2906 1169 2906 1791 
z
M 3481 434 
Q 3481 -459 3084 -895 
Q 2688 -1331 1869 -1331 
Q 1566 -1331 1297 -1286 
Q 1028 -1241 775 -1147 
L 775 -588 
Q 1028 -725 1275 -790 
Q 1522 -856 1778 -856 
Q 2344 -856 2625 -561 
Q 2906 -266 2906 331 
L 2906 616 
Q 2728 306 2450 153 
Q 2172 0 1784 0 
Q 1141 0 747 490 
Q 353 981 353 1791 
Q 353 2603 747 3093 
Q 1141 3584 1784 3584 
Q 2172 3584 2450 3431 
Q 2728 3278 2906 2969 
L 2906 3500 
L 3481 3500 
L 3481 434 
z
" transform="scale(0.015625)"/>
       <path id="DejaVuSans-5a" d="M 359 4666 
L 4025 4666 
L 4025 4184 
L 1075 531 
L 4097 531 
L 4097 0 
L 288 0 
L 288 481 
L 3238 4134 
L 359 4134 
L 359 4666 
z
" transform="scale(0.015625)"/>
       <path id="DejaVuSans-68" d="M 3513 2113 
L 3513 0 
L 2938 0 
L 2938 2094 
Q 2938 2591 2744 2837 
Q 2550 3084 2163 3084 
Q 1697 3084 1428 2787 
Q 1159 2491 1159 1978 
L 1159 0 
L 581 0 
L 581 4863 
L 1159 4863 
L 1159 2956 
Q 1366 3272 1645 3428 
Q 1925 3584 2291 3584 
Q 2894 3584 3203 3211 
Q 3513 2838 3513 2113 
z
" transform="scale(0.015625)"/>
      </defs>
      <use xlink:href="#DejaVuSans-52"/>
      <use xlink:href="#DejaVuSans-65" transform="translate(64.982422 0)"/>
      <use xlink:href="#DejaVuSans-61" transform="translate(126.505859 0)"/>
      <use xlink:href="#DejaVuSans-6c" transform="translate(187.785156 0)"/>
      <use xlink:href="#DejaVuSans-69" transform="translate(215.568359 0)"/>
      <use xlink:href="#DejaVuSans-7a" transform="translate(243.351562 0)"/>
      <use xlink:href="#DejaVuSans-65" transform="translate(295.841797 0)"/>
      <use xlink:href="#DejaVuSans-64" transform="translate(357.365234 0)"/>
      <use xlink:href="#DejaVuSans-20" transform="translate(420.841797 0)"/>
      <use xlink:href="#DejaVuSans-56" transform="translate(452.628906 0)"/>
      <use xlink:href="#DejaVuSans-6f" transform="translate(513.287109 0)"/>
      <use xlink:href="#DejaVuSans-6c" transform="translate(574.46875 0)"/>
      <use xlink:href="#DejaVuSans-20" transform="translate(602.251953 0)"/>
      <use xlink:href="#DejaVuSans-28" transform="translate(634.039062 0)"/>
      <use xlink:href="#DejaVuSans-32" transform="translate(673.052734 0)"/>
      <use xlink:href="#DejaVuSans-31" transform="translate(736.675781 0)"/>
      <use xlink:href="#DejaVuSans-64" transform="translate(800.298828 0)"/>
      <use xlink:href="#DejaVuSans-20" transform="translate(863.775391 0)"/>
      <use xlink:href="#DejaVuSans-59" transform="translate(895.5625 0)"/>
      <use xlink:href="#DejaVuSans-61" transform="translate(942.896484 0)"/>
      <use xlink:href="#DejaVuSans-6e" transform="translate(1004.175781 0)"/>
      <use xlink:href="#DejaVuSans-67" transform="translate(1067.554688 0)"/>
      <use xlink:href="#DejaVuSans-2d" transform="translate(1131.03125 0)"/>
      <use xlink:href="#DejaVuSans-5a" transform="translate(1167.115234 0)"/>
      <use xlink:href="#DejaVuSans-68" transform="translate(1235.621094 0)"/>
      <use xlink:href="#DejaVuSans-61" transform="translate(1299 0)"/>
      <use xlink:href="#DejaVuSans-6e" transform="translate(1360.279297 0)"/>
      <use xlink:href="#DejaVuSans-67" transform="translate(1423.658203 0)"/>
      <use xlink:href="#DejaVuSans-29" transform="translate(1487.134766 0)"/>
     </g>
    </g>
   </g>
  </g>
  <g id="axes_2">
   <g id="patch_8">
    <path d="M 42.53875 527.397812 
L 977.778408 527.397812 
L 977.778408 297.957812 
L 42.53875 297.957812 
z
" style="fill: #181616"/>
   </g>
   <g id="patch_9">
    <path d="M 85.049644 527.397812 
L 113.390239 527.397812 
L 113.390239 483.694955 
L 85.049644 483.694955 
z
" clip-path="url(#p72bb813024)" style="fill: #8ba4b0; opacity: 0.7; stroke: #c5c9c5; stroke-linejoin: miter"/>
   </g>
   <g id="patch_10">
    <path d="M 113.390239 527.397812 
L 141.730835 527.397812 
L 141.730835 469.127336 
L 113.390239 469.127336 
z
" clip-path="url(#p72bb813024)" style="fill: #8ba4b0; opacity: 0.7; stroke: #c5c9c5; stroke-linejoin: miter"/>
   </g>
   <g id="patch_11">
    <path d="M 141.730835 527.397812 
L 170.071431 527.397812 
L 170.071431 512.830193 
L 141.730835 512.830193 
z
" clip-path="url(#p72bb813024)" style="fill: #8ba4b0; opacity: 0.7; stroke: #c5c9c5; stroke-linejoin: miter"/>
   </g>
   <g id="patch_12">
    <path d="M 170.071431 527.397812 
L 198.412026 527.397812 
L 198.412026 498.262574 
L 170.071431 498.262574 
z
" clip-path="url(#p72bb813024)" style="fill: #8ba4b0; opacity: 0.7; stroke: #c5c9c5; stroke-linejoin: miter"/>
   </g>
   <g id="patch_13">
    <path d="M 198.412026 527.397812 
L 226.752622 527.397812 
L 226.752622 483.694955 
L 198.412026 483.694955 
z
" clip-path="url(#p72bb813024)" style="fill: #8ba4b0; opacity: 0.7; stroke: #c5c9c5; stroke-linejoin: miter"/>
   </g>
   <g id="patch_14">
    <path d="M 226.752622 527.397812 
L 255.093218 527.397812 
L 255.093218 410.85686 
L 226.752622 410.85686 
z
" clip-path="url(#p72bb813024)" style="fill: #8ba4b0; opacity: 0.7; stroke: #c5c9c5; stroke-linejoin: miter"/>
   </g>
   <g id="patch_15">
    <path d="M 255.093218 527.397812 
L 283.433813 527.397812 
L 283.433813 381.721622 
L 255.093218 381.721622 
z
" clip-path="url(#p72bb813024)" style="fill: #8ba4b0; opacity: 0.7; stroke: #c5c9c5; stroke-linejoin: miter"/>
   </g>
   <g id="patch_16">
    <path d="M 283.433813 527.397812 
L 311.774409 527.397812 
L 311.774409 308.883527 
L 283.433813 308.883527 
z
" clip-path="url(#p72bb813024)" style="fill: #8ba4b0; opacity: 0.7; stroke: #c5c9c5; stroke-linejoin: miter"/>
   </g>
   <g id="patch_17">
    <path d="M 311.774409 527.397812 
L 340.115005 527.397812 
L 340.115005 439.992098 
L 311.774409 439.992098 
z
" clip-path="url(#p72bb813024)" style="fill: #8ba4b0; opacity: 0.7; stroke: #c5c9c5; stroke-linejoin: miter"/>
   </g>
   <g id="patch_18">
    <path d="M 340.115005 527.397812 
L 368.455601 527.397812 
L 368.455601 469.127336 
L 340.115005 469.127336 
z
" clip-path="url(#p72bb813024)" style="fill: #8ba4b0; opacity: 0.7; stroke: #c5c9c5; stroke-linejoin: miter"/>
   </g>
   <g id="patch_19">
    <path d="M 368.455601 527.397812 
L 396.796196 527.397812 
L 396.796196 527.397812 
L 368.455601 527.397812 
z
" clip-path="url(#p72bb813024)" style="fill: #8ba4b0; opacity: 0.7; stroke: #c5c9c5; stroke-linejoin: miter"/>
   </g>
   <g id="patch_20">
    <path d="M 396.796196 527.397812 
L 425.136792 527.397812 
L 425.136792 527.397812 
L 396.796196 527.397812 
z
" clip-path="url(#p72bb813024)" style="fill: #8ba4b0; opacity: 0.7; stroke: #c5c9c5; stroke-linejoin: miter"/>
   </g>
   <g id="patch_21">
    <path d="M 425.136792 527.397812 
L 453.477388 527.397812 
L 453.477388 527.397812 
L 425.136792 527.397812 
z
" clip-path="url(#p72bb813024)" style="fill: #8ba4b0; opacity: 0.7; stroke: #c5c9c5; stroke-linejoin: miter"/>
   </g>
   <g id="patch_22">
    <path d="M 453.477388 527.397812 
L 481.817983 527.397812 
L 481.817983 410.85686 
L 453.477388 410.85686 
z
" clip-path="url(#p72bb813024)" style="fill: #8ba4b0; opacity: 0.7; stroke: #c5c9c5; stroke-linejoin: miter"/>
   </g>
   <g id="patch_23">
    <path d="M 481.817983 527.397812 
L 510.158579 527.397812 
L 510.158579 396.289241 
L 481.817983 396.289241 
z
" clip-path="url(#p72bb813024)" style="fill: #8ba4b0; opacity: 0.7; stroke: #c5c9c5; stroke-linejoin: miter"/>
   </g>
   <g id="patch_24">
    <path d="M 510.158579 527.397812 
L 538.499175 527.397812 
L 538.499175 396.289241 
L 510.158579 396.289241 
z
" clip-path="url(#p72bb813024)" style="fill: #8ba4b0; opacity: 0.7; stroke: #c5c9c5; stroke-linejoin: miter"/>
   </g>
   <g id="patch_25">
    <path d="M 538.499175 527.397812 
L 566.83977 527.397812 
L 566.83977 381.721622 
L 538.499175 381.721622 
z
" clip-path="url(#p72bb813024)" style="fill: #8ba4b0; opacity: 0.7; stroke: #c5c9c5; stroke-linejoin: miter"/>
   </g>
   <g id="patch_26">
    <path d="M 566.83977 527.397812 
L 595.180366 527.397812 
L 595.180366 454.559717 
L 566.83977 454.559717 
z
" clip-path="url(#p72bb813024)" style="fill: #8ba4b0; opacity: 0.7; stroke: #c5c9c5; stroke-linejoin: miter"/>
   </g>
   <g id="patch_27">
    <path d="M 595.180366 527.397812 
L 623.520962 527.397812 
L 623.520962 483.694955 
L 595.180366 483.694955 
z
" clip-path="url(#p72bb813024)" style="fill: #8ba4b0; opacity: 0.7; stroke: #c5c9c5; stroke-linejoin: miter"/>
   </g>
   <g id="patch_28">
    <path d="M 623.520962 527.397812 
L 651.861558 527.397812 
L 651.861558 425.424479 
L 623.520962 425.424479 
z
" clip-path="url(#p72bb813024)" style="fill: #8ba4b0; opacity: 0.7; stroke: #c5c9c5; stroke-linejoin: miter"/>
   </g>
   <g id="patch_29">
    <path d="M 651.861558 527.397812 
L 680.202153 527.397812 
L 680.202153 381.721622 
L 651.861558 381.721622 
z
" clip-path="url(#p72bb813024)" style="fill: #8ba4b0; opacity: 0.7; stroke: #c5c9c5; stroke-linejoin: miter"/>
   </g>
   <g id="patch_30">
    <path d="M 680.202153 527.397812 
L 708.542749 527.397812 
L 708.542749 439.992098 
L 680.202153 439.992098 
z
" clip-path="url(#p72bb813024)" style="fill: #8ba4b0; opacity: 0.7; stroke: #c5c9c5; stroke-linejoin: miter"/>
   </g>
   <g id="patch_31">
    <path d="M 708.542749 527.397812 
L 736.883345 527.397812 
L 736.883345 512.830193 
L 708.542749 512.830193 
z
" clip-path="url(#p72bb813024)" style="fill: #8ba4b0; opacity: 0.7; stroke: #c5c9c5; stroke-linejoin: miter"/>
   </g>
   <g id="patch_32">
    <path d="M 736.883345 527.397812 
L 765.22394 527.397812 
L 765.22394 469.127336 
L 736.883345 469.127336 
z
" clip-path="url(#p72bb813024)" style="fill: #8ba4b0; opacity: 0.7; stroke: #c5c9c5; stroke-linejoin: miter"/>
   </g>
   <g id="patch_33">
    <path d="M 765.22394 527.397812 
L 793.564536 527.397812 
L 793.564536 498.262574 
L 765.22394 498.262574 
z
" clip-path="url(#p72bb813024)" style="fill: #8ba4b0; opacity: 0.7; stroke: #c5c9c5; stroke-linejoin: miter"/>
   </g>
   <g id="patch_34">
    <path d="M 793.564536 527.397812 
L 821.905132 527.397812 
L 821.905132 498.262574 
L 793.564536 498.262574 
z
" clip-path="url(#p72bb813024)" style="fill: #8ba4b0; opacity: 0.7; stroke: #c5c9c5; stroke-linejoin: miter"/>
   </g>
   <g id="patch_35">
    <path d="M 821.905132 527.397812 
L 850.245727 527.397812 
L 850.245727 469.127336 
L 821.905132 469.127336 
z
" clip-path="url(#p72bb813024)" style="fill: #8ba4b0; opacity: 0.7; stroke: #c5c9c5; stroke-linejoin: miter"/>
   </g>
   <g id="patch_36">
    <path d="M 850.245727 527.397812 
L 878.586323 527.397812 
L 878.586323 410.85686 
L 850.245727 410.85686 
z
" clip-path="url(#p72bb813024)" style="fill: #8ba4b0; opacity: 0.7; stroke: #c5c9c5; stroke-linejoin: miter"/>
   </g>
   <g id="patch_37">
    <path d="M 878.586323 527.397812 
L 906.926919 527.397812 
L 906.926919 483.694955 
L 878.586323 483.694955 
z
" clip-path="url(#p72bb813024)" style="fill: #8ba4b0; opacity: 0.7; stroke: #c5c9c5; stroke-linejoin: miter"/>
   </g>
   <g id="patch_38">
    <path d="M 906.926919 527.397812 
L 935.267515 527.397812 
L 935.267515 469.127336 
L 906.926919 469.127336 
z
" clip-path="url(#p72bb813024)" style="fill: #8ba4b0; opacity: 0.7; stroke: #c5c9c5; stroke-linejoin: miter"/>
   </g>
   <g id="matplotlib.axis_3">
    <g id="xtick_9">
     <g id="line2d_31">
      <g>
       <use xlink:href="#mb6514337d4" x="44.081601" y="527.397812" style="fill: #c5c9c5; stroke: #c5c9c5; stroke-width: 0.8"/>
      </g>
     </g>
     <g id="text_18">
      <!-- 30 -->
      <g style="fill: #c5c9c5" transform="translate(37.719101 541.99625) scale(0.1 -0.1)">
       <use xlink:href="#DejaVuSans-33"/>
       <use xlink:href="#DejaVuSans-30" transform="translate(63.623047 0)"/>
      </g>
     </g>
    </g>
    <g id="xtick_10">
     <g id="line2d_32">
      <g>
       <use xlink:href="#mb6514337d4" x="200.687633" y="527.397812" style="fill: #c5c9c5; stroke: #c5c9c5; stroke-width: 0.8"/>
      </g>
     </g>
     <g id="text_19">
      <!-- 35 -->
      <g style="fill: #c5c9c5" transform="translate(194.325133 541.99625) scale(0.1 -0.1)">
       <use xlink:href="#DejaVuSans-33"/>
       <use xlink:href="#DejaVuSans-35" transform="translate(63.623047 0)"/>
      </g>
     </g>
    </g>
    <g id="xtick_11">
     <g id="line2d_33">
      <g>
       <use xlink:href="#mb6514337d4" x="357.293664" y="527.397812" style="fill: #c5c9c5; stroke: #c5c9c5; stroke-width: 0.8"/>
      </g>
     </g>
     <g id="text_20">
      <!-- 40 -->
      <g style="fill: #c5c9c5" transform="translate(350.931164 541.99625) scale(0.1 -0.1)">
       <use xlink:href="#DejaVuSans-34"/>
       <use xlink:href="#DejaVuSans-30" transform="translate(63.623047 0)"/>
      </g>
     </g>
    </g>
    <g id="xtick_12">
     <g id="line2d_34">
      <g>
       <use xlink:href="#mb6514337d4" x="513.899696" y="527.397812" style="fill: #c5c9c5; stroke: #c5c9c5; stroke-width: 0.8"/>
      </g>
     </g>
     <g id="text_21">
      <!-- 45 -->
      <g style="fill: #c5c9c5" transform="translate(507.537196 541.99625) scale(0.1 -0.1)">
       <use xlink:href="#DejaVuSans-34"/>
       <use xlink:href="#DejaVuSans-35" transform="translate(63.623047 0)"/>
      </g>
     </g>
    </g>
    <g id="xtick_13">
     <g id="line2d_35">
      <g>
       <use xlink:href="#mb6514337d4" x="670.505727" y="527.397812" style="fill: #c5c9c5; stroke: #c5c9c5; stroke-width: 0.8"/>
      </g>
     </g>
     <g id="text_22">
      <!-- 50 -->
      <g style="fill: #c5c9c5" transform="translate(664.143227 541.99625) scale(0.1 -0.1)">
       <use xlink:href="#DejaVuSans-35"/>
       <use xlink:href="#DejaVuSans-30" transform="translate(63.623047 0)"/>
      </g>
     </g>
    </g>
    <g id="xtick_14">
     <g id="line2d_36">
      <g>
       <use xlink:href="#mb6514337d4" x="827.111759" y="527.397812" style="fill: #c5c9c5; stroke: #c5c9c5; stroke-width: 0.8"/>
      </g>
     </g>
     <g id="text_23">
      <!-- 55 -->
      <g style="fill: #c5c9c5" transform="translate(820.749259 541.99625) scale(0.1 -0.1)">
       <use xlink:href="#DejaVuSans-35"/>
       <use xlink:href="#DejaVuSans-35" transform="translate(63.623047 0)"/>
      </g>
     </g>
    </g>
    <g id="text_24">
     <!-- Volatility (%) -->
     <g style="fill: #c5c9c5" transform="translate(471.958267 557.194063) scale(0.12 -0.12)">
      <use xlink:href="#DejaVuSans-56"/>
      <use xlink:href="#DejaVuSans-6f" transform="translate(60.658203 0)"/>
      <use xlink:href="#DejaVuSans-6c" transform="translate(121.839844 0)"/>
      <use xlink:href="#DejaVuSans-61" transform="translate(149.623047 0)"/>
      <use xlink:href="#DejaVuSans-74" transform="translate(210.902344 0)"/>
      <use xlink:href="#DejaVuSans-69" transform="translate(250.111328 0)"/>
      <use xlink:href="#DejaVuSans-6c" transform="translate(277.894531 0)"/>
      <use xlink:href="#DejaVuSans-69" transform="translate(305.677734 0)"/>
      <use xlink:href="#DejaVuSans-74" transform="translate(333.460938 0)"/>
      <use xlink:href="#DejaVuSans-79" transform="translate(372.669922 0)"/>
      <use xlink:href="#DejaVuSans-20" transform="translate(431.849609 0)"/>
      <use xlink:href="#DejaVuSans-28" transform="translate(463.636719 0)"/>
      <use xlink:href="#DejaVuSans-25" transform="translate(502.650391 0)"/>
      <use xlink:href="#DejaVuSans-29" transform="translate(597.669922 0)"/>
     </g>
    </g>
   </g>
   <g id="matplotlib.axis_4">
    <g id="ytick_7">
     <g id="line2d_37">
      <path d="M 42.53875 527.397812 
L 977.778408 527.397812 
" clip-path="url(#p72bb813024)" style="fill: none; stroke: #625e5a; stroke-opacity: 0.2; stroke-width: 0.8; stroke-linecap: square"/>
     </g>
     <g id="line2d_38">
      <g>
       <use xlink:href="#madd02c8e96" x="42.53875" y="527.397812" style="fill: #c5c9c5; stroke: #c5c9c5; stroke-width: 0.8"/>
      </g>
     </g>
     <g id="text_25">
      <!-- 0 -->
      <g style="fill: #c5c9c5" transform="translate(29.17625 531.197031) scale(0.1 -0.1)">
       <use xlink:href="#DejaVuSans-30"/>
      </g>
     </g>
    </g>
    <g id="ytick_8">
     <g id="line2d_39">
      <path d="M 42.53875 498.262574 
L 977.778408 498.262574 
" clip-path="url(#p72bb813024)" style="fill: none; stroke: #625e5a; stroke-opacity: 0.2; stroke-width: 0.8; stroke-linecap: square"/>
     </g>
     <g id="line2d_40">
      <g>
       <use xlink:href="#madd02c8e96" x="42.53875" y="498.262574" style="fill: #c5c9c5; stroke: #c5c9c5; stroke-width: 0.8"/>
      </g>
     </g>
     <g id="text_26">
      <!-- 2 -->
      <g style="fill: #c5c9c5" transform="translate(29.17625 502.061793) scale(0.1 -0.1)">
       <use xlink:href="#DejaVuSans-32"/>
      </g>
     </g>
    </g>
    <g id="ytick_9">
     <g id="line2d_41">
      <path d="M 42.53875 469.127336 
L 977.778408 469.127336 
" clip-path="url(#p72bb813024)" style="fill: none; stroke: #625e5a; stroke-opacity: 0.2; stroke-width: 0.8; stroke-linecap: square"/>
     </g>
     <g id="line2d_42">
      <g>
       <use xlink:href="#madd02c8e96" x="42.53875" y="469.127336" style="fill: #c5c9c5; stroke: #c5c9c5; stroke-width: 0.8"/>
      </g>
     </g>
     <g id="text_27">
      <!-- 4 -->
      <g style="fill: #c5c9c5" transform="translate(29.17625 472.926555) scale(0.1 -0.1)">
       <use xlink:href="#DejaVuSans-34"/>
      </g>
     </g>
    </g>
    <g id="ytick_10">
     <g id="line2d_43">
      <path d="M 42.53875 439.992098 
L 977.778408 439.992098 
" clip-path="url(#p72bb813024)" style="fill: none; stroke: #625e5a; stroke-opacity: 0.2; stroke-width: 0.8; stroke-linecap: square"/>
     </g>
     <g id="line2d_44">
      <g>
       <use xlink:href="#madd02c8e96" x="42.53875" y="439.992098" style="fill: #c5c9c5; stroke: #c5c9c5; stroke-width: 0.8"/>
      </g>
     </g>
     <g id="text_28">
      <!-- 6 -->
      <g style="fill: #c5c9c5" transform="translate(29.17625 443.791317) scale(0.1 -0.1)">
       <use xlink:href="#DejaVuSans-36"/>
      </g>
     </g>
    </g>
    <g id="ytick_11">
     <g id="line2d_45">
      <path d="M 42.53875 410.85686 
L 977.778408 410.85686 
" clip-path="url(#p72bb813024)" style="fill: none; stroke: #625e5a; stroke-opacity: 0.2; stroke-width: 0.8; stroke-linecap: square"/>
     </g>
     <g id="line2d_46">
      <g>
       <use xlink:href="#madd02c8e96" x="42.53875" y="410.85686" style="fill: #c5c9c5; stroke: #c5c9c5; stroke-width: 0.8"/>
      </g>
     </g>
     <g id="text_29">
      <!-- 8 -->
      <g style="fill: #c5c9c5" transform="translate(29.17625 414.656079) scale(0.1 -0.1)">
       <use xlink:href="#DejaVuSans-38"/>
      </g>
     </g>
    </g>
    <g id="ytick_12">
     <g id="line2d_47">
      <path d="M 42.53875 381.721622 
L 977.778408 381.721622 
" clip-path="url(#p72bb813024)" style="fill: none; stroke: #625e5a; stroke-opacity: 0.2; stroke-width: 0.8; stroke-linecap: square"/>
     </g>
     <g id="line2d_48">
      <g>
       <use xlink:href="#madd02c8e96" x="42.53875" y="381.721622" style="fill: #c5c9c5; stroke: #c5c9c5; stroke-width: 0.8"/>
      </g>
     </g>
     <g id="text_30">
      <!-- 10 -->
      <g style="fill: #c5c9c5" transform="translate(22.81375 385.520841) scale(0.1 -0.1)">
       <use xlink:href="#DejaVuSans-31"/>
       <use xlink:href="#DejaVuSans-30" transform="translate(63.623047 0)"/>
      </g>
     </g>
    </g>
    <g id="ytick_13">
     <g id="line2d_49">
      <path d="M 42.53875 352.586384 
L 977.778408 352.586384 
" clip-path="url(#p72bb813024)" style="fill: none; stroke: #625e5a; stroke-opacity: 0.2; stroke-width: 0.8; stroke-linecap: square"/>
     </g>
     <g id="line2d_50">
      <g>
       <use xlink:href="#madd02c8e96" x="42.53875" y="352.586384" style="fill: #c5c9c5; stroke: #c5c9c5; stroke-width: 0.8"/>
      </g>
     </g>
     <g id="text_31">
      <!-- 12 -->
      <g style="fill: #c5c9c5" transform="translate(22.81375 356.385603) scale(0.1 -0.1)">
       <use xlink:href="#DejaVuSans-31"/>
       <use xlink:href="#DejaVuSans-32" transform="translate(63.623047 0)"/>
      </g>
     </g>
    </g>
    <g id="ytick_14">
     <g id="line2d_51">
      <path d="M 42.53875 323.451146 
L 977.778408 323.451146 
" clip-path="url(#p72bb813024)" style="fill: none; stroke: #625e5a; stroke-opacity: 0.2; stroke-width: 0.8; stroke-linecap: square"/>
     </g>
     <g id="line2d_52">
      <g>
       <use xlink:href="#madd02c8e96" x="42.53875" y="323.451146" style="fill: #c5c9c5; stroke: #c5c9c5; stroke-width: 0.8"/>
      </g>
     </g>
     <g id="text_32">
      <!-- 14 -->
      <g style="fill: #c5c9c5" transform="translate(22.81375 327.250365) scale(0.1 -0.1)">
       <use xlink:href="#DejaVuSans-31"/>
       <use xlink:href="#DejaVuSans-34" transform="translate(63.623047 0)"/>
      </g>
     </g>
    </g>
    <g id="text_33">
     <!-- Frequency -->
     <g style="fill: #c5c9c5" transform="translate(16.318125 443.673438) rotate(-90) scale(0.12 -0.12)">
      <defs>
       <path id="DejaVuSans-46" d="M 628 4666 
L 3309 4666 
L 3309 4134 
L 1259 4134 
L 1259 2759 
L 3109 2759 
L 3109 2228 
L 1259 2228 
L 1259 0 
L 628 0 
L 628 4666 
z
" transform="scale(0.015625)"/>
       <path id="DejaVuSans-72" d="M 2631 2963 
Q 2534 3019 2420 3045 
Q 2306 3072 2169 3072 
Q 1681 3072 1420 2755 
Q 1159 2438 1159 1844 
L 1159 0 
L 581 0 
L 581 3500 
L 1159 3500 
L 1159 2956 
Q 1341 3275 1631 3429 
Q 1922 3584 2338 3584 
Q 2397 3584 2469 3576 
Q 2541 3569 2628 3553 
L 2631 2963 
z
" transform="scale(0.015625)"/>
       <path id="DejaVuSans-71" d="M 947 1747 
Q 947 1113 1208 752 
Q 1469 391 1925 391 
Q 2381 391 2643 752 
Q 2906 1113 2906 1747 
Q 2906 2381 2643 2742 
Q 2381 3103 1925 3103 
Q 1469 3103 1208 2742 
Q 947 2381 947 1747 
z
M 2906 525 
Q 2725 213 2448 61 
Q 2172 -91 1784 -91 
Q 1150 -91 751 415 
Q 353 922 353 1747 
Q 353 2572 751 3078 
Q 1150 3584 1784 3584 
Q 2172 3584 2448 3432 
Q 2725 3281 2906 2969 
L 2906 3500 
L 3481 3500 
L 3481 -1331 
L 2906 -1331 
L 2906 525 
z
" transform="scale(0.015625)"/>
       <path id="DejaVuSans-75" d="M 544 1381 
L 544 3500 
L 1119 3500 
L 1119 1403 
Q 1119 906 1312 657 
Q 1506 409 1894 409 
Q 2359 409 2629 706 
Q 2900 1003 2900 1516 
L 2900 3500 
L 3475 3500 
L 3475 0 
L 2900 0 
L 2900 538 
Q 2691 219 2414 64 
Q 2138 -91 1772 -91 
Q 1169 -91 856 284 
Q 544 659 544 1381 
z
M 1991 3584 
L 1991 3584 
z
" transform="scale(0.015625)"/>
       <path id="DejaVuSans-63" d="M 3122 3366 
L 3122 2828 
Q 2878 2963 2633 3030 
Q 2388 3097 2138 3097 
Q 1578 3097 1268 2742 
Q 959 2388 959 1747 
Q 959 1106 1268 751 
Q 1578 397 2138 397 
Q 2388 397 2633 464 
Q 2878 531 3122 666 
L 3122 134 
Q 2881 22 2623 -34 
Q 2366 -91 2075 -91 
Q 1284 -91 818 406 
Q 353 903 353 1747 
Q 353 2603 823 3093 
Q 1294 3584 2113 3584 
Q 2378 3584 2631 3529 
Q 2884 3475 3122 3366 
z
" transform="scale(0.015625)"/>
      </defs>
      <use xlink:href="#DejaVuSans-46"/>
      <use xlink:href="#DejaVuSans-72" transform="translate(50.269531 0)"/>
      <use xlink:href="#DejaVuSans-65" transform="translate(89.132812 0)"/>
      <use xlink:href="#DejaVuSans-71" transform="translate(150.65625 0)"/>
      <use xlink:href="#DejaVuSans-75" transform="translate(214.132812 0)"/>
      <use xlink:href="#DejaVuSans-65" transform="translate(277.511719 0)"/>
      <use xlink:href="#DejaVuSans-6e" transform="translate(339.035156 0)"/>
      <use xlink:href="#DejaVuSans-63" transform="translate(402.414062 0)"/>
      <use xlink:href="#DejaVuSans-79" transform="translate(457.394531 0)"/>
     </g>
    </g>
   </g>
   <g id="line2d_53">
    <path d="M 506.069532 527.397812 
L 506.069532 297.957812 
" clip-path="url(#p72bb813024)" style="fill: none; stroke-dasharray: 7.4,3.2; stroke-dashoffset: 0; stroke: #c4746e; stroke-width: 2"/>
   </g>
   <g id="patch_39">
    <path d="M 42.53875 527.397812 
L 42.53875 297.957812 
" style="fill: none; stroke: #625e5a; stroke-width: 0.8; stroke-linejoin: miter; stroke-linecap: square"/>
   </g>
   <g id="patch_40">
    <path d="M 977.778408 527.397812 
L 977.778408 297.957812 
" style="fill: none; stroke: #625e5a; stroke-width: 0.8; stroke-linejoin: miter; stroke-linecap: square"/>
   </g>
   <g id="patch_41">
    <path d="M 42.53875 527.397812 
L 977.778408 527.397812 
" style="fill: none; stroke: #625e5a; stroke-width: 0.8; stroke-linejoin: miter; stroke-linecap: square"/>
   </g>
   <g id="patch_42">
    <path d="M 42.53875 297.957812 
L 977.778408 297.957812 
" style="fill: none; stroke: #625e5a; stroke-width: 0.8; stroke-linejoin: miter; stroke-linecap: square"/>
   </g>
   <g id="text_34">
    <g id="patch_43">
     <path d="M 859.416531 355.94575 
L 949.721218 355.94575 
Q 952.721218 355.94575 952.721218 352.94575 
L 952.721218 309.429812 
Q 952.721218 306.429812 949.721218 306.429812 
L 859.416531 306.429812 
Q 856.416531 306.429812 856.416531 309.429812 
L 856.416531 352.94575 
Q 856.416531 355.94575 859.416531 355.94575 
z
" style="fill: #181616; opacity: 0.8; stroke: #c5c9c5; stroke-linejoin: miter"/>
    </g>
    <!-- Mean:    44.75% -->
    <g style="fill: #c5c9c5" transform="translate(859.416531 317.081375) scale(0.1 -0.1)">
     <defs>
      <path id="DejaVuSansMono-4d" d="M 269 4666 
L 1113 4666 
L 1919 2291 
L 2731 4666 
L 3578 4666 
L 3578 0 
L 2994 0 
L 2994 4122 
L 2163 1663 
L 1684 1663 
L 850 4122 
L 850 0 
L 269 0 
L 269 4666 
z
" transform="scale(0.015625)"/>
      <path id="DejaVuSansMono-65" d="M 3475 1894 
L 3475 1613 
L 984 1613 
L 984 1594 
Q 984 1022 1282 709 
Q 1581 397 2125 397 
Q 2400 397 2700 484 
Q 3000 572 3341 750 
L 3341 178 
Q 3013 44 2708 -23 
Q 2403 -91 2119 -91 
Q 1303 -91 843 398 
Q 384 888 384 1747 
Q 384 2584 834 3084 
Q 1284 3584 2034 3584 
Q 2703 3584 3089 3131 
Q 3475 2678 3475 1894 
z
M 2900 2063 
Q 2888 2569 2661 2833 
Q 2434 3097 2009 3097 
Q 1594 3097 1325 2822 
Q 1056 2547 1006 2059 
L 2900 2063 
z
" transform="scale(0.015625)"/>
      <path id="DejaVuSansMono-61" d="M 2194 1759 
L 2003 1759 
Q 1500 1759 1245 1582 
Q 991 1406 991 1056 
Q 991 741 1181 566 
Q 1372 391 1709 391 
Q 2184 391 2456 720 
Q 2728 1050 2731 1631 
L 2731 1759 
L 2194 1759 
z
M 3309 1997 
L 3309 0 
L 2731 0 
L 2731 519 
Q 2547 206 2267 57 
Q 1988 -91 1588 -91 
Q 1053 -91 734 211 
Q 416 513 416 1019 
Q 416 1603 808 1906 
Q 1200 2209 1959 2209 
L 2731 2209 
L 2731 2300 
Q 2728 2719 2518 2908 
Q 2309 3097 1850 3097 
Q 1556 3097 1256 3012 
Q 956 2928 672 2766 
L 672 3341 
Q 991 3463 1283 3523 
Q 1575 3584 1850 3584 
Q 2284 3584 2592 3456 
Q 2900 3328 3091 3072 
Q 3209 2916 3259 2686 
Q 3309 2456 3309 1997 
z
" transform="scale(0.015625)"/>
      <path id="DejaVuSansMono-6e" d="M 3284 2169 
L 3284 0 
L 2706 0 
L 2706 2169 
Q 2706 2641 2540 2862 
Q 2375 3084 2022 3084 
Q 1619 3084 1401 2798 
Q 1184 2513 1184 1978 
L 1184 0 
L 609 0 
L 609 3500 
L 1184 3500 
L 1184 2975 
Q 1338 3275 1600 3429 
Q 1863 3584 2222 3584 
Q 2756 3584 3020 3232 
Q 3284 2881 3284 2169 
z
" transform="scale(0.015625)"/>
      <path id="DejaVuSansMono-3a" d="M 1528 3322 
L 2316 3322 
L 2316 2375 
L 1528 2375 
L 1528 3322 
z
M 1528 953 
L 2316 953 
L 2316 0 
L 1528 0 
L 1528 953 
z
" transform="scale(0.015625)"/>
      <path id="DejaVuSansMono-20" transform="scale(0.015625)"/>
      <path id="DejaVuSansMono-34" d="M 2297 4091 
L 825 1625 
L 2297 1625 
L 2297 4091 
z
M 2194 4666 
L 2925 4666 
L 2925 1625 
L 3547 1625 
L 3547 1113 
L 2925 1113 
L 2925 0 
L 2297 0 
L 2297 1113 
L 319 1113 
L 319 1709 
L 2194 4666 
z
" transform="scale(0.015625)"/>
      <path id="DejaVuSansMono-2e" d="M 1528 953 
L 2316 953 
L 2316 0 
L 1528 0 
L 1528 953 
z
" transform="scale(0.015625)"/>
      <path id="DejaVuSansMono-37" d="M 434 4666 
L 3372 4666 
L 3372 4397 
L 1703 0 
L 1044 0 
L 2669 4134 
L 434 4134 
L 434 4666 
z
" transform="scale(0.015625)"/>
      <path id="DejaVuSansMono-35" d="M 647 4666 
L 3009 4666 
L 3009 4134 
L 1222 4134 
L 1222 2988 
Q 1356 3038 1492 3061 
Q 1628 3084 1766 3084 
Q 2491 3084 2916 2656 
Q 3341 2228 3341 1497 
Q 3341 759 2895 334 
Q 2450 -91 1678 -91 
Q 1306 -91 998 -41 
Q 691 9 447 109 
L 447 750 
Q 734 594 1025 517 
Q 1316 441 1619 441 
Q 2141 441 2423 716 
Q 2706 991 2706 1497 
Q 2706 1997 2414 2275 
Q 2122 2553 1600 2553 
Q 1347 2553 1106 2495 
Q 866 2438 647 2322 
L 647 4666 
z
" transform="scale(0.015625)"/>
      <path id="DejaVuSansMono-25" d="M 2175 997 
Q 2175 753 2339 587 
Q 2503 422 2747 422 
Q 2988 422 3155 589 
Q 3322 756 3322 997 
Q 3322 1238 3153 1406 
Q 2984 1575 2747 1575 
Q 2503 1575 2339 1409 
Q 2175 1244 2175 997 
z
M 1753 997 
Q 1753 1419 2040 1708 
Q 2328 1997 2747 1997 
Q 2947 1997 3126 1922 
Q 3306 1847 3450 1703 
Q 3594 1556 3672 1375 
Q 3750 1194 3750 997 
Q 3750 581 3459 290 
Q 3169 0 2747 0 
Q 2322 0 2037 286 
Q 1753 572 1753 997 
z
M 378 1453 
L 269 1753 
L 3525 3059 
L 3653 2759 
L 378 1453 
z
M 525 3475 
Q 525 3228 689 3064 
Q 853 2900 1100 2900 
Q 1341 2900 1509 3067 
Q 1678 3234 1678 3475 
Q 1678 3716 1509 3883 
Q 1341 4050 1100 4050 
Q 859 4050 692 3884 
Q 525 3719 525 3475 
z
M 103 3475 
Q 103 3897 390 4186 
Q 678 4475 1100 4475 
Q 1300 4475 1483 4400 
Q 1666 4325 1806 4184 
Q 1947 4044 2023 3861 
Q 2100 3678 2100 3475 
Q 2100 3056 1809 2767 
Q 1519 2478 1100 2478 
Q 678 2478 390 2765 
Q 103 3053 103 3475 
z
" transform="scale(0.015625)"/>
     </defs>
     <use xlink:href="#DejaVuSansMono-4d"/>
     <use xlink:href="#DejaVuSansMono-65" transform="translate(60.205078 0)"/>
     <use xlink:href="#DejaVuSansMono-61" transform="translate(120.410156 0)"/>
     <use xlink:href="#DejaVuSansMono-6e" transform="translate(180.615234 0)"/>
     <use xlink:href="#DejaVuSansMono-3a" transform="translate(240.820312 0)"/>
     <use xlink:href="#DejaVuSansMono-20" transform="translate(301.025391 0)"/>
     <use xlink:href="#DejaVuSansMono-20" transform="translate(361.230469 0)"/>
     <use xlink:href="#DejaVuSansMono-20" transform="translate(421.435547 0)"/>
     <use xlink:href="#DejaVuSansMono-20" transform="translate(481.640625 0)"/>
     <use xlink:href="#DejaVuSansMono-34" transform="translate(541.845703 0)"/>
     <use xlink:href="#DejaVuSansMono-34" transform="translate(602.050781 0)"/>
     <use xlink:href="#DejaVuSansMono-2e" transform="translate(662.255859 0)"/>
     <use xlink:href="#DejaVuSansMono-37" transform="translate(722.460938 0)"/>
     <use xlink:href="#DejaVuSansMono-35" transform="translate(782.666016 0)"/>
     <use xlink:href="#DejaVuSansMono-25" transform="translate(842.871094 0)"/>
    </g>
    <!-- Std Dev: 7.22% -->
    <g style="fill: #c5c9c5" transform="translate(865.436843 328.342937) scale(0.1 -0.1)">
     <defs>
      <path id="DejaVuSansMono-53" d="M 3163 4506 
L 3163 3866 
Q 2875 4050 2586 4144 
Q 2297 4238 2003 4238 
Q 1556 4238 1297 4030 
Q 1038 3822 1038 3469 
Q 1038 3159 1208 2996 
Q 1378 2834 1844 2725 
L 2175 2650 
Q 2831 2497 3131 2169 
Q 3431 1841 3431 1275 
Q 3431 609 3018 259 
Q 2606 -91 1819 -91 
Q 1491 -91 1159 -20 
Q 828 50 494 191 
L 494 863 
Q 853 634 1173 528 
Q 1494 422 1819 422 
Q 2297 422 2562 636 
Q 2828 850 2828 1234 
Q 2828 1584 2645 1768 
Q 2463 1953 2009 2053 
L 1672 2131 
Q 1022 2278 728 2575 
Q 434 2872 434 3372 
Q 434 3997 854 4373 
Q 1275 4750 1972 4750 
Q 2241 4750 2537 4689 
Q 2834 4628 3163 4506 
z
" transform="scale(0.015625)"/>
      <path id="DejaVuSansMono-74" d="M 1919 4494 
L 1919 3500 
L 3225 3500 
L 3225 3053 
L 1919 3053 
L 1919 1153 
Q 1919 766 2066 612 
Q 2213 459 2578 459 
L 3225 459 
L 3225 0 
L 2522 0 
Q 1875 0 1609 259 
Q 1344 519 1344 1153 
L 1344 3053 
L 409 3053 
L 409 3500 
L 1344 3500 
L 1344 4494 
L 1919 4494 
z
" transform="scale(0.015625)"/>
      <path id="DejaVuSansMono-64" d="M 2681 3053 
L 2681 4863 
L 3256 4863 
L 3256 0 
L 2681 0 
L 2681 441 
Q 2538 181 2298 45 
Q 2059 -91 1747 -91 
Q 1113 -91 748 401 
Q 384 894 384 1759 
Q 384 2613 750 3098 
Q 1116 3584 1747 3584 
Q 2063 3584 2303 3448 
Q 2544 3313 2681 3053 
z
M 991 1747 
Q 991 1078 1203 737 
Q 1416 397 1831 397 
Q 2247 397 2464 740 
Q 2681 1084 2681 1747 
Q 2681 2413 2464 2755 
Q 2247 3097 1831 3097 
Q 1416 3097 1203 2756 
Q 991 2416 991 1747 
z
" transform="scale(0.015625)"/>
      <path id="DejaVuSansMono-44" d="M 1363 519 
Q 2159 519 2475 911 
Q 2791 1303 2791 2328 
Q 2791 3363 2477 3755 
Q 2163 4147 1363 4147 
L 1063 4147 
L 1063 519 
L 1363 519 
z
M 1375 4666 
Q 2444 4666 2950 4097 
Q 3456 3528 3456 2328 
Q 3456 1134 2950 567 
Q 2444 0 1375 0 
L 428 0 
L 428 4666 
L 1375 4666 
z
" transform="scale(0.015625)"/>
      <path id="DejaVuSansMono-76" d="M 313 3500 
L 909 3500 
L 1925 563 
L 2944 3500 
L 3541 3500 
L 2297 0 
L 1556 0 
L 313 3500 
z
" transform="scale(0.015625)"/>
      <path id="DejaVuSansMono-32" d="M 1166 531 
L 3309 531 
L 3309 0 
L 475 0 
L 475 531 
Q 1059 1147 1496 1619 
Q 1934 2091 2100 2284 
Q 2413 2666 2522 2902 
Q 2631 3138 2631 3384 
Q 2631 3775 2401 3997 
Q 2172 4219 1772 4219 
Q 1488 4219 1175 4116 
Q 863 4013 513 3803 
L 513 4441 
Q 834 4594 1145 4672 
Q 1456 4750 1759 4750 
Q 2444 4750 2861 4386 
Q 3278 4022 3278 3431 
Q 3278 3131 3139 2831 
Q 3000 2531 2688 2169 
Q 2513 1966 2180 1606 
Q 1847 1247 1166 531 
z
" transform="scale(0.015625)"/>
     </defs>
     <use xlink:href="#DejaVuSansMono-53"/>
     <use xlink:href="#DejaVuSansMono-74" transform="translate(60.205078 0)"/>
     <use xlink:href="#DejaVuSansMono-64" transform="translate(120.410156 0)"/>
     <use xlink:href="#DejaVuSansMono-20" transform="translate(180.615234 0)"/>
     <use xlink:href="#DejaVuSansMono-44" transform="translate(240.820312 0)"/>
     <use xlink:href="#DejaVuSansMono-65" transform="translate(301.025391 0)"/>
     <use xlink:href="#DejaVuSansMono-76" transform="translate(361.230469 0)"/>
     <use xlink:href="#DejaVuSansMono-3a" transform="translate(421.435547 0)"/>
     <use xlink:href="#DejaVuSansMono-20" transform="translate(481.640625 0)"/>
     <use xlink:href="#DejaVuSansMono-37" transform="translate(541.845703 0)"/>
     <use xlink:href="#DejaVuSansMono-2e" transform="translate(602.050781 0)"/>
     <use xlink:href="#DejaVuSansMono-32" transform="translate(662.255859 0)"/>
     <use xlink:href="#DejaVuSansMono-32" transform="translate(722.460938 0)"/>
     <use xlink:href="#DejaVuSansMono-25" transform="translate(782.666016 0)"/>
    </g>
    <!-- Min:     31.31% -->
    <g style="fill: #c5c9c5" transform="translate(859.416531 339.6045) scale(0.1 -0.1)">
     <defs>
      <path id="DejaVuSansMono-69" d="M 800 3500 
L 2272 3500 
L 2272 447 
L 3413 447 
L 3413 0 
L 556 0 
L 556 447 
L 1697 447 
L 1697 3053 
L 800 3053 
L 800 3500 
z
M 1697 4863 
L 2272 4863 
L 2272 4134 
L 1697 4134 
L 1697 4863 
z
" transform="scale(0.015625)"/>
      <path id="DejaVuSansMono-33" d="M 2425 2497 
Q 2884 2375 3128 2064 
Q 3372 1753 3372 1288 
Q 3372 644 2939 276 
Q 2506 -91 1741 -91 
Q 1419 -91 1084 -31 
Q 750 28 428 141 
L 428 769 
Q 747 603 1056 522 
Q 1366 441 1672 441 
Q 2191 441 2469 675 
Q 2747 909 2747 1350 
Q 2747 1756 2469 1995 
Q 2191 2234 1716 2234 
L 1234 2234 
L 1234 2753 
L 1716 2753 
Q 2150 2753 2394 2943 
Q 2638 3134 2638 3475 
Q 2638 3834 2411 4026 
Q 2184 4219 1766 4219 
Q 1488 4219 1191 4156 
Q 894 4094 569 3969 
L 569 4550 
Q 947 4650 1242 4700 
Q 1538 4750 1766 4750 
Q 2447 4750 2855 4408 
Q 3263 4066 3263 3500 
Q 3263 3116 3048 2859 
Q 2834 2603 2425 2497 
z
" transform="scale(0.015625)"/>
      <path id="DejaVuSansMono-31" d="M 844 531 
L 1825 531 
L 1825 4097 
L 769 3859 
L 769 4434 
L 1819 4666 
L 2450 4666 
L 2450 531 
L 3419 531 
L 3419 0 
L 844 0 
L 844 531 
z
" transform="scale(0.015625)"/>
     </defs>
     <use xlink:href="#DejaVuSansMono-4d"/>
     <use xlink:href="#DejaVuSansMono-69" transform="translate(60.205078 0)"/>
     <use xlink:href="#DejaVuSansMono-6e" transform="translate(120.410156 0)"/>
     <use xlink:href="#DejaVuSansMono-3a" transform="translate(180.615234 0)"/>
     <use xlink:href="#DejaVuSansMono-20" transform="translate(240.820312 0)"/>
     <use xlink:href="#DejaVuSansMono-20" transform="translate(301.025391 0)"/>
     <use xlink:href="#DejaVuSansMono-20" transform="translate(361.230469 0)"/>
     <use xlink:href="#DejaVuSansMono-20" transform="translate(421.435547 0)"/>
     <use xlink:href="#DejaVuSansMono-20" transform="translate(481.640625 0)"/>
     <use xlink:href="#DejaVuSansMono-33" transform="translate(541.845703 0)"/>
     <use xlink:href="#DejaVuSansMono-31" transform="translate(602.050781 0)"/>
     <use xlink:href="#DejaVuSansMono-2e" transform="translate(662.255859 0)"/>
     <use xlink:href="#DejaVuSansMono-33" transform="translate(722.460938 0)"/>
     <use xlink:href="#DejaVuSansMono-31" transform="translate(782.666016 0)"/>
     <use xlink:href="#DejaVuSansMono-25" transform="translate(842.871094 0)"/>
    </g>
    <!-- Max:     58.45% -->
    <g style="fill: #c5c9c5" transform="translate(859.416531 350.866062) scale(0.1 -0.1)">
     <defs>
      <path id="DejaVuSansMono-78" d="M 3494 3500 
L 2241 1825 
L 3616 0 
L 2950 0 
L 1925 1403 
L 903 0 
L 238 0 
L 1613 1825 
L 359 3500 
L 997 3500 
L 1925 2234 
L 2847 3500 
L 3494 3500 
z
" transform="scale(0.015625)"/>
      <path id="DejaVuSansMono-38" d="M 1925 2216 
Q 1503 2216 1273 1980 
Q 1044 1744 1044 1313 
Q 1044 881 1276 642 
Q 1509 403 1925 403 
Q 2350 403 2579 639 
Q 2809 875 2809 1313 
Q 2809 1741 2576 1978 
Q 2344 2216 1925 2216 
z
M 1375 2478 
Q 972 2581 745 2862 
Q 519 3144 519 3541 
Q 519 4097 897 4423 
Q 1275 4750 1925 4750 
Q 2578 4750 2956 4423 
Q 3334 4097 3334 3541 
Q 3334 3144 3107 2862 
Q 2881 2581 2478 2478 
Q 2947 2375 3195 2062 
Q 3444 1750 3444 1253 
Q 3444 622 3041 265 
Q 2638 -91 1925 -91 
Q 1213 -91 811 264 
Q 409 619 409 1247 
Q 409 1747 657 2061 
Q 906 2375 1375 2478 
z
M 1147 3481 
Q 1147 3106 1347 2909 
Q 1547 2713 1925 2713 
Q 2306 2713 2506 2909 
Q 2706 3106 2706 3481 
Q 2706 3863 2507 4063 
Q 2309 4263 1925 4263 
Q 1547 4263 1347 4061 
Q 1147 3859 1147 3481 
z
" transform="scale(0.015625)"/>
     </defs>
     <use xlink:href="#DejaVuSansMono-4d"/>
     <use xlink:href="#DejaVuSansMono-61" transform="translate(60.205078 0)"/>
     <use xlink:href="#DejaVuSansMono-78" transform="translate(120.410156 0)"/>
     <use xlink:href="#DejaVuSansMono-3a" transform="translate(180.615234 0)"/>
     <use xlink:href="#DejaVuSansMono-20" transform="translate(240.820312 0)"/>
     <use xlink:href="#DejaVuSansMono-20" transform="translate(301.025391 0)"/>
     <use xlink:href="#DejaVuSansMono-20" transform="translate(361.230469 0)"/>
     <use xlink:href="#DejaVuSansMono-20" transform="translate(421.435547 0)"/>
     <use xlink:href="#DejaVuSansMono-20" transform="translate(481.640625 0)"/>
     <use xlink:href="#DejaVuSansMono-35" transform="translate(541.845703 0)"/>
     <use xlink:href="#DejaVuSansMono-38" transform="translate(602.050781 0)"/>
     <use xlink:href="#DejaVuSansMono-2e" transform="translate(662.255859 0)"/>
     <use xlink:href="#DejaVuSansMono-34" transform="translate(722.460938 0)"/>
     <use xlink:href="#DejaVuSansMono-35" transform="translate(782.666016 0)"/>
     <use xlink:href="#DejaVuSansMono-25" transform="translate(842.871094 0)"/>
    </g>
   </g>
   <g id="text_35">
    <!-- Realized Volatility Distribution -->
    <g style="fill: #c5c9c5" transform="translate(389.266392 291.957812) scale(0.14 -0.14)">
     <defs>
      <path id="DejaVuSans-Bold-44" d="M 1791 3756 
L 1791 909 
L 2222 909 
Q 2959 909 3348 1275 
Q 3738 1641 3738 2338 
Q 3738 3031 3350 3393 
Q 2963 3756 2222 3756 
L 1791 3756 
z
M 588 4666 
L 1856 4666 
Q 2919 4666 3439 4514 
Q 3959 4363 4331 4000 
Q 4659 3684 4818 3271 
Q 4978 2859 4978 2338 
Q 4978 1809 4818 1395 
Q 4659 981 4331 666 
Q 3956 303 3431 151 
Q 2906 0 1856 0 
L 588 0 
L 588 4666 
z
" transform="scale(0.015625)"/>
      <path id="DejaVuSans-Bold-73" d="M 3272 3391 
L 3272 2541 
Q 2913 2691 2578 2766 
Q 2244 2841 1947 2841 
Q 1628 2841 1473 2761 
Q 1319 2681 1319 2516 
Q 1319 2381 1436 2309 
Q 1553 2238 1856 2203 
L 2053 2175 
Q 2913 2066 3209 1816 
Q 3506 1566 3506 1031 
Q 3506 472 3093 190 
Q 2681 -91 1863 -91 
Q 1516 -91 1145 -36 
Q 775 19 384 128 
L 384 978 
Q 719 816 1070 734 
Q 1422 653 1784 653 
Q 2113 653 2278 743 
Q 2444 834 2444 1013 
Q 2444 1163 2330 1236 
Q 2216 1309 1875 1350 
L 1678 1375 
Q 931 1469 631 1722 
Q 331 1975 331 2491 
Q 331 3047 712 3315 
Q 1094 3584 1881 3584 
Q 2191 3584 2531 3537 
Q 2872 3491 3272 3391 
z
" transform="scale(0.015625)"/>
      <path id="DejaVuSans-Bold-72" d="M 3138 2547 
Q 2991 2616 2845 2648 
Q 2700 2681 2553 2681 
Q 2122 2681 1889 2404 
Q 1656 2128 1656 1613 
L 1656 0 
L 538 0 
L 538 3500 
L 1656 3500 
L 1656 2925 
Q 1872 3269 2151 3426 
Q 2431 3584 2822 3584 
Q 2878 3584 2943 3579 
Q 3009 3575 3134 3559 
L 3138 2547 
z
" transform="scale(0.015625)"/>
      <path id="DejaVuSans-Bold-62" d="M 2400 722 
Q 2759 722 2948 984 
Q 3138 1247 3138 1747 
Q 3138 2247 2948 2509 
Q 2759 2772 2400 2772 
Q 2041 2772 1848 2508 
Q 1656 2244 1656 1747 
Q 1656 1250 1848 986 
Q 2041 722 2400 722 
z
M 1656 2988 
Q 1888 3294 2169 3439 
Q 2450 3584 2816 3584 
Q 3463 3584 3878 3070 
Q 4294 2556 4294 1747 
Q 4294 938 3878 423 
Q 3463 -91 2816 -91 
Q 2450 -91 2169 54 
Q 1888 200 1656 506 
L 1656 0 
L 538 0 
L 538 4863 
L 1656 4863 
L 1656 2988 
z
" transform="scale(0.015625)"/>
      <path id="DejaVuSans-Bold-75" d="M 500 1363 
L 500 3500 
L 1625 3500 
L 1625 3150 
Q 1625 2866 1622 2436 
Q 1619 2006 1619 1863 
Q 1619 1441 1641 1255 
Q 1663 1069 1716 984 
Q 1784 875 1895 815 
Q 2006 756 2150 756 
Q 2500 756 2700 1025 
Q 2900 1294 2900 1772 
L 2900 3500 
L 4019 3500 
L 4019 0 
L 2900 0 
L 2900 506 
Q 2647 200 2364 54 
Q 2081 -91 1741 -91 
Q 1134 -91 817 281 
Q 500 653 500 1363 
z
" transform="scale(0.015625)"/>
      <path id="DejaVuSans-Bold-6e" d="M 4056 2131 
L 4056 0 
L 2931 0 
L 2931 347 
L 2931 1631 
Q 2931 2084 2911 2256 
Q 2891 2428 2841 2509 
Q 2775 2619 2662 2680 
Q 2550 2741 2406 2741 
Q 2056 2741 1856 2470 
Q 1656 2200 1656 1722 
L 1656 0 
L 538 0 
L 538 3500 
L 1656 3500 
L 1656 2988 
Q 1909 3294 2193 3439 
Q 2478 3584 2822 3584 
Q 3428 3584 3742 3212 
Q 4056 2841 4056 2131 
z
" transform="scale(0.015625)"/>
     </defs>
     <use xlink:href="#DejaVuSans-Bold-52"/>
     <use xlink:href="#DejaVuSans-Bold-65" transform="translate(77.001953 0)"/>
     <use xlink:href="#DejaVuSans-Bold-61" transform="translate(144.824219 0)"/>
     <use xlink:href="#DejaVuSans-Bold-6c" transform="translate(212.304688 0)"/>
     <use xlink:href="#DejaVuSans-Bold-69" transform="translate(246.582031 0)"/>
     <use xlink:href="#DejaVuSans-Bold-7a" transform="translate(280.859375 0)"/>
     <use xlink:href="#DejaVuSans-Bold-65" transform="translate(339.0625 0)"/>
     <use xlink:href="#DejaVuSans-Bold-64" transform="translate(406.884766 0)"/>
     <use xlink:href="#DejaVuSans-Bold-20" transform="translate(478.466797 0)"/>
     <use xlink:href="#DejaVuSans-Bold-56" transform="translate(513.28125 0)"/>
     <use xlink:href="#DejaVuSans-Bold-6f" transform="translate(585.173828 0)"/>
     <use xlink:href="#DejaVuSans-Bold-6c" transform="translate(653.875 0)"/>
     <use xlink:href="#DejaVuSans-Bold-61" transform="translate(688.152344 0)"/>
     <use xlink:href="#DejaVuSans-Bold-74" transform="translate(755.632812 0)"/>
     <use xlink:href="#DejaVuSans-Bold-69" transform="translate(803.435547 0)"/>
     <use xlink:href="#DejaVuSans-Bold-6c" transform="translate(837.712891 0)"/>
     <use xlink:href="#DejaVuSans-Bold-69" transform="translate(871.990234 0)"/>
     <use xlink:href="#DejaVuSans-Bold-74" transform="translate(906.267578 0)"/>
     <use xlink:href="#DejaVuSans-Bold-79" transform="translate(954.070312 0)"/>
     <use xlink:href="#DejaVuSans-Bold-20" transform="translate(1019.255859 0)"/>
     <use xlink:href="#DejaVuSans-Bold-44" transform="translate(1054.070312 0)"/>
     <use xlink:href="#DejaVuSans-Bold-69" transform="translate(1137.078125 0)"/>
     <use xlink:href="#DejaVuSans-Bold-73" transform="translate(1171.355469 0)"/>
     <use xlink:href="#DejaVuSans-Bold-74" transform="translate(1230.876953 0)"/>
     <use xlink:href="#DejaVuSans-Bold-72" transform="translate(1278.679688 0)"/>
     <use xlink:href="#DejaVuSans-Bold-69" transform="translate(1327.996094 0)"/>
     <use xlink:href="#DejaVuSans-Bold-62" transform="translate(1362.273438 0)"/>
     <use xlink:href="#DejaVuSans-Bold-75" transform="translate(1433.855469 0)"/>
     <use xlink:href="#DejaVuSans-Bold-74" transform="translate(1505.046875 0)"/>
     <use xlink:href="#DejaVuSans-Bold-69" transform="translate(1552.849609 0)"/>
     <use xlink:href="#DejaVuSans-Bold-6f" transform="translate(1587.126953 0)"/>
     <use xlink:href="#DejaVuSans-Bold-6e" transform="translate(1655.828125 0)"/>
    </g>
   </g>
   <g id="legend_2">
    <g id="patch_44">
     <path d="M 49.53875 320.635937 
L 153.462188 320.635937 
Q 155.462188 320.635937 155.462188 318.635937 
L 155.462188 304.957812 
Q 155.462188 302.957812 153.462188 302.957812 
L 49.53875 302.957812 
Q 47.53875 302.957812 47.53875 304.957812 
L 47.53875 318.635937 
Q 47.53875 320.635937 49.53875 320.635937 
z
" style="fill: #181616; opacity: 0.8; stroke: #625e5a; stroke-linejoin: miter"/>
    </g>
    <g id="line2d_54">
     <path d="M 51.53875 311.05625 
L 61.53875 311.05625 
L 71.53875 311.05625 
" style="fill: none; stroke-dasharray: 7.4,3.2; stroke-dashoffset: 0; stroke: #c4746e; stroke-width: 2"/>
    </g>
    <g id="text_36">
     <!-- Mean: 44.75% -->
     <g style="fill: #c5c9c5" transform="translate(79.53875 314.55625) scale(0.1 -0.1)">
      <defs>
       <path id="DejaVuSans-4d" d="M 628 4666 
L 1569 4666 
L 2759 1491 
L 3956 4666 
L 4897 4666 
L 4897 0 
L 4281 0 
L 4281 4097 
L 3078 897 
L 2444 897 
L 1241 4097 
L 1241 0 
L 628 0 
L 628 4666 
z
" transform="scale(0.015625)"/>
       <path id="DejaVuSans-3a" d="M 750 794 
L 1409 794 
L 1409 0 
L 750 0 
L 750 794 
z
M 750 3309 
L 1409 3309 
L 1409 2516 
L 750 2516 
L 750 3309 
z
" transform="scale(0.015625)"/>
       <path id="DejaVuSans-2e" d="M 684 794 
L 1344 794 
L 1344 0 
L 684 0 
L 684 794 
z
" transform="scale(0.015625)"/>
       <path id="DejaVuSans-37" d="M 525 4666 
L 3525 4666 
L 3525 4397 
L 1831 0 
L 1172 0 
L 2766 4134 
L 525 4134 
L 525 4666 
z
" transform="scale(0.015625)"/>
      </defs>
      <use xlink:href="#DejaVuSans-4d"/>
      <use xlink:href="#DejaVuSans-65" transform="translate(86.279297 0)"/>
      <use xlink:href="#DejaVuSans-61" transform="translate(147.802734 0)"/>
      <use xlink:href="#DejaVuSans-6e" transform="translate(209.082031 0)"/>
      <use xlink:href="#DejaVuSans-3a" transform="translate(272.460938 0)"/>
      <use xlink:href="#DejaVuSans-20" transform="translate(306.152344 0)"/>
      <use xlink:href="#DejaVuSans-34" transform="translate(337.939453 0)"/>
      <use xlink:href="#DejaVuSans-34" transform="translate(401.5625 0)"/>
      <use xlink:href="#DejaVuSans-2e" transform="translate(465.185547 0)"/>
      <use xlink:href="#DejaVuSans-37" transform="translate(496.972656 0)"/>
      <use xlink:href="#DejaVuSans-35" transform="translate(560.595703 0)"/>
      <use xlink:href="#DejaVuSans-25" transform="translate(624.21875 0)"/>
     </g>
    </g>
   </g>
  </g>
 </g>
 <defs>
  <clipPath id="p35bc12d244">
   <rect x="42.53875" y="23.837812" width="935.239658" height="229.44"/>
  </clipPath>
  <clipPath id="p72bb813024">
   <rect x="42.53875" y="297.957812" width="935.239658" height="229.44"/>
  </clipPath>
 </defs>
</svg>
