<?xml version="1.0" encoding="utf-8" standalone="no"?>
<!DOCTYPE svg PUBLIC "-//W3C//DTD SVG 1.1//EN"
  "http://www.w3.org/Graphics/SVG/1.1/DTD/svg11.dtd">
<svg xmlns:xlink="http://www.w3.org/1999/xlink" width="855.560938pt" height="710.889687pt" viewBox="0 0 855.560938 710.889687" xmlns="http://www.w3.org/2000/svg" version="1.1">
 <metadata>
  <rdf:RDF xmlns:dc="http://purl.org/dc/elements/1.1/" xmlns:cc="http://creativecommons.org/ns#" xmlns:rdf="http://www.w3.org/1999/02/22-rdf-syntax-ns#">
   <cc:Work>
    <dc:type rdf:resource="http://purl.org/dc/dcmitype/StillImage"/>
    <dc:date>2026-02-22T14:54:55.369045</dc:date>
    <dc:format>image/svg+xml</dc:format>
    <dc:creator>
     <cc:Agent>
      <dc:title>Matplotlib v3.10.8, https://matplotlib.org/</dc:title>
     </cc:Agent>
    </dc:creator>
   </cc:Work>
  </rdf:RDF>
 </metadata>
 <defs>
  <style type="text/css">*{stroke-linejoin: round; stroke-linecap: butt}</style>
 </defs>
 <g id="figure_1">
  <g id="patch_1">
   <path d="M 0 710.889687 
L 855.560938 710.889687 
L 855.560938 0 
L 0 0 
z
" style="fill: #181616"/>
  </g>
  <g id="axes_1">
   <g id="patch_2">
    <path d="M 57.280938 325.277812 
L 848.360938 325.277812 
L 848.360938 23.837812 
L 57.280938 23.837812 
z
" style="fill: #181616"/>
   </g>
   <g id="matplotlib.axis_1">
    <g id="xtick_1">
     <g id="line2d_1">
      <path d="M 89.75586 325.277812 
L 89.75586 23.837812 
" clip-path="url(#p36a67eb1ec)" style="fill: none; stroke: #625e5a; stroke-opacity: 0.2; stroke-width: 0.8; stroke-linecap: square"/>
     </g>
     <g id="line2d_2">
      <defs>
       <path id="m400fc15e91" d="M 0 0 
L 0 3.5 
" style="stroke: #c5c9c5; stroke-width: 0.8"/>
      </defs>
      <g>
       <use xlink:href="#m400fc15e91" x="89.75586" y="325.277812" style="fill: #c5c9c5; stroke: #c5c9c5; stroke-width: 0.8"/>
      </g>
     </g>
     <g id="text_1">
      <!-- 12 -->
      <g style="fill: #c5c9c5" transform="translate(83.39336 339.87625) scale(0.1 -0.1)">
       <defs>
        <path id="DejaVuSans-31" d="M 794 531 
L 1825 531 
L 1825 4091 
L 703 3866 
L 703 4441 
L 1819 4666 
L 2450 4666 
L 2450 531 
L 3481 531 
L 3481 0 
L 794 0 
L 794 531 
z
" transform="scale(0.015625)"/>
        <path id="DejaVuSans-32" d="M 1228 531 
L 3431 531 
L 3431 0 
L 469 0 
L 469 531 
Q 828 903 1448 1529 
Q 2069 2156 2228 2338 
Q 2531 2678 2651 2914 
Q 2772 3150 2772 3378 
Q 2772 3750 2511 3984 
Q 2250 4219 1831 4219 
Q 1534 4219 1204 4116 
Q 875 4013 500 3803 
L 500 4441 
Q 881 4594 1212 4672 
Q 1544 4750 1819 4750 
Q 2544 4750 2975 4387 
Q 3406 4025 3406 3419 
Q 3406 3131 3298 2873 
Q 3191 2616 2906 2266 
Q 2828 2175 2409 1742 
Q 1991 1309 1228 531 
z
" transform="scale(0.015625)"/>
       </defs>
       <use xlink:href="#DejaVuSans-31"/>
       <use xlink:href="#DejaVuSans-32" transform="translate(63.623047 0)"/>
      </g>
     </g>
    </g>
    <g id="xtick_2">
     <g id="line2d_3">
      <path d="M 179.070772 325.277812 
L 179.070772 23.837812 
" clip-path="url(#p36a67eb1ec)" style="fill: none; stroke: #625e5a; stroke-opacity: 0.2; stroke-width: 0.8; stroke-linecap: square"/>
     </g>
     <g id="line2d_4">
      <g>
       <use xlink:href="#m400fc15e91" x="179.070772" y="325.277812" style="fill: #c5c9c5; stroke: #c5c9c5; stroke-width: 0.8"/>
      </g>
     </g>
     <g id="text_2">
      <!-- 14 -->
      <g style="fill: #c5c9c5" transform="translate(172.708272 339.87625) scale(0.1 -0.1)">
       <defs>
        <path id="DejaVuSans-34" d="M 2419 4116 
L 825 1625 
L 2419 1625 
L 2419 4116 
z
M 2253 4666 
L 3047 4666 
L 3047 1625 
L 3713 1625 
L 3713 1100 
L 3047 1100 
L 3047 0 
L 2419 0 
L 2419 1100 
L 313 1100 
L 313 1709 
L 2253 4666 
z
" transform="scale(0.015625)"/>
       </defs>
       <use xlink:href="#DejaVuSans-31"/>
       <use xlink:href="#DejaVuSans-34" transform="translate(63.623047 0)"/>
      </g>
     </g>
    </g>
    <g id="xtick_3">
     <g id="line2d_5">
      <path d="M 268.385683 325.277812 
L 268.385683 23.837812 
" clip-path="url(#p36a67eb1ec)" style="fill: none; stroke: #625e5a; stroke-opacity: 0.2; stroke-width: 0.8; stroke-linecap: square"/>
     </g>
     <g id="line2d_6">
      <g>
       <use xlink:href="#m400fc15e91" x="268.385683" y="325.277812" style="fill: #c5c9c5; stroke: #c5c9c5; stroke-width: 0.8"/>
      </g>
     </g>
     <g id="text_3">
      <!-- 16 -->
      <g style="fill: #c5c9c5" transform="translate(262.023183 339.87625) scale(0.1 -0.1)">
       <defs>
        <path id="DejaVuSans-36" d="M 2113 2584 
Q 1688 2584 1439 2293 
Q 1191 2003 1191 1497 
Q 1191 994 1439 701 
Q 1688 409 2113 409 
Q 2538 409 2786 701 
Q 3034 994 3034 1497 
Q 3034 2003 2786 2293 
Q 2538 2584 2113 2584 
z
M 3366 4563 
L 3366 3988 
Q 3128 4100 2886 4159 
Q 2644 4219 2406 4219 
Q 1781 4219 1451 3797 
Q 1122 3375 1075 2522 
Q 1259 2794 1537 2939 
Q 1816 3084 2150 3084 
Q 2853 3084 3261 2657 
Q 3669 2231 3669 1497 
Q 3669 778 3244 343 
Q 2819 -91 2113 -91 
Q 1303 -91 875 529 
Q 447 1150 447 2328 
Q 447 3434 972 4092 
Q 1497 4750 2381 4750 
Q 2619 4750 2861 4703 
Q 3103 4656 3366 4563 
z
" transform="scale(0.015625)"/>
       </defs>
       <use xlink:href="#DejaVuSans-31"/>
       <use xlink:href="#DejaVuSans-36" transform="translate(63.623047 0)"/>
      </g>
     </g>
    </g>
    <g id="xtick_4">
     <g id="line2d_7">
      <path d="M 357.700594 325.277812 
L 357.700594 23.837812 
" clip-path="url(#p36a67eb1ec)" style="fill: none; stroke: #625e5a; stroke-opacity: 0.2; stroke-width: 0.8; stroke-linecap: square"/>
     </g>
     <g id="line2d_8">
      <g>
       <use xlink:href="#m400fc15e91" x="357.700594" y="325.277812" style="fill: #c5c9c5; stroke: #c5c9c5; stroke-width: 0.8"/>
      </g>
     </g>
     <g id="text_4">
      <!-- 18 -->
      <g style="fill: #c5c9c5" transform="translate(351.338094 339.87625) scale(0.1 -0.1)">
       <defs>
        <path id="DejaVuSans-38" d="M 2034 2216 
Q 1584 2216 1326 1975 
Q 1069 1734 1069 1313 
Q 1069 891 1326 650 
Q 1584 409 2034 409 
Q 2484 409 2743 651 
Q 3003 894 3003 1313 
Q 3003 1734 2745 1975 
Q 2488 2216 2034 2216 
z
M 1403 2484 
Q 997 2584 770 2862 
Q 544 3141 544 3541 
Q 544 4100 942 4425 
Q 1341 4750 2034 4750 
Q 2731 4750 3128 4425 
Q 3525 4100 3525 3541 
Q 3525 3141 3298 2862 
Q 3072 2584 2669 2484 
Q 3125 2378 3379 2068 
Q 3634 1759 3634 1313 
Q 3634 634 3220 271 
Q 2806 -91 2034 -91 
Q 1263 -91 848 271 
Q 434 634 434 1313 
Q 434 1759 690 2068 
Q 947 2378 1403 2484 
z
M 1172 3481 
Q 1172 3119 1398 2916 
Q 1625 2713 2034 2713 
Q 2441 2713 2670 2916 
Q 2900 3119 2900 3481 
Q 2900 3844 2670 4047 
Q 2441 4250 2034 4250 
Q 1625 4250 1398 4047 
Q 1172 3844 1172 3481 
z
" transform="scale(0.015625)"/>
       </defs>
       <use xlink:href="#DejaVuSans-31"/>
       <use xlink:href="#DejaVuSans-38" transform="translate(63.623047 0)"/>
      </g>
     </g>
    </g>
    <g id="xtick_5">
     <g id="line2d_9">
      <path d="M 447.015506 325.277812 
L 447.015506 23.837812 
" clip-path="url(#p36a67eb1ec)" style="fill: none; stroke: #625e5a; stroke-opacity: 0.2; stroke-width: 0.8; stroke-linecap: square"/>
     </g>
     <g id="line2d_10">
      <g>
       <use xlink:href="#m400fc15e91" x="447.015506" y="325.277812" style="fill: #c5c9c5; stroke: #c5c9c5; stroke-width: 0.8"/>
      </g>
     </g>
     <g id="text_5">
      <!-- 20 -->
      <g style="fill: #c5c9c5" transform="translate(440.653006 339.87625) scale(0.1 -0.1)">
       <defs>
        <path id="DejaVuSans-30" d="M 2034 4250 
Q 1547 4250 1301 3770 
Q 1056 3291 1056 2328 
Q 1056 1369 1301 889 
Q 1547 409 2034 409 
Q 2525 409 2770 889 
Q 3016 1369 3016 2328 
Q 3016 3291 2770 3770 
Q 2525 4250 2034 4250 
z
M 2034 4750 
Q 2819 4750 3233 4129 
Q 3647 3509 3647 2328 
Q 3647 1150 3233 529 
Q 2819 -91 2034 -91 
Q 1250 -91 836 529 
Q 422 1150 422 2328 
Q 422 3509 836 4129 
Q 1250 4750 2034 4750 
z
" transform="scale(0.015625)"/>
       </defs>
       <use xlink:href="#DejaVuSans-32"/>
       <use xlink:href="#DejaVuSans-30" transform="translate(63.623047 0)"/>
      </g>
     </g>
    </g>
    <g id="xtick_6">
     <g id="line2d_11">
      <path d="M 536.330417 325.277812 
L 536.330417 23.837812 
" clip-path="url(#p36a67eb1ec)" style="fill: none; stroke: #625e5a; stroke-opacity: 0.2; stroke-width: 0.8; stroke-linecap: square"/>
     </g>
     <g id="line2d_12">
      <g>
       <use xlink:href="#m400fc15e91" x="536.330417" y="325.277812" style="fill: #c5c9c5; stroke: #c5c9c5; stroke-width: 0.8"/>
      </g>
     </g>
     <g id="text_6">
      <!-- 22 -->
      <g style="fill: #c5c9c5" transform="translate(529.967917 339.87625) scale(0.1 -0.1)">
       <use xlink:href="#DejaVuSans-32"/>
       <use xlink:href="#DejaVuSans-32" transform="translate(63.623047 0)"/>
      </g>
     </g>
    </g>
    <g id="xtick_7">
     <g id="line2d_13">
      <path d="M 625.645328 325.277812 
L 625.645328 23.837812 
" clip-path="url(#p36a67eb1ec)" style="fill: none; stroke: #625e5a; stroke-opacity: 0.2; stroke-width: 0.8; stroke-linecap: square"/>
     </g>
     <g id="line2d_14">
      <g>
       <use xlink:href="#m400fc15e91" x="625.645328" y="325.277812" style="fill: #c5c9c5; stroke: #c5c9c5; stroke-width: 0.8"/>
      </g>
     </g>
     <g id="text_7">
      <!-- 24 -->
      <g style="fill: #c5c9c5" transform="translate(619.282828 339.87625) scale(0.1 -0.1)">
       <use xlink:href="#DejaVuSans-32"/>
       <use xlink:href="#DejaVuSans-34" transform="translate(63.623047 0)"/>
      </g>
     </g>
    </g>
    <g id="xtick_8">
     <g id="line2d_15">
      <path d="M 714.96024 325.277812 
L 714.96024 23.837812 
" clip-path="url(#p36a67eb1ec)" style="fill: none; stroke: #625e5a; stroke-opacity: 0.2; stroke-width: 0.8; stroke-linecap: square"/>
     </g>
     <g id="line2d_16">
      <g>
       <use xlink:href="#m400fc15e91" x="714.96024" y="325.277812" style="fill: #c5c9c5; stroke: #c5c9c5; stroke-width: 0.8"/>
      </g>
     </g>
     <g id="text_8">
      <!-- 26 -->
      <g style="fill: #c5c9c5" transform="translate(708.59774 339.87625) scale(0.1 -0.1)">
       <use xlink:href="#DejaVuSans-32"/>
       <use xlink:href="#DejaVuSans-36" transform="translate(63.623047 0)"/>
      </g>
     </g>
    </g>
    <g id="xtick_9">
     <g id="line2d_17">
      <path d="M 804.275151 325.277812 
L 804.275151 23.837812 
" clip-path="url(#p36a67eb1ec)" style="fill: none; stroke: #625e5a; stroke-opacity: 0.2; stroke-width: 0.8; stroke-linecap: square"/>
     </g>
     <g id="line2d_18">
      <g>
       <use xlink:href="#m400fc15e91" x="804.275151" y="325.277812" style="fill: #c5c9c5; stroke: #c5c9c5; stroke-width: 0.8"/>
      </g>
     </g>
     <g id="text_9">
      <!-- 28 -->
      <g style="fill: #c5c9c5" transform="translate(797.912651 339.87625) scale(0.1 -0.1)">
       <use xlink:href="#DejaVuSans-32"/>
       <use xlink:href="#DejaVuSans-38" transform="translate(63.623047 0)"/>
      </g>
     </g>
    </g>
   </g>
   <g id="matplotlib.axis_2">
    <g id="ytick_1">
     <g id="line2d_19">
      <path d="M 57.280938 312.903286 
L 848.360938 312.903286 
" clip-path="url(#p36a67eb1ec)" style="fill: none; stroke: #625e5a; stroke-opacity: 0.2; stroke-width: 0.8; stroke-linecap: square"/>
     </g>
     <g id="line2d_20">
      <defs>
       <path id="m7839ee38b3" d="M 0 0 
L -3.5 0 
" style="stroke: #c5c9c5; stroke-width: 0.8"/>
      </defs>
      <g>
       <use xlink:href="#m7839ee38b3" x="57.280938" y="312.903286" style="fill: #c5c9c5; stroke: #c5c9c5; stroke-width: 0.8"/>
      </g>
     </g>
     <g id="text_10">
      <!-- 1200 -->
      <g style="fill: #c5c9c5" transform="translate(24.830938 316.702504) scale(0.1 -0.1)">
       <use xlink:href="#DejaVuSans-31"/>
       <use xlink:href="#DejaVuSans-32" transform="translate(63.623047 0)"/>
       <use xlink:href="#DejaVuSans-30" transform="translate(127.246094 0)"/>
       <use xlink:href="#DejaVuSans-30" transform="translate(190.869141 0)"/>
      </g>
     </g>
    </g>
    <g id="ytick_2">
     <g id="line2d_21">
      <path d="M 57.280938 278.869955 
L 848.360938 278.869955 
" clip-path="url(#p36a67eb1ec)" style="fill: none; stroke: #625e5a; stroke-opacity: 0.2; stroke-width: 0.8; stroke-linecap: square"/>
     </g>
     <g id="line2d_22">
      <g>
       <use xlink:href="#m7839ee38b3" x="57.280938" y="278.869955" style="fill: #c5c9c5; stroke: #c5c9c5; stroke-width: 0.8"/>
      </g>
     </g>
     <g id="text_11">
      <!-- 1400 -->
      <g style="fill: #c5c9c5" transform="translate(24.830938 282.669174) scale(0.1 -0.1)">
       <use xlink:href="#DejaVuSans-31"/>
       <use xlink:href="#DejaVuSans-34" transform="translate(63.623047 0)"/>
       <use xlink:href="#DejaVuSans-30" transform="translate(127.246094 0)"/>
       <use xlink:href="#DejaVuSans-30" transform="translate(190.869141 0)"/>
      </g>
     </g>
    </g>
    <g id="ytick_3">
     <g id="line2d_23">
      <path d="M 57.280938 244.836625 
L 848.360938 244.836625 
" clip-path="url(#p36a67eb1ec)" style="fill: none; stroke: #625e5a; stroke-opacity: 0.2; stroke-width: 0.8; stroke-linecap: square"/>
     </g>
     <g id="line2d_24">
      <g>
       <use xlink:href="#m7839ee38b3" x="57.280938" y="244.836625" style="fill: #c5c9c5; stroke: #c5c9c5; stroke-width: 0.8"/>
      </g>
     </g>
     <g id="text_12">
      <!-- 1600 -->
      <g style="fill: #c5c9c5" transform="translate(24.830938 248.635844) scale(0.1 -0.1)">
       <use xlink:href="#DejaVuSans-31"/>
       <use xlink:href="#DejaVuSans-36" transform="translate(63.623047 0)"/>
       <use xlink:href="#DejaVuSans-30" transform="translate(127.246094 0)"/>
       <use xlink:href="#DejaVuSans-30" transform="translate(190.869141 0)"/>
      </g>
     </g>
    </g>
    <g id="ytick_4">
     <g id="line2d_25">
      <path d="M 57.280938 210.803295 
L 848.360938 210.803295 
" clip-path="url(#p36a67eb1ec)" style="fill: none; stroke: #625e5a; stroke-opacity: 0.2; stroke-width: 0.8; stroke-linecap: square"/>
     </g>
     <g id="line2d_26">
      <g>
       <use xlink:href="#m7839ee38b3" x="57.280938" y="210.803295" style="fill: #c5c9c5; stroke: #c5c9c5; stroke-width: 0.8"/>
      </g>
     </g>
     <g id="text_13">
      <!-- 1800 -->
      <g style="fill: #c5c9c5" transform="translate(24.830938 214.602514) scale(0.1 -0.1)">
       <use xlink:href="#DejaVuSans-31"/>
       <use xlink:href="#DejaVuSans-38" transform="translate(63.623047 0)"/>
       <use xlink:href="#DejaVuSans-30" transform="translate(127.246094 0)"/>
       <use xlink:href="#DejaVuSans-30" transform="translate(190.869141 0)"/>
      </g>
     </g>
    </g>
    <g id="ytick_5">
     <g id="line2d_27">
      <path d="M 57.280938 176.769965 
L 848.360938 176.769965 
" clip-path="url(#p36a67eb1ec)" style="fill: none; stroke: #625e5a; stroke-opacity: 0.2; stroke-width: 0.8; stroke-linecap: square"/>
     </g>
     <g id="line2d_28">
      <g>
       <use xlink:href="#m7839ee38b3" x="57.280938" y="176.769965" style="fill: #c5c9c5; stroke: #c5c9c5; stroke-width: 0.8"/>
      </g>
     </g>
     <g id="text_14">
      <!-- 2000 -->
      <g style="fill: #c5c9c5" transform="translate(24.830938 180.569183) scale(0.1 -0.1)">
       <use xlink:href="#DejaVuSans-32"/>
       <use xlink:href="#DejaVuSans-30" transform="translate(63.623047 0)"/>
       <use xlink:href="#DejaVuSans-30" transform="translate(127.246094 0)"/>
       <use xlink:href="#DejaVuSans-30" transform="translate(190.869141 0)"/>
      </g>
     </g>
    </g>
    <g id="ytick_6">
     <g id="line2d_29">
      <path d="M 57.280938 142.736634 
L 848.360938 142.736634 
" clip-path="url(#p36a67eb1ec)" style="fill: none; stroke: #625e5a; stroke-opacity: 0.2; stroke-width: 0.8; stroke-linecap: square"/>
     </g>
     <g id="line2d_30">
      <g>
       <use xlink:href="#m7839ee38b3" x="57.280938" y="142.736634" style="fill: #c5c9c5; stroke: #c5c9c5; stroke-width: 0.8"/>
      </g>
     </g>
     <g id="text_15">
      <!-- 2200 -->
      <g style="fill: #c5c9c5" transform="translate(24.830938 146.535853) scale(0.1 -0.1)">
       <use xlink:href="#DejaVuSans-32"/>
       <use xlink:href="#DejaVuSans-32" transform="translate(63.623047 0)"/>
       <use xlink:href="#DejaVuSans-30" transform="translate(127.246094 0)"/>
       <use xlink:href="#DejaVuSans-30" transform="translate(190.869141 0)"/>
      </g>
     </g>
    </g>
    <g id="ytick_7">
     <g id="line2d_31">
      <path d="M 57.280938 108.703304 
L 848.360938 108.703304 
" clip-path="url(#p36a67eb1ec)" style="fill: none; stroke: #625e5a; stroke-opacity: 0.2; stroke-width: 0.8; stroke-linecap: square"/>
     </g>
     <g id="line2d_32">
      <g>
       <use xlink:href="#m7839ee38b3" x="57.280938" y="108.703304" style="fill: #c5c9c5; stroke: #c5c9c5; stroke-width: 0.8"/>
      </g>
     </g>
     <g id="text_16">
      <!-- 2400 -->
      <g style="fill: #c5c9c5" transform="translate(24.830938 112.502523) scale(0.1 -0.1)">
       <use xlink:href="#DejaVuSans-32"/>
       <use xlink:href="#DejaVuSans-34" transform="translate(63.623047 0)"/>
       <use xlink:href="#DejaVuSans-30" transform="translate(127.246094 0)"/>
       <use xlink:href="#DejaVuSans-30" transform="translate(190.869141 0)"/>
      </g>
     </g>
    </g>
    <g id="ytick_8">
     <g id="line2d_33">
      <path d="M 57.280938 74.669974 
L 848.360938 74.669974 
" clip-path="url(#p36a67eb1ec)" style="fill: none; stroke: #625e5a; stroke-opacity: 0.2; stroke-width: 0.8; stroke-linecap: square"/>
     </g>
     <g id="line2d_34">
      <g>
       <use xlink:href="#m7839ee38b3" x="57.280938" y="74.669974" style="fill: #c5c9c5; stroke: #c5c9c5; stroke-width: 0.8"/>
      </g>
     </g>
     <g id="text_17">
      <!-- 2600 -->
      <g style="fill: #c5c9c5" transform="translate(24.830938 78.469193) scale(0.1 -0.1)">
       <use xlink:href="#DejaVuSans-32"/>
       <use xlink:href="#DejaVuSans-36" transform="translate(63.623047 0)"/>
       <use xlink:href="#DejaVuSans-30" transform="translate(127.246094 0)"/>
       <use xlink:href="#DejaVuSans-30" transform="translate(190.869141 0)"/>
      </g>
     </g>
    </g>
    <g id="ytick_9">
     <g id="line2d_35">
      <path d="M 57.280938 40.636644 
L 848.360938 40.636644 
" clip-path="url(#p36a67eb1ec)" style="fill: none; stroke: #625e5a; stroke-opacity: 0.2; stroke-width: 0.8; stroke-linecap: square"/>
     </g>
     <g id="line2d_36">
      <g>
       <use xlink:href="#m7839ee38b3" x="57.280938" y="40.636644" style="fill: #c5c9c5; stroke: #c5c9c5; stroke-width: 0.8"/>
      </g>
     </g>
     <g id="text_18">
      <!-- 2800 -->
      <g style="fill: #c5c9c5" transform="translate(24.830938 44.435862) scale(0.1 -0.1)">
       <use xlink:href="#DejaVuSans-32"/>
       <use xlink:href="#DejaVuSans-38" transform="translate(63.623047 0)"/>
       <use xlink:href="#DejaVuSans-30" transform="translate(127.246094 0)"/>
       <use xlink:href="#DejaVuSans-30" transform="translate(190.869141 0)"/>
      </g>
     </g>
    </g>
    <g id="text_19">
     <!-- Portfolio Value ($) -->
     <g style="fill: #c5c9c5" transform="translate(18.335313 228.027187) rotate(-90) scale(0.12 -0.12)">
      <defs>
       <path id="DejaVuSans-50" d="M 1259 4147 
L 1259 2394 
L 2053 2394 
Q 2494 2394 2734 2622 
Q 2975 2850 2975 3272 
Q 2975 3691 2734 3919 
Q 2494 4147 2053 4147 
L 1259 4147 
z
M 628 4666 
L 2053 4666 
Q 2838 4666 3239 4311 
Q 3641 3956 3641 3272 
Q 3641 2581 3239 2228 
Q 2838 1875 2053 1875 
L 1259 1875 
L 1259 0 
L 628 0 
L 628 4666 
z
" transform="scale(0.015625)"/>
       <path id="DejaVuSans-6f" d="M 1959 3097 
Q 1497 3097 1228 2736 
Q 959 2375 959 1747 
Q 959 1119 1226 758 
Q 1494 397 1959 397 
Q 2419 397 2687 759 
Q 2956 1122 2956 1747 
Q 2956 2369 2687 2733 
Q 2419 3097 1959 3097 
z
M 1959 3584 
Q 2709 3584 3137 3096 
Q 3566 2609 3566 1747 
Q 3566 888 3137 398 
Q 2709 -91 1959 -91 
Q 1206 -91 779 398 
Q 353 888 353 1747 
Q 353 2609 779 3096 
Q 1206 3584 1959 3584 
z
" transform="scale(0.015625)"/>
       <path id="DejaVuSans-72" d="M 2631 2963 
Q 2534 3019 2420 3045 
Q 2306 3072 2169 3072 
Q 1681 3072 1420 2755 
Q 1159 2438 1159 1844 
L 1159 0 
L 581 0 
L 581 3500 
L 1159 3500 
L 1159 2956 
Q 1341 3275 1631 3429 
Q 1922 3584 2338 3584 
Q 2397 3584 2469 3576 
Q 2541 3569 2628 3553 
L 2631 2963 
z
" transform="scale(0.015625)"/>
       <path id="DejaVuSans-74" d="M 1172 4494 
L 1172 3500 
L 2356 3500 
L 2356 3053 
L 1172 3053 
L 1172 1153 
Q 1172 725 1289 603 
Q 1406 481 1766 481 
L 2356 481 
L 2356 0 
L 1766 0 
Q 1100 0 847 248 
Q 594 497 594 1153 
L 594 3053 
L 172 3053 
L 172 3500 
L 594 3500 
L 594 4494 
L 1172 4494 
z
" transform="scale(0.015625)"/>
       <path id="DejaVuSans-66" d="M 2375 4863 
L 2375 4384 
L 1825 4384 
Q 1516 4384 1395 4259 
Q 1275 4134 1275 3809 
L 1275 3500 
L 2222 3500 
L 2222 3053 
L 1275 3053 
L 1275 0 
L 697 0 
L 697 3053 
L 147 3053 
L 147 3500 
L 697 3500 
L 697 3744 
Q 697 4328 969 4595 
Q 1241 4863 1831 4863 
L 2375 4863 
z
" transform="scale(0.015625)"/>
       <path id="DejaVuSans-6c" d="M 603 4863 
L 1178 4863 
L 1178 0 
L 603 0 
L 603 4863 
z
" transform="scale(0.015625)"/>
       <path id="DejaVuSans-69" d="M 603 3500 
L 1178 3500 
L 1178 0 
L 603 0 
L 603 3500 
z
M 603 4863 
L 1178 4863 
L 1178 4134 
L 603 4134 
L 603 4863 
z
" transform="scale(0.015625)"/>
       <path id="DejaVuSans-20" transform="scale(0.015625)"/>
       <path id="DejaVuSans-56" d="M 1831 0 
L 50 4666 
L 709 4666 
L 2188 738 
L 3669 4666 
L 4325 4666 
L 2547 0 
L 1831 0 
z
" transform="scale(0.015625)"/>
       <path id="DejaVuSans-61" d="M 2194 1759 
Q 1497 1759 1228 1600 
Q 959 1441 959 1056 
Q 959 750 1161 570 
Q 1363 391 1709 391 
Q 2188 391 2477 730 
Q 2766 1069 2766 1631 
L 2766 1759 
L 2194 1759 
z
M 3341 1997 
L 3341 0 
L 2766 0 
L 2766 531 
Q 2569 213 2275 61 
Q 1981 -91 1556 -91 
Q 1019 -91 701 211 
Q 384 513 384 1019 
Q 384 1609 779 1909 
Q 1175 2209 1959 2209 
L 2766 2209 
L 2766 2266 
Q 2766 2663 2505 2880 
Q 2244 3097 1772 3097 
Q 1472 3097 1187 3025 
Q 903 2953 641 2809 
L 641 3341 
Q 956 3463 1253 3523 
Q 1550 3584 1831 3584 
Q 2591 3584 2966 3190 
Q 3341 2797 3341 1997 
z
" transform="scale(0.015625)"/>
       <path id="DejaVuSans-75" d="M 544 1381 
L 544 3500 
L 1119 3500 
L 1119 1403 
Q 1119 906 1312 657 
Q 1506 409 1894 409 
Q 2359 409 2629 706 
Q 2900 1003 2900 1516 
L 2900 3500 
L 3475 3500 
L 3475 0 
L 2900 0 
L 2900 538 
Q 2691 219 2414 64 
Q 2138 -91 1772 -91 
Q 1169 -91 856 284 
Q 544 659 544 1381 
z
M 1991 3584 
L 1991 3584 
z
" transform="scale(0.015625)"/>
       <path id="DejaVuSans-65" d="M 3597 1894 
L 3597 1613 
L 953 1613 
Q 991 1019 1311 708 
Q 1631 397 2203 397 
Q 2534 397 2845 478 
Q 3156 559 3463 722 
L 3463 178 
Q 3153 47 2828 -22 
Q 2503 -91 2169 -91 
Q 1331 -91 842 396 
Q 353 884 353 1716 
Q 353 2575 817 3079 
Q 1281 3584 2069 3584 
Q 2775 3584 3186 3129 
Q 3597 2675 3597 1894 
z
M 3022 2063 
Q 3016 2534 2758 2815 
Q 2500 3097 2075 3097 
Q 1594 3097 1305 2825 
Q 1016 2553 972 2059 
L 3022 2063 
z
" transform="scale(0.015625)"/>
       <path id="DejaVuSans-28" d="M 1984 4856 
Q 1566 4138 1362 3434 
Q 1159 2731 1159 2009 
Q 1159 1288 1364 580 
Q 1569 -128 1984 -844 
L 1484 -844 
Q 1016 -109 783 600 
Q 550 1309 550 2009 
Q 550 2706 781 3412 
Q 1013 4119 1484 4856 
L 1984 4856 
z
" transform="scale(0.015625)"/>
       <path id="DejaVuSans-24" d="M 2163 -941 
L 1850 -941 
L 1847 0 
Q 1519 6 1191 76 
Q 863 147 531 288 
L 531 850 
Q 850 650 1176 548 
Q 1503 447 1850 444 
L 1850 1869 
Q 1159 1981 845 2250 
Q 531 2519 531 2988 
Q 531 3497 872 3790 
Q 1213 4084 1850 4128 
L 1850 4863 
L 2163 4863 
L 2163 4138 
Q 2453 4125 2725 4076 
Q 2997 4028 3256 3944 
L 3256 3397 
Q 2997 3528 2723 3600 
Q 2450 3672 2163 3684 
L 2163 2350 
Q 2872 2241 3206 1959 
Q 3541 1678 3541 1191 
Q 3541 663 3186 358 
Q 2831 53 2163 6 
L 2163 -941 
z
M 1850 2406 
L 1850 3688 
Q 1488 3647 1297 3481 
Q 1106 3316 1106 3041 
Q 1106 2772 1282 2622 
Q 1459 2472 1850 2406 
z
M 2163 1806 
L 2163 453 
Q 2559 506 2761 678 
Q 2963 850 2963 1131 
Q 2963 1406 2770 1568 
Q 2578 1731 2163 1806 
z
" transform="scale(0.015625)"/>
       <path id="DejaVuSans-29" d="M 513 4856 
L 1013 4856 
Q 1481 4119 1714 3412 
Q 1947 2706 1947 2009 
Q 1947 1309 1714 600 
Q 1481 -109 1013 -844 
L 513 -844 
Q 928 -128 1133 580 
Q 1338 1288 1338 2009 
Q 1338 2731 1133 3434 
Q 928 4138 513 4856 
z
" transform="scale(0.015625)"/>
      </defs>
      <use xlink:href="#DejaVuSans-50"/>
      <use xlink:href="#DejaVuSans-6f" transform="translate(56.677734 0)"/>
      <use xlink:href="#DejaVuSans-72" transform="translate(117.859375 0)"/>
      <use xlink:href="#DejaVuSans-74" transform="translate(158.972656 0)"/>
      <use xlink:href="#DejaVuSans-66" transform="translate(198.181641 0)"/>
      <use xlink:href="#DejaVuSans-6f" transform="translate(233.386719 0)"/>
      <use xlink:href="#DejaVuSans-6c" transform="translate(294.568359 0)"/>
      <use xlink:href="#DejaVuSans-69" transform="translate(322.351562 0)"/>
      <use xlink:href="#DejaVuSans-6f" transform="translate(350.134766 0)"/>
      <use xlink:href="#DejaVuSans-20" transform="translate(411.316406 0)"/>
      <use xlink:href="#DejaVuSans-56" transform="translate(443.103516 0)"/>
      <use xlink:href="#DejaVuSans-61" transform="translate(503.761719 0)"/>
      <use xlink:href="#DejaVuSans-6c" transform="translate(565.041016 0)"/>
      <use xlink:href="#DejaVuSans-75" transform="translate(592.824219 0)"/>
      <use xlink:href="#DejaVuSans-65" transform="translate(656.203125 0)"/>
      <use xlink:href="#DejaVuSans-20" transform="translate(717.726562 0)"/>
      <use xlink:href="#DejaVuSans-28" transform="translate(749.513672 0)"/>
      <use xlink:href="#DejaVuSans-24" transform="translate(788.527344 0)"/>
      <use xlink:href="#DejaVuSans-29" transform="translate(852.150391 0)"/>
     </g>
    </g>
   </g>
   <g id="line2d_37">
    <path d="M 93.239119 311.575994 
L 812.402756 37.539631 
L 812.402756 37.539631 
" clip-path="url(#p36a67eb1ec)" style="fill: none; stroke-dasharray: 7.4,3.2; stroke-dashoffset: 0; stroke: #625e5a; stroke-width: 2"/>
   </g>
   <g id="line2d_38">
    <path d="M 93.239119 224.076294 
L 320.914039 224.076294 
L 324.527927 223.443696 
L 508.836196 153.213272 
L 512.450083 152.0958 
L 812.402756 152.0958 
L 812.402756 152.0958 
" clip-path="url(#p36a67eb1ec)" style="fill: none; stroke: #8ba4b0; stroke-width: 2.5; stroke-linecap: square"/>
   </g>
   <g id="line2d_39">
    <path d="M 452.820938 325.277812 
L 452.820938 23.837812 
" clip-path="url(#p36a67eb1ec)" style="fill: none; stroke-dasharray: 1.5,2.475; stroke-dashoffset: 0; stroke: #c4b28a; stroke-opacity: 0.7; stroke-width: 1.5"/>
   </g>
   <g id="patch_3">
    <path d="M 57.280938 325.277812 
L 57.280938 23.837812 
" style="fill: none; stroke: #625e5a; stroke-width: 0.8; stroke-linejoin: miter; stroke-linecap: square"/>
   </g>
   <g id="patch_4">
    <path d="M 848.360938 325.277812 
L 848.360938 23.837812 
" style="fill: none; stroke: #625e5a; stroke-width: 0.8; stroke-linejoin: miter; stroke-linecap: square"/>
   </g>
   <g id="patch_5">
    <path d="M 57.280938 325.277812 
L 848.360938 325.277812 
" style="fill: none; stroke: #625e5a; stroke-width: 0.8; stroke-linejoin: miter; stroke-linecap: square"/>
   </g>
   <g id="patch_6">
    <path d="M 57.280938 23.837812 
L 848.360938 23.837812 
" style="fill: none; stroke: #625e5a; stroke-width: 0.8; stroke-linejoin: miter; stroke-linecap: square"/>
   </g>
   <g id="text_20">
    <g id="patch_7">
     <path d="M 727.6909 322.249012 
L 832.539338 322.249012 
Q 835.539338 322.249012 835.539338 319.249012 
L 835.539338 298.373075 
Q 835.539338 295.373075 832.539338 295.373075 
L 727.6909 295.373075 
Q 724.6909 295.373075 724.6909 298.373075 
L 724.6909 319.249012 
Q 724.6909 322.249012 727.6909 322.249012 
z
" style="fill: #181616; opacity: 0.8; stroke: #625e5a; stroke-linejoin: miter"/>
    </g>
    <!-- Cost: $-106.95 -->
    <g style="fill: #c5c9c5" transform="translate(758.800275 305.971513) scale(0.1 -0.1)">
     <defs>
      <path id="DejaVuSans-43" d="M 4122 4306 
L 4122 3641 
Q 3803 3938 3442 4084 
Q 3081 4231 2675 4231 
Q 1875 4231 1450 3742 
Q 1025 3253 1025 2328 
Q 1025 1406 1450 917 
Q 1875 428 2675 428 
Q 3081 428 3442 575 
Q 3803 722 4122 1019 
L 4122 359 
Q 3791 134 3420 21 
Q 3050 -91 2638 -91 
Q 1578 -91 968 557 
Q 359 1206 359 2328 
Q 359 3453 968 4101 
Q 1578 4750 2638 4750 
Q 3056 4750 3426 4639 
Q 3797 4528 4122 4306 
z
" transform="scale(0.015625)"/>
      <path id="DejaVuSans-73" d="M 2834 3397 
L 2834 2853 
Q 2591 2978 2328 3040 
Q 2066 3103 1784 3103 
Q 1356 3103 1142 2972 
Q 928 2841 928 2578 
Q 928 2378 1081 2264 
Q 1234 2150 1697 2047 
L 1894 2003 
Q 2506 1872 2764 1633 
Q 3022 1394 3022 966 
Q 3022 478 2636 193 
Q 2250 -91 1575 -91 
Q 1294 -91 989 -36 
Q 684 19 347 128 
L 347 722 
Q 666 556 975 473 
Q 1284 391 1588 391 
Q 1994 391 2212 530 
Q 2431 669 2431 922 
Q 2431 1156 2273 1281 
Q 2116 1406 1581 1522 
L 1381 1569 
Q 847 1681 609 1914 
Q 372 2147 372 2553 
Q 372 3047 722 3315 
Q 1072 3584 1716 3584 
Q 2034 3584 2315 3537 
Q 2597 3491 2834 3397 
z
" transform="scale(0.015625)"/>
      <path id="DejaVuSans-3a" d="M 750 794 
L 1409 794 
L 1409 0 
L 750 0 
L 750 794 
z
M 750 3309 
L 1409 3309 
L 1409 2516 
L 750 2516 
L 750 3309 
z
" transform="scale(0.015625)"/>
      <path id="DejaVuSans-2d" d="M 313 2009 
L 1997 2009 
L 1997 1497 
L 313 1497 
L 313 2009 
z
" transform="scale(0.015625)"/>
      <path id="DejaVuSans-2e" d="M 684 794 
L 1344 794 
L 1344 0 
L 684 0 
L 684 794 
z
" transform="scale(0.015625)"/>
      <path id="DejaVuSans-39" d="M 703 97 
L 703 672 
Q 941 559 1184 500 
Q 1428 441 1663 441 
Q 2288 441 2617 861 
Q 2947 1281 2994 2138 
Q 2813 1869 2534 1725 
Q 2256 1581 1919 1581 
Q 1219 1581 811 2004 
Q 403 2428 403 3163 
Q 403 3881 828 4315 
Q 1253 4750 1959 4750 
Q 2769 4750 3195 4129 
Q 3622 3509 3622 2328 
Q 3622 1225 3098 567 
Q 2575 -91 1691 -91 
Q 1453 -91 1209 -44 
Q 966 3 703 97 
z
M 1959 2075 
Q 2384 2075 2632 2365 
Q 2881 2656 2881 3163 
Q 2881 3666 2632 3958 
Q 2384 4250 1959 4250 
Q 1534 4250 1286 3958 
Q 1038 3666 1038 3163 
Q 1038 2656 1286 2365 
Q 1534 2075 1959 2075 
z
" transform="scale(0.015625)"/>
      <path id="DejaVuSans-35" d="M 691 4666 
L 3169 4666 
L 3169 4134 
L 1269 4134 
L 1269 2991 
Q 1406 3038 1543 3061 
Q 1681 3084 1819 3084 
Q 2600 3084 3056 2656 
Q 3513 2228 3513 1497 
Q 3513 744 3044 326 
Q 2575 -91 1722 -91 
Q 1428 -91 1123 -41 
Q 819 9 494 109 
L 494 744 
Q 775 591 1075 516 
Q 1375 441 1709 441 
Q 2250 441 2565 725 
Q 2881 1009 2881 1497 
Q 2881 1984 2565 2268 
Q 2250 2553 1709 2553 
Q 1456 2553 1204 2497 
Q 953 2441 691 2322 
L 691 4666 
z
" transform="scale(0.015625)"/>
     </defs>
     <use xlink:href="#DejaVuSans-43"/>
     <use xlink:href="#DejaVuSans-6f" transform="translate(69.824219 0)"/>
     <use xlink:href="#DejaVuSans-73" transform="translate(131.005859 0)"/>
     <use xlink:href="#DejaVuSans-74" transform="translate(183.105469 0)"/>
     <use xlink:href="#DejaVuSans-3a" transform="translate(222.314453 0)"/>
     <use xlink:href="#DejaVuSans-20" transform="translate(256.005859 0)"/>
     <use xlink:href="#DejaVuSans-24" transform="translate(287.792969 0)"/>
     <use xlink:href="#DejaVuSans-2d" transform="translate(351.416016 0)"/>
     <use xlink:href="#DejaVuSans-31" transform="translate(387.5 0)"/>
     <use xlink:href="#DejaVuSans-30" transform="translate(451.123047 0)"/>
     <use xlink:href="#DejaVuSans-36" transform="translate(514.746094 0)"/>
     <use xlink:href="#DejaVuSans-2e" transform="translate(578.369141 0)"/>
     <use xlink:href="#DejaVuSans-39" transform="translate(610.15625 0)"/>
     <use xlink:href="#DejaVuSans-35" transform="translate(673.779297 0)"/>
    </g>
    <!-- Protection: $1721.64 -->
    <g style="fill: #c5c9c5" transform="translate(727.6909 317.169325) scale(0.1 -0.1)">
     <defs>
      <path id="DejaVuSans-63" d="M 3122 3366 
L 3122 2828 
Q 2878 2963 2633 3030 
Q 2388 3097 2138 3097 
Q 1578 3097 1268 2742 
Q 959 2388 959 1747 
Q 959 1106 1268 751 
Q 1578 397 2138 397 
Q 2388 397 2633 464 
Q 2878 531 3122 666 
L 3122 134 
Q 2881 22 2623 -34 
Q 2366 -91 2075 -91 
Q 1284 -91 818 406 
Q 353 903 353 1747 
Q 353 2603 823 3093 
Q 1294 3584 2113 3584 
Q 2378 3584 2631 3529 
Q 2884 3475 3122 3366 
z
" transform="scale(0.015625)"/>
      <path id="DejaVuSans-6e" d="M 3513 2113 
L 3513 0 
L 2938 0 
L 2938 2094 
Q 2938 2591 2744 2837 
Q 2550 3084 2163 3084 
Q 1697 3084 1428 2787 
Q 1159 2491 1159 1978 
L 1159 0 
L 581 0 
L 581 3500 
L 1159 3500 
L 1159 2956 
Q 1366 3272 1645 3428 
Q 1925 3584 2291 3584 
Q 2894 3584 3203 3211 
Q 3513 2838 3513 2113 
z
" transform="scale(0.015625)"/>
      <path id="DejaVuSans-37" d="M 525 4666 
L 3525 4666 
L 3525 4397 
L 1831 0 
L 1172 0 
L 2766 4134 
L 525 4134 
L 525 4666 
z
" transform="scale(0.015625)"/>
     </defs>
     <use xlink:href="#DejaVuSans-50"/>
     <use xlink:href="#DejaVuSans-72" transform="translate(58.552734 0)"/>
     <use xlink:href="#DejaVuSans-6f" transform="translate(97.416016 0)"/>
     <use xlink:href="#DejaVuSans-74" transform="translate(158.597656 0)"/>
     <use xlink:href="#DejaVuSans-65" transform="translate(197.806641 0)"/>
     <use xlink:href="#DejaVuSans-63" transform="translate(259.330078 0)"/>
     <use xlink:href="#DejaVuSans-74" transform="translate(314.310547 0)"/>
     <use xlink:href="#DejaVuSans-69" transform="translate(353.519531 0)"/>
     <use xlink:href="#DejaVuSans-6f" transform="translate(381.302734 0)"/>
     <use xlink:href="#DejaVuSans-6e" transform="translate(442.484375 0)"/>
     <use xlink:href="#DejaVuSans-3a" transform="translate(505.863281 0)"/>
     <use xlink:href="#DejaVuSans-20" transform="translate(539.554688 0)"/>
     <use xlink:href="#DejaVuSans-24" transform="translate(571.341797 0)"/>
     <use xlink:href="#DejaVuSans-31" transform="translate(634.964844 0)"/>
     <use xlink:href="#DejaVuSans-37" transform="translate(698.587891 0)"/>
     <use xlink:href="#DejaVuSans-32" transform="translate(762.210938 0)"/>
     <use xlink:href="#DejaVuSans-31" transform="translate(825.833984 0)"/>
     <use xlink:href="#DejaVuSans-2e" transform="translate(889.457031 0)"/>
     <use xlink:href="#DejaVuSans-36" transform="translate(921.244141 0)"/>
     <use xlink:href="#DejaVuSans-34" transform="translate(984.867188 0)"/>
    </g>
   </g>
   <g id="text_21">
    <!-- BMNR — Payoff Diagram - Collar(Put=17.22,Call=21.45) -->
    <g style="fill: #c5c9c5" transform="translate(232.739844 17.837812) scale(0.14 -0.14)">
     <defs>
      <path id="DejaVuSans-Bold-42" d="M 2456 2859 
Q 2741 2859 2887 2984 
Q 3034 3109 3034 3353 
Q 3034 3594 2887 3720 
Q 2741 3847 2456 3847 
L 1791 3847 
L 1791 2859 
L 2456 2859 
z
M 2497 819 
Q 2859 819 3042 972 
Q 3225 1125 3225 1434 
Q 3225 1738 3044 1889 
Q 2863 2041 2497 2041 
L 1791 2041 
L 1791 819 
L 2497 819 
z
M 3616 2497 
Q 4003 2384 4215 2081 
Q 4428 1778 4428 1338 
Q 4428 663 3972 331 
Q 3516 0 2584 0 
L 588 0 
L 588 4666 
L 2394 4666 
Q 3366 4666 3802 4372 
Q 4238 4078 4238 3431 
Q 4238 3091 4078 2852 
Q 3919 2613 3616 2497 
z
" transform="scale(0.015625)"/>
      <path id="DejaVuSans-Bold-4d" d="M 588 4666 
L 2119 4666 
L 3181 2169 
L 4250 4666 
L 5778 4666 
L 5778 0 
L 4641 0 
L 4641 3413 
L 3566 897 
L 2803 897 
L 1728 3413 
L 1728 0 
L 588 0 
L 588 4666 
z
" transform="scale(0.015625)"/>
      <path id="DejaVuSans-Bold-4e" d="M 588 4666 
L 1931 4666 
L 3628 1466 
L 3628 4666 
L 4769 4666 
L 4769 0 
L 3425 0 
L 1728 3200 
L 1728 0 
L 588 0 
L 588 4666 
z
" transform="scale(0.015625)"/>
      <path id="DejaVuSans-Bold-52" d="M 2297 2597 
Q 2675 2597 2839 2737 
Q 3003 2878 3003 3200 
Q 3003 3519 2839 3656 
Q 2675 3794 2297 3794 
L 1791 3794 
L 1791 2597 
L 2297 2597 
z
M 1791 1766 
L 1791 0 
L 588 0 
L 588 4666 
L 2425 4666 
Q 3347 4666 3776 4356 
Q 4206 4047 4206 3378 
Q 4206 2916 3982 2619 
Q 3759 2322 3309 2181 
Q 3556 2125 3751 1926 
Q 3947 1728 4147 1325 
L 4800 0 
L 3519 0 
L 2950 1159 
Q 2778 1509 2601 1637 
Q 2425 1766 2131 1766 
L 1791 1766 
z
" transform="scale(0.015625)"/>
      <path id="DejaVuSans-Bold-20" transform="scale(0.015625)"/>
      <path id="DejaVuSans-Bold-2014" d="M 344 2156 
L 6056 2156 
L 6056 1350 
L 344 1350 
L 344 2156 
z
" transform="scale(0.015625)"/>
      <path id="DejaVuSans-Bold-50" d="M 588 4666 
L 2584 4666 
Q 3475 4666 3951 4270 
Q 4428 3875 4428 3144 
Q 4428 2409 3951 2014 
Q 3475 1619 2584 1619 
L 1791 1619 
L 1791 0 
L 588 0 
L 588 4666 
z
M 1791 3794 
L 1791 2491 
L 2456 2491 
Q 2806 2491 2997 2661 
Q 3188 2831 3188 3144 
Q 3188 3456 2997 3625 
Q 2806 3794 2456 3794 
L 1791 3794 
z
" transform="scale(0.015625)"/>
      <path id="DejaVuSans-Bold-61" d="M 2106 1575 
Q 1756 1575 1579 1456 
Q 1403 1338 1403 1106 
Q 1403 894 1545 773 
Q 1688 653 1941 653 
Q 2256 653 2472 879 
Q 2688 1106 2688 1447 
L 2688 1575 
L 2106 1575 
z
M 3816 1997 
L 3816 0 
L 2688 0 
L 2688 519 
Q 2463 200 2181 54 
Q 1900 -91 1497 -91 
Q 953 -91 614 226 
Q 275 544 275 1050 
Q 275 1666 698 1953 
Q 1122 2241 2028 2241 
L 2688 2241 
L 2688 2328 
Q 2688 2594 2478 2717 
Q 2269 2841 1825 2841 
Q 1466 2841 1156 2769 
Q 847 2697 581 2553 
L 581 3406 
Q 941 3494 1303 3539 
Q 1666 3584 2028 3584 
Q 2975 3584 3395 3211 
Q 3816 2838 3816 1997 
z
" transform="scale(0.015625)"/>
      <path id="DejaVuSans-Bold-79" d="M 78 3500 
L 1197 3500 
L 2138 1125 
L 2938 3500 
L 4056 3500 
L 2584 -331 
Q 2363 -916 2067 -1148 
Q 1772 -1381 1288 -1381 
L 641 -1381 
L 641 -647 
L 991 -647 
Q 1275 -647 1404 -556 
Q 1534 -466 1606 -231 
L 1638 -134 
L 78 3500 
z
" transform="scale(0.015625)"/>
      <path id="DejaVuSans-Bold-6f" d="M 2203 2784 
Q 1831 2784 1636 2517 
Q 1441 2250 1441 1747 
Q 1441 1244 1636 976 
Q 1831 709 2203 709 
Q 2569 709 2762 976 
Q 2956 1244 2956 1747 
Q 2956 2250 2762 2517 
Q 2569 2784 2203 2784 
z
M 2203 3584 
Q 3106 3584 3614 3096 
Q 4122 2609 4122 1747 
Q 4122 884 3614 396 
Q 3106 -91 2203 -91 
Q 1297 -91 786 396 
Q 275 884 275 1747 
Q 275 2609 786 3096 
Q 1297 3584 2203 3584 
z
" transform="scale(0.015625)"/>
      <path id="DejaVuSans-Bold-66" d="M 2841 4863 
L 2841 4128 
L 2222 4128 
Q 1984 4128 1890 4042 
Q 1797 3956 1797 3744 
L 1797 3500 
L 2753 3500 
L 2753 2700 
L 1797 2700 
L 1797 0 
L 678 0 
L 678 2700 
L 122 2700 
L 122 3500 
L 678 3500 
L 678 3744 
Q 678 4316 997 4589 
Q 1316 4863 1984 4863 
L 2841 4863 
z
" transform="scale(0.015625)"/>
      <path id="DejaVuSans-Bold-44" d="M 1791 3756 
L 1791 909 
L 2222 909 
Q 2959 909 3348 1275 
Q 3738 1641 3738 2338 
Q 3738 3031 3350 3393 
Q 2963 3756 2222 3756 
L 1791 3756 
z
M 588 4666 
L 1856 4666 
Q 2919 4666 3439 4514 
Q 3959 4363 4331 4000 
Q 4659 3684 4818 3271 
Q 4978 2859 4978 2338 
Q 4978 1809 4818 1395 
Q 4659 981 4331 666 
Q 3956 303 3431 151 
Q 2906 0 1856 0 
L 588 0 
L 588 4666 
z
" transform="scale(0.015625)"/>
      <path id="DejaVuSans-Bold-69" d="M 538 3500 
L 1656 3500 
L 1656 0 
L 538 0 
L 538 3500 
z
M 538 4863 
L 1656 4863 
L 1656 3950 
L 538 3950 
L 538 4863 
z
" transform="scale(0.015625)"/>
      <path id="DejaVuSans-Bold-67" d="M 2919 594 
Q 2688 288 2409 144 
Q 2131 0 1766 0 
Q 1125 0 706 504 
Q 288 1009 288 1791 
Q 288 2575 706 3076 
Q 1125 3578 1766 3578 
Q 2131 3578 2409 3434 
Q 2688 3291 2919 2981 
L 2919 3500 
L 4044 3500 
L 4044 353 
Q 4044 -491 3511 -936 
Q 2978 -1381 1966 -1381 
Q 1638 -1381 1331 -1331 
Q 1025 -1281 716 -1178 
L 716 -306 
Q 1009 -475 1290 -558 
Q 1572 -641 1856 -641 
Q 2406 -641 2662 -400 
Q 2919 -159 2919 353 
L 2919 594 
z
M 2181 2772 
Q 1834 2772 1640 2515 
Q 1447 2259 1447 1791 
Q 1447 1309 1634 1061 
Q 1822 813 2181 813 
Q 2531 813 2725 1069 
Q 2919 1325 2919 1791 
Q 2919 2259 2725 2515 
Q 2531 2772 2181 2772 
z
" transform="scale(0.015625)"/>
      <path id="DejaVuSans-Bold-72" d="M 3138 2547 
Q 2991 2616 2845 2648 
Q 2700 2681 2553 2681 
Q 2122 2681 1889 2404 
Q 1656 2128 1656 1613 
L 1656 0 
L 538 0 
L 538 3500 
L 1656 3500 
L 1656 2925 
Q 1872 3269 2151 3426 
Q 2431 3584 2822 3584 
Q 2878 3584 2943 3579 
Q 3009 3575 3134 3559 
L 3138 2547 
z
" transform="scale(0.015625)"/>
      <path id="DejaVuSans-Bold-6d" d="M 3781 2919 
Q 3994 3244 4286 3414 
Q 4578 3584 4928 3584 
Q 5531 3584 5847 3212 
Q 6163 2841 6163 2131 
L 6163 0 
L 5038 0 
L 5038 1825 
Q 5041 1866 5042 1909 
Q 5044 1953 5044 2034 
Q 5044 2406 4934 2573 
Q 4825 2741 4581 2741 
Q 4263 2741 4089 2478 
Q 3916 2216 3909 1719 
L 3909 0 
L 2784 0 
L 2784 1825 
Q 2784 2406 2684 2573 
Q 2584 2741 2328 2741 
Q 2006 2741 1831 2477 
Q 1656 2213 1656 1722 
L 1656 0 
L 531 0 
L 531 3500 
L 1656 3500 
L 1656 2988 
Q 1863 3284 2130 3434 
Q 2397 3584 2719 3584 
Q 3081 3584 3359 3409 
Q 3638 3234 3781 2919 
z
" transform="scale(0.015625)"/>
      <path id="DejaVuSans-Bold-2d" d="M 347 2297 
L 2309 2297 
L 2309 1388 
L 347 1388 
L 347 2297 
z
" transform="scale(0.015625)"/>
      <path id="DejaVuSans-Bold-43" d="M 4288 256 
Q 3956 84 3597 -3 
Q 3238 -91 2847 -91 
Q 1681 -91 1000 561 
Q 319 1213 319 2328 
Q 319 3447 1000 4098 
Q 1681 4750 2847 4750 
Q 3238 4750 3597 4662 
Q 3956 4575 4288 4403 
L 4288 3438 
Q 3953 3666 3628 3772 
Q 3303 3878 2944 3878 
Q 2300 3878 1931 3465 
Q 1563 3053 1563 2328 
Q 1563 1606 1931 1193 
Q 2300 781 2944 781 
Q 3303 781 3628 887 
Q 3953 994 4288 1222 
L 4288 256 
z
" transform="scale(0.015625)"/>
      <path id="DejaVuSans-Bold-6c" d="M 538 4863 
L 1656 4863 
L 1656 0 
L 538 0 
L 538 4863 
z
" transform="scale(0.015625)"/>
      <path id="DejaVuSans-Bold-28" d="M 2413 -844 
L 1484 -844 
Q 1006 -72 778 623 
Q 550 1319 550 2003 
Q 550 2688 779 3389 
Q 1009 4091 1484 4856 
L 2413 4856 
Q 2013 4116 1813 3408 
Q 1613 2700 1613 2009 
Q 1613 1319 1811 609 
Q 2009 -100 2413 -844 
z
" transform="scale(0.015625)"/>
      <path id="DejaVuSans-Bold-75" d="M 500 1363 
L 500 3500 
L 1625 3500 
L 1625 3150 
Q 1625 2866 1622 2436 
Q 1619 2006 1619 1863 
Q 1619 1441 1641 1255 
Q 1663 1069 1716 984 
Q 1784 875 1895 815 
Q 2006 756 2150 756 
Q 2500 756 2700 1025 
Q 2900 1294 2900 1772 
L 2900 3500 
L 4019 3500 
L 4019 0 
L 2900 0 
L 2900 506 
Q 2647 200 2364 54 
Q 2081 -91 1741 -91 
Q 1134 -91 817 281 
Q 500 653 500 1363 
z
" transform="scale(0.015625)"/>
      <path id="DejaVuSans-Bold-74" d="M 1759 4494 
L 1759 3500 
L 2913 3500 
L 2913 2700 
L 1759 2700 
L 1759 1216 
Q 1759 972 1856 886 
Q 1953 800 2241 800 
L 2816 800 
L 2816 0 
L 1856 0 
Q 1194 0 917 276 
Q 641 553 641 1216 
L 641 2700 
L 84 2700 
L 84 3500 
L 641 3500 
L 641 4494 
L 1759 4494 
z
" transform="scale(0.015625)"/>
      <path id="DejaVuSans-Bold-3d" d="M 678 3084 
L 4684 3084 
L 4684 2350 
L 678 2350 
L 678 3084 
z
M 678 1663 
L 4684 1663 
L 4684 922 
L 678 922 
L 678 1663 
z
" transform="scale(0.015625)"/>
      <path id="DejaVuSans-Bold-31" d="M 750 831 
L 1813 831 
L 1813 3847 
L 722 3622 
L 722 4441 
L 1806 4666 
L 2950 4666 
L 2950 831 
L 4013 831 
L 4013 0 
L 750 0 
L 750 831 
z
" transform="scale(0.015625)"/>
      <path id="DejaVuSans-Bold-37" d="M 428 4666 
L 3944 4666 
L 3944 3988 
L 2125 0 
L 953 0 
L 2675 3781 
L 428 3781 
L 428 4666 
z
" transform="scale(0.015625)"/>
      <path id="DejaVuSans-Bold-2e" d="M 653 1209 
L 1778 1209 
L 1778 0 
L 653 0 
L 653 1209 
z
" transform="scale(0.015625)"/>
      <path id="DejaVuSans-Bold-32" d="M 1844 884 
L 3897 884 
L 3897 0 
L 506 0 
L 506 884 
L 2209 2388 
Q 2438 2594 2547 2791 
Q 2656 2988 2656 3200 
Q 2656 3528 2436 3728 
Q 2216 3928 1850 3928 
Q 1569 3928 1234 3808 
Q 900 3688 519 3450 
L 519 4475 
Q 925 4609 1322 4679 
Q 1719 4750 2100 4750 
Q 2938 4750 3402 4381 
Q 3866 4013 3866 3353 
Q 3866 2972 3669 2642 
Q 3472 2313 2841 1759 
L 1844 884 
z
" transform="scale(0.015625)"/>
      <path id="DejaVuSans-Bold-2c" d="M 653 1209 
L 1778 1209 
L 1778 256 
L 1006 -909 
L 341 -909 
L 653 256 
L 653 1209 
z
" transform="scale(0.015625)"/>
      <path id="DejaVuSans-Bold-34" d="M 2356 3675 
L 1038 1722 
L 2356 1722 
L 2356 3675 
z
M 2156 4666 
L 3494 4666 
L 3494 1722 
L 4159 1722 
L 4159 850 
L 3494 850 
L 3494 0 
L 2356 0 
L 2356 850 
L 288 850 
L 288 1881 
L 2156 4666 
z
" transform="scale(0.015625)"/>
      <path id="DejaVuSans-Bold-35" d="M 678 4666 
L 3669 4666 
L 3669 3781 
L 1638 3781 
L 1638 3059 
Q 1775 3097 1914 3117 
Q 2053 3138 2203 3138 
Q 3056 3138 3531 2711 
Q 4006 2284 4006 1522 
Q 4006 766 3489 337 
Q 2972 -91 2053 -91 
Q 1656 -91 1267 -14 
Q 878 63 494 219 
L 494 1166 
Q 875 947 1217 837 
Q 1559 728 1863 728 
Q 2300 728 2551 942 
Q 2803 1156 2803 1522 
Q 2803 1891 2551 2103 
Q 2300 2316 1863 2316 
Q 1603 2316 1309 2248 
Q 1016 2181 678 2041 
L 678 4666 
z
" transform="scale(0.015625)"/>
      <path id="DejaVuSans-Bold-29" d="M 513 -844 
Q 913 -100 1113 609 
Q 1313 1319 1313 2009 
Q 1313 2700 1113 3408 
Q 913 4116 513 4856 
L 1441 4856 
Q 1916 4091 2145 3389 
Q 2375 2688 2375 2003 
Q 2375 1319 2147 623 
Q 1919 -72 1441 -844 
L 513 -844 
z
" transform="scale(0.015625)"/>
     </defs>
     <use xlink:href="#DejaVuSans-Bold-42"/>
     <use xlink:href="#DejaVuSans-Bold-4d" transform="translate(76.220703 0)"/>
     <use xlink:href="#DejaVuSans-Bold-4e" transform="translate(175.732422 0)"/>
     <use xlink:href="#DejaVuSans-Bold-52" transform="translate(259.423828 0)"/>
     <use xlink:href="#DejaVuSans-Bold-20" transform="translate(336.425781 0)"/>
     <use xlink:href="#DejaVuSans-Bold-2014" transform="translate(371.240234 0)"/>
     <use xlink:href="#DejaVuSans-Bold-20" transform="translate(471.240234 0)"/>
     <use xlink:href="#DejaVuSans-Bold-50" transform="translate(506.054688 0)"/>
     <use xlink:href="#DejaVuSans-Bold-61" transform="translate(576.720703 0)"/>
     <use xlink:href="#DejaVuSans-Bold-79" transform="translate(641.076172 0)"/>
     <use xlink:href="#DejaVuSans-Bold-6f" transform="translate(706.261719 0)"/>
     <use xlink:href="#DejaVuSans-Bold-66" transform="translate(774.962891 0)"/>
     <use xlink:href="#DejaVuSans-Bold-66" transform="translate(818.46875 0)"/>
     <use xlink:href="#DejaVuSans-Bold-20" transform="translate(861.974609 0)"/>
     <use xlink:href="#DejaVuSans-Bold-44" transform="translate(896.789062 0)"/>
     <use xlink:href="#DejaVuSans-Bold-69" transform="translate(979.796875 0)"/>
     <use xlink:href="#DejaVuSans-Bold-61" transform="translate(1014.074219 0)"/>
     <use xlink:href="#DejaVuSans-Bold-67" transform="translate(1081.554688 0)"/>
     <use xlink:href="#DejaVuSans-Bold-72" transform="translate(1153.136719 0)"/>
     <use xlink:href="#DejaVuSans-Bold-61" transform="translate(1202.453125 0)"/>
     <use xlink:href="#DejaVuSans-Bold-6d" transform="translate(1269.933594 0)"/>
     <use xlink:href="#DejaVuSans-Bold-20" transform="translate(1374.132812 0)"/>
     <use xlink:href="#DejaVuSans-Bold-2d" transform="translate(1408.947266 0)"/>
     <use xlink:href="#DejaVuSans-Bold-20" transform="translate(1450.451172 0)"/>
     <use xlink:href="#DejaVuSans-Bold-43" transform="translate(1485.265625 0)"/>
     <use xlink:href="#DejaVuSans-Bold-6f" transform="translate(1558.654297 0)"/>
     <use xlink:href="#DejaVuSans-Bold-6c" transform="translate(1627.355469 0)"/>
     <use xlink:href="#DejaVuSans-Bold-6c" transform="translate(1661.632812 0)"/>
     <use xlink:href="#DejaVuSans-Bold-61" transform="translate(1695.910156 0)"/>
     <use xlink:href="#DejaVuSans-Bold-72" transform="translate(1763.390625 0)"/>
     <use xlink:href="#DejaVuSans-Bold-28" transform="translate(1812.707031 0)"/>
     <use xlink:href="#DejaVuSans-Bold-50" transform="translate(1858.410156 0)"/>
     <use xlink:href="#DejaVuSans-Bold-75" transform="translate(1931.701172 0)"/>
     <use xlink:href="#DejaVuSans-Bold-74" transform="translate(2002.892578 0)"/>
     <use xlink:href="#DejaVuSans-Bold-3d" transform="translate(2050.695312 0)"/>
     <use xlink:href="#DejaVuSans-Bold-31" transform="translate(2134.484375 0)"/>
     <use xlink:href="#DejaVuSans-Bold-37" transform="translate(2204.064453 0)"/>
     <use xlink:href="#DejaVuSans-Bold-2e" transform="translate(2273.644531 0)"/>
     <use xlink:href="#DejaVuSans-Bold-32" transform="translate(2311.632812 0)"/>
     <use xlink:href="#DejaVuSans-Bold-32" transform="translate(2381.212891 0)"/>
     <use xlink:href="#DejaVuSans-Bold-2c" transform="translate(2450.792969 0)"/>
     <use xlink:href="#DejaVuSans-Bold-43" transform="translate(2488.78125 0)"/>
     <use xlink:href="#DejaVuSans-Bold-61" transform="translate(2562.169922 0)"/>
     <use xlink:href="#DejaVuSans-Bold-6c" transform="translate(2629.650391 0)"/>
     <use xlink:href="#DejaVuSans-Bold-6c" transform="translate(2663.927734 0)"/>
     <use xlink:href="#DejaVuSans-Bold-3d" transform="translate(2698.205078 0)"/>
     <use xlink:href="#DejaVuSans-Bold-32" transform="translate(2781.994141 0)"/>
     <use xlink:href="#DejaVuSans-Bold-31" transform="translate(2851.574219 0)"/>
     <use xlink:href="#DejaVuSans-Bold-2e" transform="translate(2921.154297 0)"/>
     <use xlink:href="#DejaVuSans-Bold-34" transform="translate(2959.142578 0)"/>
     <use xlink:href="#DejaVuSans-Bold-35" transform="translate(3028.722656 0)"/>
     <use xlink:href="#DejaVuSans-Bold-29" transform="translate(3098.302734 0)"/>
    </g>
   </g>
   <g id="legend_1">
    <g id="patch_8">
     <path d="M 64.280938 75.872187 
L 159.748125 75.872187 
Q 161.748125 75.872187 161.748125 73.872187 
L 161.748125 30.837812 
Q 161.748125 28.837812 159.748125 28.837812 
L 64.280938 28.837812 
Q 62.280938 28.837812 62.280938 30.837812 
L 62.280938 73.872187 
Q 62.280938 75.872187 64.280938 75.872187 
z
" style="fill: #181616; opacity: 0.8; stroke: #625e5a; stroke-linejoin: miter"/>
    </g>
    <g id="line2d_40">
     <path d="M 66.280938 36.93625 
L 76.280938 36.93625 
L 86.280938 36.93625 
" style="fill: none; stroke-dasharray: 7.4,3.2; stroke-dashoffset: 0; stroke: #625e5a; stroke-width: 2"/>
    </g>
    <g id="text_22">
     <!-- Unhedged -->
     <g style="fill: #c5c9c5" transform="translate(94.280938 40.43625) scale(0.1 -0.1)">
      <defs>
       <path id="DejaVuSans-55" d="M 556 4666 
L 1191 4666 
L 1191 1831 
Q 1191 1081 1462 751 
Q 1734 422 2344 422 
Q 2950 422 3222 751 
Q 3494 1081 3494 1831 
L 3494 4666 
L 4128 4666 
L 4128 1753 
Q 4128 841 3676 375 
Q 3225 -91 2344 -91 
Q 1459 -91 1007 375 
Q 556 841 556 1753 
L 556 4666 
z
" transform="scale(0.015625)"/>
       <path id="DejaVuSans-68" d="M 3513 2113 
L 3513 0 
L 2938 0 
L 2938 2094 
Q 2938 2591 2744 2837 
Q 2550 3084 2163 3084 
Q 1697 3084 1428 2787 
Q 1159 2491 1159 1978 
L 1159 0 
L 581 0 
L 581 4863 
L 1159 4863 
L 1159 2956 
Q 1366 3272 1645 3428 
Q 1925 3584 2291 3584 
Q 2894 3584 3203 3211 
Q 3513 2838 3513 2113 
z
" transform="scale(0.015625)"/>
       <path id="DejaVuSans-64" d="M 2906 2969 
L 2906 4863 
L 3481 4863 
L 3481 0 
L 2906 0 
L 2906 525 
Q 2725 213 2448 61 
Q 2172 -91 1784 -91 
Q 1150 -91 751 415 
Q 353 922 353 1747 
Q 353 2572 751 3078 
Q 1150 3584 1784 3584 
Q 2172 3584 2448 3432 
Q 2725 3281 2906 2969 
z
M 947 1747 
Q 947 1113 1208 752 
Q 1469 391 1925 391 
Q 2381 391 2643 752 
Q 2906 1113 2906 1747 
Q 2906 2381 2643 2742 
Q 2381 3103 1925 3103 
Q 1469 3103 1208 2742 
Q 947 2381 947 1747 
z
" transform="scale(0.015625)"/>
       <path id="DejaVuSans-67" d="M 2906 1791 
Q 2906 2416 2648 2759 
Q 2391 3103 1925 3103 
Q 1463 3103 1205 2759 
Q 947 2416 947 1791 
Q 947 1169 1205 825 
Q 1463 481 1925 481 
Q 2391 481 2648 825 
Q 2906 1169 2906 1791 
z
M 3481 434 
Q 3481 -459 3084 -895 
Q 2688 -1331 1869 -1331 
Q 1566 -1331 1297 -1286 
Q 1028 -1241 775 -1147 
L 775 -588 
Q 1028 -725 1275 -790 
Q 1522 -856 1778 -856 
Q 2344 -856 2625 -561 
Q 2906 -266 2906 331 
L 2906 616 
Q 2728 306 2450 153 
Q 2172 0 1784 0 
Q 1141 0 747 490 
Q 353 981 353 1791 
Q 353 2603 747 3093 
Q 1141 3584 1784 3584 
Q 2172 3584 2450 3431 
Q 2728 3278 2906 2969 
L 2906 3500 
L 3481 3500 
L 3481 434 
z
" transform="scale(0.015625)"/>
      </defs>
      <use xlink:href="#DejaVuSans-55"/>
      <use xlink:href="#DejaVuSans-6e" transform="translate(73.193359 0)"/>
      <use xlink:href="#DejaVuSans-68" transform="translate(136.572266 0)"/>
      <use xlink:href="#DejaVuSans-65" transform="translate(199.951172 0)"/>
      <use xlink:href="#DejaVuSans-64" transform="translate(261.474609 0)"/>
      <use xlink:href="#DejaVuSans-67" transform="translate(324.951172 0)"/>
      <use xlink:href="#DejaVuSans-65" transform="translate(388.427734 0)"/>
      <use xlink:href="#DejaVuSans-64" transform="translate(449.951172 0)"/>
     </g>
    </g>
    <g id="line2d_41">
     <path d="M 66.280938 51.614375 
L 76.280938 51.614375 
L 86.280938 51.614375 
" style="fill: none; stroke: #8ba4b0; stroke-width: 2.5; stroke-linecap: square"/>
    </g>
    <g id="text_23">
     <!-- Hedged -->
     <g style="fill: #c5c9c5" transform="translate(94.280938 55.114375) scale(0.1 -0.1)">
      <defs>
       <path id="DejaVuSans-48" d="M 628 4666 
L 1259 4666 
L 1259 2753 
L 3553 2753 
L 3553 4666 
L 4184 4666 
L 4184 0 
L 3553 0 
L 3553 2222 
L 1259 2222 
L 1259 0 
L 628 0 
L 628 4666 
z
" transform="scale(0.015625)"/>
      </defs>
      <use xlink:href="#DejaVuSans-48"/>
      <use xlink:href="#DejaVuSans-65" transform="translate(75.195312 0)"/>
      <use xlink:href="#DejaVuSans-64" transform="translate(136.71875 0)"/>
      <use xlink:href="#DejaVuSans-67" transform="translate(200.195312 0)"/>
      <use xlink:href="#DejaVuSans-65" transform="translate(263.671875 0)"/>
      <use xlink:href="#DejaVuSans-64" transform="translate(325.195312 0)"/>
     </g>
    </g>
    <g id="line2d_42">
     <path d="M 66.280938 66.2925 
L 76.280938 66.2925 
L 86.280938 66.2925 
" style="fill: none; stroke-dasharray: 1.5,2.475; stroke-dashoffset: 0; stroke: #c4b28a; stroke-opacity: 0.7; stroke-width: 1.5"/>
    </g>
    <g id="text_24">
     <!-- Current Spot -->
     <g style="fill: #c5c9c5" transform="translate(94.280938 69.7925) scale(0.1 -0.1)">
      <defs>
       <path id="DejaVuSans-53" d="M 3425 4513 
L 3425 3897 
Q 3066 4069 2747 4153 
Q 2428 4238 2131 4238 
Q 1616 4238 1336 4038 
Q 1056 3838 1056 3469 
Q 1056 3159 1242 3001 
Q 1428 2844 1947 2747 
L 2328 2669 
Q 3034 2534 3370 2195 
Q 3706 1856 3706 1288 
Q 3706 609 3251 259 
Q 2797 -91 1919 -91 
Q 1588 -91 1214 -16 
Q 841 59 441 206 
L 441 856 
Q 825 641 1194 531 
Q 1563 422 1919 422 
Q 2459 422 2753 634 
Q 3047 847 3047 1241 
Q 3047 1584 2836 1778 
Q 2625 1972 2144 2069 
L 1759 2144 
Q 1053 2284 737 2584 
Q 422 2884 422 3419 
Q 422 4038 858 4394 
Q 1294 4750 2059 4750 
Q 2388 4750 2728 4690 
Q 3069 4631 3425 4513 
z
" transform="scale(0.015625)"/>
       <path id="DejaVuSans-70" d="M 1159 525 
L 1159 -1331 
L 581 -1331 
L 581 3500 
L 1159 3500 
L 1159 2969 
Q 1341 3281 1617 3432 
Q 1894 3584 2278 3584 
Q 2916 3584 3314 3078 
Q 3713 2572 3713 1747 
Q 3713 922 3314 415 
Q 2916 -91 2278 -91 
Q 1894 -91 1617 61 
Q 1341 213 1159 525 
z
M 3116 1747 
Q 3116 2381 2855 2742 
Q 2594 3103 2138 3103 
Q 1681 3103 1420 2742 
Q 1159 2381 1159 1747 
Q 1159 1113 1420 752 
Q 1681 391 2138 391 
Q 2594 391 2855 752 
Q 3116 1113 3116 1747 
z
" transform="scale(0.015625)"/>
      </defs>
      <use xlink:href="#DejaVuSans-43"/>
      <use xlink:href="#DejaVuSans-75" transform="translate(69.824219 0)"/>
      <use xlink:href="#DejaVuSans-72" transform="translate(133.203125 0)"/>
      <use xlink:href="#DejaVuSans-72" transform="translate(172.566406 0)"/>
      <use xlink:href="#DejaVuSans-65" transform="translate(211.429688 0)"/>
      <use xlink:href="#DejaVuSans-6e" transform="translate(272.953125 0)"/>
      <use xlink:href="#DejaVuSans-74" transform="translate(336.332031 0)"/>
      <use xlink:href="#DejaVuSans-20" transform="translate(375.541016 0)"/>
      <use xlink:href="#DejaVuSans-53" transform="translate(407.328125 0)"/>
      <use xlink:href="#DejaVuSans-70" transform="translate(470.804688 0)"/>
      <use xlink:href="#DejaVuSans-6f" transform="translate(534.28125 0)"/>
      <use xlink:href="#DejaVuSans-74" transform="translate(595.462891 0)"/>
     </g>
    </g>
   </g>
  </g>
  <g id="axes_2">
   <g id="patch_9">
    <path d="M 57.280938 671.397812 
L 848.360938 671.397812 
L 848.360938 369.957812 
L 57.280938 369.957812 
z
" style="fill: #181616"/>
   </g>
   <g id="FillBetweenPolyCollection_1">
    <defs>
     <path id="m62987ad295" d="M 405.059789 -190.211875 
L 407.647342 -190.211875 
L 411.26123 -190.211875 
L 414.875117 -190.211875 
L 418.489005 -190.211875 
L 422.102893 -190.211875 
L 425.71678 -190.211875 
L 429.330668 -190.211875 
L 432.944556 -190.211875 
L 436.558443 -190.211875 
L 440.172331 -190.211875 
L 443.786218 -190.211875 
L 447.400106 -190.211875 
L 451.013994 -190.211875 
L 454.627881 -190.211875 
L 458.241769 -190.211875 
L 461.855657 -190.211875 
L 465.469544 -190.211875 
L 469.083432 -190.211875 
L 472.697319 -190.211875 
L 476.311207 -190.211875 
L 479.925095 -190.211875 
L 483.538982 -190.211875 
L 487.15287 -190.211875 
L 490.766758 -190.211875 
L 494.380645 -190.211875 
L 497.994533 -190.211875 
L 501.60842 -190.211875 
L 505.222308 -190.211875 
L 508.836196 -190.211875 
L 512.450083 -190.211875 
L 516.063971 -190.211875 
L 519.677858 -190.211875 
L 523.291746 -190.211875 
L 526.905634 -190.211875 
L 530.519521 -190.211875 
L 534.133409 -190.211875 
L 537.747297 -190.211875 
L 541.361184 -190.211875 
L 544.975072 -190.211875 
L 548.588959 -190.211875 
L 552.202847 -190.211875 
L 555.816735 -190.211875 
L 559.430622 -190.211875 
L 563.04451 -190.211875 
L 566.658398 -190.211875 
L 570.272285 -190.211875 
L 573.886173 -190.211875 
L 577.50006 -190.211875 
L 581.113948 -190.211875 
L 584.727836 -190.211875 
L 588.341723 -190.211875 
L 591.955611 -190.211875 
L 595.569498 -190.211875 
L 599.183386 -190.211875 
L 602.797274 -190.211875 
L 606.411161 -190.211875 
L 610.025049 -190.211875 
L 613.638937 -190.211875 
L 617.252824 -190.211875 
L 620.866712 -190.211875 
L 624.480599 -190.211875 
L 628.094487 -190.211875 
L 631.708375 -190.211875 
L 635.322262 -190.211875 
L 638.93615 -190.211875 
L 642.550038 -190.211875 
L 646.163925 -190.211875 
L 649.777813 -190.211875 
L 653.3917 -190.211875 
L 657.005588 -190.211875 
L 660.619476 -190.211875 
L 664.233363 -190.211875 
L 667.847251 -190.211875 
L 671.461139 -190.211875 
L 675.075026 -190.211875 
L 678.688914 -190.211875 
L 682.302801 -190.211875 
L 685.916689 -190.211875 
L 689.530577 -190.211875 
L 693.144464 -190.211875 
L 696.758352 -190.211875 
L 700.372239 -190.211875 
L 703.986127 -190.211875 
L 707.600015 -190.211875 
L 711.213902 -190.211875 
L 714.82779 -190.211875 
L 718.441678 -190.211875 
L 722.055565 -190.211875 
L 725.669453 -190.211875 
L 729.28334 -190.211875 
L 732.897228 -190.211875 
L 736.511116 -190.211875 
L 740.125003 -190.211875 
L 743.738891 -190.211875 
L 747.352779 -190.211875 
L 750.966666 -190.211875 
L 754.580554 -190.211875 
L 758.194441 -190.211875 
L 761.808329 -190.211875 
L 765.422217 -190.211875 
L 769.036104 -190.211875 
L 772.649992 -190.211875 
L 776.263879 -190.211875 
L 779.877767 -190.211875 
L 783.491655 -190.211875 
L 787.105542 -190.211875 
L 790.71943 -190.211875 
L 794.333318 -190.211875 
L 797.947205 -190.211875 
L 801.561093 -190.211875 
L 805.17498 -190.211875 
L 808.788868 -190.211875 
L 812.402756 -190.211875 
L 812.402756 -190.211875 
L 812.402756 -230.873211 
L 808.788868 -230.873211 
L 805.17498 -230.873211 
L 801.561093 -230.873211 
L 797.947205 -230.873211 
L 794.333318 -230.873211 
L 790.71943 -230.873211 
L 787.105542 -230.873211 
L 783.491655 -230.873211 
L 779.877767 -230.873211 
L 776.263879 -230.873211 
L 772.649992 -230.873211 
L 769.036104 -230.873211 
L 765.422217 -230.873211 
L 761.808329 -230.873211 
L 758.194441 -230.873211 
L 754.580554 -230.873211 
L 750.966666 -230.873211 
L 747.352779 -230.873211 
L 743.738891 -230.873211 
L 740.125003 -230.873211 
L 736.511116 -230.873211 
L 732.897228 -230.873211 
L 729.28334 -230.873211 
L 725.669453 -230.873211 
L 722.055565 -230.873211 
L 718.441678 -230.873211 
L 714.82779 -230.873211 
L 711.213902 -230.873211 
L 707.600015 -230.873211 
L 703.986127 -230.873211 
L 700.372239 -230.873211 
L 696.758352 -230.873211 
L 693.144464 -230.873211 
L 689.530577 -230.873211 
L 685.916689 -230.873211 
L 682.302801 -230.873211 
L 678.688914 -230.873211 
L 675.075026 -230.873211 
L 671.461139 -230.873211 
L 667.847251 -230.873211 
L 664.233363 -230.873211 
L 660.619476 -230.873211 
L 657.005588 -230.873211 
L 653.3917 -230.873211 
L 649.777813 -230.873211 
L 646.163925 -230.873211 
L 642.550038 -230.873211 
L 638.93615 -230.873211 
L 635.322262 -230.873211 
L 631.708375 -230.873211 
L 628.094487 -230.873211 
L 624.480599 -230.873211 
L 620.866712 -230.873211 
L 617.252824 -230.873211 
L 613.638937 -230.873211 
L 610.025049 -230.873211 
L 606.411161 -230.873211 
L 602.797274 -230.873211 
L 599.183386 -230.873211 
L 595.569498 -230.873211 
L 591.955611 -230.873211 
L 588.341723 -230.873211 
L 584.727836 -230.873211 
L 581.113948 -230.873211 
L 577.50006 -230.873211 
L 573.886173 -230.873211 
L 570.272285 -230.873211 
L 566.658398 -230.873211 
L 563.04451 -230.873211 
L 559.430622 -230.873211 
L 555.816735 -230.873211 
L 552.202847 -230.873211 
L 548.588959 -230.873211 
L 544.975072 -230.873211 
L 541.361184 -230.873211 
L 537.747297 -230.873211 
L 534.133409 -230.873211 
L 530.519521 -230.873211 
L 526.905634 -230.873211 
L 523.291746 -230.873211 
L 519.677858 -230.873211 
L 516.063971 -230.873211 
L 512.450083 -230.873211 
L 508.836196 -229.755739 
L 505.222308 -228.378672 
L 501.60842 -227.001605 
L 497.994533 -225.624538 
L 494.380645 -224.247471 
L 490.766758 -222.870403 
L 487.15287 -221.493336 
L 483.538982 -220.116269 
L 479.925095 -218.739202 
L 476.311207 -217.362135 
L 472.697319 -215.985068 
L 469.083432 -214.608001 
L 465.469544 -213.230933 
L 461.855657 -211.853866 
L 458.241769 -210.476799 
L 454.627881 -209.099732 
L 451.013994 -207.722665 
L 447.400106 -206.345598 
L 443.786218 -204.96853 
L 440.172331 -203.591463 
L 436.558443 -202.214396 
L 432.944556 -200.837329 
L 429.330668 -199.460262 
L 425.71678 -198.083195 
L 422.102893 -196.706128 
L 418.489005 -195.32906 
L 414.875117 -193.951993 
L 411.26123 -192.574926 
L 407.647342 -191.197859 
z
" style="stroke: #8a9a7b; stroke-opacity: 0.2"/>
    </defs>
    <g clip-path="url(#p0e3dc14d6a)">
     <use xlink:href="#m62987ad295" x="0" y="710.889687" style="fill: #8a9a7b; fill-opacity: 0.2; stroke: #8a9a7b; stroke-opacity: 0.2"/>
    </g>
   </g>
   <g id="FillBetweenPolyCollection_2">
    <defs>
     <path id="mbfbf9bd749" d="M 93.239119 -190.211875 
L 93.239119 -190.211875 
L 96.853007 -190.211875 
L 100.466895 -190.211875 
L 104.080782 -190.211875 
L 107.69467 -190.211875 
L 111.308557 -190.211875 
L 114.922445 -190.211875 
L 118.536333 -190.211875 
L 122.15022 -190.211875 
L 125.764108 -190.211875 
L 129.377996 -190.211875 
L 132.991883 -190.211875 
L 136.605771 -190.211875 
L 140.219658 -190.211875 
L 143.833546 -190.211875 
L 147.447434 -190.211875 
L 151.061321 -190.211875 
L 154.675209 -190.211875 
L 158.289096 -190.211875 
L 161.902984 -190.211875 
L 165.516872 -190.211875 
L 169.130759 -190.211875 
L 172.744647 -190.211875 
L 176.358535 -190.211875 
L 179.972422 -190.211875 
L 183.58631 -190.211875 
L 187.200197 -190.211875 
L 190.814085 -190.211875 
L 194.427973 -190.211875 
L 198.04186 -190.211875 
L 201.655748 -190.211875 
L 205.269636 -190.211875 
L 208.883523 -190.211875 
L 212.497411 -190.211875 
L 216.111298 -190.211875 
L 219.725186 -190.211875 
L 223.339074 -190.211875 
L 226.952961 -190.211875 
L 230.566849 -190.211875 
L 234.180736 -190.211875 
L 237.794624 -190.211875 
L 241.408512 -190.211875 
L 245.022399 -190.211875 
L 248.636287 -190.211875 
L 252.250175 -190.211875 
L 255.864062 -190.211875 
L 259.47795 -190.211875 
L 263.091837 -190.211875 
L 266.705725 -190.211875 
L 270.319613 -190.211875 
L 273.9335 -190.211875 
L 277.547388 -190.211875 
L 281.161276 -190.211875 
L 284.775163 -190.211875 
L 288.389051 -190.211875 
L 292.002938 -190.211875 
L 295.616826 -190.211875 
L 299.230714 -190.211875 
L 302.844601 -190.211875 
L 306.458489 -190.211875 
L 310.072377 -190.211875 
L 313.686264 -190.211875 
L 317.300152 -190.211875 
L 320.914039 -190.211875 
L 324.527927 -190.211875 
L 328.141815 -190.211875 
L 331.755702 -190.211875 
L 335.36959 -190.211875 
L 338.983477 -190.211875 
L 342.597365 -190.211875 
L 346.211253 -190.211875 
L 349.82514 -190.211875 
L 353.439028 -190.211875 
L 357.052916 -190.211875 
L 360.666803 -190.211875 
L 364.280691 -190.211875 
L 367.894578 -190.211875 
L 371.508466 -190.211875 
L 375.122354 -190.211875 
L 378.736241 -190.211875 
L 382.350129 -190.211875 
L 385.964017 -190.211875 
L 389.577904 -190.211875 
L 393.191792 -190.211875 
L 396.805679 -190.211875 
L 400.419567 -190.211875 
L 404.033455 -190.211875 
L 405.059789 -190.211875 
L 404.033455 -189.820792 
L 400.419567 -188.443725 
L 396.805679 -187.066657 
L 393.191792 -185.68959 
L 389.577904 -184.312523 
L 385.964017 -182.935456 
L 382.350129 -181.558389 
L 378.736241 -180.181322 
L 375.122354 -178.804255 
L 371.508466 -177.427187 
L 367.894578 -176.05012 
L 364.280691 -174.673053 
L 360.666803 -173.295986 
L 357.052916 -171.918919 
L 353.439028 -170.541852 
L 349.82514 -169.164784 
L 346.211253 -167.787717 
L 342.597365 -166.41065 
L 338.983477 -165.033583 
L 335.36959 -163.656516 
L 331.755702 -162.279449 
L 328.141815 -160.902382 
L 324.527927 -159.525314 
L 320.914039 -158.892717 
L 317.300152 -158.892717 
L 313.686264 -158.892717 
L 310.072377 -158.892717 
L 306.458489 -158.892717 
L 302.844601 -158.892717 
L 299.230714 -158.892717 
L 295.616826 -158.892717 
L 292.002938 -158.892717 
L 288.389051 -158.892717 
L 284.775163 -158.892717 
L 281.161276 -158.892717 
L 277.547388 -158.892717 
L 273.9335 -158.892717 
L 270.319613 -158.892717 
L 266.705725 -158.892717 
L 263.091837 -158.892717 
L 259.47795 -158.892717 
L 255.864062 -158.892717 
L 252.250175 -158.892717 
L 248.636287 -158.892717 
L 245.022399 -158.892717 
L 241.408512 -158.892717 
L 237.794624 -158.892717 
L 234.180736 -158.892717 
L 230.566849 -158.892717 
L 226.952961 -158.892717 
L 223.339074 -158.892717 
L 219.725186 -158.892717 
L 216.111298 -158.892717 
L 212.497411 -158.892717 
L 208.883523 -158.892717 
L 205.269636 -158.892717 
L 201.655748 -158.892717 
L 198.04186 -158.892717 
L 194.427973 -158.892717 
L 190.814085 -158.892717 
L 187.200197 -158.892717 
L 183.58631 -158.892717 
L 179.972422 -158.892717 
L 176.358535 -158.892717 
L 172.744647 -158.892717 
L 169.130759 -158.892717 
L 165.516872 -158.892717 
L 161.902984 -158.892717 
L 158.289096 -158.892717 
L 154.675209 -158.892717 
L 151.061321 -158.892717 
L 147.447434 -158.892717 
L 143.833546 -158.892717 
L 140.219658 -158.892717 
L 136.605771 -158.892717 
L 132.991883 -158.892717 
L 129.377996 -158.892717 
L 125.764108 -158.892717 
L 122.15022 -158.892717 
L 118.536333 -158.892717 
L 114.922445 -158.892717 
L 111.308557 -158.892717 
L 107.69467 -158.892717 
L 104.080782 -158.892717 
L 100.466895 -158.892717 
L 96.853007 -158.892717 
L 93.239119 -158.892717 
z
" style="stroke: #c4746e; stroke-opacity: 0.2"/>
    </defs>
    <g clip-path="url(#p0e3dc14d6a)">
     <use xlink:href="#mbfbf9bd749" x="0" y="710.889687" style="fill: #c4746e; fill-opacity: 0.2; stroke: #c4746e; stroke-opacity: 0.2"/>
    </g>
   </g>
   <g id="matplotlib.axis_3">
    <g id="xtick_10">
     <g id="line2d_43">
      <path d="M 89.75586 671.397812 
L 89.75586 369.957812 
" clip-path="url(#p0e3dc14d6a)" style="fill: none; stroke: #625e5a; stroke-opacity: 0.2; stroke-width: 0.8; stroke-linecap: square"/>
     </g>
     <g id="line2d_44">
      <g>
       <use xlink:href="#m400fc15e91" x="89.75586" y="671.397812" style="fill: #c5c9c5; stroke: #c5c9c5; stroke-width: 0.8"/>
      </g>
     </g>
     <g id="text_25">
      <!-- 12 -->
      <g style="fill: #c5c9c5" transform="translate(83.39336 685.99625) scale(0.1 -0.1)">
       <use xlink:href="#DejaVuSans-31"/>
       <use xlink:href="#DejaVuSans-32" transform="translate(63.623047 0)"/>
      </g>
     </g>
    </g>
    <g id="xtick_11">
     <g id="line2d_45">
      <path d="M 179.070772 671.397812 
L 179.070772 369.957812 
" clip-path="url(#p0e3dc14d6a)" style="fill: none; stroke: #625e5a; stroke-opacity: 0.2; stroke-width: 0.8; stroke-linecap: square"/>
     </g>
     <g id="line2d_46">
      <g>
       <use xlink:href="#m400fc15e91" x="179.070772" y="671.397812" style="fill: #c5c9c5; stroke: #c5c9c5; stroke-width: 0.8"/>
      </g>
     </g>
     <g id="text_26">
      <!-- 14 -->
      <g style="fill: #c5c9c5" transform="translate(172.708272 685.99625) scale(0.1 -0.1)">
       <use xlink:href="#DejaVuSans-31"/>
       <use xlink:href="#DejaVuSans-34" transform="translate(63.623047 0)"/>
      </g>
     </g>
    </g>
    <g id="xtick_12">
     <g id="line2d_47">
      <path d="M 268.385683 671.397812 
L 268.385683 369.957812 
" clip-path="url(#p0e3dc14d6a)" style="fill: none; stroke: #625e5a; stroke-opacity: 0.2; stroke-width: 0.8; stroke-linecap: square"/>
     </g>
     <g id="line2d_48">
      <g>
       <use xlink:href="#m400fc15e91" x="268.385683" y="671.397812" style="fill: #c5c9c5; stroke: #c5c9c5; stroke-width: 0.8"/>
      </g>
     </g>
     <g id="text_27">
      <!-- 16 -->
      <g style="fill: #c5c9c5" transform="translate(262.023183 685.99625) scale(0.1 -0.1)">
       <use xlink:href="#DejaVuSans-31"/>
       <use xlink:href="#DejaVuSans-36" transform="translate(63.623047 0)"/>
      </g>
     </g>
    </g>
    <g id="xtick_13">
     <g id="line2d_49">
      <path d="M 357.700594 671.397812 
L 357.700594 369.957812 
" clip-path="url(#p0e3dc14d6a)" style="fill: none; stroke: #625e5a; stroke-opacity: 0.2; stroke-width: 0.8; stroke-linecap: square"/>
     </g>
     <g id="line2d_50">
      <g>
       <use xlink:href="#m400fc15e91" x="357.700594" y="671.397812" style="fill: #c5c9c5; stroke: #c5c9c5; stroke-width: 0.8"/>
      </g>
     </g>
     <g id="text_28">
      <!-- 18 -->
      <g style="fill: #c5c9c5" transform="translate(351.338094 685.99625) scale(0.1 -0.1)">
       <use xlink:href="#DejaVuSans-31"/>
       <use xlink:href="#DejaVuSans-38" transform="translate(63.623047 0)"/>
      </g>
     </g>
    </g>
    <g id="xtick_14">
     <g id="line2d_51">
      <path d="M 447.015506 671.397812 
L 447.015506 369.957812 
" clip-path="url(#p0e3dc14d6a)" style="fill: none; stroke: #625e5a; stroke-opacity: 0.2; stroke-width: 0.8; stroke-linecap: square"/>
     </g>
     <g id="line2d_52">
      <g>
       <use xlink:href="#m400fc15e91" x="447.015506" y="671.397812" style="fill: #c5c9c5; stroke: #c5c9c5; stroke-width: 0.8"/>
      </g>
     </g>
     <g id="text_29">
      <!-- 20 -->
      <g style="fill: #c5c9c5" transform="translate(440.653006 685.99625) scale(0.1 -0.1)">
       <use xlink:href="#DejaVuSans-32"/>
       <use xlink:href="#DejaVuSans-30" transform="translate(63.623047 0)"/>
      </g>
     </g>
    </g>
    <g id="xtick_15">
     <g id="line2d_53">
      <path d="M 536.330417 671.397812 
L 536.330417 369.957812 
" clip-path="url(#p0e3dc14d6a)" style="fill: none; stroke: #625e5a; stroke-opacity: 0.2; stroke-width: 0.8; stroke-linecap: square"/>
     </g>
     <g id="line2d_54">
      <g>
       <use xlink:href="#m400fc15e91" x="536.330417" y="671.397812" style="fill: #c5c9c5; stroke: #c5c9c5; stroke-width: 0.8"/>
      </g>
     </g>
     <g id="text_30">
      <!-- 22 -->
      <g style="fill: #c5c9c5" transform="translate(529.967917 685.99625) scale(0.1 -0.1)">
       <use xlink:href="#DejaVuSans-32"/>
       <use xlink:href="#DejaVuSans-32" transform="translate(63.623047 0)"/>
      </g>
     </g>
    </g>
    <g id="xtick_16">
     <g id="line2d_55">
      <path d="M 625.645328 671.397812 
L 625.645328 369.957812 
" clip-path="url(#p0e3dc14d6a)" style="fill: none; stroke: #625e5a; stroke-opacity: 0.2; stroke-width: 0.8; stroke-linecap: square"/>
     </g>
     <g id="line2d_56">
      <g>
       <use xlink:href="#m400fc15e91" x="625.645328" y="671.397812" style="fill: #c5c9c5; stroke: #c5c9c5; stroke-width: 0.8"/>
      </g>
     </g>
     <g id="text_31">
      <!-- 24 -->
      <g style="fill: #c5c9c5" transform="translate(619.282828 685.99625) scale(0.1 -0.1)">
       <use xlink:href="#DejaVuSans-32"/>
       <use xlink:href="#DejaVuSans-34" transform="translate(63.623047 0)"/>
      </g>
     </g>
    </g>
    <g id="xtick_17">
     <g id="line2d_57">
      <path d="M 714.96024 671.397812 
L 714.96024 369.957812 
" clip-path="url(#p0e3dc14d6a)" style="fill: none; stroke: #625e5a; stroke-opacity: 0.2; stroke-width: 0.8; stroke-linecap: square"/>
     </g>
     <g id="line2d_58">
      <g>
       <use xlink:href="#m400fc15e91" x="714.96024" y="671.397812" style="fill: #c5c9c5; stroke: #c5c9c5; stroke-width: 0.8"/>
      </g>
     </g>
     <g id="text_32">
      <!-- 26 -->
      <g style="fill: #c5c9c5" transform="translate(708.59774 685.99625) scale(0.1 -0.1)">
       <use xlink:href="#DejaVuSans-32"/>
       <use xlink:href="#DejaVuSans-36" transform="translate(63.623047 0)"/>
      </g>
     </g>
    </g>
    <g id="xtick_18">
     <g id="line2d_59">
      <path d="M 804.275151 671.397812 
L 804.275151 369.957812 
" clip-path="url(#p0e3dc14d6a)" style="fill: none; stroke: #625e5a; stroke-opacity: 0.2; stroke-width: 0.8; stroke-linecap: square"/>
     </g>
     <g id="line2d_60">
      <g>
       <use xlink:href="#m400fc15e91" x="804.275151" y="671.397812" style="fill: #c5c9c5; stroke: #c5c9c5; stroke-width: 0.8"/>
      </g>
     </g>
     <g id="text_33">
      <!-- 28 -->
      <g style="fill: #c5c9c5" transform="translate(797.912651 685.99625) scale(0.1 -0.1)">
       <use xlink:href="#DejaVuSans-32"/>
       <use xlink:href="#DejaVuSans-38" transform="translate(63.623047 0)"/>
      </g>
     </g>
    </g>
    <g id="text_34">
     <!-- Spot Price at Expiry ($) -->
     <g style="fill: #c5c9c5" transform="translate(383.55 701.194062) scale(0.12 -0.12)">
      <defs>
       <path id="DejaVuSans-45" d="M 628 4666 
L 3578 4666 
L 3578 4134 
L 1259 4134 
L 1259 2753 
L 3481 2753 
L 3481 2222 
L 1259 2222 
L 1259 531 
L 3634 531 
L 3634 0 
L 628 0 
L 628 4666 
z
" transform="scale(0.015625)"/>
       <path id="DejaVuSans-78" d="M 3513 3500 
L 2247 1797 
L 3578 0 
L 2900 0 
L 1881 1375 
L 863 0 
L 184 0 
L 1544 1831 
L 300 3500 
L 978 3500 
L 1906 2253 
L 2834 3500 
L 3513 3500 
z
" transform="scale(0.015625)"/>
       <path id="DejaVuSans-79" d="M 2059 -325 
Q 1816 -950 1584 -1140 
Q 1353 -1331 966 -1331 
L 506 -1331 
L 506 -850 
L 844 -850 
Q 1081 -850 1212 -737 
Q 1344 -625 1503 -206 
L 1606 56 
L 191 3500 
L 800 3500 
L 1894 763 
L 2988 3500 
L 3597 3500 
L 2059 -325 
z
" transform="scale(0.015625)"/>
      </defs>
      <use xlink:href="#DejaVuSans-53"/>
      <use xlink:href="#DejaVuSans-70" transform="translate(63.476562 0)"/>
      <use xlink:href="#DejaVuSans-6f" transform="translate(126.953125 0)"/>
      <use xlink:href="#DejaVuSans-74" transform="translate(188.134766 0)"/>
      <use xlink:href="#DejaVuSans-20" transform="translate(227.34375 0)"/>
      <use xlink:href="#DejaVuSans-50" transform="translate(259.130859 0)"/>
      <use xlink:href="#DejaVuSans-72" transform="translate(317.683594 0)"/>
      <use xlink:href="#DejaVuSans-69" transform="translate(358.796875 0)"/>
      <use xlink:href="#DejaVuSans-63" transform="translate(386.580078 0)"/>
      <use xlink:href="#DejaVuSans-65" transform="translate(441.560547 0)"/>
      <use xlink:href="#DejaVuSans-20" transform="translate(503.083984 0)"/>
      <use xlink:href="#DejaVuSans-61" transform="translate(534.871094 0)"/>
      <use xlink:href="#DejaVuSans-74" transform="translate(596.150391 0)"/>
      <use xlink:href="#DejaVuSans-20" transform="translate(635.359375 0)"/>
      <use xlink:href="#DejaVuSans-45" transform="translate(667.146484 0)"/>
      <use xlink:href="#DejaVuSans-78" transform="translate(730.330078 0)"/>
      <use xlink:href="#DejaVuSans-70" transform="translate(789.509766 0)"/>
      <use xlink:href="#DejaVuSans-69" transform="translate(852.986328 0)"/>
      <use xlink:href="#DejaVuSans-72" transform="translate(880.769531 0)"/>
      <use xlink:href="#DejaVuSans-79" transform="translate(921.882812 0)"/>
      <use xlink:href="#DejaVuSans-20" transform="translate(981.0625 0)"/>
      <use xlink:href="#DejaVuSans-28" transform="translate(1012.849609 0)"/>
      <use xlink:href="#DejaVuSans-24" transform="translate(1051.863281 0)"/>
      <use xlink:href="#DejaVuSans-29" transform="translate(1115.486328 0)"/>
     </g>
    </g>
   </g>
   <g id="matplotlib.axis_4">
    <g id="ytick_10">
     <g id="line2d_61">
      <path d="M 57.280938 656.811133 
L 848.360938 656.811133 
" clip-path="url(#p0e3dc14d6a)" style="fill: none; stroke: #625e5a; stroke-opacity: 0.2; stroke-width: 0.8; stroke-linecap: square"/>
     </g>
     <g id="line2d_62">
      <g>
       <use xlink:href="#m7839ee38b3" x="57.280938" y="656.811133" style="fill: #c5c9c5; stroke: #c5c9c5; stroke-width: 0.8"/>
      </g>
     </g>
     <g id="text_35">
      <!-- −800 -->
      <g style="fill: #c5c9c5" transform="translate(22.81375 660.610352) scale(0.1 -0.1)">
       <defs>
        <path id="DejaVuSans-2212" d="M 678 2272 
L 4684 2272 
L 4684 1741 
L 678 1741 
L 678 2272 
z
" transform="scale(0.015625)"/>
       </defs>
       <use xlink:href="#DejaVuSans-2212"/>
       <use xlink:href="#DejaVuSans-38" transform="translate(83.789062 0)"/>
       <use xlink:href="#DejaVuSans-30" transform="translate(147.412109 0)"/>
       <use xlink:href="#DejaVuSans-30" transform="translate(211.035156 0)"/>
      </g>
     </g>
    </g>
    <g id="ytick_11">
     <g id="line2d_63">
      <path d="M 57.280938 622.777803 
L 848.360938 622.777803 
" clip-path="url(#p0e3dc14d6a)" style="fill: none; stroke: #625e5a; stroke-opacity: 0.2; stroke-width: 0.8; stroke-linecap: square"/>
     </g>
     <g id="line2d_64">
      <g>
       <use xlink:href="#m7839ee38b3" x="57.280938" y="622.777803" style="fill: #c5c9c5; stroke: #c5c9c5; stroke-width: 0.8"/>
      </g>
     </g>
     <g id="text_36">
      <!-- −600 -->
      <g style="fill: #c5c9c5" transform="translate(22.81375 626.577022) scale(0.1 -0.1)">
       <use xlink:href="#DejaVuSans-2212"/>
       <use xlink:href="#DejaVuSans-36" transform="translate(83.789062 0)"/>
       <use xlink:href="#DejaVuSans-30" transform="translate(147.412109 0)"/>
       <use xlink:href="#DejaVuSans-30" transform="translate(211.035156 0)"/>
      </g>
     </g>
    </g>
    <g id="ytick_12">
     <g id="line2d_65">
      <path d="M 57.280938 588.744473 
L 848.360938 588.744473 
" clip-path="url(#p0e3dc14d6a)" style="fill: none; stroke: #625e5a; stroke-opacity: 0.2; stroke-width: 0.8; stroke-linecap: square"/>
     </g>
     <g id="line2d_66">
      <g>
       <use xlink:href="#m7839ee38b3" x="57.280938" y="588.744473" style="fill: #c5c9c5; stroke: #c5c9c5; stroke-width: 0.8"/>
      </g>
     </g>
     <g id="text_37">
      <!-- −400 -->
      <g style="fill: #c5c9c5" transform="translate(22.81375 592.543692) scale(0.1 -0.1)">
       <use xlink:href="#DejaVuSans-2212"/>
       <use xlink:href="#DejaVuSans-34" transform="translate(83.789062 0)"/>
       <use xlink:href="#DejaVuSans-30" transform="translate(147.412109 0)"/>
       <use xlink:href="#DejaVuSans-30" transform="translate(211.035156 0)"/>
      </g>
     </g>
    </g>
    <g id="ytick_13">
     <g id="line2d_67">
      <path d="M 57.280938 554.711143 
L 848.360938 554.711143 
" clip-path="url(#p0e3dc14d6a)" style="fill: none; stroke: #625e5a; stroke-opacity: 0.2; stroke-width: 0.8; stroke-linecap: square"/>
     </g>
     <g id="line2d_68">
      <g>
       <use xlink:href="#m7839ee38b3" x="57.280938" y="554.711143" style="fill: #c5c9c5; stroke: #c5c9c5; stroke-width: 0.8"/>
      </g>
     </g>
     <g id="text_38">
      <!-- −200 -->
      <g style="fill: #c5c9c5" transform="translate(22.81375 558.510361) scale(0.1 -0.1)">
       <use xlink:href="#DejaVuSans-2212"/>
       <use xlink:href="#DejaVuSans-32" transform="translate(83.789062 0)"/>
       <use xlink:href="#DejaVuSans-30" transform="translate(147.412109 0)"/>
       <use xlink:href="#DejaVuSans-30" transform="translate(211.035156 0)"/>
      </g>
     </g>
    </g>
    <g id="ytick_14">
     <g id="line2d_69">
      <path d="M 57.280938 520.677812 
L 848.360938 520.677812 
" clip-path="url(#p0e3dc14d6a)" style="fill: none; stroke: #625e5a; stroke-opacity: 0.2; stroke-width: 0.8; stroke-linecap: square"/>
     </g>
     <g id="line2d_70">
      <g>
       <use xlink:href="#m7839ee38b3" x="57.280938" y="520.677812" style="fill: #c5c9c5; stroke: #c5c9c5; stroke-width: 0.8"/>
      </g>
     </g>
     <g id="text_39">
      <!-- 0 -->
      <g style="fill: #c5c9c5" transform="translate(43.918438 524.477031) scale(0.1 -0.1)">
       <use xlink:href="#DejaVuSans-30"/>
      </g>
     </g>
    </g>
    <g id="ytick_15">
     <g id="line2d_71">
      <path d="M 57.280938 486.644482 
L 848.360938 486.644482 
" clip-path="url(#p0e3dc14d6a)" style="fill: none; stroke: #625e5a; stroke-opacity: 0.2; stroke-width: 0.8; stroke-linecap: square"/>
     </g>
     <g id="line2d_72">
      <g>
       <use xlink:href="#m7839ee38b3" x="57.280938" y="486.644482" style="fill: #c5c9c5; stroke: #c5c9c5; stroke-width: 0.8"/>
      </g>
     </g>
     <g id="text_40">
      <!-- 200 -->
      <g style="fill: #c5c9c5" transform="translate(31.193438 490.443701) scale(0.1 -0.1)">
       <use xlink:href="#DejaVuSans-32"/>
       <use xlink:href="#DejaVuSans-30" transform="translate(63.623047 0)"/>
       <use xlink:href="#DejaVuSans-30" transform="translate(127.246094 0)"/>
      </g>
     </g>
    </g>
    <g id="ytick_16">
     <g id="line2d_73">
      <path d="M 57.280938 452.611152 
L 848.360938 452.611152 
" clip-path="url(#p0e3dc14d6a)" style="fill: none; stroke: #625e5a; stroke-opacity: 0.2; stroke-width: 0.8; stroke-linecap: square"/>
     </g>
     <g id="line2d_74">
      <g>
       <use xlink:href="#m7839ee38b3" x="57.280938" y="452.611152" style="fill: #c5c9c5; stroke: #c5c9c5; stroke-width: 0.8"/>
      </g>
     </g>
     <g id="text_41">
      <!-- 400 -->
      <g style="fill: #c5c9c5" transform="translate(31.193438 456.410371) scale(0.1 -0.1)">
       <use xlink:href="#DejaVuSans-34"/>
       <use xlink:href="#DejaVuSans-30" transform="translate(63.623047 0)"/>
       <use xlink:href="#DejaVuSans-30" transform="translate(127.246094 0)"/>
      </g>
     </g>
    </g>
    <g id="ytick_17">
     <g id="line2d_75">
      <path d="M 57.280938 418.577822 
L 848.360938 418.577822 
" clip-path="url(#p0e3dc14d6a)" style="fill: none; stroke: #625e5a; stroke-opacity: 0.2; stroke-width: 0.8; stroke-linecap: square"/>
     </g>
     <g id="line2d_76">
      <g>
       <use xlink:href="#m7839ee38b3" x="57.280938" y="418.577822" style="fill: #c5c9c5; stroke: #c5c9c5; stroke-width: 0.8"/>
      </g>
     </g>
     <g id="text_42">
      <!-- 600 -->
      <g style="fill: #c5c9c5" transform="translate(31.193438 422.377041) scale(0.1 -0.1)">
       <use xlink:href="#DejaVuSans-36"/>
       <use xlink:href="#DejaVuSans-30" transform="translate(63.623047 0)"/>
       <use xlink:href="#DejaVuSans-30" transform="translate(127.246094 0)"/>
      </g>
     </g>
    </g>
    <g id="ytick_18">
     <g id="line2d_77">
      <path d="M 57.280938 384.544492 
L 848.360938 384.544492 
" clip-path="url(#p0e3dc14d6a)" style="fill: none; stroke: #625e5a; stroke-opacity: 0.2; stroke-width: 0.8; stroke-linecap: square"/>
     </g>
     <g id="line2d_78">
      <g>
       <use xlink:href="#m7839ee38b3" x="57.280938" y="384.544492" style="fill: #c5c9c5; stroke: #c5c9c5; stroke-width: 0.8"/>
      </g>
     </g>
     <g id="text_43">
      <!-- 800 -->
      <g style="fill: #c5c9c5" transform="translate(31.193438 388.34371) scale(0.1 -0.1)">
       <use xlink:href="#DejaVuSans-38"/>
       <use xlink:href="#DejaVuSans-30" transform="translate(63.623047 0)"/>
       <use xlink:href="#DejaVuSans-30" transform="translate(127.246094 0)"/>
      </g>
     </g>
    </g>
    <g id="text_44">
     <!-- Profit/Loss ($) -->
     <g style="fill: #c5c9c5" transform="translate(16.318125 561.912812) rotate(-90) scale(0.12 -0.12)">
      <defs>
       <path id="DejaVuSans-2f" d="M 1625 4666 
L 2156 4666 
L 531 -594 
L 0 -594 
L 1625 4666 
z
" transform="scale(0.015625)"/>
       <path id="DejaVuSans-4c" d="M 628 4666 
L 1259 4666 
L 1259 531 
L 3531 531 
L 3531 0 
L 628 0 
L 628 4666 
z
" transform="scale(0.015625)"/>
      </defs>
      <use xlink:href="#DejaVuSans-50"/>
      <use xlink:href="#DejaVuSans-72" transform="translate(58.552734 0)"/>
      <use xlink:href="#DejaVuSans-6f" transform="translate(97.416016 0)"/>
      <use xlink:href="#DejaVuSans-66" transform="translate(158.597656 0)"/>
      <use xlink:href="#DejaVuSans-69" transform="translate(193.802734 0)"/>
      <use xlink:href="#DejaVuSans-74" transform="translate(221.585938 0)"/>
      <use xlink:href="#DejaVuSans-2f" transform="translate(260.794922 0)"/>
      <use xlink:href="#DejaVuSans-4c" transform="translate(294.486328 0)"/>
      <use xlink:href="#DejaVuSans-6f" transform="translate(348.449219 0)"/>
      <use xlink:href="#DejaVuSans-73" transform="translate(409.630859 0)"/>
      <use xlink:href="#DejaVuSans-73" transform="translate(461.730469 0)"/>
      <use xlink:href="#DejaVuSans-20" transform="translate(513.830078 0)"/>
      <use xlink:href="#DejaVuSans-28" transform="translate(545.617188 0)"/>
      <use xlink:href="#DejaVuSans-24" transform="translate(584.630859 0)"/>
      <use xlink:href="#DejaVuSans-29" transform="translate(648.253906 0)"/>
     </g>
    </g>
   </g>
   <g id="line2d_79">
    <path d="M 93.239119 657.695994 
L 812.402756 383.659631 
L 812.402756 383.659631 
" clip-path="url(#p0e3dc14d6a)" style="fill: none; stroke-dasharray: 7.4,3.2; stroke-dashoffset: 0; stroke: #625e5a; stroke-width: 2"/>
   </g>
   <g id="line2d_80">
    <path d="M 93.239119 551.99697 
L 320.914039 551.99697 
L 324.527927 551.364373 
L 508.836196 481.133948 
L 512.450083 480.016477 
L 812.402756 480.016477 
L 812.402756 480.016477 
" clip-path="url(#p0e3dc14d6a)" style="fill: none; stroke: #8a9a7b; stroke-width: 2.5; stroke-linecap: square"/>
   </g>
   <g id="line2d_81">
    <path d="M 57.280938 520.677812 
L 848.360938 520.677812 
" clip-path="url(#p0e3dc14d6a)" style="fill: none; stroke: #c5c9c5; stroke-opacity: 0.3; stroke-width: 1.5; stroke-linecap: square"/>
   </g>
   <g id="line2d_82">
    <path d="M 452.820938 671.397812 
L 452.820938 369.957812 
" clip-path="url(#p0e3dc14d6a)" style="fill: none; stroke-dasharray: 1.5,2.475; stroke-dashoffset: 0; stroke: #c4b28a; stroke-opacity: 0.7; stroke-width: 1.5"/>
   </g>
   <g id="patch_10">
    <path d="M 57.280938 671.397812 
L 57.280938 369.957812 
" style="fill: none; stroke: #625e5a; stroke-width: 0.8; stroke-linejoin: miter; stroke-linecap: square"/>
   </g>
   <g id="patch_11">
    <path d="M 848.360938 671.397812 
L 848.360938 369.957812 
" style="fill: none; stroke: #625e5a; stroke-width: 0.8; stroke-linejoin: miter; stroke-linecap: square"/>
   </g>
   <g id="patch_12">
    <path d="M 57.280938 671.397812 
L 848.360938 671.397812 
" style="fill: none; stroke: #625e5a; stroke-width: 0.8; stroke-linejoin: miter; stroke-linecap: square"/>
   </g>
   <g id="patch_13">
    <path d="M 57.280938 369.957812 
L 848.360938 369.957812 
" style="fill: none; stroke: #625e5a; stroke-width: 0.8; stroke-linejoin: miter; stroke-linecap: square"/>
   </g>
   <g id="text_45">
    <!-- P&amp;L (Including Hedge Cost) -->
    <g style="fill: #c5c9c5" transform="translate(344.059531 363.957812) scale(0.14 -0.14)">
     <defs>
      <path id="DejaVuSans-Bold-26" d="M 2497 3097 
L 3775 1691 
Q 3941 1909 4027 2181 
Q 4113 2453 4128 2797 
L 5100 2797 
Q 5053 2228 4879 1784 
Q 4706 1341 4397 1006 
L 5313 0 
L 3988 0 
L 3681 341 
Q 3353 122 2990 15 
Q 2628 -91 2222 -91 
Q 1400 -91 892 342 
Q 384 775 384 1459 
Q 384 1916 607 2267 
Q 831 2619 1338 2950 
Q 1206 3116 1143 3281 
Q 1081 3447 1081 3628 
Q 1081 4138 1478 4444 
Q 1875 4750 2534 4750 
Q 2819 4750 3126 4704 
Q 3434 4659 3769 4569 
L 3769 3700 
Q 3475 3850 3212 3922 
Q 2950 3994 2700 3994 
Q 2459 3994 2326 3901 
Q 2194 3809 2194 3641 
Q 2194 3534 2270 3398 
Q 2347 3263 2497 3097 
z
M 1875 2322 
Q 1672 2175 1569 1989 
Q 1466 1803 1466 1581 
Q 1466 1222 1731 969 
Q 1997 716 2369 716 
Q 2578 716 2759 780 
Q 2941 844 3097 972 
L 1875 2322 
z
" transform="scale(0.015625)"/>
      <path id="DejaVuSans-Bold-4c" d="M 588 4666 
L 1791 4666 
L 1791 909 
L 3903 909 
L 3903 0 
L 588 0 
L 588 4666 
z
" transform="scale(0.015625)"/>
      <path id="DejaVuSans-Bold-49" d="M 588 4666 
L 1791 4666 
L 1791 0 
L 588 0 
L 588 4666 
z
" transform="scale(0.015625)"/>
      <path id="DejaVuSans-Bold-6e" d="M 4056 2131 
L 4056 0 
L 2931 0 
L 2931 347 
L 2931 1631 
Q 2931 2084 2911 2256 
Q 2891 2428 2841 2509 
Q 2775 2619 2662 2680 
Q 2550 2741 2406 2741 
Q 2056 2741 1856 2470 
Q 1656 2200 1656 1722 
L 1656 0 
L 538 0 
L 538 3500 
L 1656 3500 
L 1656 2988 
Q 1909 3294 2193 3439 
Q 2478 3584 2822 3584 
Q 3428 3584 3742 3212 
Q 4056 2841 4056 2131 
z
" transform="scale(0.015625)"/>
      <path id="DejaVuSans-Bold-63" d="M 3366 3391 
L 3366 2478 
Q 3138 2634 2908 2709 
Q 2678 2784 2431 2784 
Q 1963 2784 1702 2511 
Q 1441 2238 1441 1747 
Q 1441 1256 1702 982 
Q 1963 709 2431 709 
Q 2694 709 2930 787 
Q 3166 866 3366 1019 
L 3366 103 
Q 3103 6 2833 -42 
Q 2563 -91 2291 -91 
Q 1344 -91 809 395 
Q 275 881 275 1747 
Q 275 2613 809 3098 
Q 1344 3584 2291 3584 
Q 2566 3584 2833 3536 
Q 3100 3488 3366 3391 
z
" transform="scale(0.015625)"/>
      <path id="DejaVuSans-Bold-64" d="M 2919 2988 
L 2919 4863 
L 4044 4863 
L 4044 0 
L 2919 0 
L 2919 506 
Q 2688 197 2409 53 
Q 2131 -91 1766 -91 
Q 1119 -91 703 423 
Q 288 938 288 1747 
Q 288 2556 703 3070 
Q 1119 3584 1766 3584 
Q 2128 3584 2408 3439 
Q 2688 3294 2919 2988 
z
M 2181 722 
Q 2541 722 2730 984 
Q 2919 1247 2919 1747 
Q 2919 2247 2730 2509 
Q 2541 2772 2181 2772 
Q 1825 2772 1636 2509 
Q 1447 2247 1447 1747 
Q 1447 1247 1636 984 
Q 1825 722 2181 722 
z
" transform="scale(0.015625)"/>
      <path id="DejaVuSans-Bold-48" d="M 588 4666 
L 1791 4666 
L 1791 2888 
L 3566 2888 
L 3566 4666 
L 4769 4666 
L 4769 0 
L 3566 0 
L 3566 1978 
L 1791 1978 
L 1791 0 
L 588 0 
L 588 4666 
z
" transform="scale(0.015625)"/>
      <path id="DejaVuSans-Bold-65" d="M 4031 1759 
L 4031 1441 
L 1416 1441 
Q 1456 1047 1700 850 
Q 1944 653 2381 653 
Q 2734 653 3104 758 
Q 3475 863 3866 1075 
L 3866 213 
Q 3469 63 3072 -14 
Q 2675 -91 2278 -91 
Q 1328 -91 801 392 
Q 275 875 275 1747 
Q 275 2603 792 3093 
Q 1309 3584 2216 3584 
Q 3041 3584 3536 3087 
Q 4031 2591 4031 1759 
z
M 2881 2131 
Q 2881 2450 2695 2645 
Q 2509 2841 2209 2841 
Q 1884 2841 1681 2658 
Q 1478 2475 1428 2131 
L 2881 2131 
z
" transform="scale(0.015625)"/>
      <path id="DejaVuSans-Bold-73" d="M 3272 3391 
L 3272 2541 
Q 2913 2691 2578 2766 
Q 2244 2841 1947 2841 
Q 1628 2841 1473 2761 
Q 1319 2681 1319 2516 
Q 1319 2381 1436 2309 
Q 1553 2238 1856 2203 
L 2053 2175 
Q 2913 2066 3209 1816 
Q 3506 1566 3506 1031 
Q 3506 472 3093 190 
Q 2681 -91 1863 -91 
Q 1516 -91 1145 -36 
Q 775 19 384 128 
L 384 978 
Q 719 816 1070 734 
Q 1422 653 1784 653 
Q 2113 653 2278 743 
Q 2444 834 2444 1013 
Q 2444 1163 2330 1236 
Q 2216 1309 1875 1350 
L 1678 1375 
Q 931 1469 631 1722 
Q 331 1975 331 2491 
Q 331 3047 712 3315 
Q 1094 3584 1881 3584 
Q 2191 3584 2531 3537 
Q 2872 3491 3272 3391 
z
" transform="scale(0.015625)"/>
     </defs>
     <use xlink:href="#DejaVuSans-Bold-50"/>
     <use xlink:href="#DejaVuSans-Bold-26" transform="translate(73.291016 0)"/>
     <use xlink:href="#DejaVuSans-Bold-4c" transform="translate(160.498047 0)"/>
     <use xlink:href="#DejaVuSans-Bold-20" transform="translate(224.21875 0)"/>
     <use xlink:href="#DejaVuSans-Bold-28" transform="translate(259.033203 0)"/>
     <use xlink:href="#DejaVuSans-Bold-49" transform="translate(304.736328 0)"/>
     <use xlink:href="#DejaVuSans-Bold-6e" transform="translate(341.943359 0)"/>
     <use xlink:href="#DejaVuSans-Bold-63" transform="translate(413.134766 0)"/>
     <use xlink:href="#DejaVuSans-Bold-6c" transform="translate(472.412109 0)"/>
     <use xlink:href="#DejaVuSans-Bold-75" transform="translate(506.689453 0)"/>
     <use xlink:href="#DejaVuSans-Bold-64" transform="translate(577.880859 0)"/>
     <use xlink:href="#DejaVuSans-Bold-69" transform="translate(649.462891 0)"/>
     <use xlink:href="#DejaVuSans-Bold-6e" transform="translate(683.740234 0)"/>
     <use xlink:href="#DejaVuSans-Bold-67" transform="translate(754.931641 0)"/>
     <use xlink:href="#DejaVuSans-Bold-20" transform="translate(826.513672 0)"/>
     <use xlink:href="#DejaVuSans-Bold-48" transform="translate(861.328125 0)"/>
     <use xlink:href="#DejaVuSans-Bold-65" transform="translate(945.019531 0)"/>
     <use xlink:href="#DejaVuSans-Bold-64" transform="translate(1012.841797 0)"/>
     <use xlink:href="#DejaVuSans-Bold-67" transform="translate(1084.423828 0)"/>
     <use xlink:href="#DejaVuSans-Bold-65" transform="translate(1156.005859 0)"/>
     <use xlink:href="#DejaVuSans-Bold-20" transform="translate(1223.828125 0)"/>
     <use xlink:href="#DejaVuSans-Bold-43" transform="translate(1258.642578 0)"/>
     <use xlink:href="#DejaVuSans-Bold-6f" transform="translate(1332.03125 0)"/>
     <use xlink:href="#DejaVuSans-Bold-73" transform="translate(1400.732422 0)"/>
     <use xlink:href="#DejaVuSans-Bold-74" transform="translate(1460.253906 0)"/>
     <use xlink:href="#DejaVuSans-Bold-29" transform="translate(1508.056641 0)"/>
    </g>
   </g>
   <g id="legend_2">
    <g id="patch_14">
     <path d="M 64.280938 421.992187 
L 159.748125 421.992187 
Q 161.748125 421.992187 161.748125 419.992187 
L 161.748125 376.957812 
Q 161.748125 374.957812 159.748125 374.957812 
L 64.280938 374.957812 
Q 62.280938 374.957812 62.280938 376.957812 
L 62.280938 419.992187 
Q 62.280938 421.992187 64.280938 421.992187 
z
" style="fill: #181616; opacity: 0.8; stroke: #625e5a; stroke-linejoin: miter"/>
    </g>
    <g id="line2d_83">
     <path d="M 66.280938 383.05625 
L 76.280938 383.05625 
L 86.280938 383.05625 
" style="fill: none; stroke-dasharray: 7.4,3.2; stroke-dashoffset: 0; stroke: #625e5a; stroke-width: 2"/>
    </g>
    <g id="text_46">
     <!-- Unhedged -->
     <g style="fill: #c5c9c5" transform="translate(94.280938 386.55625) scale(0.1 -0.1)">
      <use xlink:href="#DejaVuSans-55"/>
      <use xlink:href="#DejaVuSans-6e" transform="translate(73.193359 0)"/>
      <use xlink:href="#DejaVuSans-68" transform="translate(136.572266 0)"/>
      <use xlink:href="#DejaVuSans-65" transform="translate(199.951172 0)"/>
      <use xlink:href="#DejaVuSans-64" transform="translate(261.474609 0)"/>
      <use xlink:href="#DejaVuSans-67" transform="translate(324.951172 0)"/>
      <use xlink:href="#DejaVuSans-65" transform="translate(388.427734 0)"/>
      <use xlink:href="#DejaVuSans-64" transform="translate(449.951172 0)"/>
     </g>
    </g>
    <g id="line2d_84">
     <path d="M 66.280938 397.734375 
L 76.280938 397.734375 
L 86.280938 397.734375 
" style="fill: none; stroke: #8a9a7b; stroke-width: 2.5; stroke-linecap: square"/>
    </g>
    <g id="text_47">
     <!-- Hedged -->
     <g style="fill: #c5c9c5" transform="translate(94.280938 401.234375) scale(0.1 -0.1)">
      <use xlink:href="#DejaVuSans-48"/>
      <use xlink:href="#DejaVuSans-65" transform="translate(75.195312 0)"/>
      <use xlink:href="#DejaVuSans-64" transform="translate(136.71875 0)"/>
      <use xlink:href="#DejaVuSans-67" transform="translate(200.195312 0)"/>
      <use xlink:href="#DejaVuSans-65" transform="translate(263.671875 0)"/>
      <use xlink:href="#DejaVuSans-64" transform="translate(325.195312 0)"/>
     </g>
    </g>
    <g id="line2d_85">
     <path d="M 66.280938 412.4125 
L 76.280938 412.4125 
L 86.280938 412.4125 
" style="fill: none; stroke-dasharray: 1.5,2.475; stroke-dashoffset: 0; stroke: #c4b28a; stroke-opacity: 0.7; stroke-width: 1.5"/>
    </g>
    <g id="text_48">
     <!-- Current Spot -->
     <g style="fill: #c5c9c5" transform="translate(94.280938 415.9125) scale(0.1 -0.1)">
      <use xlink:href="#DejaVuSans-43"/>
      <use xlink:href="#DejaVuSans-75" transform="translate(69.824219 0)"/>
      <use xlink:href="#DejaVuSans-72" transform="translate(133.203125 0)"/>
      <use xlink:href="#DejaVuSans-72" transform="translate(172.566406 0)"/>
      <use xlink:href="#DejaVuSans-65" transform="translate(211.429688 0)"/>
      <use xlink:href="#DejaVuSans-6e" transform="translate(272.953125 0)"/>
      <use xlink:href="#DejaVuSans-74" transform="translate(336.332031 0)"/>
      <use xlink:href="#DejaVuSans-20" transform="translate(375.541016 0)"/>
      <use xlink:href="#DejaVuSans-53" transform="translate(407.328125 0)"/>
      <use xlink:href="#DejaVuSans-70" transform="translate(470.804688 0)"/>
      <use xlink:href="#DejaVuSans-6f" transform="translate(534.28125 0)"/>
      <use xlink:href="#DejaVuSans-74" transform="translate(595.462891 0)"/>
     </g>
    </g>
   </g>
  </g>
 </g>
 <defs>
  <clipPath id="p36a67eb1ec">
   <rect x="57.280938" y="23.837812" width="791.08" height="301.44"/>
  </clipPath>
  <clipPath id="p0e3dc14d6a">
   <rect x="57.280938" y="369.957812" width="791.08" height="301.44"/>
  </clipPath>
 </defs>
</svg>
