<?xml version="1.0" encoding="utf-8" standalone="no"?>
<!DOCTYPE svg PUBLIC "-//W3C//DTD SVG 1.1//EN"
  "http://www.w3.org/Graphics/SVG/1.1/DTD/svg11.dtd">
<svg xmlns:xlink="http://www.w3.org/1999/xlink" width="862.46275pt" height="708.39625pt" viewBox="0 0 862.46275 708.39625" xmlns="http://www.w3.org/2000/svg" version="1.1">
 <metadata>
  <rdf:RDF xmlns:dc="http://purl.org/dc/elements/1.1/" xmlns:cc="http://creativecommons.org/ns#" xmlns:rdf="http://www.w3.org/1999/02/22-rdf-syntax-ns#">
   <cc:Work>
    <dc:type rdf:resource="http://purl.org/dc/dcmitype/StillImage"/>
    <dc:date>2026-02-22T14:55:37.103937</dc:date>
    <dc:format>image/svg+xml</dc:format>
    <dc:creator>
     <cc:Agent>
      <dc:title>Matplotlib v3.10.8, https://matplotlib.org/</dc:title>
     </cc:Agent>
    </dc:creator>
   </cc:Work>
  </rdf:RDF>
 </metadata>
 <defs>
  <style type="text/css">*{stroke-linejoin: round; stroke-linecap: butt}</style>
 </defs>
 <g id="figure_1">
  <g id="patch_1">
   <path d="M 0 708.39625 
L 862.46275 708.39625 
L 862.46275 0 
L 0 0 
z
" style="fill: #181616"/>
  </g>
  <g id="axes_1">
   <g id="patch_2">
    <path d="M 232.020568 239.133045 
C 251.314287 239.133045 269.820382 231.46757 283.463101 217.824851 
C 297.10582 204.182132 304.771295 185.676037 304.771295 166.382318 
C 304.771295 147.0886 297.10582 128.582505 283.463101 114.939786 
C 269.820382 101.297066 251.314287 93.631591 232.020568 93.631591 
C 212.72685 93.631591 194.220755 101.297066 180.578036 114.939786 
C 166.935316 128.582505 159.269841 147.0886 159.269841 166.382318 
C 159.269841 185.676037 166.935316 204.182132 180.578036 217.824851 
C 194.220755 231.46757 212.72685 239.133045 232.020568 239.133045 
z
" clip-path="url(#p9bc8cde754)" style="fill: #a292a3; opacity: 0.3; stroke: #a292a3; stroke-linejoin: miter"/>
   </g>
   <g id="patch_3">
    <path d="M 232.020568 239.133045 
C 251.314287 239.133045 269.820382 231.46757 283.463101 217.824851 
C 297.10582 204.182132 304.771295 185.676037 304.771295 166.382318 
C 304.771295 147.0886 297.10582 128.582505 283.463101 114.939786 
C 269.820382 101.297066 251.314287 93.631591 232.020568 93.631591 
C 212.72685 93.631591 194.220755 101.297066 180.578036 114.939786 
C 166.935316 128.582505 159.269841 147.0886 159.269841 166.382318 
C 159.269841 185.676037 166.935316 204.182132 180.578036 217.824851 
C 194.220755 231.46757 212.72685 239.133045 232.020568 239.133045 
L 232.020568 239.133045 
z
" clip-path="url(#p9bc8cde754)" style="fill: none; stroke: #a292a3; stroke-width: 4; stroke-linejoin: miter"/>
   </g>
   <g id="patch_4">
    <path d="M 71.968968 286.421018 
L 101.069259 286.421018 
L 101.069259 271.870873 
L 71.968968 271.870873 
z
" clip-path="url(#p9bc8cde754)" style="fill: #8a9a7b; opacity: 0.5; stroke: #8a9a7b; stroke-linejoin: miter"/>
   </g>
   <g id="patch_5">
    <path d="M 144.719695 286.421018 
L 173.819986 286.421018 
L 173.819986 271.870873 
L 144.719695 271.870873 
z
" clip-path="url(#p9bc8cde754)" style="fill: #8ba4b0; opacity: 0.5; stroke: #8ba4b0; stroke-linejoin: miter"/>
   </g>
   <g id="patch_6">
    <path d="M 217.470423 286.421018 
L 246.570714 286.421018 
L 246.570714 271.870873 
L 217.470423 271.870873 
z
" clip-path="url(#p9bc8cde754)" style="fill: #c4b28a; opacity: 0.5; stroke: #c4b28a; stroke-linejoin: miter"/>
   </g>
   <g id="patch_7">
    <path d="M 290.22115 286.421018 
L 319.321441 286.421018 
L 319.321441 271.870873 
L 290.22115 271.870873 
z
" clip-path="url(#p9bc8cde754)" style="fill: #c4746e; opacity: 0.5; stroke: #c4746e; stroke-linejoin: miter"/>
   </g>
   <g id="patch_8">
    <path d="M 362.971877 286.421018 
L 392.072168 286.421018 
L 392.072168 271.870873 
L 362.971877 271.870873 
z
" clip-path="url(#p9bc8cde754)" style="fill: #a292a3; opacity: 0.5; stroke: #a292a3; stroke-linejoin: miter"/>
   </g>
   <g id="text_1">
    <!-- CRISIS -->
    <g style="fill: #a292a3" transform="translate(206.202599 170.245443) scale(0.14 -0.14)">
     <defs>
      <path id="DejaVuSans-Bold-43" d="M 4288 256 
Q 3956 84 3597 -3 
Q 3238 -91 2847 -91 
Q 1681 -91 1000 561 
Q 319 1213 319 2328 
Q 319 3447 1000 4098 
Q 1681 4750 2847 4750 
Q 3238 4750 3597 4662 
Q 3956 4575 4288 4403 
L 4288 3438 
Q 3953 3666 3628 3772 
Q 3303 3878 2944 3878 
Q 2300 3878 1931 3465 
Q 1563 3053 1563 2328 
Q 1563 1606 1931 1193 
Q 2300 781 2944 781 
Q 3303 781 3628 887 
Q 3953 994 4288 1222 
L 4288 256 
z
" transform="scale(0.015625)"/>
      <path id="DejaVuSans-Bold-52" d="M 2297 2597 
Q 2675 2597 2839 2737 
Q 3003 2878 3003 3200 
Q 3003 3519 2839 3656 
Q 2675 3794 2297 3794 
L 1791 3794 
L 1791 2597 
L 2297 2597 
z
M 1791 1766 
L 1791 0 
L 588 0 
L 588 4666 
L 2425 4666 
Q 3347 4666 3776 4356 
Q 4206 4047 4206 3378 
Q 4206 2916 3982 2619 
Q 3759 2322 3309 2181 
Q 3556 2125 3751 1926 
Q 3947 1728 4147 1325 
L 4800 0 
L 3519 0 
L 2950 1159 
Q 2778 1509 2601 1637 
Q 2425 1766 2131 1766 
L 1791 1766 
z
" transform="scale(0.015625)"/>
      <path id="DejaVuSans-Bold-49" d="M 588 4666 
L 1791 4666 
L 1791 0 
L 588 0 
L 588 4666 
z
" transform="scale(0.015625)"/>
      <path id="DejaVuSans-Bold-53" d="M 3834 4519 
L 3834 3531 
Q 3450 3703 3084 3790 
Q 2719 3878 2394 3878 
Q 1963 3878 1756 3759 
Q 1550 3641 1550 3391 
Q 1550 3203 1689 3098 
Q 1828 2994 2194 2919 
L 2706 2816 
Q 3484 2659 3812 2340 
Q 4141 2022 4141 1434 
Q 4141 663 3683 286 
Q 3225 -91 2284 -91 
Q 1841 -91 1394 -6 
Q 947 78 500 244 
L 500 1259 
Q 947 1022 1364 901 
Q 1781 781 2169 781 
Q 2563 781 2772 912 
Q 2981 1044 2981 1288 
Q 2981 1506 2839 1625 
Q 2697 1744 2272 1838 
L 1806 1941 
Q 1106 2091 782 2419 
Q 459 2747 459 3303 
Q 459 4000 909 4375 
Q 1359 4750 2203 4750 
Q 2588 4750 2994 4692 
Q 3400 4634 3834 4519 
z
" transform="scale(0.015625)"/>
     </defs>
     <use xlink:href="#DejaVuSans-Bold-43"/>
     <use xlink:href="#DejaVuSans-Bold-52" transform="translate(73.388672 0)"/>
     <use xlink:href="#DejaVuSans-Bold-49" transform="translate(150.390625 0)"/>
     <use xlink:href="#DejaVuSans-Bold-53" transform="translate(187.597656 0)"/>
     <use xlink:href="#DejaVuSans-Bold-49" transform="translate(259.619141 0)"/>
     <use xlink:href="#DejaVuSans-Bold-53" transform="translate(296.826172 0)"/>
    </g>
   </g>
   <g id="text_2">
    <!-- Transition Probability: 99.2% -->
    <g style="fill: #625e5a" transform="translate(161.032287 260.080102) scale(0.1 -0.1)">
     <defs>
      <path id="DejaVuSans-54" d="M -19 4666 
L 3928 4666 
L 3928 4134 
L 2272 4134 
L 2272 0 
L 1638 0 
L 1638 4134 
L -19 4134 
L -19 4666 
z
" transform="scale(0.015625)"/>
      <path id="DejaVuSans-72" d="M 2631 2963 
Q 2534 3019 2420 3045 
Q 2306 3072 2169 3072 
Q 1681 3072 1420 2755 
Q 1159 2438 1159 1844 
L 1159 0 
L 581 0 
L 581 3500 
L 1159 3500 
L 1159 2956 
Q 1341 3275 1631 3429 
Q 1922 3584 2338 3584 
Q 2397 3584 2469 3576 
Q 2541 3569 2628 3553 
L 2631 2963 
z
" transform="scale(0.015625)"/>
      <path id="DejaVuSans-61" d="M 2194 1759 
Q 1497 1759 1228 1600 
Q 959 1441 959 1056 
Q 959 750 1161 570 
Q 1363 391 1709 391 
Q 2188 391 2477 730 
Q 2766 1069 2766 1631 
L 2766 1759 
L 2194 1759 
z
M 3341 1997 
L 3341 0 
L 2766 0 
L 2766 531 
Q 2569 213 2275 61 
Q 1981 -91 1556 -91 
Q 1019 -91 701 211 
Q 384 513 384 1019 
Q 384 1609 779 1909 
Q 1175 2209 1959 2209 
L 2766 2209 
L 2766 2266 
Q 2766 2663 2505 2880 
Q 2244 3097 1772 3097 
Q 1472 3097 1187 3025 
Q 903 2953 641 2809 
L 641 3341 
Q 956 3463 1253 3523 
Q 1550 3584 1831 3584 
Q 2591 3584 2966 3190 
Q 3341 2797 3341 1997 
z
" transform="scale(0.015625)"/>
      <path id="DejaVuSans-6e" d="M 3513 2113 
L 3513 0 
L 2938 0 
L 2938 2094 
Q 2938 2591 2744 2837 
Q 2550 3084 2163 3084 
Q 1697 3084 1428 2787 
Q 1159 2491 1159 1978 
L 1159 0 
L 581 0 
L 581 3500 
L 1159 3500 
L 1159 2956 
Q 1366 3272 1645 3428 
Q 1925 3584 2291 3584 
Q 2894 3584 3203 3211 
Q 3513 2838 3513 2113 
z
" transform="scale(0.015625)"/>
      <path id="DejaVuSans-73" d="M 2834 3397 
L 2834 2853 
Q 2591 2978 2328 3040 
Q 2066 3103 1784 3103 
Q 1356 3103 1142 2972 
Q 928 2841 928 2578 
Q 928 2378 1081 2264 
Q 1234 2150 1697 2047 
L 1894 2003 
Q 2506 1872 2764 1633 
Q 3022 1394 3022 966 
Q 3022 478 2636 193 
Q 2250 -91 1575 -91 
Q 1294 -91 989 -36 
Q 684 19 347 128 
L 347 722 
Q 666 556 975 473 
Q 1284 391 1588 391 
Q 1994 391 2212 530 
Q 2431 669 2431 922 
Q 2431 1156 2273 1281 
Q 2116 1406 1581 1522 
L 1381 1569 
Q 847 1681 609 1914 
Q 372 2147 372 2553 
Q 372 3047 722 3315 
Q 1072 3584 1716 3584 
Q 2034 3584 2315 3537 
Q 2597 3491 2834 3397 
z
" transform="scale(0.015625)"/>
      <path id="DejaVuSans-69" d="M 603 3500 
L 1178 3500 
L 1178 0 
L 603 0 
L 603 3500 
z
M 603 4863 
L 1178 4863 
L 1178 4134 
L 603 4134 
L 603 4863 
z
" transform="scale(0.015625)"/>
      <path id="DejaVuSans-74" d="M 1172 4494 
L 1172 3500 
L 2356 3500 
L 2356 3053 
L 1172 3053 
L 1172 1153 
Q 1172 725 1289 603 
Q 1406 481 1766 481 
L 2356 481 
L 2356 0 
L 1766 0 
Q 1100 0 847 248 
Q 594 497 594 1153 
L 594 3053 
L 172 3053 
L 172 3500 
L 594 3500 
L 594 4494 
L 1172 4494 
z
" transform="scale(0.015625)"/>
      <path id="DejaVuSans-6f" d="M 1959 3097 
Q 1497 3097 1228 2736 
Q 959 2375 959 1747 
Q 959 1119 1226 758 
Q 1494 397 1959 397 
Q 2419 397 2687 759 
Q 2956 1122 2956 1747 
Q 2956 2369 2687 2733 
Q 2419 3097 1959 3097 
z
M 1959 3584 
Q 2709 3584 3137 3096 
Q 3566 2609 3566 1747 
Q 3566 888 3137 398 
Q 2709 -91 1959 -91 
Q 1206 -91 779 398 
Q 353 888 353 1747 
Q 353 2609 779 3096 
Q 1206 3584 1959 3584 
z
" transform="scale(0.015625)"/>
      <path id="DejaVuSans-20" transform="scale(0.015625)"/>
      <path id="DejaVuSans-50" d="M 1259 4147 
L 1259 2394 
L 2053 2394 
Q 2494 2394 2734 2622 
Q 2975 2850 2975 3272 
Q 2975 3691 2734 3919 
Q 2494 4147 2053 4147 
L 1259 4147 
z
M 628 4666 
L 2053 4666 
Q 2838 4666 3239 4311 
Q 3641 3956 3641 3272 
Q 3641 2581 3239 2228 
Q 2838 1875 2053 1875 
L 1259 1875 
L 1259 0 
L 628 0 
L 628 4666 
z
" transform="scale(0.015625)"/>
      <path id="DejaVuSans-62" d="M 3116 1747 
Q 3116 2381 2855 2742 
Q 2594 3103 2138 3103 
Q 1681 3103 1420 2742 
Q 1159 2381 1159 1747 
Q 1159 1113 1420 752 
Q 1681 391 2138 391 
Q 2594 391 2855 752 
Q 3116 1113 3116 1747 
z
M 1159 2969 
Q 1341 3281 1617 3432 
Q 1894 3584 2278 3584 
Q 2916 3584 3314 3078 
Q 3713 2572 3713 1747 
Q 3713 922 3314 415 
Q 2916 -91 2278 -91 
Q 1894 -91 1617 61 
Q 1341 213 1159 525 
L 1159 0 
L 581 0 
L 581 4863 
L 1159 4863 
L 1159 2969 
z
" transform="scale(0.015625)"/>
      <path id="DejaVuSans-6c" d="M 603 4863 
L 1178 4863 
L 1178 0 
L 603 0 
L 603 4863 
z
" transform="scale(0.015625)"/>
      <path id="DejaVuSans-79" d="M 2059 -325 
Q 1816 -950 1584 -1140 
Q 1353 -1331 966 -1331 
L 506 -1331 
L 506 -850 
L 844 -850 
Q 1081 -850 1212 -737 
Q 1344 -625 1503 -206 
L 1606 56 
L 191 3500 
L 800 3500 
L 1894 763 
L 2988 3500 
L 3597 3500 
L 2059 -325 
z
" transform="scale(0.015625)"/>
      <path id="DejaVuSans-3a" d="M 750 794 
L 1409 794 
L 1409 0 
L 750 0 
L 750 794 
z
M 750 3309 
L 1409 3309 
L 1409 2516 
L 750 2516 
L 750 3309 
z
" transform="scale(0.015625)"/>
      <path id="DejaVuSans-39" d="M 703 97 
L 703 672 
Q 941 559 1184 500 
Q 1428 441 1663 441 
Q 2288 441 2617 861 
Q 2947 1281 2994 2138 
Q 2813 1869 2534 1725 
Q 2256 1581 1919 1581 
Q 1219 1581 811 2004 
Q 403 2428 403 3163 
Q 403 3881 828 4315 
Q 1253 4750 1959 4750 
Q 2769 4750 3195 4129 
Q 3622 3509 3622 2328 
Q 3622 1225 3098 567 
Q 2575 -91 1691 -91 
Q 1453 -91 1209 -44 
Q 966 3 703 97 
z
M 1959 2075 
Q 2384 2075 2632 2365 
Q 2881 2656 2881 3163 
Q 2881 3666 2632 3958 
Q 2384 4250 1959 4250 
Q 1534 4250 1286 3958 
Q 1038 3666 1038 3163 
Q 1038 2656 1286 2365 
Q 1534 2075 1959 2075 
z
" transform="scale(0.015625)"/>
      <path id="DejaVuSans-2e" d="M 684 794 
L 1344 794 
L 1344 0 
L 684 0 
L 684 794 
z
" transform="scale(0.015625)"/>
      <path id="DejaVuSans-32" d="M 1228 531 
L 3431 531 
L 3431 0 
L 469 0 
L 469 531 
Q 828 903 1448 1529 
Q 2069 2156 2228 2338 
Q 2531 2678 2651 2914 
Q 2772 3150 2772 3378 
Q 2772 3750 2511 3984 
Q 2250 4219 1831 4219 
Q 1534 4219 1204 4116 
Q 875 4013 500 3803 
L 500 4441 
Q 881 4594 1212 4672 
Q 1544 4750 1819 4750 
Q 2544 4750 2975 4387 
Q 3406 4025 3406 3419 
Q 3406 3131 3298 2873 
Q 3191 2616 2906 2266 
Q 2828 2175 2409 1742 
Q 1991 1309 1228 531 
z
" transform="scale(0.015625)"/>
      <path id="DejaVuSans-25" d="M 4653 2053 
Q 4381 2053 4226 1822 
Q 4072 1591 4072 1178 
Q 4072 772 4226 539 
Q 4381 306 4653 306 
Q 4919 306 5073 539 
Q 5228 772 5228 1178 
Q 5228 1588 5073 1820 
Q 4919 2053 4653 2053 
z
M 4653 2450 
Q 5147 2450 5437 2106 
Q 5728 1763 5728 1178 
Q 5728 594 5436 251 
Q 5144 -91 4653 -91 
Q 4153 -91 3862 251 
Q 3572 594 3572 1178 
Q 3572 1766 3864 2108 
Q 4156 2450 4653 2450 
z
M 1428 4353 
Q 1159 4353 1004 4120 
Q 850 3888 850 3481 
Q 850 3069 1003 2837 
Q 1156 2606 1428 2606 
Q 1700 2606 1854 2837 
Q 2009 3069 2009 3481 
Q 2009 3884 1853 4118 
Q 1697 4353 1428 4353 
z
M 4250 4750 
L 4750 4750 
L 1831 -91 
L 1331 -91 
L 4250 4750 
z
M 1428 4750 
Q 1922 4750 2215 4408 
Q 2509 4066 2509 3481 
Q 2509 2891 2217 2550 
Q 1925 2209 1428 2209 
Q 931 2209 642 2551 
Q 353 2894 353 3481 
Q 353 4063 643 4406 
Q 934 4750 1428 4750 
z
" transform="scale(0.015625)"/>
     </defs>
     <use xlink:href="#DejaVuSans-54"/>
     <use xlink:href="#DejaVuSans-72" transform="translate(46.333984 0)"/>
     <use xlink:href="#DejaVuSans-61" transform="translate(87.447266 0)"/>
     <use xlink:href="#DejaVuSans-6e" transform="translate(148.726562 0)"/>
     <use xlink:href="#DejaVuSans-73" transform="translate(212.105469 0)"/>
     <use xlink:href="#DejaVuSans-69" transform="translate(264.205078 0)"/>
     <use xlink:href="#DejaVuSans-74" transform="translate(291.988281 0)"/>
     <use xlink:href="#DejaVuSans-69" transform="translate(331.197266 0)"/>
     <use xlink:href="#DejaVuSans-6f" transform="translate(358.980469 0)"/>
     <use xlink:href="#DejaVuSans-6e" transform="translate(420.162109 0)"/>
     <use xlink:href="#DejaVuSans-20" transform="translate(483.541016 0)"/>
     <use xlink:href="#DejaVuSans-50" transform="translate(515.328125 0)"/>
     <use xlink:href="#DejaVuSans-72" transform="translate(573.880859 0)"/>
     <use xlink:href="#DejaVuSans-6f" transform="translate(612.744141 0)"/>
     <use xlink:href="#DejaVuSans-62" transform="translate(673.925781 0)"/>
     <use xlink:href="#DejaVuSans-61" transform="translate(737.402344 0)"/>
     <use xlink:href="#DejaVuSans-62" transform="translate(798.681641 0)"/>
     <use xlink:href="#DejaVuSans-69" transform="translate(862.158203 0)"/>
     <use xlink:href="#DejaVuSans-6c" transform="translate(889.941406 0)"/>
     <use xlink:href="#DejaVuSans-69" transform="translate(917.724609 0)"/>
     <use xlink:href="#DejaVuSans-74" transform="translate(945.507812 0)"/>
     <use xlink:href="#DejaVuSans-79" transform="translate(984.716797 0)"/>
     <use xlink:href="#DejaVuSans-3a" transform="translate(1036.646484 0)"/>
     <use xlink:href="#DejaVuSans-20" transform="translate(1070.337891 0)"/>
     <use xlink:href="#DejaVuSans-39" transform="translate(1102.125 0)"/>
     <use xlink:href="#DejaVuSans-39" transform="translate(1165.748047 0)"/>
     <use xlink:href="#DejaVuSans-2e" transform="translate(1229.371094 0)"/>
     <use xlink:href="#DejaVuSans-32" transform="translate(1261.158203 0)"/>
     <use xlink:href="#DejaVuSans-25" transform="translate(1324.78125 0)"/>
    </g>
   </g>
   <g id="text_3">
    <!-- Low -->
    <g style="fill: #c5c9c5" transform="translate(79.626301 295.377461) scale(0.07 -0.07)">
     <defs>
      <path id="DejaVuSans-4c" d="M 628 4666 
L 1259 4666 
L 1259 531 
L 3531 531 
L 3531 0 
L 628 0 
L 628 4666 
z
" transform="scale(0.015625)"/>
      <path id="DejaVuSans-77" d="M 269 3500 
L 844 3500 
L 1563 769 
L 2278 3500 
L 2956 3500 
L 3675 769 
L 4391 3500 
L 4966 3500 
L 4050 0 
L 3372 0 
L 2619 2869 
L 1863 0 
L 1184 0 
L 269 3500 
z
" transform="scale(0.015625)"/>
     </defs>
     <use xlink:href="#DejaVuSans-4c"/>
     <use xlink:href="#DejaVuSans-6f" transform="translate(53.962891 0)"/>
     <use xlink:href="#DejaVuSans-77" transform="translate(115.144531 0)"/>
    </g>
   </g>
   <g id="text_4">
    <!-- Normal -->
    <g style="fill: #c5c9c5" transform="translate(146.605857 295.377461) scale(0.07 -0.07)">
     <defs>
      <path id="DejaVuSans-4e" d="M 628 4666 
L 1478 4666 
L 3547 763 
L 3547 4666 
L 4159 4666 
L 4159 0 
L 3309 0 
L 1241 3903 
L 1241 0 
L 628 0 
L 628 4666 
z
" transform="scale(0.015625)"/>
      <path id="DejaVuSans-6d" d="M 3328 2828 
Q 3544 3216 3844 3400 
Q 4144 3584 4550 3584 
Q 5097 3584 5394 3201 
Q 5691 2819 5691 2113 
L 5691 0 
L 5113 0 
L 5113 2094 
Q 5113 2597 4934 2840 
Q 4756 3084 4391 3084 
Q 3944 3084 3684 2787 
Q 3425 2491 3425 1978 
L 3425 0 
L 2847 0 
L 2847 2094 
Q 2847 2600 2669 2842 
Q 2491 3084 2119 3084 
Q 1678 3084 1418 2786 
Q 1159 2488 1159 1978 
L 1159 0 
L 581 0 
L 581 3500 
L 1159 3500 
L 1159 2956 
Q 1356 3278 1631 3431 
Q 1906 3584 2284 3584 
Q 2666 3584 2933 3390 
Q 3200 3197 3328 2828 
z
" transform="scale(0.015625)"/>
     </defs>
     <use xlink:href="#DejaVuSans-4e"/>
     <use xlink:href="#DejaVuSans-6f" transform="translate(74.804688 0)"/>
     <use xlink:href="#DejaVuSans-72" transform="translate(135.986328 0)"/>
     <use xlink:href="#DejaVuSans-6d" transform="translate(175.349609 0)"/>
     <use xlink:href="#DejaVuSans-61" transform="translate(272.761719 0)"/>
     <use xlink:href="#DejaVuSans-6c" transform="translate(334.041016 0)"/>
    </g>
   </g>
   <g id="text_5">
    <!-- Elevated -->
    <g style="fill: #c5c9c5" transform="translate(216.719006 295.377461) scale(0.07 -0.07)">
     <defs>
      <path id="DejaVuSans-45" d="M 628 4666 
L 3578 4666 
L 3578 4134 
L 1259 4134 
L 1259 2753 
L 3481 2753 
L 3481 2222 
L 1259 2222 
L 1259 531 
L 3634 531 
L 3634 0 
L 628 0 
L 628 4666 
z
" transform="scale(0.015625)"/>
      <path id="DejaVuSans-65" d="M 3597 1894 
L 3597 1613 
L 953 1613 
Q 991 1019 1311 708 
Q 1631 397 2203 397 
Q 2534 397 2845 478 
Q 3156 559 3463 722 
L 3463 178 
Q 3153 47 2828 -22 
Q 2503 -91 2169 -91 
Q 1331 -91 842 396 
Q 353 884 353 1716 
Q 353 2575 817 3079 
Q 1281 3584 2069 3584 
Q 2775 3584 3186 3129 
Q 3597 2675 3597 1894 
z
M 3022 2063 
Q 3016 2534 2758 2815 
Q 2500 3097 2075 3097 
Q 1594 3097 1305 2825 
Q 1016 2553 972 2059 
L 3022 2063 
z
" transform="scale(0.015625)"/>
      <path id="DejaVuSans-76" d="M 191 3500 
L 800 3500 
L 1894 563 
L 2988 3500 
L 3597 3500 
L 2284 0 
L 1503 0 
L 191 3500 
z
" transform="scale(0.015625)"/>
      <path id="DejaVuSans-64" d="M 2906 2969 
L 2906 4863 
L 3481 4863 
L 3481 0 
L 2906 0 
L 2906 525 
Q 2725 213 2448 61 
Q 2172 -91 1784 -91 
Q 1150 -91 751 415 
Q 353 922 353 1747 
Q 353 2572 751 3078 
Q 1150 3584 1784 3584 
Q 2172 3584 2448 3432 
Q 2725 3281 2906 2969 
z
M 947 1747 
Q 947 1113 1208 752 
Q 1469 391 1925 391 
Q 2381 391 2643 752 
Q 2906 1113 2906 1747 
Q 2906 2381 2643 2742 
Q 2381 3103 1925 3103 
Q 1469 3103 1208 2742 
Q 947 2381 947 1747 
z
" transform="scale(0.015625)"/>
     </defs>
     <use xlink:href="#DejaVuSans-45"/>
     <use xlink:href="#DejaVuSans-6c" transform="translate(63.183594 0)"/>
     <use xlink:href="#DejaVuSans-65" transform="translate(90.966797 0)"/>
     <use xlink:href="#DejaVuSans-76" transform="translate(152.490234 0)"/>
     <use xlink:href="#DejaVuSans-61" transform="translate(211.669922 0)"/>
     <use xlink:href="#DejaVuSans-74" transform="translate(272.949219 0)"/>
     <use xlink:href="#DejaVuSans-65" transform="translate(312.158203 0)"/>
     <use xlink:href="#DejaVuSans-64" transform="translate(373.681641 0)"/>
    </g>
   </g>
   <g id="text_6">
    <!-- High -->
    <g style="fill: #c5c9c5" transform="translate(296.726764 295.377461) scale(0.07 -0.07)">
     <defs>
      <path id="DejaVuSans-48" d="M 628 4666 
L 1259 4666 
L 1259 2753 
L 3553 2753 
L 3553 4666 
L 4184 4666 
L 4184 0 
L 3553 0 
L 3553 2222 
L 1259 2222 
L 1259 0 
L 628 0 
L 628 4666 
z
" transform="scale(0.015625)"/>
      <path id="DejaVuSans-67" d="M 2906 1791 
Q 2906 2416 2648 2759 
Q 2391 3103 1925 3103 
Q 1463 3103 1205 2759 
Q 947 2416 947 1791 
Q 947 1169 1205 825 
Q 1463 481 1925 481 
Q 2391 481 2648 825 
Q 2906 1169 2906 1791 
z
M 3481 434 
Q 3481 -459 3084 -895 
Q 2688 -1331 1869 -1331 
Q 1566 -1331 1297 -1286 
Q 1028 -1241 775 -1147 
L 775 -588 
Q 1028 -725 1275 -790 
Q 1522 -856 1778 -856 
Q 2344 -856 2625 -561 
Q 2906 -266 2906 331 
L 2906 616 
Q 2728 306 2450 153 
Q 2172 0 1784 0 
Q 1141 0 747 490 
Q 353 981 353 1791 
Q 353 2603 747 3093 
Q 1141 3584 1784 3584 
Q 2172 3584 2450 3431 
Q 2728 3278 2906 2969 
L 2906 3500 
L 3481 3500 
L 3481 434 
z
" transform="scale(0.015625)"/>
      <path id="DejaVuSans-68" d="M 3513 2113 
L 3513 0 
L 2938 0 
L 2938 2094 
Q 2938 2591 2744 2837 
Q 2550 3084 2163 3084 
Q 1697 3084 1428 2787 
Q 1159 2491 1159 1978 
L 1159 0 
L 581 0 
L 581 4863 
L 1159 4863 
L 1159 2956 
Q 1366 3272 1645 3428 
Q 1925 3584 2291 3584 
Q 2894 3584 3203 3211 
Q 3513 2838 3513 2113 
z
" transform="scale(0.015625)"/>
     </defs>
     <use xlink:href="#DejaVuSans-48"/>
     <use xlink:href="#DejaVuSans-69" transform="translate(75.195312 0)"/>
     <use xlink:href="#DejaVuSans-67" transform="translate(102.978516 0)"/>
     <use xlink:href="#DejaVuSans-68" transform="translate(166.455078 0)"/>
    </g>
   </g>
   <g id="text_7">
    <!-- Crisis -->
    <g style="fill: #c5c9c5" transform="translate(368.04796 295.377461) scale(0.07 -0.07)">
     <defs>
      <path id="DejaVuSans-43" d="M 4122 4306 
L 4122 3641 
Q 3803 3938 3442 4084 
Q 3081 4231 2675 4231 
Q 1875 4231 1450 3742 
Q 1025 3253 1025 2328 
Q 1025 1406 1450 917 
Q 1875 428 2675 428 
Q 3081 428 3442 575 
Q 3803 722 4122 1019 
L 4122 359 
Q 3791 134 3420 21 
Q 3050 -91 2638 -91 
Q 1578 -91 968 557 
Q 359 1206 359 2328 
Q 359 3453 968 4101 
Q 1578 4750 2638 4750 
Q 3056 4750 3426 4639 
Q 3797 4528 4122 4306 
z
" transform="scale(0.015625)"/>
     </defs>
     <use xlink:href="#DejaVuSans-43"/>
     <use xlink:href="#DejaVuSans-72" transform="translate(69.824219 0)"/>
     <use xlink:href="#DejaVuSans-69" transform="translate(110.9375 0)"/>
     <use xlink:href="#DejaVuSans-73" transform="translate(138.720703 0)"/>
     <use xlink:href="#DejaVuSans-69" transform="translate(190.820312 0)"/>
     <use xlink:href="#DejaVuSans-73" transform="translate(218.603516 0)"/>
    </g>
   </g>
   <g id="text_8">
    <!-- Current Risk Regime -->
    <g style="fill: #c5c9c5" transform="translate(168.239474 36.72) scale(0.11 -0.11)">
     <defs>
      <path id="DejaVuSans-Bold-75" d="M 500 1363 
L 500 3500 
L 1625 3500 
L 1625 3150 
Q 1625 2866 1622 2436 
Q 1619 2006 1619 1863 
Q 1619 1441 1641 1255 
Q 1663 1069 1716 984 
Q 1784 875 1895 815 
Q 2006 756 2150 756 
Q 2500 756 2700 1025 
Q 2900 1294 2900 1772 
L 2900 3500 
L 4019 3500 
L 4019 0 
L 2900 0 
L 2900 506 
Q 2647 200 2364 54 
Q 2081 -91 1741 -91 
Q 1134 -91 817 281 
Q 500 653 500 1363 
z
" transform="scale(0.015625)"/>
      <path id="DejaVuSans-Bold-72" d="M 3138 2547 
Q 2991 2616 2845 2648 
Q 2700 2681 2553 2681 
Q 2122 2681 1889 2404 
Q 1656 2128 1656 1613 
L 1656 0 
L 538 0 
L 538 3500 
L 1656 3500 
L 1656 2925 
Q 1872 3269 2151 3426 
Q 2431 3584 2822 3584 
Q 2878 3584 2943 3579 
Q 3009 3575 3134 3559 
L 3138 2547 
z
" transform="scale(0.015625)"/>
      <path id="DejaVuSans-Bold-65" d="M 4031 1759 
L 4031 1441 
L 1416 1441 
Q 1456 1047 1700 850 
Q 1944 653 2381 653 
Q 2734 653 3104 758 
Q 3475 863 3866 1075 
L 3866 213 
Q 3469 63 3072 -14 
Q 2675 -91 2278 -91 
Q 1328 -91 801 392 
Q 275 875 275 1747 
Q 275 2603 792 3093 
Q 1309 3584 2216 3584 
Q 3041 3584 3536 3087 
Q 4031 2591 4031 1759 
z
M 2881 2131 
Q 2881 2450 2695 2645 
Q 2509 2841 2209 2841 
Q 1884 2841 1681 2658 
Q 1478 2475 1428 2131 
L 2881 2131 
z
" transform="scale(0.015625)"/>
      <path id="DejaVuSans-Bold-6e" d="M 4056 2131 
L 4056 0 
L 2931 0 
L 2931 347 
L 2931 1631 
Q 2931 2084 2911 2256 
Q 2891 2428 2841 2509 
Q 2775 2619 2662 2680 
Q 2550 2741 2406 2741 
Q 2056 2741 1856 2470 
Q 1656 2200 1656 1722 
L 1656 0 
L 538 0 
L 538 3500 
L 1656 3500 
L 1656 2988 
Q 1909 3294 2193 3439 
Q 2478 3584 2822 3584 
Q 3428 3584 3742 3212 
Q 4056 2841 4056 2131 
z
" transform="scale(0.015625)"/>
      <path id="DejaVuSans-Bold-74" d="M 1759 4494 
L 1759 3500 
L 2913 3500 
L 2913 2700 
L 1759 2700 
L 1759 1216 
Q 1759 972 1856 886 
Q 1953 800 2241 800 
L 2816 800 
L 2816 0 
L 1856 0 
Q 1194 0 917 276 
Q 641 553 641 1216 
L 641 2700 
L 84 2700 
L 84 3500 
L 641 3500 
L 641 4494 
L 1759 4494 
z
" transform="scale(0.015625)"/>
      <path id="DejaVuSans-Bold-20" transform="scale(0.015625)"/>
      <path id="DejaVuSans-Bold-69" d="M 538 3500 
L 1656 3500 
L 1656 0 
L 538 0 
L 538 3500 
z
M 538 4863 
L 1656 4863 
L 1656 3950 
L 538 3950 
L 538 4863 
z
" transform="scale(0.015625)"/>
      <path id="DejaVuSans-Bold-73" d="M 3272 3391 
L 3272 2541 
Q 2913 2691 2578 2766 
Q 2244 2841 1947 2841 
Q 1628 2841 1473 2761 
Q 1319 2681 1319 2516 
Q 1319 2381 1436 2309 
Q 1553 2238 1856 2203 
L 2053 2175 
Q 2913 2066 3209 1816 
Q 3506 1566 3506 1031 
Q 3506 472 3093 190 
Q 2681 -91 1863 -91 
Q 1516 -91 1145 -36 
Q 775 19 384 128 
L 384 978 
Q 719 816 1070 734 
Q 1422 653 1784 653 
Q 2113 653 2278 743 
Q 2444 834 2444 1013 
Q 2444 1163 2330 1236 
Q 2216 1309 1875 1350 
L 1678 1375 
Q 931 1469 631 1722 
Q 331 1975 331 2491 
Q 331 3047 712 3315 
Q 1094 3584 1881 3584 
Q 2191 3584 2531 3537 
Q 2872 3491 3272 3391 
z
" transform="scale(0.015625)"/>
      <path id="DejaVuSans-Bold-6b" d="M 538 4863 
L 1656 4863 
L 1656 2216 
L 2944 3500 
L 4244 3500 
L 2534 1894 
L 4378 0 
L 3022 0 
L 1656 1459 
L 1656 0 
L 538 0 
L 538 4863 
z
" transform="scale(0.015625)"/>
      <path id="DejaVuSans-Bold-67" d="M 2919 594 
Q 2688 288 2409 144 
Q 2131 0 1766 0 
Q 1125 0 706 504 
Q 288 1009 288 1791 
Q 288 2575 706 3076 
Q 1125 3578 1766 3578 
Q 2131 3578 2409 3434 
Q 2688 3291 2919 2981 
L 2919 3500 
L 4044 3500 
L 4044 353 
Q 4044 -491 3511 -936 
Q 2978 -1381 1966 -1381 
Q 1638 -1381 1331 -1331 
Q 1025 -1281 716 -1178 
L 716 -306 
Q 1009 -475 1290 -558 
Q 1572 -641 1856 -641 
Q 2406 -641 2662 -400 
Q 2919 -159 2919 353 
L 2919 594 
z
M 2181 2772 
Q 1834 2772 1640 2515 
Q 1447 2259 1447 1791 
Q 1447 1309 1634 1061 
Q 1822 813 2181 813 
Q 2531 813 2725 1069 
Q 2919 1325 2919 1791 
Q 2919 2259 2725 2515 
Q 2531 2772 2181 2772 
z
" transform="scale(0.015625)"/>
      <path id="DejaVuSans-Bold-6d" d="M 3781 2919 
Q 3994 3244 4286 3414 
Q 4578 3584 4928 3584 
Q 5531 3584 5847 3212 
Q 6163 2841 6163 2131 
L 6163 0 
L 5038 0 
L 5038 1825 
Q 5041 1866 5042 1909 
Q 5044 1953 5044 2034 
Q 5044 2406 4934 2573 
Q 4825 2741 4581 2741 
Q 4263 2741 4089 2478 
Q 3916 2216 3909 1719 
L 3909 0 
L 2784 0 
L 2784 1825 
Q 2784 2406 2684 2573 
Q 2584 2741 2328 2741 
Q 2006 2741 1831 2477 
Q 1656 2213 1656 1722 
L 1656 0 
L 531 0 
L 531 3500 
L 1656 3500 
L 1656 2988 
Q 1863 3284 2130 3434 
Q 2397 3584 2719 3584 
Q 3081 3584 3359 3409 
Q 3638 3234 3781 2919 
z
" transform="scale(0.015625)"/>
     </defs>
     <use xlink:href="#DejaVuSans-Bold-43"/>
     <use xlink:href="#DejaVuSans-Bold-75" transform="translate(73.388672 0)"/>
     <use xlink:href="#DejaVuSans-Bold-72" transform="translate(144.580078 0)"/>
     <use xlink:href="#DejaVuSans-Bold-72" transform="translate(193.896484 0)"/>
     <use xlink:href="#DejaVuSans-Bold-65" transform="translate(243.212891 0)"/>
     <use xlink:href="#DejaVuSans-Bold-6e" transform="translate(311.035156 0)"/>
     <use xlink:href="#DejaVuSans-Bold-74" transform="translate(382.226562 0)"/>
     <use xlink:href="#DejaVuSans-Bold-20" transform="translate(430.029297 0)"/>
     <use xlink:href="#DejaVuSans-Bold-52" transform="translate(464.84375 0)"/>
     <use xlink:href="#DejaVuSans-Bold-69" transform="translate(541.845703 0)"/>
     <use xlink:href="#DejaVuSans-Bold-73" transform="translate(576.123047 0)"/>
     <use xlink:href="#DejaVuSans-Bold-6b" transform="translate(635.644531 0)"/>
     <use xlink:href="#DejaVuSans-Bold-20" transform="translate(702.148438 0)"/>
     <use xlink:href="#DejaVuSans-Bold-52" transform="translate(736.962891 0)"/>
     <use xlink:href="#DejaVuSans-Bold-65" transform="translate(813.964844 0)"/>
     <use xlink:href="#DejaVuSans-Bold-67" transform="translate(881.787109 0)"/>
     <use xlink:href="#DejaVuSans-Bold-69" transform="translate(953.369141 0)"/>
     <use xlink:href="#DejaVuSans-Bold-6d" transform="translate(987.646484 0)"/>
     <use xlink:href="#DejaVuSans-Bold-65" transform="translate(1091.845703 0)"/>
    </g>
   </g>
  </g>
  <g id="axes_2">
   <g id="patch_9">
    <path d="M 633.773537 75.750032 
C 621.764693 75.750032 609.831614 77.656258 598.4204 81.397449 
C 587.009185 85.138639 576.263823 90.667587 566.586013 97.777602 
C 556.908202 104.887617 548.420059 113.488983 541.4389 123.260152 
C 534.45774 133.03132 529.071653 143.848997 525.48199 155.308781 
C 521.892326 166.768565 520.144381 178.725853 520.303498 190.733643 
C 520.462616 202.741433 522.526787 214.648206 526.418848 226.008848 
C 530.310909 237.369491 535.981748 248.04065 543.219369 257.623404 
C 550.456991 267.206157 559.17007 275.579586 569.032881 282.430665 
C 578.895693 289.281744 589.783785 294.524023 601.290126 297.96153 
C 612.796467 301.399036 624.775866 302.988393 636.780494 302.670187 
C 648.785121 302.35198 660.663499 300.130225 671.971574 296.087977 
C 683.279649 292.04573 693.874733 286.233996 703.360747 278.870038 
C 712.846761 271.50608 721.104006 262.682819 727.823802 252.730096 
C 734.543597 242.777373 739.641149 231.820776 742.925894 220.269898 
C 746.210639 208.719021 747.64113 196.719614 747.16389 184.720257 
C 746.68665 172.7209 744.307702 160.873003 740.115977 149.61948 
L 633.773537 189.230032 
z
" style="fill: #c4746e"/>
   </g>
   <g id="patch_10">
    <path d="M 743.353014 144.959459 
C 735.324196 123.404493 720.928418 104.791658 702.084284 91.601606 
C 683.24015 78.411554 660.823747 71.257509 637.822628 71.092908 
L 637.010568 184.57 
z
" style="fill: #d19a66"/>
   </g>
   <g id="patch_11">
    <path d="M 637.822628 71.092908 
C 637.68729 71.091941 637.551923 71.091211 637.416582 71.090724 
C 637.281241 71.090237 637.145926 71.09 637.010584 71.09 
L 637.010568 184.57 
z
" style="fill: #8ba4b0"/>
   </g>
   <g id="matplotlib.axis_1"/>
   <g id="matplotlib.axis_2"/>
   <g id="text_9">
    <!-- PC1 -->
    <g style="fill: #c5c9c5" transform="translate(545.121343 289.195169) scale(0.09 -0.09)">
     <defs>
      <path id="DejaVuSans-31" d="M 794 531 
L 1825 531 
L 1825 4091 
L 703 3866 
L 703 4441 
L 1819 4666 
L 2450 4666 
L 2450 531 
L 3481 531 
L 3481 0 
L 794 0 
L 794 531 
z
" transform="scale(0.015625)"/>
     </defs>
     <use xlink:href="#DejaVuSans-50"/>
     <use xlink:href="#DejaVuSans-43" transform="translate(60.302734 0)"/>
     <use xlink:href="#DejaVuSans-31" transform="translate(130.126953 0)"/>
    </g>
    <!-- 80.7% -->
    <g style="fill: #c5c9c5" transform="translate(533.968374 299.2732) scale(0.09 -0.09)">
     <defs>
      <path id="DejaVuSans-38" d="M 2034 2216 
Q 1584 2216 1326 1975 
Q 1069 1734 1069 1313 
Q 1069 891 1326 650 
Q 1584 409 2034 409 
Q 2484 409 2743 651 
Q 3003 894 3003 1313 
Q 3003 1734 2745 1975 
Q 2488 2216 2034 2216 
z
M 1403 2484 
Q 997 2584 770 2862 
Q 544 3141 544 3541 
Q 544 4100 942 4425 
Q 1341 4750 2034 4750 
Q 2731 4750 3128 4425 
Q 3525 4100 3525 3541 
Q 3525 3141 3298 2862 
Q 3072 2584 2669 2484 
Q 3125 2378 3379 2068 
Q 3634 1759 3634 1313 
Q 3634 634 3220 271 
Q 2806 -91 2034 -91 
Q 1263 -91 848 271 
Q 434 634 434 1313 
Q 434 1759 690 2068 
Q 947 2378 1403 2484 
z
M 1172 3481 
Q 1172 3119 1398 2916 
Q 1625 2713 2034 2713 
Q 2441 2713 2670 2916 
Q 2900 3119 2900 3481 
Q 2900 3844 2670 4047 
Q 2441 4250 2034 4250 
Q 1625 4250 1398 4047 
Q 1172 3844 1172 3481 
z
" transform="scale(0.015625)"/>
      <path id="DejaVuSans-30" d="M 2034 4250 
Q 1547 4250 1301 3770 
Q 1056 3291 1056 2328 
Q 1056 1369 1301 889 
Q 1547 409 2034 409 
Q 2525 409 2770 889 
Q 3016 1369 3016 2328 
Q 3016 3291 2770 3770 
Q 2525 4250 2034 4250 
z
M 2034 4750 
Q 2819 4750 3233 4129 
Q 3647 3509 3647 2328 
Q 3647 1150 3233 529 
Q 2819 -91 2034 -91 
Q 1250 -91 836 529 
Q 422 1150 422 2328 
Q 422 3509 836 4129 
Q 1250 4750 2034 4750 
z
" transform="scale(0.015625)"/>
      <path id="DejaVuSans-37" d="M 525 4666 
L 3525 4666 
L 3525 4397 
L 1831 0 
L 1172 0 
L 2766 4134 
L 525 4134 
L 525 4666 
z
" transform="scale(0.015625)"/>
     </defs>
     <use xlink:href="#DejaVuSans-38"/>
     <use xlink:href="#DejaVuSans-30" transform="translate(63.623047 0)"/>
     <use xlink:href="#DejaVuSans-2e" transform="translate(127.246094 0)"/>
     <use xlink:href="#DejaVuSans-37" transform="translate(159.033203 0)"/>
     <use xlink:href="#DejaVuSans-25" transform="translate(222.65625 0)"/>
    </g>
   </g>
   <g id="text_10">
    <!-- PC2-5 -->
    <g style="fill: #c5c9c5" transform="translate(708.59161 79.749159) scale(0.09 -0.09)">
     <defs>
      <path id="DejaVuSans-2d" d="M 313 2009 
L 1997 2009 
L 1997 1497 
L 313 1497 
L 313 2009 
z
" transform="scale(0.015625)"/>
      <path id="DejaVuSans-35" d="M 691 4666 
L 3169 4666 
L 3169 4134 
L 1269 4134 
L 1269 2991 
Q 1406 3038 1543 3061 
Q 1681 3084 1819 3084 
Q 2600 3084 3056 2656 
Q 3513 2228 3513 1497 
Q 3513 744 3044 326 
Q 2575 -91 1722 -91 
Q 1428 -91 1123 -41 
Q 819 9 494 109 
L 494 744 
Q 775 591 1075 516 
Q 1375 441 1709 441 
Q 2250 441 2565 725 
Q 2881 1009 2881 1497 
Q 2881 1984 2565 2268 
Q 2250 2553 1709 2553 
Q 1456 2553 1204 2497 
Q 953 2441 691 2322 
L 691 4666 
z
" transform="scale(0.015625)"/>
     </defs>
     <use xlink:href="#DejaVuSans-50"/>
     <use xlink:href="#DejaVuSans-43" transform="translate(60.302734 0)"/>
     <use xlink:href="#DejaVuSans-32" transform="translate(130.126953 0)"/>
     <use xlink:href="#DejaVuSans-2d" transform="translate(193.75 0)"/>
     <use xlink:href="#DejaVuSans-35" transform="translate(229.833984 0)"/>
    </g>
    <!-- 19.2% -->
    <g style="fill: #c5c9c5" transform="translate(708.59161 89.82719) scale(0.09 -0.09)">
     <use xlink:href="#DejaVuSans-31"/>
     <use xlink:href="#DejaVuSans-39" transform="translate(63.623047 0)"/>
     <use xlink:href="#DejaVuSans-2e" transform="translate(127.246094 0)"/>
     <use xlink:href="#DejaVuSans-32" transform="translate(159.033203 0)"/>
     <use xlink:href="#DejaVuSans-25" transform="translate(222.65625 0)"/>
    </g>
   </g>
   <g id="text_11">
    <!-- Rest -->
    <g style="fill: #c5c9c5" transform="translate(637.457183 57.187221) scale(0.09 -0.09)">
     <defs>
      <path id="DejaVuSans-52" d="M 2841 2188 
Q 3044 2119 3236 1894 
Q 3428 1669 3622 1275 
L 4263 0 
L 3584 0 
L 2988 1197 
Q 2756 1666 2539 1819 
Q 2322 1972 1947 1972 
L 1259 1972 
L 1259 0 
L 628 0 
L 628 4666 
L 2053 4666 
Q 2853 4666 3247 4331 
Q 3641 3997 3641 3322 
Q 3641 2881 3436 2590 
Q 3231 2300 2841 2188 
z
M 1259 4147 
L 1259 2491 
L 2053 2491 
Q 2509 2491 2742 2702 
Q 2975 2913 2975 3322 
Q 2975 3731 2742 3939 
Q 2509 4147 2053 4147 
L 1259 4147 
z
" transform="scale(0.015625)"/>
     </defs>
     <use xlink:href="#DejaVuSans-52"/>
     <use xlink:href="#DejaVuSans-65" transform="translate(64.982422 0)"/>
     <use xlink:href="#DejaVuSans-73" transform="translate(126.505859 0)"/>
     <use xlink:href="#DejaVuSans-74" transform="translate(178.605469 0)"/>
    </g>
    <!-- 0.1% -->
    <g style="fill: #c5c9c5" transform="translate(637.457183 67.265252) scale(0.09 -0.09)">
     <use xlink:href="#DejaVuSans-30"/>
     <use xlink:href="#DejaVuSans-2e" transform="translate(63.623047 0)"/>
     <use xlink:href="#DejaVuSans-31" transform="translate(95.410156 0)"/>
     <use xlink:href="#DejaVuSans-25" transform="translate(159.033203 0)"/>
    </g>
   </g>
   <g id="text_12">
    <!-- HIGH concentration -->
    <g style="fill: #c4746e" transform="translate(587.263068 350.280594) scale(0.09 -0.09)">
     <defs>
      <path id="DejaVuSans-Bold-48" d="M 588 4666 
L 1791 4666 
L 1791 2888 
L 3566 2888 
L 3566 4666 
L 4769 4666 
L 4769 0 
L 3566 0 
L 3566 1978 
L 1791 1978 
L 1791 0 
L 588 0 
L 588 4666 
z
" transform="scale(0.015625)"/>
      <path id="DejaVuSans-Bold-47" d="M 4781 347 
Q 4331 128 3847 18 
Q 3363 -91 2847 -91 
Q 1681 -91 1000 561 
Q 319 1213 319 2328 
Q 319 3456 1012 4103 
Q 1706 4750 2913 4750 
Q 3378 4750 3804 4662 
Q 4231 4575 4609 4403 
L 4609 3438 
Q 4219 3659 3833 3768 
Q 3447 3878 3059 3878 
Q 2341 3878 1952 3476 
Q 1563 3075 1563 2328 
Q 1563 1588 1938 1184 
Q 2313 781 3003 781 
Q 3191 781 3352 804 
Q 3513 828 3641 878 
L 3641 1784 
L 2906 1784 
L 2906 2591 
L 4781 2591 
L 4781 347 
z
" transform="scale(0.015625)"/>
      <path id="DejaVuSans-Bold-63" d="M 3366 3391 
L 3366 2478 
Q 3138 2634 2908 2709 
Q 2678 2784 2431 2784 
Q 1963 2784 1702 2511 
Q 1441 2238 1441 1747 
Q 1441 1256 1702 982 
Q 1963 709 2431 709 
Q 2694 709 2930 787 
Q 3166 866 3366 1019 
L 3366 103 
Q 3103 6 2833 -42 
Q 2563 -91 2291 -91 
Q 1344 -91 809 395 
Q 275 881 275 1747 
Q 275 2613 809 3098 
Q 1344 3584 2291 3584 
Q 2566 3584 2833 3536 
Q 3100 3488 3366 3391 
z
" transform="scale(0.015625)"/>
      <path id="DejaVuSans-Bold-6f" d="M 2203 2784 
Q 1831 2784 1636 2517 
Q 1441 2250 1441 1747 
Q 1441 1244 1636 976 
Q 1831 709 2203 709 
Q 2569 709 2762 976 
Q 2956 1244 2956 1747 
Q 2956 2250 2762 2517 
Q 2569 2784 2203 2784 
z
M 2203 3584 
Q 3106 3584 3614 3096 
Q 4122 2609 4122 1747 
Q 4122 884 3614 396 
Q 3106 -91 2203 -91 
Q 1297 -91 786 396 
Q 275 884 275 1747 
Q 275 2609 786 3096 
Q 1297 3584 2203 3584 
z
" transform="scale(0.015625)"/>
      <path id="DejaVuSans-Bold-61" d="M 2106 1575 
Q 1756 1575 1579 1456 
Q 1403 1338 1403 1106 
Q 1403 894 1545 773 
Q 1688 653 1941 653 
Q 2256 653 2472 879 
Q 2688 1106 2688 1447 
L 2688 1575 
L 2106 1575 
z
M 3816 1997 
L 3816 0 
L 2688 0 
L 2688 519 
Q 2463 200 2181 54 
Q 1900 -91 1497 -91 
Q 953 -91 614 226 
Q 275 544 275 1050 
Q 275 1666 698 1953 
Q 1122 2241 2028 2241 
L 2688 2241 
L 2688 2328 
Q 2688 2594 2478 2717 
Q 2269 2841 1825 2841 
Q 1466 2841 1156 2769 
Q 847 2697 581 2553 
L 581 3406 
Q 941 3494 1303 3539 
Q 1666 3584 2028 3584 
Q 2975 3584 3395 3211 
Q 3816 2838 3816 1997 
z
" transform="scale(0.015625)"/>
     </defs>
     <use xlink:href="#DejaVuSans-Bold-48"/>
     <use xlink:href="#DejaVuSans-Bold-49" transform="translate(83.691406 0)"/>
     <use xlink:href="#DejaVuSans-Bold-47" transform="translate(120.898438 0)"/>
     <use xlink:href="#DejaVuSans-Bold-48" transform="translate(202.978516 0)"/>
     <use xlink:href="#DejaVuSans-Bold-20" transform="translate(286.669922 0)"/>
     <use xlink:href="#DejaVuSans-Bold-63" transform="translate(321.484375 0)"/>
     <use xlink:href="#DejaVuSans-Bold-6f" transform="translate(380.761719 0)"/>
     <use xlink:href="#DejaVuSans-Bold-6e" transform="translate(449.462891 0)"/>
     <use xlink:href="#DejaVuSans-Bold-63" transform="translate(520.654297 0)"/>
     <use xlink:href="#DejaVuSans-Bold-65" transform="translate(579.931641 0)"/>
     <use xlink:href="#DejaVuSans-Bold-6e" transform="translate(647.753906 0)"/>
     <use xlink:href="#DejaVuSans-Bold-74" transform="translate(718.945312 0)"/>
     <use xlink:href="#DejaVuSans-Bold-72" transform="translate(766.748047 0)"/>
     <use xlink:href="#DejaVuSans-Bold-61" transform="translate(816.064453 0)"/>
     <use xlink:href="#DejaVuSans-Bold-74" transform="translate(883.544922 0)"/>
     <use xlink:href="#DejaVuSans-Bold-69" transform="translate(931.347656 0)"/>
     <use xlink:href="#DejaVuSans-Bold-6f" transform="translate(965.625 0)"/>
     <use xlink:href="#DejaVuSans-Bold-6e" transform="translate(1034.326172 0)"/>
    </g>
    <!-- (Systemic risk elevated) -->
    <g style="fill: #c4746e" transform="translate(575.335256 360.358625) scale(0.09 -0.09)">
     <defs>
      <path id="DejaVuSans-Bold-28" d="M 2413 -844 
L 1484 -844 
Q 1006 -72 778 623 
Q 550 1319 550 2003 
Q 550 2688 779 3389 
Q 1009 4091 1484 4856 
L 2413 4856 
Q 2013 4116 1813 3408 
Q 1613 2700 1613 2009 
Q 1613 1319 1811 609 
Q 2009 -100 2413 -844 
z
" transform="scale(0.015625)"/>
      <path id="DejaVuSans-Bold-79" d="M 78 3500 
L 1197 3500 
L 2138 1125 
L 2938 3500 
L 4056 3500 
L 2584 -331 
Q 2363 -916 2067 -1148 
Q 1772 -1381 1288 -1381 
L 641 -1381 
L 641 -647 
L 991 -647 
Q 1275 -647 1404 -556 
Q 1534 -466 1606 -231 
L 1638 -134 
L 78 3500 
z
" transform="scale(0.015625)"/>
      <path id="DejaVuSans-Bold-6c" d="M 538 4863 
L 1656 4863 
L 1656 0 
L 538 0 
L 538 4863 
z
" transform="scale(0.015625)"/>
      <path id="DejaVuSans-Bold-76" d="M 97 3500 
L 1216 3500 
L 2088 1081 
L 2956 3500 
L 4078 3500 
L 2700 0 
L 1472 0 
L 97 3500 
z
" transform="scale(0.015625)"/>
      <path id="DejaVuSans-Bold-64" d="M 2919 2988 
L 2919 4863 
L 4044 4863 
L 4044 0 
L 2919 0 
L 2919 506 
Q 2688 197 2409 53 
Q 2131 -91 1766 -91 
Q 1119 -91 703 423 
Q 288 938 288 1747 
Q 288 2556 703 3070 
Q 1119 3584 1766 3584 
Q 2128 3584 2408 3439 
Q 2688 3294 2919 2988 
z
M 2181 722 
Q 2541 722 2730 984 
Q 2919 1247 2919 1747 
Q 2919 2247 2730 2509 
Q 2541 2772 2181 2772 
Q 1825 2772 1636 2509 
Q 1447 2247 1447 1747 
Q 1447 1247 1636 984 
Q 1825 722 2181 722 
z
" transform="scale(0.015625)"/>
      <path id="DejaVuSans-Bold-29" d="M 513 -844 
Q 913 -100 1113 609 
Q 1313 1319 1313 2009 
Q 1313 2700 1113 3408 
Q 913 4116 513 4856 
L 1441 4856 
Q 1916 4091 2145 3389 
Q 2375 2688 2375 2003 
Q 2375 1319 2147 623 
Q 1919 -72 1441 -844 
L 513 -844 
z
" transform="scale(0.015625)"/>
     </defs>
     <use xlink:href="#DejaVuSans-Bold-28"/>
     <use xlink:href="#DejaVuSans-Bold-53" transform="translate(45.703125 0)"/>
     <use xlink:href="#DejaVuSans-Bold-79" transform="translate(117.724609 0)"/>
     <use xlink:href="#DejaVuSans-Bold-73" transform="translate(182.910156 0)"/>
     <use xlink:href="#DejaVuSans-Bold-74" transform="translate(242.431641 0)"/>
     <use xlink:href="#DejaVuSans-Bold-65" transform="translate(290.234375 0)"/>
     <use xlink:href="#DejaVuSans-Bold-6d" transform="translate(358.056641 0)"/>
     <use xlink:href="#DejaVuSans-Bold-69" transform="translate(462.255859 0)"/>
     <use xlink:href="#DejaVuSans-Bold-63" transform="translate(496.533203 0)"/>
     <use xlink:href="#DejaVuSans-Bold-20" transform="translate(555.810547 0)"/>
     <use xlink:href="#DejaVuSans-Bold-72" transform="translate(590.625 0)"/>
     <use xlink:href="#DejaVuSans-Bold-69" transform="translate(639.941406 0)"/>
     <use xlink:href="#DejaVuSans-Bold-73" transform="translate(674.21875 0)"/>
     <use xlink:href="#DejaVuSans-Bold-6b" transform="translate(733.740234 0)"/>
     <use xlink:href="#DejaVuSans-Bold-20" transform="translate(800.244141 0)"/>
     <use xlink:href="#DejaVuSans-Bold-65" transform="translate(835.058594 0)"/>
     <use xlink:href="#DejaVuSans-Bold-6c" transform="translate(902.880859 0)"/>
     <use xlink:href="#DejaVuSans-Bold-65" transform="translate(937.158203 0)"/>
     <use xlink:href="#DejaVuSans-Bold-76" transform="translate(1004.980469 0)"/>
     <use xlink:href="#DejaVuSans-Bold-61" transform="translate(1070.166016 0)"/>
     <use xlink:href="#DejaVuSans-Bold-74" transform="translate(1137.646484 0)"/>
     <use xlink:href="#DejaVuSans-Bold-65" transform="translate(1185.449219 0)"/>
     <use xlink:href="#DejaVuSans-Bold-64" transform="translate(1253.271484 0)"/>
     <use xlink:href="#DejaVuSans-Bold-29" transform="translate(1324.853516 0)"/>
    </g>
   </g>
   <g id="text_13">
    <!-- Eigenvalue Concentration -->
    <g style="fill: #c5c9c5" transform="translate(557.144553 36.72) scale(0.11 -0.11)">
     <defs>
      <path id="DejaVuSans-Bold-45" d="M 588 4666 
L 3834 4666 
L 3834 3756 
L 1791 3756 
L 1791 2888 
L 3713 2888 
L 3713 1978 
L 1791 1978 
L 1791 909 
L 3903 909 
L 3903 0 
L 588 0 
L 588 4666 
z
" transform="scale(0.015625)"/>
     </defs>
     <use xlink:href="#DejaVuSans-Bold-45"/>
     <use xlink:href="#DejaVuSans-Bold-69" transform="translate(68.310547 0)"/>
     <use xlink:href="#DejaVuSans-Bold-67" transform="translate(102.587891 0)"/>
     <use xlink:href="#DejaVuSans-Bold-65" transform="translate(174.169922 0)"/>
     <use xlink:href="#DejaVuSans-Bold-6e" transform="translate(241.992188 0)"/>
     <use xlink:href="#DejaVuSans-Bold-76" transform="translate(313.183594 0)"/>
     <use xlink:href="#DejaVuSans-Bold-61" transform="translate(378.369141 0)"/>
     <use xlink:href="#DejaVuSans-Bold-6c" transform="translate(445.849609 0)"/>
     <use xlink:href="#DejaVuSans-Bold-75" transform="translate(480.126953 0)"/>
     <use xlink:href="#DejaVuSans-Bold-65" transform="translate(551.318359 0)"/>
     <use xlink:href="#DejaVuSans-Bold-20" transform="translate(619.140625 0)"/>
     <use xlink:href="#DejaVuSans-Bold-43" transform="translate(653.955078 0)"/>
     <use xlink:href="#DejaVuSans-Bold-6f" transform="translate(727.34375 0)"/>
     <use xlink:href="#DejaVuSans-Bold-6e" transform="translate(796.044922 0)"/>
     <use xlink:href="#DejaVuSans-Bold-63" transform="translate(867.236328 0)"/>
     <use xlink:href="#DejaVuSans-Bold-65" transform="translate(926.513672 0)"/>
     <use xlink:href="#DejaVuSans-Bold-6e" transform="translate(994.335938 0)"/>
     <use xlink:href="#DejaVuSans-Bold-74" transform="translate(1065.527344 0)"/>
     <use xlink:href="#DejaVuSans-Bold-72" transform="translate(1113.330078 0)"/>
     <use xlink:href="#DejaVuSans-Bold-61" transform="translate(1162.646484 0)"/>
     <use xlink:href="#DejaVuSans-Bold-74" transform="translate(1230.126953 0)"/>
     <use xlink:href="#DejaVuSans-Bold-69" transform="translate(1277.929688 0)"/>
     <use xlink:href="#DejaVuSans-Bold-6f" transform="translate(1312.207031 0)"/>
     <use xlink:href="#DejaVuSans-Bold-6e" transform="translate(1380.908203 0)"/>
    </g>
   </g>
  </g>
  <g id="axes_3">
   <g id="patch_12">
    <path d="M 50.14375 670.84 
L 413.897386 670.84 
L 413.897386 387.14 
L 50.14375 387.14 
z
" style="fill: #181616"/>
   </g>
   <g id="patch_13">
    <path d="M 66.678006 670.84 
L 88.723681 670.84 
L 88.723681 400.649524 
L 66.678006 400.649524 
z
" clip-path="url(#p926e1a33df)" style="fill: #8ba4b0; opacity: 0.7; stroke: #282727; stroke-linejoin: miter"/>
   </g>
   <g id="patch_14">
    <path d="M 88.723681 670.84 
L 110.769356 670.84 
L 110.769356 670.84 
L 88.723681 670.84 
z
" clip-path="url(#p926e1a33df)" style="fill: #8ba4b0; opacity: 0.7; stroke: #282727; stroke-linejoin: miter"/>
   </g>
   <g id="patch_15">
    <path d="M 110.769356 670.84 
L 132.815031 670.84 
L 132.815031 670.84 
L 110.769356 670.84 
z
" clip-path="url(#p926e1a33df)" style="fill: #8ba4b0; opacity: 0.7; stroke: #282727; stroke-linejoin: miter"/>
   </g>
   <g id="patch_16">
    <path d="M 132.815031 670.84 
L 154.860706 670.84 
L 154.860706 670.84 
L 132.815031 670.84 
z
" clip-path="url(#p926e1a33df)" style="fill: #8ba4b0; opacity: 0.7; stroke: #282727; stroke-linejoin: miter"/>
   </g>
   <g id="patch_17">
    <path d="M 154.860706 670.84 
L 176.906381 670.84 
L 176.906381 670.84 
L 154.860706 670.84 
z
" clip-path="url(#p926e1a33df)" style="fill: #8ba4b0; opacity: 0.7; stroke: #282727; stroke-linejoin: miter"/>
   </g>
   <g id="patch_18">
    <path d="M 176.906381 670.84 
L 198.952056 670.84 
L 198.952056 670.84 
L 176.906381 670.84 
z
" clip-path="url(#p926e1a33df)" style="fill: #8ba4b0; opacity: 0.7; stroke: #282727; stroke-linejoin: miter"/>
   </g>
   <g id="patch_19">
    <path d="M 198.952056 670.84 
L 220.997731 670.84 
L 220.997731 670.84 
L 198.952056 670.84 
z
" clip-path="url(#p926e1a33df)" style="fill: #8ba4b0; opacity: 0.7; stroke: #282727; stroke-linejoin: miter"/>
   </g>
   <g id="patch_20">
    <path d="M 220.997731 670.84 
L 243.043406 670.84 
L 243.043406 670.84 
L 220.997731 670.84 
z
" clip-path="url(#p926e1a33df)" style="fill: #8ba4b0; opacity: 0.7; stroke: #282727; stroke-linejoin: miter"/>
   </g>
   <g id="patch_21">
    <path d="M 243.043406 670.84 
L 265.089081 670.84 
L 265.089081 400.649524 
L 243.043406 400.649524 
z
" clip-path="url(#p926e1a33df)" style="fill: #8ba4b0; opacity: 0.7; stroke: #282727; stroke-linejoin: miter"/>
   </g>
   <g id="patch_22">
    <path d="M 265.089081 670.84 
L 287.134756 670.84 
L 287.134756 670.84 
L 265.089081 670.84 
z
" clip-path="url(#p926e1a33df)" style="fill: #8ba4b0; opacity: 0.7; stroke: #282727; stroke-linejoin: miter"/>
   </g>
   <g id="patch_23">
    <path d="M 287.134756 670.84 
L 309.18043 670.84 
L 309.18043 670.84 
L 287.134756 670.84 
z
" clip-path="url(#p926e1a33df)" style="fill: #8ba4b0; opacity: 0.7; stroke: #282727; stroke-linejoin: miter"/>
   </g>
   <g id="patch_24">
    <path d="M 309.18043 670.84 
L 331.226105 670.84 
L 331.226105 670.84 
L 309.18043 670.84 
z
" clip-path="url(#p926e1a33df)" style="fill: #8ba4b0; opacity: 0.7; stroke: #282727; stroke-linejoin: miter"/>
   </g>
   <g id="patch_25">
    <path d="M 331.226105 670.84 
L 353.27178 670.84 
L 353.27178 535.744762 
L 331.226105 535.744762 
z
" clip-path="url(#p926e1a33df)" style="fill: #8ba4b0; opacity: 0.7; stroke: #282727; stroke-linejoin: miter"/>
   </g>
   <g id="patch_26">
    <path d="M 353.27178 670.84 
L 375.317455 670.84 
L 375.317455 670.84 
L 353.27178 670.84 
z
" clip-path="url(#p926e1a33df)" style="fill: #8ba4b0; opacity: 0.7; stroke: #282727; stroke-linejoin: miter"/>
   </g>
   <g id="patch_27">
    <path d="M 375.317455 670.84 
L 397.36313 670.84 
L 397.36313 535.744762 
L 375.317455 535.744762 
z
" clip-path="url(#p926e1a33df)" style="fill: #8ba4b0; opacity: 0.7; stroke: #282727; stroke-linejoin: miter"/>
   </g>
   <g id="patch_28">
    <path d="M 144.283608 670.84 
L 353.879004 670.84 
L 353.879004 387.14 
L 144.283608 387.14 
z
" clip-path="url(#p926e1a33df)" style="fill: #d19a66; opacity: 0.2; stroke: #d19a66; stroke-linejoin: miter"/>
   </g>
   <g id="matplotlib.axis_3">
    <g id="xtick_1">
     <g id="line2d_1">
      <defs>
       <path id="m73e6137325" d="M 0 0 
L 0 3.5 
" style="stroke: #c5c9c5; stroke-width: 0.8"/>
      </defs>
      <g>
       <use xlink:href="#m73e6137325" x="52.260013" y="670.84" style="fill: #c5c9c5; stroke: #c5c9c5; stroke-width: 0.8"/>
      </g>
     </g>
     <g id="text_14">
      <!-- 0.0 -->
      <g style="fill: #c5c9c5" transform="translate(44.30845 685.438437) scale(0.1 -0.1)">
       <use xlink:href="#DejaVuSans-30"/>
       <use xlink:href="#DejaVuSans-2e" transform="translate(63.623047 0)"/>
       <use xlink:href="#DejaVuSans-30" transform="translate(95.410156 0)"/>
      </g>
     </g>
    </g>
    <g id="xtick_2">
     <g id="line2d_2">
      <g>
       <use xlink:href="#m73e6137325" x="105.864538" y="670.84" style="fill: #c5c9c5; stroke: #c5c9c5; stroke-width: 0.8"/>
      </g>
     </g>
     <g id="text_15">
      <!-- 0.1 -->
      <g style="fill: #c5c9c5" transform="translate(97.912976 685.438437) scale(0.1 -0.1)">
       <use xlink:href="#DejaVuSans-30"/>
       <use xlink:href="#DejaVuSans-2e" transform="translate(63.623047 0)"/>
       <use xlink:href="#DejaVuSans-31" transform="translate(95.410156 0)"/>
      </g>
     </g>
    </g>
    <g id="xtick_3">
     <g id="line2d_3">
      <g>
       <use xlink:href="#m73e6137325" x="159.469064" y="670.84" style="fill: #c5c9c5; stroke: #c5c9c5; stroke-width: 0.8"/>
      </g>
     </g>
     <g id="text_16">
      <!-- 0.2 -->
      <g style="fill: #c5c9c5" transform="translate(151.517501 685.438437) scale(0.1 -0.1)">
       <use xlink:href="#DejaVuSans-30"/>
       <use xlink:href="#DejaVuSans-2e" transform="translate(63.623047 0)"/>
       <use xlink:href="#DejaVuSans-32" transform="translate(95.410156 0)"/>
      </g>
     </g>
    </g>
    <g id="xtick_4">
     <g id="line2d_4">
      <g>
       <use xlink:href="#m73e6137325" x="213.073589" y="670.84" style="fill: #c5c9c5; stroke: #c5c9c5; stroke-width: 0.8"/>
      </g>
     </g>
     <g id="text_17">
      <!-- 0.3 -->
      <g style="fill: #c5c9c5" transform="translate(205.122027 685.438437) scale(0.1 -0.1)">
       <defs>
        <path id="DejaVuSans-33" d="M 2597 2516 
Q 3050 2419 3304 2112 
Q 3559 1806 3559 1356 
Q 3559 666 3084 287 
Q 2609 -91 1734 -91 
Q 1441 -91 1130 -33 
Q 819 25 488 141 
L 488 750 
Q 750 597 1062 519 
Q 1375 441 1716 441 
Q 2309 441 2620 675 
Q 2931 909 2931 1356 
Q 2931 1769 2642 2001 
Q 2353 2234 1838 2234 
L 1294 2234 
L 1294 2753 
L 1863 2753 
Q 2328 2753 2575 2939 
Q 2822 3125 2822 3475 
Q 2822 3834 2567 4026 
Q 2313 4219 1838 4219 
Q 1578 4219 1281 4162 
Q 984 4106 628 3988 
L 628 4550 
Q 988 4650 1302 4700 
Q 1616 4750 1894 4750 
Q 2613 4750 3031 4423 
Q 3450 4097 3450 3541 
Q 3450 3153 3228 2886 
Q 3006 2619 2597 2516 
z
" transform="scale(0.015625)"/>
       </defs>
       <use xlink:href="#DejaVuSans-30"/>
       <use xlink:href="#DejaVuSans-2e" transform="translate(63.623047 0)"/>
       <use xlink:href="#DejaVuSans-33" transform="translate(95.410156 0)"/>
      </g>
     </g>
    </g>
    <g id="xtick_5">
     <g id="line2d_5">
      <g>
       <use xlink:href="#m73e6137325" x="266.678115" y="670.84" style="fill: #c5c9c5; stroke: #c5c9c5; stroke-width: 0.8"/>
      </g>
     </g>
     <g id="text_18">
      <!-- 0.4 -->
      <g style="fill: #c5c9c5" transform="translate(258.726553 685.438437) scale(0.1 -0.1)">
       <defs>
        <path id="DejaVuSans-34" d="M 2419 4116 
L 825 1625 
L 2419 1625 
L 2419 4116 
z
M 2253 4666 
L 3047 4666 
L 3047 1625 
L 3713 1625 
L 3713 1100 
L 3047 1100 
L 3047 0 
L 2419 0 
L 2419 1100 
L 313 1100 
L 313 1709 
L 2253 4666 
z
" transform="scale(0.015625)"/>
       </defs>
       <use xlink:href="#DejaVuSans-30"/>
       <use xlink:href="#DejaVuSans-2e" transform="translate(63.623047 0)"/>
       <use xlink:href="#DejaVuSans-34" transform="translate(95.410156 0)"/>
      </g>
     </g>
    </g>
    <g id="xtick_6">
     <g id="line2d_6">
      <g>
       <use xlink:href="#m73e6137325" x="320.282641" y="670.84" style="fill: #c5c9c5; stroke: #c5c9c5; stroke-width: 0.8"/>
      </g>
     </g>
     <g id="text_19">
      <!-- 0.5 -->
      <g style="fill: #c5c9c5" transform="translate(312.331078 685.438437) scale(0.1 -0.1)">
       <use xlink:href="#DejaVuSans-30"/>
       <use xlink:href="#DejaVuSans-2e" transform="translate(63.623047 0)"/>
       <use xlink:href="#DejaVuSans-35" transform="translate(95.410156 0)"/>
      </g>
     </g>
    </g>
    <g id="xtick_7">
     <g id="line2d_7">
      <g>
       <use xlink:href="#m73e6137325" x="373.887166" y="670.84" style="fill: #c5c9c5; stroke: #c5c9c5; stroke-width: 0.8"/>
      </g>
     </g>
     <g id="text_20">
      <!-- 0.6 -->
      <g style="fill: #c5c9c5" transform="translate(365.935604 685.438437) scale(0.1 -0.1)">
       <defs>
        <path id="DejaVuSans-36" d="M 2113 2584 
Q 1688 2584 1439 2293 
Q 1191 2003 1191 1497 
Q 1191 994 1439 701 
Q 1688 409 2113 409 
Q 2538 409 2786 701 
Q 3034 994 3034 1497 
Q 3034 2003 2786 2293 
Q 2538 2584 2113 2584 
z
M 3366 4563 
L 3366 3988 
Q 3128 4100 2886 4159 
Q 2644 4219 2406 4219 
Q 1781 4219 1451 3797 
Q 1122 3375 1075 2522 
Q 1259 2794 1537 2939 
Q 1816 3084 2150 3084 
Q 2853 3084 3261 2657 
Q 3669 2231 3669 1497 
Q 3669 778 3244 343 
Q 2819 -91 2113 -91 
Q 1303 -91 875 529 
Q 447 1150 447 2328 
Q 447 3434 972 4092 
Q 1497 4750 2381 4750 
Q 2619 4750 2861 4703 
Q 3103 4656 3366 4563 
z
" transform="scale(0.015625)"/>
       </defs>
       <use xlink:href="#DejaVuSans-30"/>
       <use xlink:href="#DejaVuSans-2e" transform="translate(63.623047 0)"/>
       <use xlink:href="#DejaVuSans-36" transform="translate(95.410156 0)"/>
      </g>
     </g>
    </g>
    <g id="text_21">
     <!-- Eigenvector Centrality -->
     <g style="fill: #c5c9c5" transform="translate(176.089318 699.116562) scale(0.1 -0.1)">
      <defs>
       <path id="DejaVuSans-63" d="M 3122 3366 
L 3122 2828 
Q 2878 2963 2633 3030 
Q 2388 3097 2138 3097 
Q 1578 3097 1268 2742 
Q 959 2388 959 1747 
Q 959 1106 1268 751 
Q 1578 397 2138 397 
Q 2388 397 2633 464 
Q 2878 531 3122 666 
L 3122 134 
Q 2881 22 2623 -34 
Q 2366 -91 2075 -91 
Q 1284 -91 818 406 
Q 353 903 353 1747 
Q 353 2603 823 3093 
Q 1294 3584 2113 3584 
Q 2378 3584 2631 3529 
Q 2884 3475 3122 3366 
z
" transform="scale(0.015625)"/>
      </defs>
      <use xlink:href="#DejaVuSans-45"/>
      <use xlink:href="#DejaVuSans-69" transform="translate(63.183594 0)"/>
      <use xlink:href="#DejaVuSans-67" transform="translate(90.966797 0)"/>
      <use xlink:href="#DejaVuSans-65" transform="translate(154.443359 0)"/>
      <use xlink:href="#DejaVuSans-6e" transform="translate(215.966797 0)"/>
      <use xlink:href="#DejaVuSans-76" transform="translate(279.345703 0)"/>
      <use xlink:href="#DejaVuSans-65" transform="translate(338.525391 0)"/>
      <use xlink:href="#DejaVuSans-63" transform="translate(400.048828 0)"/>
      <use xlink:href="#DejaVuSans-74" transform="translate(455.029297 0)"/>
      <use xlink:href="#DejaVuSans-6f" transform="translate(494.238281 0)"/>
      <use xlink:href="#DejaVuSans-72" transform="translate(555.419922 0)"/>
      <use xlink:href="#DejaVuSans-20" transform="translate(596.533203 0)"/>
      <use xlink:href="#DejaVuSans-43" transform="translate(628.320312 0)"/>
      <use xlink:href="#DejaVuSans-65" transform="translate(698.144531 0)"/>
      <use xlink:href="#DejaVuSans-6e" transform="translate(759.667969 0)"/>
      <use xlink:href="#DejaVuSans-74" transform="translate(823.046875 0)"/>
      <use xlink:href="#DejaVuSans-72" transform="translate(862.255859 0)"/>
      <use xlink:href="#DejaVuSans-61" transform="translate(903.369141 0)"/>
      <use xlink:href="#DejaVuSans-6c" transform="translate(964.648438 0)"/>
      <use xlink:href="#DejaVuSans-69" transform="translate(992.431641 0)"/>
      <use xlink:href="#DejaVuSans-74" transform="translate(1020.214844 0)"/>
      <use xlink:href="#DejaVuSans-79" transform="translate(1059.423828 0)"/>
     </g>
    </g>
   </g>
   <g id="matplotlib.axis_4">
    <g id="ytick_1">
     <g id="line2d_8">
      <defs>
       <path id="m73522ad22a" d="M 0 0 
L -3.5 0 
" style="stroke: #c5c9c5; stroke-width: 0.8"/>
      </defs>
      <g>
       <use xlink:href="#m73522ad22a" x="50.14375" y="670.84" style="fill: #c5c9c5; stroke: #c5c9c5; stroke-width: 0.8"/>
      </g>
     </g>
     <g id="text_22">
      <!-- 0.00 -->
      <g style="fill: #c5c9c5" transform="translate(20.878125 674.639219) scale(0.1 -0.1)">
       <use xlink:href="#DejaVuSans-30"/>
       <use xlink:href="#DejaVuSans-2e" transform="translate(63.623047 0)"/>
       <use xlink:href="#DejaVuSans-30" transform="translate(95.410156 0)"/>
       <use xlink:href="#DejaVuSans-30" transform="translate(159.033203 0)"/>
      </g>
     </g>
    </g>
    <g id="ytick_2">
     <g id="line2d_9">
      <g>
       <use xlink:href="#m73522ad22a" x="50.14375" y="637.06619" style="fill: #c5c9c5; stroke: #c5c9c5; stroke-width: 0.8"/>
      </g>
     </g>
     <g id="text_23">
      <!-- 0.25 -->
      <g style="fill: #c5c9c5" transform="translate(20.878125 640.865409) scale(0.1 -0.1)">
       <use xlink:href="#DejaVuSans-30"/>
       <use xlink:href="#DejaVuSans-2e" transform="translate(63.623047 0)"/>
       <use xlink:href="#DejaVuSans-32" transform="translate(95.410156 0)"/>
       <use xlink:href="#DejaVuSans-35" transform="translate(159.033203 0)"/>
      </g>
     </g>
    </g>
    <g id="ytick_3">
     <g id="line2d_10">
      <g>
       <use xlink:href="#m73522ad22a" x="50.14375" y="603.292381" style="fill: #c5c9c5; stroke: #c5c9c5; stroke-width: 0.8"/>
      </g>
     </g>
     <g id="text_24">
      <!-- 0.50 -->
      <g style="fill: #c5c9c5" transform="translate(20.878125 607.0916) scale(0.1 -0.1)">
       <use xlink:href="#DejaVuSans-30"/>
       <use xlink:href="#DejaVuSans-2e" transform="translate(63.623047 0)"/>
       <use xlink:href="#DejaVuSans-35" transform="translate(95.410156 0)"/>
       <use xlink:href="#DejaVuSans-30" transform="translate(159.033203 0)"/>
      </g>
     </g>
    </g>
    <g id="ytick_4">
     <g id="line2d_11">
      <g>
       <use xlink:href="#m73522ad22a" x="50.14375" y="569.518571" style="fill: #c5c9c5; stroke: #c5c9c5; stroke-width: 0.8"/>
      </g>
     </g>
     <g id="text_25">
      <!-- 0.75 -->
      <g style="fill: #c5c9c5" transform="translate(20.878125 573.31779) scale(0.1 -0.1)">
       <use xlink:href="#DejaVuSans-30"/>
       <use xlink:href="#DejaVuSans-2e" transform="translate(63.623047 0)"/>
       <use xlink:href="#DejaVuSans-37" transform="translate(95.410156 0)"/>
       <use xlink:href="#DejaVuSans-35" transform="translate(159.033203 0)"/>
      </g>
     </g>
    </g>
    <g id="ytick_5">
     <g id="line2d_12">
      <g>
       <use xlink:href="#m73522ad22a" x="50.14375" y="535.744762" style="fill: #c5c9c5; stroke: #c5c9c5; stroke-width: 0.8"/>
      </g>
     </g>
     <g id="text_26">
      <!-- 1.00 -->
      <g style="fill: #c5c9c5" transform="translate(20.878125 539.543981) scale(0.1 -0.1)">
       <use xlink:href="#DejaVuSans-31"/>
       <use xlink:href="#DejaVuSans-2e" transform="translate(63.623047 0)"/>
       <use xlink:href="#DejaVuSans-30" transform="translate(95.410156 0)"/>
       <use xlink:href="#DejaVuSans-30" transform="translate(159.033203 0)"/>
      </g>
     </g>
    </g>
    <g id="ytick_6">
     <g id="line2d_13">
      <g>
       <use xlink:href="#m73522ad22a" x="50.14375" y="501.970952" style="fill: #c5c9c5; stroke: #c5c9c5; stroke-width: 0.8"/>
      </g>
     </g>
     <g id="text_27">
      <!-- 1.25 -->
      <g style="fill: #c5c9c5" transform="translate(20.878125 505.770171) scale(0.1 -0.1)">
       <use xlink:href="#DejaVuSans-31"/>
       <use xlink:href="#DejaVuSans-2e" transform="translate(63.623047 0)"/>
       <use xlink:href="#DejaVuSans-32" transform="translate(95.410156 0)"/>
       <use xlink:href="#DejaVuSans-35" transform="translate(159.033203 0)"/>
      </g>
     </g>
    </g>
    <g id="ytick_7">
     <g id="line2d_14">
      <g>
       <use xlink:href="#m73522ad22a" x="50.14375" y="468.197143" style="fill: #c5c9c5; stroke: #c5c9c5; stroke-width: 0.8"/>
      </g>
     </g>
     <g id="text_28">
      <!-- 1.50 -->
      <g style="fill: #c5c9c5" transform="translate(20.878125 471.996362) scale(0.1 -0.1)">
       <use xlink:href="#DejaVuSans-31"/>
       <use xlink:href="#DejaVuSans-2e" transform="translate(63.623047 0)"/>
       <use xlink:href="#DejaVuSans-35" transform="translate(95.410156 0)"/>
       <use xlink:href="#DejaVuSans-30" transform="translate(159.033203 0)"/>
      </g>
     </g>
    </g>
    <g id="ytick_8">
     <g id="line2d_15">
      <g>
       <use xlink:href="#m73522ad22a" x="50.14375" y="434.423333" style="fill: #c5c9c5; stroke: #c5c9c5; stroke-width: 0.8"/>
      </g>
     </g>
     <g id="text_29">
      <!-- 1.75 -->
      <g style="fill: #c5c9c5" transform="translate(20.878125 438.222552) scale(0.1 -0.1)">
       <use xlink:href="#DejaVuSans-31"/>
       <use xlink:href="#DejaVuSans-2e" transform="translate(63.623047 0)"/>
       <use xlink:href="#DejaVuSans-37" transform="translate(95.410156 0)"/>
       <use xlink:href="#DejaVuSans-35" transform="translate(159.033203 0)"/>
      </g>
     </g>
    </g>
    <g id="ytick_9">
     <g id="line2d_16">
      <g>
       <use xlink:href="#m73522ad22a" x="50.14375" y="400.649524" style="fill: #c5c9c5; stroke: #c5c9c5; stroke-width: 0.8"/>
      </g>
     </g>
     <g id="text_30">
      <!-- 2.00 -->
      <g style="fill: #c5c9c5" transform="translate(20.878125 404.448743) scale(0.1 -0.1)">
       <use xlink:href="#DejaVuSans-32"/>
       <use xlink:href="#DejaVuSans-2e" transform="translate(63.623047 0)"/>
       <use xlink:href="#DejaVuSans-30" transform="translate(95.410156 0)"/>
       <use xlink:href="#DejaVuSans-30" transform="translate(159.033203 0)"/>
      </g>
     </g>
    </g>
    <g id="text_31">
     <!-- Count -->
     <g style="fill: #c5c9c5" transform="translate(14.798438 543.838437) rotate(-90) scale(0.1 -0.1)">
      <defs>
       <path id="DejaVuSans-75" d="M 544 1381 
L 544 3500 
L 1119 3500 
L 1119 1403 
Q 1119 906 1312 657 
Q 1506 409 1894 409 
Q 2359 409 2629 706 
Q 2900 1003 2900 1516 
L 2900 3500 
L 3475 3500 
L 3475 0 
L 2900 0 
L 2900 538 
Q 2691 219 2414 64 
Q 2138 -91 1772 -91 
Q 1169 -91 856 284 
Q 544 659 544 1381 
z
M 1991 3584 
L 1991 3584 
z
" transform="scale(0.015625)"/>
      </defs>
      <use xlink:href="#DejaVuSans-43"/>
      <use xlink:href="#DejaVuSans-6f" transform="translate(69.824219 0)"/>
      <use xlink:href="#DejaVuSans-75" transform="translate(131.005859 0)"/>
      <use xlink:href="#DejaVuSans-6e" transform="translate(194.384766 0)"/>
      <use xlink:href="#DejaVuSans-74" transform="translate(257.763672 0)"/>
     </g>
    </g>
   </g>
   <g id="line2d_17">
    <path d="M 249.081306 670.84 
L 249.081306 387.14 
" clip-path="url(#p926e1a33df)" style="fill: none; stroke-dasharray: 7.4,3.2; stroke-dashoffset: 0; stroke: #d19a66; stroke-width: 2"/>
   </g>
   <g id="patch_29">
    <path d="M 50.14375 670.84 
L 50.14375 387.14 
" style="fill: none; stroke: #625e5a; stroke-width: 0.8; stroke-linejoin: miter; stroke-linecap: square"/>
   </g>
   <g id="patch_30">
    <path d="M 413.897386 670.84 
L 413.897386 387.14 
" style="fill: none; stroke: #625e5a; stroke-width: 0.8; stroke-linejoin: miter; stroke-linecap: square"/>
   </g>
   <g id="patch_31">
    <path d="M 50.14375 670.84 
L 413.897386 670.84 
" style="fill: none; stroke: #625e5a; stroke-width: 0.8; stroke-linejoin: miter; stroke-linecap: square"/>
   </g>
   <g id="patch_32">
    <path d="M 50.14375 387.14 
L 413.897386 387.14 
" style="fill: none; stroke: #625e5a; stroke-width: 0.8; stroke-linejoin: miter; stroke-linecap: square"/>
   </g>
   <g id="text_32">
    <!-- Network Centrality Distribution -->
    <g style="fill: #c5c9c5" transform="translate(134.267521 381.14) scale(0.11 -0.11)">
     <defs>
      <path id="DejaVuSans-Bold-4e" d="M 588 4666 
L 1931 4666 
L 3628 1466 
L 3628 4666 
L 4769 4666 
L 4769 0 
L 3425 0 
L 1728 3200 
L 1728 0 
L 588 0 
L 588 4666 
z
" transform="scale(0.015625)"/>
      <path id="DejaVuSans-Bold-77" d="M 225 3500 
L 1313 3500 
L 1900 1088 
L 2491 3500 
L 3425 3500 
L 4013 1113 
L 4603 3500 
L 5691 3500 
L 4769 0 
L 3547 0 
L 2956 2406 
L 2369 0 
L 1147 0 
L 225 3500 
z
" transform="scale(0.015625)"/>
      <path id="DejaVuSans-Bold-44" d="M 1791 3756 
L 1791 909 
L 2222 909 
Q 2959 909 3348 1275 
Q 3738 1641 3738 2338 
Q 3738 3031 3350 3393 
Q 2963 3756 2222 3756 
L 1791 3756 
z
M 588 4666 
L 1856 4666 
Q 2919 4666 3439 4514 
Q 3959 4363 4331 4000 
Q 4659 3684 4818 3271 
Q 4978 2859 4978 2338 
Q 4978 1809 4818 1395 
Q 4659 981 4331 666 
Q 3956 303 3431 151 
Q 2906 0 1856 0 
L 588 0 
L 588 4666 
z
" transform="scale(0.015625)"/>
      <path id="DejaVuSans-Bold-62" d="M 2400 722 
Q 2759 722 2948 984 
Q 3138 1247 3138 1747 
Q 3138 2247 2948 2509 
Q 2759 2772 2400 2772 
Q 2041 2772 1848 2508 
Q 1656 2244 1656 1747 
Q 1656 1250 1848 986 
Q 2041 722 2400 722 
z
M 1656 2988 
Q 1888 3294 2169 3439 
Q 2450 3584 2816 3584 
Q 3463 3584 3878 3070 
Q 4294 2556 4294 1747 
Q 4294 938 3878 423 
Q 3463 -91 2816 -91 
Q 2450 -91 2169 54 
Q 1888 200 1656 506 
L 1656 0 
L 538 0 
L 538 4863 
L 1656 4863 
L 1656 2988 
z
" transform="scale(0.015625)"/>
     </defs>
     <use xlink:href="#DejaVuSans-Bold-4e"/>
     <use xlink:href="#DejaVuSans-Bold-65" transform="translate(83.691406 0)"/>
     <use xlink:href="#DejaVuSans-Bold-74" transform="translate(151.513672 0)"/>
     <use xlink:href="#DejaVuSans-Bold-77" transform="translate(199.316406 0)"/>
     <use xlink:href="#DejaVuSans-Bold-6f" transform="translate(291.699219 0)"/>
     <use xlink:href="#DejaVuSans-Bold-72" transform="translate(360.400391 0)"/>
     <use xlink:href="#DejaVuSans-Bold-6b" transform="translate(409.716797 0)"/>
     <use xlink:href="#DejaVuSans-Bold-20" transform="translate(476.220703 0)"/>
     <use xlink:href="#DejaVuSans-Bold-43" transform="translate(511.035156 0)"/>
     <use xlink:href="#DejaVuSans-Bold-65" transform="translate(584.423828 0)"/>
     <use xlink:href="#DejaVuSans-Bold-6e" transform="translate(652.246094 0)"/>
     <use xlink:href="#DejaVuSans-Bold-74" transform="translate(723.4375 0)"/>
     <use xlink:href="#DejaVuSans-Bold-72" transform="translate(771.240234 0)"/>
     <use xlink:href="#DejaVuSans-Bold-61" transform="translate(820.556641 0)"/>
     <use xlink:href="#DejaVuSans-Bold-6c" transform="translate(888.037109 0)"/>
     <use xlink:href="#DejaVuSans-Bold-69" transform="translate(922.314453 0)"/>
     <use xlink:href="#DejaVuSans-Bold-74" transform="translate(956.591797 0)"/>
     <use xlink:href="#DejaVuSans-Bold-79" transform="translate(1004.394531 0)"/>
     <use xlink:href="#DejaVuSans-Bold-20" transform="translate(1069.580078 0)"/>
     <use xlink:href="#DejaVuSans-Bold-44" transform="translate(1104.394531 0)"/>
     <use xlink:href="#DejaVuSans-Bold-69" transform="translate(1187.402344 0)"/>
     <use xlink:href="#DejaVuSans-Bold-73" transform="translate(1221.679688 0)"/>
     <use xlink:href="#DejaVuSans-Bold-74" transform="translate(1281.201172 0)"/>
     <use xlink:href="#DejaVuSans-Bold-72" transform="translate(1329.003906 0)"/>
     <use xlink:href="#DejaVuSans-Bold-69" transform="translate(1378.320312 0)"/>
     <use xlink:href="#DejaVuSans-Bold-62" transform="translate(1412.597656 0)"/>
     <use xlink:href="#DejaVuSans-Bold-75" transform="translate(1484.179688 0)"/>
     <use xlink:href="#DejaVuSans-Bold-74" transform="translate(1555.371094 0)"/>
     <use xlink:href="#DejaVuSans-Bold-69" transform="translate(1603.173828 0)"/>
     <use xlink:href="#DejaVuSans-Bold-6f" transform="translate(1637.451172 0)"/>
     <use xlink:href="#DejaVuSans-Bold-6e" transform="translate(1706.152344 0)"/>
    </g>
   </g>
   <g id="legend_1">
    <g id="patch_33">
     <path d="M 332.759886 417.025 
L 408.297386 417.025 
Q 409.897386 417.025 409.897386 415.425 
L 409.897386 392.74 
Q 409.897386 391.14 408.297386 391.14 
L 332.759886 391.14 
Q 331.159886 391.14 331.159886 392.74 
L 331.159886 415.425 
Q 331.159886 417.025 332.759886 417.025 
z
" style="fill: #181616; opacity: 0.8; stroke: #625e5a; stroke-linejoin: miter"/>
    </g>
    <g id="line2d_18">
     <path d="M 334.359886 397.61875 
L 342.359886 397.61875 
L 350.359886 397.61875 
" style="fill: none; stroke-dasharray: 7.4,3.2; stroke-dashoffset: 0; stroke: #d19a66; stroke-width: 2"/>
    </g>
    <g id="text_33">
     <!-- Mean: 0.367 -->
     <g style="fill: #c5c9c5" transform="translate(356.759886 400.41875) scale(0.08 -0.08)">
      <defs>
       <path id="DejaVuSans-4d" d="M 628 4666 
L 1569 4666 
L 2759 1491 
L 3956 4666 
L 4897 4666 
L 4897 0 
L 4281 0 
L 4281 4097 
L 3078 897 
L 2444 897 
L 1241 4097 
L 1241 0 
L 628 0 
L 628 4666 
z
" transform="scale(0.015625)"/>
      </defs>
      <use xlink:href="#DejaVuSans-4d"/>
      <use xlink:href="#DejaVuSans-65" transform="translate(86.279297 0)"/>
      <use xlink:href="#DejaVuSans-61" transform="translate(147.802734 0)"/>
      <use xlink:href="#DejaVuSans-6e" transform="translate(209.082031 0)"/>
      <use xlink:href="#DejaVuSans-3a" transform="translate(272.460938 0)"/>
      <use xlink:href="#DejaVuSans-20" transform="translate(306.152344 0)"/>
      <use xlink:href="#DejaVuSans-30" transform="translate(337.939453 0)"/>
      <use xlink:href="#DejaVuSans-2e" transform="translate(401.5625 0)"/>
      <use xlink:href="#DejaVuSans-33" transform="translate(433.349609 0)"/>
      <use xlink:href="#DejaVuSans-36" transform="translate(496.972656 0)"/>
      <use xlink:href="#DejaVuSans-37" transform="translate(560.595703 0)"/>
     </g>
    </g>
    <g id="patch_34">
     <path d="M 334.359886 412.16125 
L 350.359886 412.16125 
L 350.359886 406.56125 
L 334.359886 406.56125 
z
" style="fill: #d19a66; opacity: 0.2; stroke: #d19a66; stroke-linejoin: miter"/>
    </g>
    <g id="text_34">
     <!-- ±1σ: 0.196 -->
     <g style="fill: #c5c9c5" transform="translate(356.759886 412.16125) scale(0.08 -0.08)">
      <defs>
       <path id="DejaVuSans-b1" d="M 2944 4013 
L 2944 2803 
L 4684 2803 
L 4684 2272 
L 2944 2272 
L 2944 1063 
L 2419 1063 
L 2419 2272 
L 678 2272 
L 678 2803 
L 2419 2803 
L 2419 4013 
L 2944 4013 
z
M 678 531 
L 4684 531 
L 4684 0 
L 678 0 
L 678 531 
z
" transform="scale(0.015625)"/>
       <path id="DejaVuSans-3c3" d="M 1959 3044 
Q 1484 3044 1228 2700 
Q 959 2341 959 1747 
Q 959 1119 1226 758 
Q 1494 397 1959 397 
Q 2419 397 2687 759 
Q 2956 1122 2956 1747 
Q 2956 2319 2688 2700 
Q 2441 3044 1959 3044 
z
M 1959 3500 
L 3869 3500 
L 3869 2925 
L 3225 2925 
Q 3566 2438 3566 1747 
Q 3566 888 3138 400 
Q 2709 -91 1959 -91 
Q 1206 -91 781 400 
Q 353 888 353 1747 
Q 353 2613 781 3097 
Q 1134 3500 1959 3500 
z
" transform="scale(0.015625)"/>
      </defs>
      <use xlink:href="#DejaVuSans-b1"/>
      <use xlink:href="#DejaVuSans-31" transform="translate(83.789062 0)"/>
      <use xlink:href="#DejaVuSans-3c3" transform="translate(147.412109 0)"/>
      <use xlink:href="#DejaVuSans-3a" transform="translate(210.791016 0)"/>
      <use xlink:href="#DejaVuSans-20" transform="translate(244.482422 0)"/>
      <use xlink:href="#DejaVuSans-30" transform="translate(276.269531 0)"/>
      <use xlink:href="#DejaVuSans-2e" transform="translate(339.892578 0)"/>
      <use xlink:href="#DejaVuSans-31" transform="translate(371.679688 0)"/>
      <use xlink:href="#DejaVuSans-39" transform="translate(435.302734 0)"/>
      <use xlink:href="#DejaVuSans-36" transform="translate(498.925781 0)"/>
     </g>
    </g>
   </g>
  </g>
  <g id="axes_4">
   <g id="table_1">
    <g id="patch_35">
     <path d="M 418.758386 485.759524 
L 658.835786 485.759524 
L 658.835786 464.144286 
L 418.758386 464.144286 
z
" style="fill: #282727; stroke: #625e5a; stroke-linejoin: miter"/>
    </g>
    <g id="text_35">
     <!-- Analysis Date -->
     <g style="fill: #c5c9c5" transform="translate(442.766126 477.672217) scale(0.1 -0.1)">
      <defs>
       <path id="DejaVuSans-Bold-41" d="M 3419 850 
L 1538 850 
L 1241 0 
L 31 0 
L 1759 4666 
L 3194 4666 
L 4922 0 
L 3713 0 
L 3419 850 
z
M 1838 1716 
L 3116 1716 
L 2478 3572 
L 1838 1716 
z
" transform="scale(0.015625)"/>
      </defs>
      <use xlink:href="#DejaVuSans-Bold-41"/>
      <use xlink:href="#DejaVuSans-Bold-6e" transform="translate(77.392578 0)"/>
      <use xlink:href="#DejaVuSans-Bold-61" transform="translate(148.583984 0)"/>
      <use xlink:href="#DejaVuSans-Bold-6c" transform="translate(216.064453 0)"/>
      <use xlink:href="#DejaVuSans-Bold-79" transform="translate(250.341797 0)"/>
      <use xlink:href="#DejaVuSans-Bold-73" transform="translate(315.527344 0)"/>
      <use xlink:href="#DejaVuSans-Bold-69" transform="translate(375.048828 0)"/>
      <use xlink:href="#DejaVuSans-Bold-73" transform="translate(409.326172 0)"/>
      <use xlink:href="#DejaVuSans-Bold-20" transform="translate(468.847656 0)"/>
      <use xlink:href="#DejaVuSans-Bold-44" transform="translate(503.662109 0)"/>
      <use xlink:href="#DejaVuSans-Bold-61" transform="translate(586.669922 0)"/>
      <use xlink:href="#DejaVuSans-Bold-74" transform="translate(654.150391 0)"/>
      <use xlink:href="#DejaVuSans-Bold-65" transform="translate(701.953125 0)"/>
     </g>
    </g>
    <g id="patch_36">
     <path d="M 658.835786 485.759524 
L 855.26275 485.759524 
L 855.26275 464.144286 
L 658.835786 464.144286 
z
" style="fill: #181616; stroke: #625e5a; stroke-linejoin: miter"/>
    </g>
    <g id="text_36">
     <!-- 2026-02-22 -->
     <g style="fill: #c5c9c5" transform="translate(678.478483 477.71128) scale(0.1 -0.1)">
      <use xlink:href="#DejaVuSans-32"/>
      <use xlink:href="#DejaVuSans-30" transform="translate(63.623047 0)"/>
      <use xlink:href="#DejaVuSans-32" transform="translate(127.246094 0)"/>
      <use xlink:href="#DejaVuSans-36" transform="translate(190.869141 0)"/>
      <use xlink:href="#DejaVuSans-2d" transform="translate(254.492188 0)"/>
      <use xlink:href="#DejaVuSans-30" transform="translate(290.576172 0)"/>
      <use xlink:href="#DejaVuSans-32" transform="translate(354.199219 0)"/>
      <use xlink:href="#DejaVuSans-2d" transform="translate(417.822266 0)"/>
      <use xlink:href="#DejaVuSans-32" transform="translate(453.90625 0)"/>
      <use xlink:href="#DejaVuSans-32" transform="translate(517.529297 0)"/>
     </g>
    </g>
    <g id="patch_37">
     <path d="M 418.758386 507.374762 
L 658.835786 507.374762 
L 658.835786 485.759524 
L 418.758386 485.759524 
z
" style="fill: #282727; stroke: #625e5a; stroke-linejoin: miter"/>
    </g>
    <g id="text_37">
     <!-- Assets Analyzed -->
     <g style="fill: #c5c9c5" transform="translate(442.766126 499.287455) scale(0.1 -0.1)">
      <defs>
       <path id="DejaVuSans-Bold-7a" d="M 366 3500 
L 3419 3500 
L 3419 2719 
L 1575 800 
L 3419 800 
L 3419 0 
L 288 0 
L 288 781 
L 2131 2700 
L 366 2700 
L 366 3500 
z
" transform="scale(0.015625)"/>
      </defs>
      <use xlink:href="#DejaVuSans-Bold-41"/>
      <use xlink:href="#DejaVuSans-Bold-73" transform="translate(77.392578 0)"/>
      <use xlink:href="#DejaVuSans-Bold-73" transform="translate(136.914062 0)"/>
      <use xlink:href="#DejaVuSans-Bold-65" transform="translate(196.435547 0)"/>
      <use xlink:href="#DejaVuSans-Bold-74" transform="translate(264.257812 0)"/>
      <use xlink:href="#DejaVuSans-Bold-73" transform="translate(312.060547 0)"/>
      <use xlink:href="#DejaVuSans-Bold-20" transform="translate(371.582031 0)"/>
      <use xlink:href="#DejaVuSans-Bold-41" transform="translate(406.396484 0)"/>
      <use xlink:href="#DejaVuSans-Bold-6e" transform="translate(483.789062 0)"/>
      <use xlink:href="#DejaVuSans-Bold-61" transform="translate(554.980469 0)"/>
      <use xlink:href="#DejaVuSans-Bold-6c" transform="translate(622.460938 0)"/>
      <use xlink:href="#DejaVuSans-Bold-79" transform="translate(656.738281 0)"/>
      <use xlink:href="#DejaVuSans-Bold-7a" transform="translate(721.923828 0)"/>
      <use xlink:href="#DejaVuSans-Bold-65" transform="translate(780.126953 0)"/>
      <use xlink:href="#DejaVuSans-Bold-64" transform="translate(847.949219 0)"/>
     </g>
    </g>
    <g id="patch_38">
     <path d="M 658.835786 507.374762 
L 855.26275 507.374762 
L 855.26275 485.759524 
L 658.835786 485.759524 
z
" style="fill: #181616; stroke: #625e5a; stroke-linejoin: miter"/>
    </g>
    <g id="text_38">
     <!-- 6 -->
     <g style="fill: #c5c9c5" transform="translate(678.478483 499.326518) scale(0.1 -0.1)">
      <use xlink:href="#DejaVuSans-36"/>
     </g>
    </g>
    <g id="patch_39">
     <path d="M 418.758386 528.99 
L 658.835786 528.99 
L 658.835786 507.374762 
L 418.758386 507.374762 
z
" style="fill: #282727; stroke: #625e5a; stroke-linejoin: miter"/>
    </g>
    <g id="text_39">
     <!-- Lookback Days -->
     <g style="fill: #c5c9c5" transform="translate(442.766126 520.902693) scale(0.1 -0.1)">
      <defs>
       <path id="DejaVuSans-Bold-4c" d="M 588 4666 
L 1791 4666 
L 1791 909 
L 3903 909 
L 3903 0 
L 588 0 
L 588 4666 
z
" transform="scale(0.015625)"/>
      </defs>
      <use xlink:href="#DejaVuSans-Bold-4c"/>
      <use xlink:href="#DejaVuSans-Bold-6f" transform="translate(63.720703 0)"/>
      <use xlink:href="#DejaVuSans-Bold-6f" transform="translate(132.421875 0)"/>
      <use xlink:href="#DejaVuSans-Bold-6b" transform="translate(201.123047 0)"/>
      <use xlink:href="#DejaVuSans-Bold-62" transform="translate(267.626953 0)"/>
      <use xlink:href="#DejaVuSans-Bold-61" transform="translate(339.208984 0)"/>
      <use xlink:href="#DejaVuSans-Bold-63" transform="translate(406.689453 0)"/>
      <use xlink:href="#DejaVuSans-Bold-6b" transform="translate(465.966797 0)"/>
      <use xlink:href="#DejaVuSans-Bold-20" transform="translate(532.470703 0)"/>
      <use xlink:href="#DejaVuSans-Bold-44" transform="translate(567.285156 0)"/>
      <use xlink:href="#DejaVuSans-Bold-61" transform="translate(650.292969 0)"/>
      <use xlink:href="#DejaVuSans-Bold-79" transform="translate(714.648438 0)"/>
      <use xlink:href="#DejaVuSans-Bold-73" transform="translate(779.833984 0)"/>
     </g>
    </g>
    <g id="patch_40">
     <path d="M 658.835786 528.99 
L 855.26275 528.99 
L 855.26275 507.374762 
L 658.835786 507.374762 
z
" style="fill: #181616; stroke: #625e5a; stroke-linejoin: miter"/>
    </g>
    <g id="text_40">
     <!-- N/A -->
     <g style="fill: #c5c9c5" transform="translate(678.478483 520.941756) scale(0.1 -0.1)">
      <defs>
       <path id="DejaVuSans-2f" d="M 1625 4666 
L 2156 4666 
L 531 -594 
L 0 -594 
L 1625 4666 
z
" transform="scale(0.015625)"/>
       <path id="DejaVuSans-41" d="M 2188 4044 
L 1331 1722 
L 3047 1722 
L 2188 4044 
z
M 1831 4666 
L 2547 4666 
L 4325 0 
L 3669 0 
L 3244 1197 
L 1141 1197 
L 716 0 
L 50 0 
L 1831 4666 
z
" transform="scale(0.015625)"/>
      </defs>
      <use xlink:href="#DejaVuSans-4e"/>
      <use xlink:href="#DejaVuSans-2f" transform="translate(74.804688 0)"/>
      <use xlink:href="#DejaVuSans-41" transform="translate(108.496094 0)"/>
     </g>
    </g>
    <g id="patch_41">
     <path d="M 418.758386 550.605238 
L 658.835786 550.605238 
L 658.835786 528.99 
L 418.758386 528.99 
z
" style="fill: #282727; stroke: #625e5a; stroke-linejoin: miter"/>
    </g>
    <g id="text_41">
     <!-- PC1 Variance -->
     <g style="fill: #c5c9c5" transform="translate(442.766126 542.556994) scale(0.1 -0.1)">
      <defs>
       <path id="DejaVuSans-Bold-50" d="M 588 4666 
L 2584 4666 
Q 3475 4666 3951 4270 
Q 4428 3875 4428 3144 
Q 4428 2409 3951 2014 
Q 3475 1619 2584 1619 
L 1791 1619 
L 1791 0 
L 588 0 
L 588 4666 
z
M 1791 3794 
L 1791 2491 
L 2456 2491 
Q 2806 2491 2997 2661 
Q 3188 2831 3188 3144 
Q 3188 3456 2997 3625 
Q 2806 3794 2456 3794 
L 1791 3794 
z
" transform="scale(0.015625)"/>
       <path id="DejaVuSans-Bold-31" d="M 750 831 
L 1813 831 
L 1813 3847 
L 722 3622 
L 722 4441 
L 1806 4666 
L 2950 4666 
L 2950 831 
L 4013 831 
L 4013 0 
L 750 0 
L 750 831 
z
" transform="scale(0.015625)"/>
       <path id="DejaVuSans-Bold-56" d="M 31 4666 
L 1241 4666 
L 2478 1222 
L 3713 4666 
L 4922 4666 
L 3194 0 
L 1759 0 
L 31 4666 
z
" transform="scale(0.015625)"/>
      </defs>
      <use xlink:href="#DejaVuSans-Bold-50"/>
      <use xlink:href="#DejaVuSans-Bold-43" transform="translate(73.291016 0)"/>
      <use xlink:href="#DejaVuSans-Bold-31" transform="translate(146.679688 0)"/>
      <use xlink:href="#DejaVuSans-Bold-20" transform="translate(216.259766 0)"/>
      <use xlink:href="#DejaVuSans-Bold-56" transform="translate(251.074219 0)"/>
      <use xlink:href="#DejaVuSans-Bold-61" transform="translate(322.966797 0)"/>
      <use xlink:href="#DejaVuSans-Bold-72" transform="translate(390.447266 0)"/>
      <use xlink:href="#DejaVuSans-Bold-69" transform="translate(439.763672 0)"/>
      <use xlink:href="#DejaVuSans-Bold-61" transform="translate(474.041016 0)"/>
      <use xlink:href="#DejaVuSans-Bold-6e" transform="translate(541.521484 0)"/>
      <use xlink:href="#DejaVuSans-Bold-63" transform="translate(612.712891 0)"/>
      <use xlink:href="#DejaVuSans-Bold-65" transform="translate(671.990234 0)"/>
     </g>
    </g>
    <g id="patch_42">
     <path d="M 658.835786 550.605238 
L 855.26275 550.605238 
L 855.26275 528.99 
L 658.835786 528.99 
z
" style="fill: #181616; stroke: #625e5a; stroke-linejoin: miter"/>
    </g>
    <g id="text_42">
     <!-- 80.7% -->
     <g style="fill: #c5c9c5" transform="translate(678.478483 542.556994) scale(0.1 -0.1)">
      <use xlink:href="#DejaVuSans-38"/>
      <use xlink:href="#DejaVuSans-30" transform="translate(63.623047 0)"/>
      <use xlink:href="#DejaVuSans-2e" transform="translate(127.246094 0)"/>
      <use xlink:href="#DejaVuSans-37" transform="translate(159.033203 0)"/>
      <use xlink:href="#DejaVuSans-25" transform="translate(222.65625 0)"/>
     </g>
    </g>
    <g id="patch_43">
     <path d="M 418.758386 572.220476 
L 658.835786 572.220476 
L 658.835786 550.605238 
L 418.758386 550.605238 
z
" style="fill: #282727; stroke: #625e5a; stroke-linejoin: miter"/>
    </g>
    <g id="text_43">
     <!-- Mean Centrality -->
     <g style="fill: #c5c9c5" transform="translate(442.766126 564.13317) scale(0.1 -0.1)">
      <defs>
       <path id="DejaVuSans-Bold-4d" d="M 588 4666 
L 2119 4666 
L 3181 2169 
L 4250 4666 
L 5778 4666 
L 5778 0 
L 4641 0 
L 4641 3413 
L 3566 897 
L 2803 897 
L 1728 3413 
L 1728 0 
L 588 0 
L 588 4666 
z
" transform="scale(0.015625)"/>
      </defs>
      <use xlink:href="#DejaVuSans-Bold-4d"/>
      <use xlink:href="#DejaVuSans-Bold-65" transform="translate(99.511719 0)"/>
      <use xlink:href="#DejaVuSans-Bold-61" transform="translate(167.333984 0)"/>
      <use xlink:href="#DejaVuSans-Bold-6e" transform="translate(234.814453 0)"/>
      <use xlink:href="#DejaVuSans-Bold-20" transform="translate(306.005859 0)"/>
      <use xlink:href="#DejaVuSans-Bold-43" transform="translate(340.820312 0)"/>
      <use xlink:href="#DejaVuSans-Bold-65" transform="translate(414.208984 0)"/>
      <use xlink:href="#DejaVuSans-Bold-6e" transform="translate(482.03125 0)"/>
      <use xlink:href="#DejaVuSans-Bold-74" transform="translate(553.222656 0)"/>
      <use xlink:href="#DejaVuSans-Bold-72" transform="translate(601.025391 0)"/>
      <use xlink:href="#DejaVuSans-Bold-61" transform="translate(650.341797 0)"/>
      <use xlink:href="#DejaVuSans-Bold-6c" transform="translate(717.822266 0)"/>
      <use xlink:href="#DejaVuSans-Bold-69" transform="translate(752.099609 0)"/>
      <use xlink:href="#DejaVuSans-Bold-74" transform="translate(786.376953 0)"/>
      <use xlink:href="#DejaVuSans-Bold-79" transform="translate(834.179688 0)"/>
     </g>
    </g>
    <g id="patch_44">
     <path d="M 658.835786 572.220476 
L 855.26275 572.220476 
L 855.26275 550.605238 
L 658.835786 550.605238 
z
" style="fill: #181616; stroke: #625e5a; stroke-linejoin: miter"/>
    </g>
    <g id="text_44">
     <!-- 0.3672 -->
     <g style="fill: #c5c9c5" transform="translate(678.478483 564.172232) scale(0.1 -0.1)">
      <use xlink:href="#DejaVuSans-30"/>
      <use xlink:href="#DejaVuSans-2e" transform="translate(63.623047 0)"/>
      <use xlink:href="#DejaVuSans-33" transform="translate(95.410156 0)"/>
      <use xlink:href="#DejaVuSans-36" transform="translate(159.033203 0)"/>
      <use xlink:href="#DejaVuSans-37" transform="translate(222.65625 0)"/>
      <use xlink:href="#DejaVuSans-32" transform="translate(286.279297 0)"/>
     </g>
    </g>
    <g id="patch_45">
     <path d="M 418.758386 593.835714 
L 658.835786 593.835714 
L 658.835786 572.220476 
L 418.758386 572.220476 
z
" style="fill: #282727; stroke: #625e5a; stroke-linejoin: miter"/>
    </g>
    <g id="text_45">
     <!-- Std Centrality -->
     <g style="fill: #c5c9c5" transform="translate(442.766126 585.748408) scale(0.1 -0.1)">
      <use xlink:href="#DejaVuSans-Bold-53"/>
      <use xlink:href="#DejaVuSans-Bold-74" transform="translate(72.021484 0)"/>
      <use xlink:href="#DejaVuSans-Bold-64" transform="translate(119.824219 0)"/>
      <use xlink:href="#DejaVuSans-Bold-20" transform="translate(191.40625 0)"/>
      <use xlink:href="#DejaVuSans-Bold-43" transform="translate(226.220703 0)"/>
      <use xlink:href="#DejaVuSans-Bold-65" transform="translate(299.609375 0)"/>
      <use xlink:href="#DejaVuSans-Bold-6e" transform="translate(367.431641 0)"/>
      <use xlink:href="#DejaVuSans-Bold-74" transform="translate(438.623047 0)"/>
      <use xlink:href="#DejaVuSans-Bold-72" transform="translate(486.425781 0)"/>
      <use xlink:href="#DejaVuSans-Bold-61" transform="translate(535.742188 0)"/>
      <use xlink:href="#DejaVuSans-Bold-6c" transform="translate(603.222656 0)"/>
      <use xlink:href="#DejaVuSans-Bold-69" transform="translate(637.5 0)"/>
      <use xlink:href="#DejaVuSans-Bold-74" transform="translate(671.777344 0)"/>
      <use xlink:href="#DejaVuSans-Bold-79" transform="translate(719.580078 0)"/>
     </g>
    </g>
    <g id="patch_46">
     <path d="M 658.835786 593.835714 
L 855.26275 593.835714 
L 855.26275 572.220476 
L 658.835786 572.220476 
z
" style="fill: #181616; stroke: #625e5a; stroke-linejoin: miter"/>
    </g>
    <g id="text_46">
     <!-- 0.1955 -->
     <g style="fill: #c5c9c5" transform="translate(678.478483 585.78747) scale(0.1 -0.1)">
      <use xlink:href="#DejaVuSans-30"/>
      <use xlink:href="#DejaVuSans-2e" transform="translate(63.623047 0)"/>
      <use xlink:href="#DejaVuSans-31" transform="translate(95.410156 0)"/>
      <use xlink:href="#DejaVuSans-39" transform="translate(159.033203 0)"/>
      <use xlink:href="#DejaVuSans-35" transform="translate(222.65625 0)"/>
      <use xlink:href="#DejaVuSans-35" transform="translate(286.279297 0)"/>
     </g>
    </g>
   </g>
   <g id="text_47">
    <!-- Risk Signal Summary -->
    <g style="fill: #c5c9c5" transform="translate(571.486662 381.14) scale(0.11 -0.11)">
     <use xlink:href="#DejaVuSans-Bold-52"/>
     <use xlink:href="#DejaVuSans-Bold-69" transform="translate(77.001953 0)"/>
     <use xlink:href="#DejaVuSans-Bold-73" transform="translate(111.279297 0)"/>
     <use xlink:href="#DejaVuSans-Bold-6b" transform="translate(170.800781 0)"/>
     <use xlink:href="#DejaVuSans-Bold-20" transform="translate(237.304688 0)"/>
     <use xlink:href="#DejaVuSans-Bold-53" transform="translate(272.119141 0)"/>
     <use xlink:href="#DejaVuSans-Bold-69" transform="translate(344.140625 0)"/>
     <use xlink:href="#DejaVuSans-Bold-67" transform="translate(378.417969 0)"/>
     <use xlink:href="#DejaVuSans-Bold-6e" transform="translate(450 0)"/>
     <use xlink:href="#DejaVuSans-Bold-61" transform="translate(521.191406 0)"/>
     <use xlink:href="#DejaVuSans-Bold-6c" transform="translate(588.671875 0)"/>
     <use xlink:href="#DejaVuSans-Bold-20" transform="translate(622.949219 0)"/>
     <use xlink:href="#DejaVuSans-Bold-53" transform="translate(657.763672 0)"/>
     <use xlink:href="#DejaVuSans-Bold-75" transform="translate(729.785156 0)"/>
     <use xlink:href="#DejaVuSans-Bold-6d" transform="translate(800.976562 0)"/>
     <use xlink:href="#DejaVuSans-Bold-6d" transform="translate(905.175781 0)"/>
     <use xlink:href="#DejaVuSans-Bold-61" transform="translate(1009.375 0)"/>
     <use xlink:href="#DejaVuSans-Bold-72" transform="translate(1076.855469 0)"/>
     <use xlink:href="#DejaVuSans-Bold-79" transform="translate(1126.171875 0)"/>
    </g>
   </g>
  </g>
  <g id="text_48">
   <!-- Systematic Risk Early-Warning Signals -->
   <g style="fill: #c5c9c5" transform="translate(276.17125 17.837812) scale(0.14 -0.14)">
    <defs>
     <path id="DejaVuSans-Bold-2d" d="M 347 2297 
L 2309 2297 
L 2309 1388 
L 347 1388 
L 347 2297 
z
" transform="scale(0.015625)"/>
     <path id="DejaVuSans-Bold-57" d="M 191 4666 
L 1344 4666 
L 2150 1275 
L 2950 4666 
L 4109 4666 
L 4909 1275 
L 5716 4666 
L 6859 4666 
L 5759 0 
L 4372 0 
L 3525 3547 
L 2688 0 
L 1300 0 
L 191 4666 
z
" transform="scale(0.015625)"/>
    </defs>
    <use xlink:href="#DejaVuSans-Bold-53"/>
    <use xlink:href="#DejaVuSans-Bold-79" transform="translate(72.021484 0)"/>
    <use xlink:href="#DejaVuSans-Bold-73" transform="translate(137.207031 0)"/>
    <use xlink:href="#DejaVuSans-Bold-74" transform="translate(196.728516 0)"/>
    <use xlink:href="#DejaVuSans-Bold-65" transform="translate(244.53125 0)"/>
    <use xlink:href="#DejaVuSans-Bold-6d" transform="translate(312.353516 0)"/>
    <use xlink:href="#DejaVuSans-Bold-61" transform="translate(416.552734 0)"/>
    <use xlink:href="#DejaVuSans-Bold-74" transform="translate(484.033203 0)"/>
    <use xlink:href="#DejaVuSans-Bold-69" transform="translate(531.835938 0)"/>
    <use xlink:href="#DejaVuSans-Bold-63" transform="translate(566.113281 0)"/>
    <use xlink:href="#DejaVuSans-Bold-20" transform="translate(625.390625 0)"/>
    <use xlink:href="#DejaVuSans-Bold-52" transform="translate(660.205078 0)"/>
    <use xlink:href="#DejaVuSans-Bold-69" transform="translate(737.207031 0)"/>
    <use xlink:href="#DejaVuSans-Bold-73" transform="translate(771.484375 0)"/>
    <use xlink:href="#DejaVuSans-Bold-6b" transform="translate(831.005859 0)"/>
    <use xlink:href="#DejaVuSans-Bold-20" transform="translate(897.509766 0)"/>
    <use xlink:href="#DejaVuSans-Bold-45" transform="translate(932.324219 0)"/>
    <use xlink:href="#DejaVuSans-Bold-61" transform="translate(1000.634766 0)"/>
    <use xlink:href="#DejaVuSans-Bold-72" transform="translate(1068.115234 0)"/>
    <use xlink:href="#DejaVuSans-Bold-6c" transform="translate(1117.431641 0)"/>
    <use xlink:href="#DejaVuSans-Bold-79" transform="translate(1151.708984 0)"/>
    <use xlink:href="#DejaVuSans-Bold-2d" transform="translate(1216.894531 0)"/>
    <use xlink:href="#DejaVuSans-Bold-57" transform="translate(1253.898438 0)"/>
    <use xlink:href="#DejaVuSans-Bold-61" transform="translate(1360.576172 0)"/>
    <use xlink:href="#DejaVuSans-Bold-72" transform="translate(1428.056641 0)"/>
    <use xlink:href="#DejaVuSans-Bold-6e" transform="translate(1477.373047 0)"/>
    <use xlink:href="#DejaVuSans-Bold-69" transform="translate(1548.564453 0)"/>
    <use xlink:href="#DejaVuSans-Bold-6e" transform="translate(1582.841797 0)"/>
    <use xlink:href="#DejaVuSans-Bold-67" transform="translate(1654.033203 0)"/>
    <use xlink:href="#DejaVuSans-Bold-20" transform="translate(1725.615234 0)"/>
    <use xlink:href="#DejaVuSans-Bold-53" transform="translate(1760.429688 0)"/>
    <use xlink:href="#DejaVuSans-Bold-69" transform="translate(1832.451172 0)"/>
    <use xlink:href="#DejaVuSans-Bold-67" transform="translate(1866.728516 0)"/>
    <use xlink:href="#DejaVuSans-Bold-6e" transform="translate(1938.310547 0)"/>
    <use xlink:href="#DejaVuSans-Bold-61" transform="translate(2009.501953 0)"/>
    <use xlink:href="#DejaVuSans-Bold-6c" transform="translate(2076.982422 0)"/>
    <use xlink:href="#DejaVuSans-Bold-73" transform="translate(2111.259766 0)"/>
   </g>
  </g>
 </g>
 <defs>
  <clipPath id="p9bc8cde754">
   <rect x="50.14375" y="42.72" width="363.753636" height="283.7"/>
  </clipPath>
  <clipPath id="p926e1a33df">
   <rect x="50.14375" y="387.14" width="363.753636" height="283.7"/>
  </clipPath>
 </defs>
</svg>
